<svg width="1164" height="250" viewBox="0 0 1164 250" fill="none" xmlns="http://www.w3.org/2000/svg">
<g clip-path="url(#clip0)">
<line x1="947.259" y1="23.428" x2="181.796" y2="485.895" stroke="url(#paint0_linear)"/>
<line x1="487.259" y1="-6.57204" x2="-4.31086" y2="290.418" stroke="url(#paint1_linear)"/>
<line x1="467.259" y1="133.428" x2="-24.3109" y2="430.418" stroke="url(#paint2_linear)"/>
<line x1="859.759" y1="389.438" x2="242.789" y2="50.1047" stroke="#DEDFF4" stroke-dasharray="7 7"/>
<line x1="1286.76" y1="352.438" x2="669.789" y2="13.1047" stroke="url(#paint3_linear)" stroke-dasharray="7 7"/>
<line x1="1146.76" y1="372.438" x2="740.081" y2="148.765" stroke="#DEDFF4"/>
<line x1="907.259" y1="163.428" x2="141.796" y2="625.895" stroke="url(#paint4_linear)" stroke-dasharray="7 7"/>
<path d="M733.395 321.776C733.22 321.877 733.02 321.952 732.807 322.003L733.041 322.33C732.447 322.472 731.775 322.472 731.181 322.33L731.415 322.003C731.202 321.952 731.001 321.877 730.826 321.776L727.896 320.084L727.463 320.334L721.601 316.95L722.034 316.7L716.173 313.316L715.74 313.566L709.878 310.182L710.311 309.932L704.45 306.548L704.017 306.798L698.155 303.415L698.588 303.165L692.727 299.781L692.294 300.031L686.432 296.647L686.865 296.397L681.004 293.013L680.571 293.263L674.709 289.879L675.142 289.629L669.281 286.245L668.848 286.495L662.986 283.112L663.419 282.862L657.558 279.478L657.125 279.728L651.263 276.344L651.696 276.094L645.835 272.71L645.402 272.96L639.54 269.576L639.973 269.326L634.112 265.942L633.679 266.192L627.817 262.809L628.25 262.559L622.389 259.175L621.956 259.425L616.094 256.041L616.527 255.791L610.666 252.407L610.233 252.657L604.371 249.273L604.804 249.023L598.943 245.639L598.51 245.889L592.648 242.506L593.081 242.256L590.151 240.564C589.976 240.463 589.845 240.347 589.756 240.224L589.19 240.359C588.945 240.016 588.945 239.628 589.19 239.285L589.756 239.42C589.845 239.297 589.976 239.181 590.151 239.08L593.428 237.188L592.995 236.939L599.549 233.155L599.982 233.405L606.537 229.621L606.104 229.371L612.658 225.587L613.091 225.837L619.646 222.053L619.213 221.803L625.767 218.019L626.2 218.269L632.755 214.485L632.322 214.235L638.877 210.451L639.31 210.701L645.864 206.917L645.431 206.667L651.986 202.883L652.419 203.133L655.696 201.241C655.871 201.14 656.071 201.065 656.285 201.014L656.051 200.687C656.645 200.545 657.316 200.545 657.91 200.687L657.676 201.014C657.89 201.065 658.09 201.14 658.265 201.241L661.196 202.933L661.629 202.683L667.49 206.067L667.057 206.317L672.919 209.701L673.352 209.451L679.213 212.835L678.78 213.085L684.642 216.468L685.075 216.218L690.936 219.602L690.503 219.852L696.365 223.236L696.798 222.986L702.659 226.37L702.226 226.62L708.088 230.004L708.521 229.754L714.382 233.138L713.949 233.388L719.811 236.771L720.244 236.521L726.105 239.905L725.672 240.155L731.534 243.539L731.967 243.289L737.828 246.673L737.395 246.923L743.257 250.307L743.69 250.057L749.551 253.441L749.118 253.691L754.98 257.074L755.413 256.825L761.274 260.208L760.841 260.458L766.702 263.842L767.136 263.592L772.997 266.976L772.564 267.226L778.425 270.61L778.858 270.36L784.72 273.744L784.287 273.994L790.148 277.377L790.581 277.128L796.443 280.511L796.01 280.761L798.941 282.453C799.116 282.554 799.247 282.67 799.335 282.793L799.901 282.658C800.147 283.001 800.147 283.389 799.901 283.732L799.335 283.596C799.247 283.72 799.116 283.835 798.941 283.936L795.663 285.828L796.096 286.078L789.542 289.862L789.109 289.612L782.554 293.396L782.987 293.646L776.433 297.43L776 297.18L769.445 300.964L769.878 301.214L763.324 304.998L762.891 304.748L756.336 308.532L756.769 308.782L750.215 312.566L749.782 312.316L743.227 316.1L743.66 316.35L737.106 320.134L736.673 319.884L733.395 321.776Z" fill="#4548B0" fill-opacity="0.1" stroke="#5D64D2" stroke-dasharray="7 7"/>
<path d="M188.703 300.651C188.53 300.755 188.331 300.834 188.118 300.889L188.358 301.211C187.767 301.363 187.095 301.375 186.499 301.244L186.727 300.913C186.513 300.866 186.311 300.794 186.134 300.696L183.17 299.053L182.741 299.31L176.811 296.024L177.24 295.766L171.31 292.48L170.882 292.737L164.952 289.451L165.38 289.194L159.451 285.907L159.022 286.165L153.092 282.878L153.521 282.621L147.591 279.335L147.163 279.592L141.233 276.306L141.661 276.048L135.732 272.762L135.303 273.019L129.373 269.733L129.802 269.476L123.872 266.189L123.444 266.447L117.514 263.16L117.942 262.903L112.013 259.617L111.584 259.874L105.654 256.588L106.083 256.33L100.153 253.044L99.7246 253.302L93.7949 250.015L94.2235 249.758L88.2937 246.471L87.8652 246.729L81.9354 243.443L82.364 243.185L79.3991 241.542C79.2224 241.444 79.0894 241.33 78.9989 241.209L78.4355 241.354C78.1838 241.015 78.177 240.628 78.4167 240.28L78.9849 240.406C79.071 240.281 79.2 240.163 79.3732 240.059L82.3521 238.269L81.9148 238.027L87.8726 234.447L88.3099 234.689L94.2677 231.109L93.8304 230.867L99.7882 227.287L100.226 227.53L106.183 223.95L105.746 223.707L111.704 220.127L112.141 220.37L118.099 216.79L117.662 216.548L123.62 212.968L124.057 213.21L130.015 209.63L129.577 209.388L135.535 205.808L135.973 206.051L141.93 202.471L141.493 202.228L147.451 198.649L147.888 198.891L153.846 195.311L153.409 195.069L159.366 191.489L159.804 191.731L165.762 188.151L165.324 187.909L171.282 184.329L171.719 184.572L177.677 180.992L177.24 180.749L183.198 177.17L183.635 177.412L189.593 173.832L189.156 173.59L195.113 170.01L195.551 170.252L201.509 166.673L201.071 166.43L207.029 162.85L207.466 163.093L210.445 161.303C210.619 161.199 210.818 161.12 211.03 161.065L210.79 160.742C211.382 160.59 212.053 160.578 212.65 160.71L212.421 161.041C212.636 161.088 212.837 161.16 213.014 161.258L215.979 162.901L216.408 162.643L222.337 165.93L221.909 166.187L227.838 169.474L228.267 169.216L234.197 172.502L233.768 172.76L239.698 176.046L240.127 175.789L246.056 179.075L245.628 179.333L251.557 182.619L251.986 182.361L257.916 185.648L257.487 185.905L263.417 189.192L263.846 188.934L269.775 192.22L269.347 192.478L275.276 195.764L275.705 195.507L281.635 198.793L281.206 199.051L287.136 202.337L287.564 202.079L293.494 205.366L293.066 205.623L298.995 208.91L299.424 208.652L305.354 211.938L304.925 212.196L310.855 215.482L311.283 215.225L317.213 218.511L316.785 218.769L319.749 220.412C319.926 220.51 320.059 220.623 320.15 220.745L320.713 220.6C320.965 220.938 320.972 221.326 320.732 221.673L320.164 221.548C320.078 221.673 319.949 221.791 319.775 221.895L316.797 223.685L317.234 223.927L311.276 227.507L310.839 227.264L304.881 230.844L305.318 231.087L299.36 234.666L298.923 234.424L292.965 238.004L293.403 238.246L287.445 241.826L287.007 241.584L281.05 245.164L281.487 245.406L275.529 248.986L275.092 248.743L269.134 252.323L269.571 252.566L263.613 256.145L263.176 255.903L257.218 259.483L257.656 259.725L251.698 263.305L251.26 263.063L245.303 266.642L245.74 266.885L239.782 270.465L239.345 270.222L233.387 273.802L233.824 274.044L227.866 277.624L227.429 277.382L221.471 280.962L221.909 281.204L215.951 284.784L215.513 284.542L209.556 288.121L209.993 288.364L204.035 291.944L203.598 291.701L197.64 295.281L198.077 295.523L192.12 299.103L191.682 298.861L188.703 300.651Z" fill="#4548B0" fill-opacity="0.1" stroke="#5D64D2" stroke-dasharray="7 7"/>
</g>
<defs>
<linearGradient id="paint0_linear" x1="813" y1="103" x2="931.002" y2="35.0041" gradientUnits="userSpaceOnUse">
<stop stop-color="#DEDFF4"/>
<stop offset="1" stop-color="#DEDFF4" stop-opacity="0"/>
</linearGradient>
<linearGradient id="paint1_linear" x1="360.54" y1="73.7776" x2="477.631" y2="2.19553" gradientUnits="userSpaceOnUse">
<stop stop-color="#DEDFF4"/>
<stop offset="1" stop-color="#DEDFF4" stop-opacity="0"/>
</linearGradient>
<linearGradient id="paint2_linear" x1="340.54" y1="213.778" x2="457.631" y2="142.196" gradientUnits="userSpaceOnUse">
<stop stop-color="#DEDFF4"/>
<stop offset="1" stop-color="#DEDFF4" stop-opacity="0"/>
</linearGradient>
<linearGradient id="paint3_linear" x1="641.001" y1="-7.00097" x2="747.001" y2="52.9982" gradientUnits="userSpaceOnUse">
<stop stop-color="#DEDFF4" stop-opacity="0"/>
<stop offset="0.44993" stop-color="#DEDFF4"/>
</linearGradient>
<linearGradient id="paint4_linear" x1="709" y1="287" x2="891.002" y2="175.004" gradientUnits="userSpaceOnUse">
<stop stop-color="#DEDFF4"/>
<stop offset="1" stop-color="#DEDFF4" stop-opacity="0"/>
</linearGradient>
<clipPath id="clip0">
<rect width="1164" height="250" fill="white"/>
</clipPath>
</defs>
</svg>
