<svg width="567" height="292" viewBox="0 0 567 292" fill="none" xmlns="http://www.w3.org/2000/svg">
<rect opacity="0.05" width="275.765" height="278.095" rx="1.44" transform="matrix(0.866074 -0.499916 0.866074 0.499916 0 152.859)" fill="#8686B3"/>
<rect width="107.996" height="105.428" rx="1.44" transform="matrix(0.866074 -0.499916 0.866074 0.499916 146.328 90.0084)" fill="#35B6FF" fill-opacity="0.15"/>
<rect width="107.996" height="105.428" rx="1.44" transform="matrix(0.866074 -0.499916 0.866074 0.499916 39.2935 153.502)" fill="#FF00A8" fill-opacity="0.15"/>
<rect width="107.996" height="105.428" rx="1.44" transform="matrix(0.866074 -0.499916 0.866074 0.499916 144.066 215.302)" fill="#FF9900" fill-opacity="0.15"/>
<rect width="107.996" height="105.428" rx="1.44" transform="matrix(0.866074 -0.499916 0.866074 0.499916 250.347 152.748)" fill="#0066FF" fill-opacity="0.15"/>
<g clip-path="url(#clip0)">
<path d="M142.665 137.027H143.285L145.05 135.272L145.136 134.527C141.851 131.644 136.837 131.955 133.937 135.221C133.131 136.127 132.547 137.207 132.227 138.375C132.424 138.295 132.642 138.282 132.847 138.339L136.377 137.76C136.377 137.76 136.556 137.464 136.65 137.482C138.221 135.767 140.864 135.568 142.678 137.027H142.665Z" fill="#EA4335"/>
<path d="M147.565 138.375C147.159 136.89 146.326 135.554 145.168 134.534L142.691 136.996C143.737 137.846 144.333 139.127 144.307 140.469V140.907C145.525 140.907 146.513 141.888 146.513 143.099C146.513 144.309 145.525 145.291 144.307 145.291H139.897L139.457 145.734V148.364L139.897 148.801H144.307C147.475 148.826 150.063 146.293 150.087 143.145C150.102 141.233 149.155 139.444 147.565 138.375Z" fill="#4285F4"/>
<path d="M135.48 148.773H139.891V145.264H135.48C135.165 145.264 134.856 145.196 134.569 145.067L133.95 145.258L132.172 147.013L132.018 147.628C133.014 148.377 134.23 148.779 135.48 148.773Z" fill="#34A853"/>
<path d="M135.48 137.39C132.312 137.408 129.76 139.976 129.778 143.125C129.789 144.884 130.615 146.539 132.018 147.61L134.575 145.068C133.466 144.57 132.972 143.271 133.473 142.168C133.974 141.065 135.281 140.575 136.391 141.073C136.88 141.292 137.271 141.682 137.493 142.168L140.05 139.626C138.963 138.21 137.271 137.383 135.48 137.39Z" fill="#FBBC05"/>
<path d="M103.783 165.268C102.248 165.287 100.773 164.685 99.6956 163.599C98.5826 162.56 97.9608 161.103 97.9803 159.585C97.962 158.066 98.5838 156.611 99.6956 155.57C100.768 154.474 102.245 153.859 103.783 153.871C105.249 153.852 106.662 154.418 107.704 155.442L106.602 156.557C105.847 155.831 104.833 155.433 103.783 155.448C102.682 155.435 101.625 155.882 100.872 156.679C100.089 157.451 99.6578 158.508 99.6761 159.603C99.6664 160.686 100.098 161.727 100.872 162.491C102.467 164.071 105.038 164.101 106.67 162.558C107.157 162.03 107.454 161.356 107.519 160.644H103.802V159.069H109.061C109.112 159.386 109.133 159.707 109.123 160.029C109.189 161.373 108.699 162.686 107.766 163.662C106.729 164.735 105.28 165.319 103.783 165.268ZM116.011 164.221C114.544 165.618 112.23 165.618 110.764 164.221C110.053 163.536 109.665 162.588 109.692 161.605C109.665 160.622 110.054 159.673 110.764 158.989C112.232 157.595 114.543 157.595 116.011 158.989C116.72 159.673 117.109 160.622 117.082 161.605C117.108 162.589 116.717 163.538 116.005 164.221H116.011ZM111.922 163.193C112.679 163.998 113.949 164.039 114.759 163.286C114.791 163.255 114.822 163.225 114.852 163.193C115.265 162.768 115.488 162.196 115.471 161.605C115.489 161.012 115.266 160.437 114.852 160.01C114.073 159.203 112.783 159.175 111.97 159.95C111.949 159.969 111.928 159.99 111.909 160.01C111.494 160.437 111.271 161.012 111.289 161.605C111.273 162.196 111.499 162.769 111.915 163.193H111.922ZM124.075 164.221C122.609 165.618 120.295 165.618 118.828 164.221C118.118 163.536 117.73 162.588 117.757 161.605C117.73 160.622 118.119 159.673 118.828 158.989C120.295 157.591 122.609 157.591 124.075 158.989C124.785 159.673 125.174 160.622 125.147 161.605C125.175 162.588 124.786 163.536 124.075 164.221ZM119.988 163.193C120.745 163.998 122.015 164.039 122.824 163.286C122.856 163.255 122.888 163.225 122.917 163.193C123.33 162.768 123.553 162.196 123.536 161.605C123.555 161.012 123.332 160.437 122.917 160.01C122.138 159.203 120.848 159.175 120.036 159.95C120.016 159.969 119.995 159.99 119.975 160.01C119.561 160.437 119.338 161.012 119.356 161.605C119.34 162.196 119.566 162.769 119.982 163.193H119.988ZM129.377 168.555C128.635 168.578 127.907 168.348 127.314 167.902C126.789 167.51 126.375 166.987 126.112 166.388L127.524 165.802C127.678 166.161 127.918 166.476 128.224 166.72C128.551 166.981 128.961 167.12 129.382 167.107C129.921 167.14 130.448 166.938 130.825 166.554C131.198 166.106 131.383 165.532 131.34 164.953V164.423H131.284C130.805 164.988 130.087 165.296 129.345 165.255C128.406 165.257 127.507 164.869 126.868 164.183C126.176 163.504 125.793 162.572 125.809 161.604C125.792 160.631 126.175 159.693 126.868 159.006C127.506 158.317 128.404 157.926 129.345 157.928C129.739 157.927 130.129 158.014 130.485 158.18C130.794 158.314 131.068 158.514 131.291 158.766H131.347V158.18H132.883V164.737C132.965 165.785 132.609 166.821 131.898 167.601C131.222 168.244 130.313 168.588 129.377 168.555ZM129.489 163.827C130.025 163.839 130.538 163.613 130.889 163.212C131.27 162.777 131.473 162.213 131.452 161.635C131.475 161.047 131.274 160.474 130.889 160.028C130.538 159.626 130.025 159.401 129.489 159.413C128.94 159.402 128.412 159.626 128.04 160.028C127.63 160.458 127.407 161.032 127.42 161.623C127.408 162.209 127.63 162.777 128.04 163.199C128.409 163.605 128.937 163.834 129.489 163.827ZM135.615 154.285V165.046H133.999V154.285H135.615ZM140.05 165.268C139.071 165.293 138.127 164.912 137.443 164.215C136.749 163.524 136.37 162.58 136.396 161.605C136.359 160.627 136.723 159.676 137.405 158.969C138.049 158.295 138.948 157.922 139.882 157.94C140.308 157.936 140.728 158.018 141.121 158.18C141.474 158.322 141.796 158.532 142.068 158.796C142.302 159.02 142.509 159.27 142.687 159.541C142.831 159.77 142.953 160.011 143.053 160.261L143.22 160.68L138.266 162.706C138.573 163.407 139.281 163.848 140.049 163.815C140.792 163.817 141.48 163.431 141.864 162.8L143.103 163.631C142.787 164.08 142.383 164.462 141.913 164.752C141.357 165.101 140.709 165.28 140.05 165.268ZM137.982 161.493L141.277 160.132C141.176 159.893 140.994 159.695 140.762 159.573C140.504 159.427 140.211 159.353 139.914 159.357C139.41 159.37 138.931 159.58 138.583 159.942C138.16 160.345 137.939 160.913 137.982 161.493Z" fill="#A8A8C1"/>
<path d="M151.689 165.268C148.871 165.316 146.547 163.084 146.498 160.283C146.497 160.215 146.497 160.146 146.5 160.078C146.434 157.276 148.666 154.954 151.483 154.888C151.551 154.887 151.621 154.887 151.689 154.887C153.099 154.843 154.452 155.442 155.362 156.512L154.47 157.373C153.801 156.536 152.769 156.067 151.695 156.111C150.665 156.088 149.669 156.484 148.939 157.206C148.179 157.966 147.773 159.006 147.817 160.076C147.772 161.146 148.179 162.185 148.939 162.945C149.669 163.669 150.665 164.064 151.695 164.041C152.895 164.054 154.035 163.523 154.792 162.6L155.684 163.487C155.217 164.042 154.631 164.485 153.969 164.786C153.255 165.115 152.476 165.28 151.689 165.268Z" fill="#A8A8C1"/>
<path d="M158.081 165.046H156.799V155.102H158.081V165.046Z" fill="#A8A8C1"/>
<path d="M160.175 159.061C161.574 157.681 163.832 157.681 165.23 159.061C165.893 159.758 166.25 160.689 166.221 161.647C166.25 162.606 165.893 163.536 165.23 164.233C163.832 165.613 161.574 165.613 160.175 164.233C159.512 163.536 159.155 162.606 159.184 161.647C159.155 160.689 159.511 159.758 160.175 159.061ZM161.129 163.433C161.949 164.295 163.317 164.332 164.185 163.517C164.214 163.49 164.242 163.461 164.269 163.433C164.721 162.951 164.96 162.308 164.932 161.648C164.962 160.989 164.723 160.346 164.269 159.863C163.449 159.002 162.081 158.964 161.213 159.78C161.184 159.807 161.156 159.836 161.129 159.863C160.677 160.346 160.438 160.989 160.466 161.648C160.44 162.306 160.681 162.947 161.135 163.427L161.129 163.433Z" fill="#A8A8C1"/>
<path d="M173.325 165.046H172.086V164.105H172.049C171.829 164.462 171.517 164.756 171.145 164.954C170.76 165.176 170.321 165.294 169.875 165.292C169.141 165.342 168.425 165.056 167.93 164.517C167.461 163.927 167.225 163.186 167.267 162.436V158.25H168.549V162.202C168.549 163.471 169.113 164.105 170.24 164.105C170.749 164.121 171.233 163.892 171.541 163.489C171.874 163.071 172.051 162.551 172.043 162.018V158.25H173.326V165.046H173.325Z" fill="#A8A8C1"/>
<path d="M177.679 165.268C176.799 165.27 175.962 164.891 175.387 164.227C174.745 163.522 174.401 162.598 174.427 161.647C174.401 160.696 174.745 159.773 175.387 159.067C175.962 158.404 176.799 158.024 177.679 158.026C178.167 158.019 178.649 158.133 179.079 158.358C179.458 158.547 179.779 158.835 180.008 159.19H180.064L180.008 158.248V155.102H181.29V165.046H180.052V164.105H179.996C179.766 164.46 179.446 164.747 179.067 164.936C178.64 165.159 178.163 165.274 177.679 165.268ZM177.89 164.105C178.477 164.113 179.039 163.871 179.432 163.439C179.868 162.946 180.091 162.303 180.052 161.647C180.091 160.993 179.868 160.348 179.432 159.855C178.655 159.004 177.331 158.942 176.475 159.717C176.426 159.76 176.38 159.808 176.336 159.855C175.899 160.344 175.676 160.987 175.717 161.64C175.676 162.293 175.899 162.935 176.336 163.425C176.731 163.866 177.298 164.113 177.89 164.105Z" fill="#A8A8C1"/>
</g>
<g clip-path="url(#clip1)">
<path d="M220.154 101.607C224.12 100.913 227.395 100.338 227.433 100.33L227.501 100.316L223.757 95.8991C221.698 93.4701 220.013 91.4732 220.013 91.4617C220.013 91.4399 223.879 80.8821 223.901 80.8445C223.908 80.832 226.539 85.3365 230.278 91.7639C233.779 97.7813 236.665 102.743 236.692 102.789L236.741 102.874L224.842 102.872L212.944 102.871L220.154 101.607V101.607ZM265.783 100.539C263.972 100.424 262.918 99.4014 262.639 97.487C262.565 96.9777 262.565 96.9645 262.557 93.6583L262.55 90.4584H263.351H264.153L264.159 93.5535C264.165 96.343 264.168 96.6701 264.195 96.8663C264.305 97.6627 264.522 98.1983 264.892 98.5827C265.188 98.8904 265.534 99.0705 266.014 99.1661C266.24 99.2112 266.884 99.2113 267.091 99.1663C267.577 99.0601 267.967 98.8502 268.311 98.5093C268.703 98.1208 268.993 97.5695 269.133 96.9461L269.18 96.736L269.185 93.6147L269.191 90.4934H270.009H270.827V95.4001V100.307H270.017H269.208V99.5284C269.208 98.9994 269.202 98.7518 269.189 98.7559C269.179 98.7592 269.138 98.8223 269.097 98.8961C268.818 99.4009 268.353 99.8626 267.843 100.141C267.232 100.474 266.62 100.593 265.783 100.539L265.783 100.539ZM284.166 100.531C283.527 100.484 282.854 100.266 282.304 99.9283C281.144 99.2168 280.458 98.0442 280.257 96.4303C280.187 95.8719 280.179 95.1218 280.237 94.6472C280.367 93.5869 280.787 92.5461 281.385 91.803C281.538 91.6125 281.886 91.2675 282.078 91.1154C282.597 90.7047 283.204 90.4175 283.848 90.2777C284.223 90.1963 284.884 90.1581 285.283 90.1947C286.284 90.2868 287.202 90.7545 287.826 91.4907C288.46 92.2386 288.809 93.2837 288.853 94.5707C288.86 94.7723 288.862 95.1259 288.857 95.3564L288.848 95.7755L285.34 95.7799L281.832 95.7843V95.9396C281.832 96.4122 281.948 96.9506 282.148 97.4086C282.321 97.8036 282.618 98.2349 282.861 98.4436C283.361 98.8716 283.972 99.1277 284.64 99.1894C284.888 99.2122 285.52 99.1882 285.802 99.1451C286.608 99.0223 287.374 98.7088 287.993 98.2487C288.066 98.1946 288.136 98.144 288.148 98.1363C288.166 98.1251 288.17 98.2665 288.17 98.861L288.169 99.5996L288.003 99.7013C287.303 100.131 286.502 100.406 285.653 100.51C285.399 100.54 284.469 100.554 284.166 100.531L284.166 100.531ZM287.22 94.3019C287.22 93.5101 286.883 92.6306 286.407 92.1778C286.067 91.8546 285.657 91.657 285.168 91.582C284.937 91.5466 284.45 91.5602 284.207 91.609C283.692 91.7122 283.266 91.9367 282.895 92.3006C282.504 92.6837 282.211 93.149 282.027 93.6791C281.96 93.8697 281.883 94.1827 281.859 94.3568L281.847 94.4397H284.533H287.22V94.3019ZM239.631 100.285C239.635 100.273 240.827 97.1692 242.279 93.3877L244.919 86.5122L245.767 86.5122L246.615 86.5121L246.685 86.6911C246.9 87.2381 251.97 100.292 251.97 100.299C251.97 100.303 251.564 100.307 251.068 100.307L250.165 100.307L249.435 98.3772L248.704 96.4478L245.762 96.4478L242.82 96.4478L242.794 96.5132C242.78 96.5492 242.468 97.4174 242.101 98.4424L241.432 100.306L240.528 100.306C239.812 100.307 239.625 100.302 239.631 100.285V100.285ZM248.167 94.9755C248.167 94.9724 247.675 93.6503 247.074 92.0375C245.95 89.0203 245.887 88.8387 245.798 88.3543C245.757 88.1272 245.736 88.1208 245.711 88.3281C245.693 88.4763 245.616 88.8078 245.557 88.9917C245.528 89.0829 245.022 90.4611 244.432 92.0543C243.843 93.6476 243.36 94.9579 243.36 94.9661C243.36 94.9743 244.442 94.981 245.764 94.981C247.086 94.981 248.167 94.9785 248.167 94.9755V94.9755ZM252.516 100.056V99.8043L255.447 95.808L258.378 91.8117L255.725 91.803L253.071 91.7943L253.066 91.1263L253.061 90.4584H256.9H260.739V90.684V90.9096L257.807 94.9277C256.195 97.1376 254.875 98.9495 254.875 98.954C254.875 98.9586 256.179 98.9623 257.772 98.9623H260.668V99.6346V100.307H256.592H252.516V100.056ZM274.026 100.295C274.02 100.289 274.014 98.0729 274.014 95.371V90.4584H274.815H275.616V91.4712C275.616 92.0282 275.623 92.484 275.632 92.484C275.64 92.484 275.679 92.3928 275.718 92.2814C275.898 91.7707 276.211 91.2935 276.613 90.9143C276.976 90.5727 277.39 90.3684 277.879 90.2902C278.016 90.2682 278.133 90.264 278.407 90.2711C278.752 90.28 278.932 90.305 279.142 90.3731L279.208 90.3945V91.2191V92.0438L279.019 91.9499C278.685 91.7839 278.355 91.7182 277.958 91.7387C277.7 91.752 277.531 91.7848 277.324 91.8616C276.9 92.0197 276.555 92.2986 276.315 92.6793C275.966 93.2305 275.718 93.9389 275.645 94.5901C275.632 94.7069 275.624 95.6586 275.621 97.5348L275.616 100.307H274.827C274.393 100.307 274.032 100.302 274.026 100.295V100.295ZM205.875 100.261C205.875 100.254 207.639 97.2174 209.795 93.5117L213.715 86.774L218.284 82.9717C220.797 80.8805 222.859 79.1669 222.867 79.1638C222.876 79.1607 222.843 79.2432 222.794 79.3471C222.745 79.4511 220.513 84.1997 217.833 89.8997L212.961 100.263L209.418 100.268C207.469 100.27 205.875 100.267 205.875 100.261V100.261Z" fill="#0089D6"/>
</g>
<path d="M343.316 150.529V154.803C350.562 154.803 356.204 147.804 353.834 140.212C352.798 136.894 350.161 134.258 346.843 133.222C339.25 130.852 332.249 136.493 332.249 143.739H336.534C336.535 143.739 336.535 143.737 336.535 143.737C336.536 139.19 341.036 135.675 345.817 137.41C347.589 138.053 349.002 139.465 349.645 141.236C351.38 146.013 347.869 150.512 343.326 150.518V146.257L343.325 146.257H339.053C339.053 146.257 339.053 146.258 339.053 146.258V150.529H343.316V150.529ZM339.052 153.812H335.769L335.769 153.811V150.529H339.053V153.811C339.053 153.811 339.052 153.812 339.052 153.812V153.812ZM335.771 150.529H333.02C333.018 150.529 333.018 150.528 333.018 150.528V147.778C333.018 147.778 333.018 147.776 333.02 147.776H335.769C335.77 147.776 335.771 147.777 335.771 147.777V150.529V150.529Z" fill="#0080FF"/>
<path d="M325.024 159.14C324.467 158.753 323.774 158.557 322.964 158.557H321.201V164.151H322.964C323.772 164.151 324.465 163.944 325.025 163.537C325.329 163.321 325.569 163.019 325.736 162.64C325.903 162.262 325.987 161.818 325.987 161.318C325.987 160.823 325.903 160.384 325.736 160.013C325.569 159.639 325.329 159.345 325.024 159.14V159.14ZM322.231 159.503H322.784C323.4 159.503 323.907 159.624 324.291 159.863C324.718 160.12 324.934 160.61 324.934 161.318C324.934 162.047 324.717 162.558 324.289 162.838H324.289C323.921 163.082 323.417 163.205 322.792 163.205H322.231V159.503V159.503ZM326.709 164.151H327.701V160.211H326.709V164.151ZM327.214 158.488C327.045 158.488 326.899 158.548 326.781 158.666C326.662 158.779 326.602 158.923 326.602 159.093C326.602 159.263 326.662 159.408 326.781 159.527C326.899 159.645 327.045 159.705 327.214 159.705C327.384 159.705 327.53 159.645 327.648 159.527C327.767 159.408 327.827 159.262 327.827 159.093C327.827 158.923 327.767 158.78 327.648 158.667C327.592 158.609 327.524 158.564 327.45 158.533C327.375 158.502 327.295 158.487 327.214 158.488V158.488ZM331.301 160.54C331.002 160.274 330.669 160.119 330.308 160.119C329.76 160.119 329.305 160.308 328.956 160.682C328.602 161.051 328.422 161.528 328.422 162.097C328.422 162.653 328.599 163.127 328.948 163.508C329.3 163.876 329.758 164.063 330.308 164.063C330.69 164.063 331.019 163.956 331.286 163.746V163.837C331.286 164.164 331.199 164.418 331.026 164.593C330.854 164.767 330.614 164.856 330.315 164.856C329.858 164.856 329.571 164.676 329.222 164.204L328.546 164.852L328.565 164.878C328.71 165.083 328.934 165.283 329.229 165.473C329.524 165.663 329.894 165.759 330.331 165.759C330.919 165.759 331.395 165.578 331.746 165.22C332.099 164.86 332.277 164.379 332.277 163.789V160.211H331.301V160.54V160.54ZM331.041 162.867C330.868 163.064 330.646 163.159 330.361 163.159C330.077 163.159 329.856 163.064 329.685 162.867C329.515 162.672 329.429 162.412 329.429 162.097C329.429 161.776 329.515 161.513 329.685 161.316C329.853 161.122 330.081 161.023 330.361 161.023C330.645 161.023 330.868 161.119 331.041 161.317C331.214 161.514 331.301 161.776 331.301 162.097C331.301 162.412 331.214 162.672 331.041 162.867V162.867ZM333.126 164.151H334.118V160.211H333.126V164.151ZM333.631 158.488C333.462 158.488 333.316 158.548 333.198 158.666C333.079 158.779 333.019 158.923 333.019 159.093C333.019 159.263 333.079 159.408 333.198 159.527C333.316 159.645 333.462 159.705 333.632 159.705C333.712 159.707 333.792 159.692 333.867 159.661C333.942 159.63 334.009 159.584 334.066 159.527C334.184 159.408 334.244 159.262 334.244 159.093C334.244 158.923 334.184 158.78 334.066 158.667C334.009 158.609 333.942 158.564 333.867 158.533C333.792 158.502 333.712 158.487 333.632 158.488H333.631ZM336.291 159.147H335.315V160.211H334.748V161.115H335.315V162.751C335.315 163.263 335.417 163.63 335.619 163.84C335.821 164.052 336.181 164.159 336.687 164.159C336.848 164.159 337.011 164.153 337.169 164.143L337.214 164.14V163.237L336.874 163.255C336.638 163.255 336.48 163.213 336.405 163.132C336.329 163.049 336.291 162.873 336.291 162.611V161.115H337.214V160.211H336.291V159.147V159.147ZM340.617 160.506C340.316 160.249 339.901 160.119 339.382 160.119C339.052 160.119 338.744 160.192 338.465 160.333C338.207 160.464 337.953 160.681 337.792 160.965L337.802 160.977L338.437 161.584C338.698 161.167 338.989 161.023 339.375 161.023C339.582 161.023 339.754 161.078 339.886 161.188C340.017 161.297 340.082 161.435 340.082 161.61V161.802C339.845 161.728 339.599 161.691 339.352 161.689C338.858 161.689 338.457 161.805 338.159 162.034C337.856 162.266 337.704 162.597 337.704 163.02C337.704 163.39 337.832 163.69 338.088 163.914C338.346 164.13 338.668 164.239 339.045 164.239C339.423 164.239 339.776 164.087 340.097 163.826V164.151H341.073V161.618C341.073 161.139 340.919 160.764 340.617 160.506ZM338.856 162.645C338.969 162.567 339.128 162.527 339.329 162.527C339.567 162.527 339.82 162.575 340.082 162.67V163.056C339.866 163.257 339.578 163.358 339.225 163.358C339.054 163.358 338.92 163.32 338.829 163.245C338.739 163.171 338.695 163.077 338.695 162.958C338.695 162.823 338.748 162.721 338.856 162.645V162.645ZM341.863 164.151H342.854V158.557H341.863V164.151V164.151ZM346.452 164.235C344.862 164.235 343.568 162.942 343.568 161.351C343.568 159.761 344.862 158.468 346.452 158.468C348.042 158.468 349.336 159.761 349.336 161.351C349.336 162.942 348.042 164.235 346.452 164.235H346.452ZM346.452 159.484C345.422 159.484 344.584 160.322 344.584 161.351C344.584 162.381 345.422 163.219 346.452 163.219C347.482 163.219 348.32 162.381 348.32 161.351C348.32 160.322 347.482 159.484 346.452 159.484L346.452 159.484ZM352.871 162.742C352.694 162.941 352.513 163.113 352.373 163.203V163.203C352.236 163.291 352.063 163.336 351.859 163.336C351.566 163.336 351.332 163.229 351.14 163.01C350.95 162.792 350.854 162.512 350.854 162.177C350.854 161.842 350.949 161.563 351.137 161.346C351.325 161.128 351.559 161.023 351.851 161.023C352.17 161.023 352.507 161.221 352.796 161.562L353.451 160.934C353.024 160.378 352.479 160.119 351.828 160.119C351.284 160.119 350.812 160.317 350.426 160.708C350.041 161.096 349.847 161.591 349.847 162.177C349.847 162.764 350.041 163.259 350.425 163.65C350.809 164.041 351.281 164.239 351.828 164.239C352.546 164.239 353.125 163.929 353.516 163.362L352.871 162.742ZM356.941 160.761C356.8 160.566 356.609 160.408 356.371 160.293C356.135 160.177 355.859 160.119 355.552 160.119C354.999 160.119 354.546 160.323 354.206 160.727C353.876 161.126 353.709 161.623 353.709 162.204C353.709 162.801 353.892 163.295 354.254 163.673C354.614 164.048 355.096 164.239 355.686 164.239C356.355 164.239 356.904 163.969 357.317 163.435L357.339 163.407L356.692 162.785C356.633 162.858 356.548 162.94 356.47 163.013C356.372 163.105 356.28 163.176 356.182 163.225C356.034 163.299 355.867 163.336 355.681 163.336C355.407 163.336 355.179 163.255 355.005 163.095C354.843 162.946 354.747 162.745 354.722 162.497H357.349L357.358 162.135C357.358 161.879 357.323 161.632 357.254 161.401C357.186 161.172 357.08 160.956 356.941 160.761V160.761ZM354.774 161.689C354.822 161.5 354.908 161.344 355.033 161.222C355.167 161.09 355.342 161.023 355.552 161.023C355.793 161.023 355.979 161.091 356.106 161.226C356.223 161.351 356.289 161.507 356.303 161.689H354.774V161.689ZM360.749 160.506C360.448 160.249 360.033 160.119 359.514 160.119C359.184 160.119 358.876 160.192 358.597 160.333C358.338 160.464 358.085 160.681 357.924 160.965L357.934 160.977L358.569 161.584C358.83 161.167 359.121 161.023 359.507 161.023C359.714 161.023 359.886 161.078 360.018 161.188C360.149 161.297 360.213 161.435 360.213 161.61V161.802C359.977 161.728 359.731 161.691 359.484 161.689C358.99 161.689 358.589 161.805 358.29 162.034C357.988 162.266 357.835 162.597 357.835 163.02C357.835 163.39 357.964 163.69 358.22 163.914C358.478 164.13 358.8 164.239 359.177 164.239C359.555 164.239 359.908 164.087 360.229 163.826V164.151H361.205V161.618C361.205 161.139 361.051 160.764 360.749 160.506V160.506ZM358.988 162.645C359.101 162.567 359.259 162.527 359.461 162.527C359.699 162.527 359.952 162.575 360.213 162.67V163.056C359.998 163.257 359.71 163.358 359.357 163.358C359.186 163.358 359.052 163.32 358.961 163.245C358.871 163.171 358.827 163.077 358.827 162.958C358.827 162.823 358.88 162.721 358.988 162.645V162.645ZM365.019 160.583C364.743 160.275 364.355 160.119 363.865 160.119C363.472 160.119 363.153 160.232 362.914 160.455V160.211H361.941V164.151H362.933V161.978C362.933 161.68 363.004 161.442 363.144 161.273C363.284 161.105 363.476 161.023 363.732 161.023C363.956 161.023 364.126 161.096 364.252 161.247C364.378 161.398 364.442 161.607 364.442 161.867V164.151H365.433V161.867C365.433 161.321 365.294 160.89 365.019 160.583V160.583Z" fill="#0080FF"/>
<g clip-path="url(#clip2)">
<path d="M229.618 213.495C229.618 213.89 229.663 214.209 229.74 214.443C229.838 214.707 229.956 214.963 230.093 215.21C230.148 215.295 230.17 215.38 230.17 215.455C230.17 215.561 230.104 215.668 229.96 215.774L229.265 216.221C229.166 216.285 229.067 216.317 228.978 216.317C228.868 216.317 228.758 216.264 228.647 216.168C228.499 216.014 228.366 215.846 228.25 215.668C228.14 215.487 228.03 215.284 227.908 215.039C227.048 216.019 225.967 216.509 224.665 216.509C223.738 216.509 222.999 216.253 222.459 215.742C221.918 215.231 221.642 214.55 221.642 213.698C221.642 212.793 221.973 212.058 222.646 211.504C223.319 210.951 224.213 210.674 225.349 210.674C225.724 210.674 226.11 210.706 226.518 210.759C226.927 210.812 227.346 210.897 227.787 210.993V210.216C227.787 209.407 227.61 208.843 227.268 208.512C226.915 208.182 226.32 208.023 225.47 208.023C225.084 208.023 224.687 208.065 224.279 208.161C223.871 208.257 223.473 208.374 223.087 208.523C222.911 208.598 222.779 208.64 222.701 208.662C222.624 208.683 222.569 208.693 222.525 208.693C222.37 208.693 222.293 208.587 222.293 208.363V207.842C222.293 207.671 222.315 207.543 222.37 207.469C222.425 207.394 222.525 207.32 222.679 207.245C223.065 207.054 223.529 206.894 224.069 206.766C224.61 206.628 225.184 206.564 225.79 206.564C227.103 206.564 228.063 206.851 228.681 207.426C229.287 208.001 229.596 208.874 229.596 210.046V213.495H229.619H229.618ZM225.139 215.114C225.503 215.114 225.879 215.05 226.276 214.922C226.673 214.795 227.026 214.56 227.324 214.241C227.5 214.039 227.633 213.815 227.699 213.559C227.765 213.304 227.809 212.995 227.809 212.633V212.186C227.474 212.107 227.136 212.047 226.794 212.005C226.45 211.963 226.104 211.941 225.757 211.941C225.018 211.941 224.477 212.079 224.113 212.367C223.749 212.654 223.573 213.059 223.573 213.591C223.573 214.092 223.705 214.464 223.981 214.72C224.246 214.986 224.632 215.114 225.139 215.114ZM233.998 216.264C233.799 216.264 233.667 216.232 233.579 216.157C233.491 216.094 233.413 215.944 233.347 215.742L230.755 207.512C230.688 207.299 230.655 207.16 230.655 207.086C230.655 206.915 230.743 206.819 230.92 206.819H232.001C232.211 206.819 232.354 206.851 232.431 206.926C232.52 206.99 232.586 207.139 232.652 207.341L234.505 214.39L236.226 207.341C236.282 207.128 236.348 206.99 236.436 206.926C236.524 206.862 236.679 206.819 236.877 206.819H237.76C237.969 206.819 238.113 206.851 238.201 206.926C238.289 206.99 238.367 207.139 238.411 207.341L240.154 214.475L242.062 207.341C242.128 207.128 242.206 206.99 242.283 206.926C242.371 206.862 242.514 206.819 242.713 206.819H243.739C243.916 206.819 244.015 206.905 244.015 207.086C244.015 207.139 244.004 207.192 243.993 207.256C243.982 207.32 243.96 207.405 243.916 207.522L241.257 215.753C241.191 215.966 241.113 216.104 241.025 216.168C240.937 216.232 240.793 216.275 240.606 216.275H239.657C239.448 216.275 239.304 216.243 239.216 216.168C239.128 216.094 239.05 215.955 239.006 215.742L237.296 208.874L235.597 215.731C235.542 215.944 235.476 216.083 235.388 216.157C235.3 216.232 235.145 216.264 234.947 216.264H233.998H233.998ZM248.174 216.551C247.6 216.551 247.027 216.488 246.475 216.36C245.923 216.232 245.493 216.093 245.206 215.934C245.03 215.838 244.908 215.732 244.864 215.636C244.821 215.542 244.799 215.44 244.798 215.338V214.795C244.798 214.571 244.886 214.464 245.052 214.464C245.119 214.465 245.187 214.475 245.25 214.496C245.317 214.518 245.416 214.56 245.526 214.603C245.916 214.768 246.323 214.893 246.74 214.976C247.172 215.06 247.612 215.103 248.053 215.103C248.748 215.103 249.288 214.986 249.663 214.752C250.038 214.518 250.237 214.177 250.237 213.74C250.237 213.442 250.138 213.197 249.939 212.995C249.74 212.793 249.365 212.612 248.825 212.441L247.225 211.962C246.42 211.717 245.824 211.355 245.46 210.876C245.096 210.408 244.908 209.886 244.908 209.332C244.908 208.885 245.008 208.491 245.206 208.15C245.405 207.81 245.67 207.512 246.001 207.277C246.332 207.032 246.707 206.851 247.148 206.724C247.589 206.596 248.052 206.543 248.538 206.543C248.781 206.543 249.034 206.553 249.277 206.585C249.531 206.617 249.763 206.66 249.994 206.702C250.215 206.756 250.424 206.809 250.623 206.873C250.822 206.937 250.976 207 251.086 207.064C251.241 207.15 251.351 207.235 251.417 207.331C251.483 207.416 251.517 207.533 251.517 207.682V208.182C251.517 208.406 251.428 208.523 251.263 208.523C251.175 208.523 251.031 208.48 250.844 208.395C250.215 208.118 249.509 207.98 248.726 207.98C248.097 207.98 247.6 208.076 247.258 208.278C246.916 208.48 246.74 208.789 246.74 209.226C246.74 209.524 246.85 209.779 247.071 209.982C247.291 210.184 247.7 210.386 248.284 210.567L249.851 211.047C250.645 211.292 251.219 211.632 251.561 212.069C251.903 212.505 252.068 213.006 252.068 213.559C252.068 214.017 251.969 214.433 251.781 214.795C251.583 215.157 251.318 215.476 250.976 215.732C250.634 215.998 250.226 216.189 249.751 216.328C249.255 216.477 248.736 216.551 248.174 216.551V216.551Z" fill="#A8A8C1"/>
<path d="M250.259 221.726C246.63 224.314 241.356 225.687 236.822 225.687C230.468 225.687 224.742 223.419 220.418 219.65C220.076 219.352 220.385 218.947 220.793 219.181C225.47 221.801 231.24 223.387 237.208 223.387C241.235 223.387 245.659 222.578 249.73 220.917C250.336 220.651 250.855 221.3 250.259 221.726V221.726ZM251.77 220.065C251.307 219.49 248.703 219.788 247.523 219.927C247.17 219.969 247.115 219.671 247.435 219.448C249.509 218.042 252.918 218.447 253.315 218.915C253.712 219.394 253.204 222.685 251.263 224.26C250.965 224.505 250.678 224.378 250.811 224.058C251.252 223.004 252.234 220.63 251.77 220.065V220.065Z" fill="#FF9900"/>
</g>
<path d="M430.589 124.01L453.118 110.292" stroke="#FF9900" stroke-dasharray="4.15 4.15"/>
<rect x="440.611" y="94.1721" width="126" height="25" rx="3" fill="#FF9900"/>
<path d="M454.256 111.418C452.857 111.418 451.752 110.956 450.94 110.031C450.129 109.101 449.724 107.838 449.724 106.243C449.724 104.639 450.127 103.375 450.934 102.449C451.745 101.524 452.85 101.062 454.249 101.062C455.37 101.062 456.32 101.392 457.1 102.053C457.879 102.709 458.321 103.552 458.426 104.582H456.689C456.566 103.99 456.284 103.518 455.842 103.167C455.4 102.812 454.869 102.634 454.249 102.634C453.41 102.634 452.747 102.958 452.26 103.605C451.772 104.247 451.528 105.125 451.528 106.237C451.528 107.349 451.772 108.228 452.26 108.875C452.747 109.522 453.413 109.846 454.256 109.846C454.88 109.846 455.413 109.684 455.855 109.361C456.298 109.032 456.578 108.593 456.696 108.041H458.433C458.314 109.053 457.872 109.869 457.106 110.489C456.341 111.108 455.391 111.418 454.256 111.418ZM460.285 111.172V100.802H461.98V111.172H460.285ZM465.979 109.258C466.303 109.686 466.761 109.901 467.354 109.901C467.946 109.901 468.402 109.686 468.721 109.258C469.044 108.825 469.206 108.217 469.206 107.433C469.206 106.654 469.044 106.047 468.721 105.615C468.397 105.182 467.941 104.965 467.354 104.965C466.761 104.965 466.303 105.182 465.979 105.615C465.656 106.047 465.494 106.654 465.494 107.433C465.494 108.217 465.656 108.825 465.979 109.258ZM467.354 111.323C466.232 111.323 465.353 110.978 464.715 110.29C464.077 109.598 463.758 108.645 463.758 107.433C463.758 106.23 464.079 105.282 464.722 104.589C465.364 103.892 466.242 103.543 467.354 103.543C468.47 103.543 469.347 103.89 469.985 104.582C470.628 105.275 470.949 106.225 470.949 107.433C470.949 108.645 470.628 109.598 469.985 110.29C469.347 110.978 468.47 111.323 467.354 111.323ZM479.166 103.694V111.172H477.532V109.983H477.416C477.038 110.876 476.293 111.323 475.181 111.323C474.365 111.323 473.729 111.081 473.273 110.598C472.818 110.11 472.59 109.429 472.59 108.554V103.694H474.285V108.13C474.285 108.704 474.406 109.133 474.647 109.415C474.889 109.693 475.263 109.832 475.769 109.832C476.315 109.832 476.735 109.675 477.026 109.361C477.323 109.046 477.471 108.609 477.471 108.048V103.694H479.166ZM483.951 111.295C483.003 111.295 482.254 110.949 481.702 110.256C481.151 109.559 480.875 108.615 480.875 107.426C480.875 106.246 481.151 105.309 481.702 104.616C482.258 103.919 483.008 103.571 483.951 103.571C484.462 103.571 484.917 103.687 485.318 103.919C485.719 104.152 486.02 104.473 486.221 104.883H486.337V100.802H488.032V111.172H486.392V109.99H486.275C486.061 110.4 485.749 110.721 485.339 110.953C484.933 111.181 484.471 111.295 483.951 111.295ZM485.852 105.662C485.514 105.229 485.056 105.013 484.478 105.013C483.899 105.013 483.443 105.229 483.11 105.662C482.778 106.091 482.611 106.681 482.611 107.433C482.611 108.189 482.775 108.782 483.104 109.21C483.436 109.639 483.894 109.853 484.478 109.853C485.061 109.853 485.519 109.639 485.852 109.21C486.189 108.777 486.357 108.185 486.357 107.433C486.357 106.685 486.189 106.095 485.852 105.662ZM494.082 101.308H498.061C499.045 101.308 499.842 101.615 500.453 102.231C501.068 102.846 501.376 103.65 501.376 104.644C501.376 105.619 501.059 106.412 500.426 107.023C499.797 107.633 498.983 107.939 497.985 107.939H495.846V111.172H494.082V101.308ZM495.846 102.784V106.476H497.589C498.222 106.476 498.712 106.316 499.059 105.997C499.41 105.678 499.585 105.227 499.585 104.644C499.585 104.042 499.412 103.582 499.065 103.263C498.724 102.944 498.234 102.784 497.596 102.784H495.846ZM503.146 111.172V103.694H504.78V104.856H504.896C505.001 104.482 505.236 104.174 505.601 103.933C505.97 103.691 506.394 103.571 506.872 103.571C507.177 103.571 507.412 103.596 507.576 103.646V105.218C507.403 105.154 507.114 105.122 506.708 105.122C506.157 105.122 505.708 105.282 505.361 105.601C505.015 105.915 504.842 106.332 504.842 106.852V111.172H503.146ZM510.632 109.258C510.955 109.686 511.413 109.901 512.006 109.901C512.598 109.901 513.054 109.686 513.373 109.258C513.697 108.825 513.858 108.217 513.858 107.433C513.858 106.654 513.697 106.047 513.373 105.615C513.049 105.182 512.594 104.965 512.006 104.965C511.413 104.965 510.955 105.182 510.632 105.615C510.308 106.047 510.146 106.654 510.146 107.433C510.146 108.217 510.308 108.825 510.632 109.258ZM512.006 111.323C510.885 111.323 510.005 110.978 509.367 110.29C508.729 109.598 508.41 108.645 508.41 107.433C508.41 106.23 508.731 105.282 509.374 104.589C510.017 103.892 510.894 103.543 512.006 103.543C513.122 103.543 514 103.89 514.638 104.582C515.28 105.275 515.602 106.225 515.602 107.433C515.602 108.645 515.28 109.598 514.638 110.29C514 110.978 513.122 111.323 512.006 111.323ZM516.36 103.694H518.179L519.908 109.477H520.024L521.74 103.694H523.531L520.886 111.172H519.02L516.36 103.694ZM524.987 111.172V103.694H526.676V111.172H524.987ZM525.828 102.477C525.523 102.477 525.272 102.39 525.076 102.217C524.88 102.039 524.782 101.814 524.782 101.54C524.782 101.267 524.88 101.044 525.076 100.87C525.272 100.693 525.523 100.604 525.828 100.604C526.138 100.604 526.389 100.693 526.58 100.87C526.776 101.044 526.874 101.267 526.874 101.54C526.874 101.814 526.776 102.039 526.58 102.217C526.389 102.39 526.138 102.477 525.828 102.477ZM531.488 111.295C530.54 111.295 529.791 110.949 529.239 110.256C528.688 109.559 528.412 108.615 528.412 107.426C528.412 106.246 528.688 105.309 529.239 104.616C529.795 103.919 530.545 103.571 531.488 103.571C531.999 103.571 532.454 103.687 532.855 103.919C533.257 104.152 533.557 104.473 533.758 104.883H533.874V100.802H535.569V111.172H533.929V109.99H533.812C533.598 110.4 533.286 110.721 532.876 110.953C532.47 111.181 532.008 111.295 531.488 111.295ZM533.389 105.662C533.051 105.229 532.593 105.013 532.015 105.013C531.436 105.013 530.98 105.229 530.647 105.662C530.315 106.091 530.148 106.681 530.148 107.433C530.148 108.189 530.312 108.782 530.641 109.21C530.973 109.639 531.431 109.853 532.015 109.853C532.598 109.853 533.056 109.639 533.389 109.21C533.726 108.777 533.895 108.185 533.895 107.433C533.895 106.685 533.726 106.095 533.389 105.662ZM540.847 104.89C540.341 104.89 539.924 105.056 539.596 105.389C539.268 105.722 539.085 106.161 539.049 106.708H542.569C542.551 106.152 542.387 105.71 542.077 105.382C541.767 105.054 541.357 104.89 540.847 104.89ZM542.583 109.115H544.189C544.03 109.798 543.654 110.338 543.062 110.735C542.474 111.127 541.742 111.323 540.867 111.323C539.769 111.323 538.905 110.981 538.276 110.297C537.652 109.609 537.34 108.663 537.34 107.46C537.34 106.257 537.654 105.305 538.283 104.603C538.912 103.896 539.769 103.543 540.854 103.543C541.92 103.543 542.754 103.878 543.355 104.548C543.962 105.213 544.265 106.136 544.265 107.317V107.864H539.042V107.952C539.065 108.577 539.243 109.071 539.575 109.436C539.912 109.796 540.359 109.976 540.915 109.976C541.772 109.976 542.328 109.689 542.583 109.115ZM545.967 111.172V103.694H547.601V104.856H547.717C547.822 104.482 548.056 104.174 548.421 103.933C548.79 103.691 549.214 103.571 549.692 103.571C549.998 103.571 550.232 103.596 550.396 103.646V105.218C550.223 105.154 549.934 105.122 549.528 105.122C548.977 105.122 548.528 105.282 548.182 105.601C547.835 105.915 547.662 106.332 547.662 106.852V111.172H545.967ZM551.456 105.833C551.456 105.159 551.734 104.61 552.29 104.186C552.846 103.757 553.566 103.543 554.45 103.543C555.339 103.543 556.048 103.732 556.576 104.111C557.109 104.484 557.406 105.011 557.465 105.69H555.872C555.808 105.421 555.653 105.211 555.407 105.061C555.166 104.906 554.849 104.828 554.457 104.828C554.065 104.828 553.742 104.913 553.486 105.081C553.231 105.25 553.104 105.469 553.104 105.738C553.104 105.947 553.192 106.12 553.37 106.257C553.552 106.394 553.833 106.505 554.211 106.592L555.53 106.893C556.25 107.057 556.779 107.301 557.116 107.624C557.453 107.948 557.622 108.383 557.622 108.93C557.622 109.645 557.326 110.224 556.733 110.666C556.141 111.104 555.375 111.323 554.437 111.323C553.502 111.323 552.755 111.131 552.194 110.748C551.638 110.365 551.328 109.835 551.265 109.156H552.939C553.021 109.438 553.192 109.657 553.452 109.812C553.716 109.962 554.058 110.037 554.478 110.037C554.906 110.037 555.255 109.953 555.523 109.784C555.792 109.611 555.927 109.386 555.927 109.108C555.927 108.693 555.583 108.41 554.895 108.26L553.568 107.952C552.848 107.788 552.315 107.535 551.969 107.194C551.627 106.847 551.456 106.394 551.456 105.833Z" fill="#E9EAFA"/>
<defs>
<clipPath id="clip0">
<rect width="83" height="36" fill="white" transform="translate(98.0869 132.673)"/>
</clipPath>
<clipPath id="clip1">
<rect width="82.985" height="23.71" fill="white" transform="translate(205.875 79.1637)"/>
</clipPath>
<clipPath id="clip2">
<rect width="33.3163" height="19.2183" fill="white" transform="translate(220.196 206.532)"/>
</clipPath>
</defs>
</svg>
