<svg width="17" height="19" viewBox="0 0 17 19" fill="none" xmlns="http://www.w3.org/2000/svg">
<path d="M10.7789 9.025C10.7789 9.6045 10.3675 10.0795 9.84635 10.0795C9.33435 10.0795 8.91378 9.6045 8.91378 9.025C8.91378 8.4455 9.32521 7.9705 9.84635 7.9705C10.3675 7.9705 10.7789 8.4455 10.7789 9.025ZM6.50921 7.9705C5.98806 7.9705 5.57663 8.4455 5.57663 9.025C5.57663 9.6045 5.99721 10.0795 6.50921 10.0795C7.03035 10.0795 7.44178 9.6045 7.44178 9.025C7.45092 8.4455 7.03035 7.9705 6.50921 7.9705ZM16.1641 1.957V19C13.8607 16.885 14.5973 17.5851 11.9218 15.0005L12.4063 16.758H2.03835C1.00521 16.758 0.164062 15.884 0.164062 14.801V1.957C0.164062 0.874 1.00521 0 2.03835 0H14.2898C15.3229 0 16.1641 0.874 16.1641 1.957ZM13.5583 10.963C13.5583 7.904 12.2418 5.4245 12.2418 5.4245C10.9252 4.3985 9.67263 4.427 9.67263 4.427L9.54463 4.579C11.0989 5.073 11.8212 5.7855 11.8212 5.7855C9.64938 4.54868 7.09821 4.54846 4.99149 5.51C4.65321 5.6715 4.45206 5.7855 4.45206 5.7855C4.45206 5.7855 5.21092 5.035 6.85663 4.541L6.76521 4.427C6.76521 4.427 5.51263 4.3985 4.19606 5.4245C4.19606 5.4245 2.87949 7.904 2.87949 10.963C2.87949 10.963 3.64749 12.3405 5.66806 12.407C5.66806 12.407 6.00635 11.9795 6.28063 11.6185C5.11949 11.2575 4.68063 10.4975 4.68063 10.4975C4.81513 10.5953 5.03692 10.7221 5.05549 10.735C6.59871 11.633 8.79078 11.9272 10.7606 11.0675C11.0806 10.944 11.4372 10.7635 11.8121 10.507C11.8121 10.507 11.3549 11.286 10.1572 11.6375C10.4315 11.9985 10.7606 12.407 10.7606 12.407C12.7812 12.3405 13.5583 10.963 13.5583 10.963Z" fill="white"/>
</svg>
