<svg width="20" height="19" viewBox="0 0 20 19" fill="none" xmlns="http://www.w3.org/2000/svg">
<path d="M9.58278 0.564759C4.28827 0.562708 0 4.66837 0 9.73585C0 13.7431 2.68258 17.1494 6.4185 18.4004C6.92161 18.5214 6.84454 18.1789 6.84454 17.9451V16.3558C3.9393 16.6819 3.82155 14.8402 3.62673 14.5326C3.2328 13.8887 2.3015 13.7246 2.57982 13.417C3.24136 13.0909 3.91575 13.499 4.69719 14.6044C5.2624 15.4063 6.36497 15.2709 6.92375 15.1376C7.04579 14.6557 7.30698 14.225 7.66666 13.8907C4.65651 13.3739 3.40193 11.6144 3.40193 9.52257C3.40193 8.50744 3.7509 7.57433 4.436 6.82169C3.99925 5.58097 4.47668 4.51867 4.5409 4.36076C5.78478 4.25411 7.0779 5.21388 7.17852 5.28976C7.88503 5.10724 8.69216 5.01085 9.59563 5.01085C10.5034 5.01085 11.3127 5.11134 12.0256 5.29591C12.2675 5.11954 13.4664 4.29513 14.6225 4.39562C14.6846 4.55353 15.1513 5.59122 14.7403 6.81554C15.4339 7.57023 15.7872 8.51154 15.7872 9.52873C15.7872 11.6246 14.524 13.3862 11.5053 13.8948C11.7639 14.1384 11.9692 14.4289 12.1092 14.7493C12.2493 15.0697 12.3213 15.4137 12.321 15.761V18.0682C12.3382 18.2527 12.321 18.4353 12.6422 18.4353C16.4337 17.211 19.1634 13.78 19.1634 9.7379C19.1634 4.66837 14.873 0.564759 9.58278 0.564759Z" fill="white"/>
</svg>
