<svg width="162" height="30" viewBox="0 0 162 30" fill="none" xmlns="http://www.w3.org/2000/svg">
<path d="M0.114258 0.522461H5.32324V12.6221H18.0176V0.522461H23.2266V29.5H18.0176V17.4004H5.32324V29.5H0.114258V0.522461ZM34.9119 0.522461H54.1893V5.30078H40.1209V12.6221H53.2254V17.4004H40.1209V24.5781H54.1893V29.5H34.9119V0.522461ZM64.6646 0.522461H69.8736V24.5781H82.2604V29.5H64.6646V0.522461ZM90.685 0.522461H95.8939V29.5H90.685V0.522461ZM119.494 29.9102C116.432 29.9102 113.848 29.2402 111.742 27.9004C109.651 26.5469 108.085 24.7422 107.046 22.4863C106.021 20.2305 105.508 17.7354 105.508 15.001C105.508 12.2666 106.021 9.77148 107.046 7.51562C108.085 5.25977 109.651 3.46191 111.742 2.12207C113.848 0.768555 116.432 0.0917969 119.494 0.0917969C122.557 0.0917969 125.134 0.768555 127.226 2.12207C129.331 3.46191 130.897 5.25977 131.922 7.51562C132.961 9.77148 133.481 12.2666 133.481 15.001C133.481 17.7354 132.961 20.2305 131.922 22.4863C130.897 24.7422 129.331 26.5469 127.226 27.9004C125.134 29.2402 122.557 29.9102 119.494 29.9102ZM119.494 25.2959C121.477 25.2959 123.097 24.8379 124.355 23.9219C125.626 22.9922 126.549 21.7549 127.123 20.21C127.697 18.665 127.985 16.9287 127.985 15.001C127.985 13.0732 127.697 11.3438 127.123 9.8125C126.549 8.26758 125.626 7.03711 124.355 6.12109C123.097 5.19141 121.477 4.72656 119.494 4.72656C117.512 4.72656 115.885 5.19141 114.613 6.12109C113.356 7.03711 112.44 8.26758 111.865 9.8125C111.291 11.3438 111.004 13.0732 111.004 15.001C111.004 16.9287 111.291 18.665 111.865 20.21C112.44 21.7549 113.356 22.9922 114.613 23.9219C115.885 24.8379 117.512 25.2959 119.494 25.2959ZM151.298 29.8281C149.534 29.8281 147.859 29.5068 146.273 28.8643C144.701 28.2217 143.368 27.2646 142.274 25.9932C141.194 24.708 140.504 23.1494 140.203 21.3174L145.371 20.0049C145.549 21.7275 146.185 23.0264 147.278 23.9014C148.386 24.7764 149.753 25.2139 151.38 25.2139C152.378 25.2139 153.239 25.0566 153.964 24.7422C154.688 24.4141 155.235 23.9697 155.604 23.4092C155.974 22.8486 156.158 22.2197 156.158 21.5225C156.158 20.6885 155.898 19.9775 155.379 19.3896C154.873 18.8018 154.237 18.3164 153.472 17.9336C152.706 17.5508 151.653 17.0928 150.313 16.5596C148.563 15.8623 147.148 15.2197 146.068 14.6318C144.988 14.0303 144.059 13.1963 143.279 12.1299C142.514 11.0635 142.131 9.7168 142.131 8.08984C142.131 6.43555 142.534 5.00684 143.341 3.80371C144.161 2.58691 145.255 1.66406 146.622 1.03516C148.003 0.40625 149.521 0.0917969 151.175 0.0917969C153.034 0.0917969 154.729 0.515625 156.261 1.36328C157.792 2.19727 159.036 3.46875 159.993 5.17773L155.666 7.82324C155.16 6.83887 154.497 6.08008 153.677 5.54688C152.856 5 151.961 4.72656 150.99 4.72656C150.307 4.72656 149.685 4.85645 149.124 5.11621C148.577 5.37598 148.14 5.74512 147.812 6.22363C147.497 6.68848 147.34 7.22168 147.34 7.82324C147.34 8.56152 147.579 9.19043 148.058 9.70996C148.536 10.2295 149.138 10.667 149.862 11.0225C150.601 11.3779 151.605 11.8018 152.877 12.2939C154.682 12.9912 156.145 13.6475 157.266 14.2627C158.387 14.8779 159.351 15.7393 160.157 16.8467C160.964 17.9541 161.367 19.3555 161.367 21.0508C161.367 22.8281 160.916 24.3799 160.014 25.7061C159.125 27.0322 157.915 28.0508 156.384 28.7617C154.853 29.4727 153.157 29.8281 151.298 29.8281Z" fill="#43C9D5"/>
</svg>
