<svg width="567" height="687" viewBox="0 0 567 687" fill="none" xmlns="http://www.w3.org/2000/svg">
<line opacity="0.2" x1="132.408" y1="178.963" x2="132.408" y2="520.371" stroke="#8686B3" stroke-dasharray="5 5"/>
<line opacity="0.2" x1="240.197" y1="6.37561" x2="240.197" y2="347.783" stroke="#8686B3" stroke-dasharray="5 5"/>
<line opacity="0.2" x1="237.936" y1="452.542" x2="237.936" y2="492.485" stroke="#8686B3" stroke-dasharray="5 5"/>
<line opacity="0.2" x1="344.215" y1="178.963" x2="344.215" y2="520.371" stroke="#8686B3" stroke-dasharray="5 5"/>
<rect opacity="0.05" width="275.765" height="278.095" rx="1.44" transform="matrix(0.866074 -0.499916 0.866074 0.499916 -0.0976562 548.093)" fill="#8686B3"/>
<rect width="107.996" height="105.428" rx="1.44" transform="matrix(0.866074 -0.499916 0.866074 0.499916 146.23 485.242)" fill="#35B6FF" fill-opacity="0.15"/>
<rect width="107.996" height="105.428" rx="1.44" transform="matrix(0.866074 -0.499916 0.866074 0.499916 39.1953 548.736)" fill="#FF00A8" fill-opacity="0.15"/>
<rect width="107.996" height="105.428" rx="1.44" transform="matrix(0.866074 -0.499916 0.866074 0.499916 143.969 610.536)" fill="#FF9900" fill-opacity="0.15"/>
<rect width="107.996" height="105.428" rx="1.44" transform="matrix(0.866074 -0.499916 0.866074 0.499916 250.248 547.982)" fill="#0066FF" fill-opacity="0.15"/>
<g clip-path="url(#clip0)">
<path d="M131.59 531.188H132.057L133.388 529.866L133.453 529.304C130.977 527.132 127.197 527.366 125.011 529.827C124.404 530.511 123.963 531.324 123.723 532.205C123.871 532.144 124.035 532.134 124.189 532.177L126.851 531.741C126.851 531.741 126.986 531.518 127.056 531.532C128.24 530.239 130.232 530.089 131.6 531.188H131.59Z" fill="#EA4335"/>
<path d="M135.284 532.205C134.978 531.085 134.35 530.079 133.477 529.31L131.61 531.165C132.398 531.806 132.848 532.771 132.828 533.783V534.112C133.746 534.112 134.491 534.852 134.491 535.765C134.491 536.677 133.746 537.417 132.828 537.417H129.504L129.172 537.751V539.733L129.504 540.062H132.828C135.216 540.081 137.166 538.172 137.185 535.799C137.196 534.358 136.482 533.01 135.284 532.205Z" fill="#4285F4"/>
<path d="M126.174 540.041H129.499V537.396H126.174C125.937 537.396 125.704 537.345 125.488 537.248L125.021 537.392L123.681 538.714L123.564 539.178C124.315 539.743 125.232 540.046 126.174 540.041Z" fill="#34A853"/>
<path d="M126.175 531.462C123.787 531.476 121.863 533.411 121.877 535.785C121.885 537.11 122.507 538.357 123.565 539.165L125.493 537.249C124.657 536.873 124.285 535.894 124.662 535.063C125.04 534.232 126.025 533.862 126.861 534.238C127.23 534.403 127.525 534.697 127.692 535.063L129.62 533.147C128.8 532.08 127.525 531.457 126.175 531.462Z" fill="#FBBC05"/>
<path d="M102.283 552.473C101.126 552.487 100.014 552.033 99.2015 551.215C98.3625 550.431 97.8938 549.334 97.9085 548.189C97.8948 547.045 98.3634 545.948 99.2015 545.164C100.01 544.337 101.123 543.874 102.283 543.883C103.387 543.869 104.452 544.295 105.238 545.067L104.407 545.907C103.838 545.36 103.074 545.061 102.283 545.072C101.453 545.062 100.656 545.399 100.088 545.999C99.4983 546.581 99.173 547.378 99.1867 548.203C99.1794 549.02 99.5047 549.804 100.088 550.379C101.29 551.57 103.228 551.593 104.459 550.431C104.825 550.032 105.049 549.525 105.098 548.988H102.296V547.8H106.261C106.299 548.04 106.315 548.282 106.307 548.525C106.357 549.537 105.988 550.526 105.285 551.263C104.503 552.071 103.411 552.511 102.283 552.473ZM111.499 551.684C110.394 552.736 108.65 552.736 107.544 551.684C107.009 551.168 106.716 550.452 106.737 549.712C106.716 548.971 107.009 548.256 107.544 547.74C108.651 546.69 110.393 546.69 111.499 547.74C112.034 548.256 112.327 548.971 112.307 549.712C112.326 550.453 112.031 551.168 111.495 551.684H111.499ZM108.417 550.909C108.988 551.515 109.945 551.547 110.556 550.978C110.579 550.956 110.603 550.933 110.625 550.909C110.937 550.589 111.105 550.157 111.092 549.712C111.106 549.265 110.938 548.831 110.625 548.51C110.038 547.902 109.066 547.881 108.453 548.464C108.437 548.479 108.422 548.494 108.407 548.51C108.095 548.831 107.927 549.265 107.94 549.712C107.928 550.157 108.098 550.589 108.412 550.909H108.417ZM117.578 551.684C116.472 552.736 114.728 552.736 113.623 551.684C113.087 551.168 112.795 550.452 112.815 549.712C112.795 548.971 113.088 548.256 113.623 547.74C114.728 546.687 116.472 546.687 117.578 547.74C118.113 548.256 118.406 548.971 118.386 549.712C118.407 550.452 118.114 551.168 117.578 551.684ZM114.497 550.909C115.067 551.515 116.025 551.547 116.635 550.978C116.659 550.956 116.683 550.933 116.705 550.909C117.016 550.589 117.185 550.157 117.172 549.712C117.186 549.265 117.017 548.831 116.705 548.51C116.118 547.902 115.146 547.881 114.534 548.464C114.518 548.479 114.502 548.494 114.488 548.51C114.175 548.831 114.007 549.265 114.021 549.712C114.009 550.157 114.179 550.589 114.492 550.909H114.497ZM121.574 554.95C121.015 554.968 120.466 554.794 120.019 554.458C119.623 554.162 119.311 553.768 119.113 553.316L120.178 552.875C120.293 553.146 120.474 553.383 120.705 553.567C120.951 553.764 121.261 553.868 121.578 553.859C121.984 553.884 122.381 553.731 122.666 553.442C122.947 553.105 123.086 552.672 123.054 552.235V551.836H123.011C122.65 552.262 122.109 552.494 121.55 552.463C120.842 552.464 120.165 552.172 119.683 551.655C119.161 551.143 118.873 550.441 118.885 549.711C118.872 548.978 119.16 548.271 119.683 547.753C120.164 547.234 120.841 546.939 121.55 546.941C121.847 546.94 122.141 547.006 122.41 547.131C122.642 547.231 122.849 547.382 123.017 547.572H123.059V547.131H124.217V552.073C124.279 552.863 124.01 553.643 123.475 554.231C122.965 554.716 122.28 554.975 121.574 554.95ZM121.659 551.387C122.062 551.396 122.449 551.225 122.714 550.923C123.001 550.595 123.154 550.17 123.138 549.735C123.156 549.292 123.004 548.86 122.714 548.524C122.449 548.22 122.062 548.051 121.659 548.06C121.244 548.052 120.846 548.22 120.566 548.524C120.257 548.848 120.089 549.28 120.099 549.725C120.09 550.168 120.257 550.595 120.566 550.914C120.845 551.22 121.243 551.392 121.659 551.387ZM126.276 544.195V552.305H125.058V544.195H126.276ZM129.619 552.473C128.881 552.492 128.169 552.204 127.654 551.679C127.131 551.158 126.845 550.447 126.864 549.712C126.837 548.975 127.112 548.258 127.625 547.725C128.111 547.218 128.789 546.936 129.493 546.95C129.813 546.946 130.13 547.009 130.426 547.131C130.693 547.238 130.935 547.396 131.14 547.595C131.317 547.764 131.473 547.952 131.607 548.157C131.715 548.329 131.807 548.511 131.883 548.699L132.009 549.015L128.274 550.542C128.506 551.07 129.04 551.402 129.618 551.378C130.178 551.379 130.697 551.088 130.987 550.612L131.92 551.239C131.682 551.578 131.377 551.865 131.023 552.084C130.604 552.347 130.116 552.482 129.619 552.473ZM128.06 549.628L130.544 548.602C130.468 548.421 130.331 548.273 130.156 548.18C129.961 548.071 129.741 548.015 129.516 548.018C129.137 548.028 128.776 548.186 128.513 548.459C128.194 548.762 128.028 549.19 128.06 549.628Z" fill="#A8A8C1"/>
<path d="M138.394 552.473C136.269 552.509 134.518 550.827 134.481 548.715C134.48 548.664 134.48 548.612 134.482 548.561C134.432 546.45 136.115 544.699 138.239 544.65C138.29 544.649 138.342 544.649 138.394 544.649C139.456 544.616 140.476 545.067 141.163 545.873L140.49 546.523C139.985 545.892 139.208 545.538 138.398 545.571C137.622 545.554 136.871 545.852 136.321 546.397C135.748 546.969 135.442 547.753 135.475 548.559C135.441 549.366 135.748 550.149 136.321 550.722C136.871 551.267 137.622 551.565 138.398 551.547C139.303 551.558 140.162 551.158 140.732 550.462L141.405 551.13C141.053 551.548 140.611 551.883 140.112 552.109C139.574 552.358 138.987 552.482 138.394 552.473Z" fill="#A8A8C1"/>
<path d="M143.213 552.305H142.246V544.811H143.213V552.305Z" fill="#A8A8C1"/>
<path d="M144.791 547.795C145.845 546.755 147.547 546.755 148.601 547.795C149.101 548.32 149.37 549.021 149.348 549.744C149.37 550.466 149.101 551.168 148.601 551.693C147.547 552.733 145.845 552.733 144.791 551.693C144.291 551.168 144.022 550.466 144.044 549.744C144.022 549.021 144.29 548.32 144.791 547.795ZM145.51 551.09C146.128 551.739 147.159 551.768 147.814 551.153C147.836 551.133 147.857 551.111 147.877 551.09C148.218 550.726 148.398 550.242 148.377 549.745C148.399 549.248 148.219 548.763 147.877 548.399C147.259 547.75 146.228 547.722 145.573 548.336C145.551 548.357 145.53 548.378 145.51 548.399C145.169 548.763 144.989 549.248 145.01 549.745C144.991 550.241 145.173 550.724 145.514 551.085L145.51 551.09Z" fill="#A8A8C1"/>
<path d="M154.7 552.305H153.767V551.596H153.739C153.573 551.865 153.338 552.086 153.057 552.236C152.767 552.403 152.436 552.492 152.1 552.491C151.547 552.528 151.007 552.313 150.634 551.906C150.28 551.462 150.103 550.904 150.134 550.338V547.183H151.101V550.162C151.101 551.118 151.526 551.596 152.376 551.596C152.759 551.608 153.124 551.435 153.356 551.132C153.607 550.817 153.74 550.425 153.735 550.023V547.183H154.701V552.305H154.7Z" fill="#A8A8C1"/>
<path d="M157.984 552.473C157.32 552.474 156.689 552.189 156.256 551.688C155.772 551.157 155.513 550.461 155.532 549.744C155.513 549.027 155.772 548.331 156.256 547.799C156.689 547.3 157.32 547.013 157.984 547.015C158.351 547.009 158.714 547.095 159.039 547.265C159.325 547.408 159.566 547.624 159.739 547.892H159.781L159.739 547.182V544.811H160.706V552.305H159.772V551.596H159.73C159.557 551.863 159.315 552.08 159.03 552.222C158.708 552.39 158.349 552.477 157.984 552.473ZM158.143 551.596C158.585 551.602 159.009 551.42 159.305 551.094C159.633 550.723 159.802 550.238 159.772 549.744C159.802 549.251 159.633 548.765 159.305 548.393C158.719 547.752 157.721 547.705 157.076 548.289C157.039 548.322 157.004 548.357 156.971 548.393C156.642 548.762 156.474 549.246 156.504 549.738C156.474 550.231 156.642 550.715 156.971 551.084C157.269 551.416 157.696 551.602 158.143 551.596Z" fill="#A8A8C1"/>
</g>
<g clip-path="url(#clip1)">
<path d="M216.541 491.313C219.53 490.789 221.998 490.356 222.027 490.35L222.078 490.339L219.256 487.01C217.704 485.18 216.434 483.675 216.434 483.666C216.434 483.65 219.348 475.693 219.365 475.664C219.37 475.655 221.353 479.05 224.172 483.894C226.81 488.429 228.986 492.168 229.006 492.203L229.043 492.267L220.074 492.266L211.106 492.265L216.541 491.313V491.313ZM250.934 490.508C249.569 490.421 248.775 489.65 248.564 488.207C248.508 487.823 248.508 487.813 248.502 485.322L248.497 482.91H249.101H249.705L249.71 485.243C249.714 487.345 249.717 487.592 249.737 487.739C249.819 488.34 249.983 488.743 250.262 489.033C250.485 489.265 250.746 489.401 251.108 489.473C251.279 489.507 251.764 489.507 251.919 489.473C252.286 489.393 252.58 489.235 252.839 488.978C253.134 488.685 253.353 488.269 253.459 487.8L253.494 487.641L253.498 485.289L253.502 482.936H254.119H254.736V486.634V490.332H254.126H253.515V489.746C253.515 489.347 253.511 489.16 253.501 489.164C253.494 489.166 253.462 489.214 253.432 489.269C253.221 489.65 252.871 489.998 252.487 490.207C252.026 490.458 251.565 490.548 250.934 490.508L250.934 490.508ZM264.79 490.502C264.309 490.466 263.801 490.301 263.386 490.047C262.512 489.511 261.995 488.627 261.844 487.411C261.791 486.99 261.785 486.425 261.829 486.067C261.926 485.268 262.243 484.483 262.694 483.923C262.81 483.78 263.072 483.52 263.217 483.405C263.607 483.096 264.065 482.879 264.55 482.774C264.833 482.713 265.331 482.684 265.632 482.711C266.387 482.781 267.079 483.133 267.549 483.688C268.027 484.252 268.29 485.039 268.323 486.009C268.329 486.161 268.33 486.428 268.326 486.601L268.319 486.917L265.675 486.921L263.031 486.924V487.041C263.031 487.397 263.118 487.803 263.269 488.148C263.399 488.446 263.623 488.771 263.807 488.928C264.183 489.251 264.644 489.444 265.148 489.49C265.334 489.507 265.811 489.489 266.023 489.457C266.631 489.364 267.208 489.128 267.675 488.781C267.73 488.74 267.782 488.702 267.792 488.697C267.805 488.688 267.808 488.795 267.808 489.243L267.808 489.799L267.683 489.876C267.155 490.2 266.551 490.407 265.911 490.485C265.72 490.508 265.019 490.519 264.79 490.502L264.79 490.502ZM267.092 485.807C267.092 485.21 266.838 484.547 266.479 484.206C266.223 483.962 265.914 483.813 265.546 483.757C265.372 483.73 265.005 483.74 264.821 483.777C264.433 483.855 264.112 484.024 263.832 484.298C263.537 484.587 263.316 484.938 263.178 485.337C263.128 485.481 263.069 485.717 263.051 485.848L263.042 485.911H265.067H267.092V485.807ZM231.222 490.316C231.225 490.307 232.123 487.968 233.217 485.118L235.207 479.936L235.846 479.936L236.486 479.936L236.539 480.071C236.701 480.483 240.522 490.321 240.522 490.326C240.522 490.33 240.216 490.332 239.842 490.332L239.162 490.332L238.611 488.878L238.06 487.424L235.843 487.424L233.625 487.424L233.606 487.473C233.595 487.5 233.36 488.155 233.083 488.927L232.579 490.332L231.898 490.332C231.358 490.332 231.217 490.329 231.222 490.316V490.316ZM237.656 486.314C237.656 486.312 237.285 485.316 236.832 484.1C235.984 481.826 235.937 481.689 235.87 481.324C235.839 481.153 235.823 481.148 235.804 481.305C235.791 481.416 235.733 481.666 235.688 481.805C235.666 481.873 235.285 482.912 234.84 484.113C234.396 485.314 234.032 486.301 234.032 486.307C234.032 486.313 234.848 486.319 235.844 486.319C236.84 486.319 237.656 486.317 237.656 486.314V486.314ZM240.934 490.143V489.954L243.143 486.942L245.353 483.93L243.352 483.923L241.352 483.917L241.348 483.413L241.345 482.91H244.238H247.131V483.08V483.25L244.922 486.278C243.706 487.944 242.712 489.309 242.712 489.313C242.712 489.316 243.694 489.319 244.895 489.319H247.078V489.826V490.332H244.006H240.934V490.143ZM257.147 490.324C257.142 490.319 257.138 488.649 257.138 486.612V482.91H257.742H258.346V483.673C258.346 484.093 258.351 484.437 258.357 484.437C258.364 484.437 258.393 484.368 258.423 484.284C258.558 483.899 258.794 483.539 259.097 483.254C259.37 482.996 259.683 482.842 260.051 482.783C260.155 482.767 260.242 482.764 260.449 482.769C260.709 482.776 260.845 482.794 261.004 482.846L261.053 482.862V483.483V484.105L260.911 484.034C260.659 483.909 260.41 483.86 260.111 483.875C259.916 483.885 259.789 483.91 259.633 483.968C259.313 484.087 259.054 484.297 258.872 484.584C258.61 484.999 258.422 485.533 258.367 486.024C258.357 486.112 258.351 486.829 258.349 488.243L258.346 490.332H257.751C257.424 490.332 257.152 490.328 257.147 490.324V490.324ZM205.777 490.298C205.777 490.293 207.107 488.004 208.732 485.211L211.687 480.133L215.131 477.268C217.025 475.692 218.579 474.4 218.586 474.398C218.592 474.395 218.567 474.458 218.53 474.536C218.494 474.614 216.811 478.193 214.791 482.489L211.118 490.299L208.448 490.303C206.979 490.305 205.777 490.302 205.777 490.298V490.298Z" fill="#0089D6"/>
</g>
<path d="M343.217 545.763V550.037C350.463 550.037 356.105 543.038 353.735 535.446C352.699 532.128 350.062 529.492 346.744 528.456C339.151 526.086 332.15 531.727 332.15 538.973H336.435C336.436 538.973 336.436 538.971 336.436 538.971C336.437 534.424 340.937 530.909 345.719 532.644C347.49 533.287 348.903 534.699 349.546 536.47C351.281 541.247 347.77 545.746 343.227 545.752V541.491L343.226 541.491H338.954C338.954 541.491 338.954 541.492 338.954 541.492V545.763H343.217V545.763ZM338.953 549.046H335.671L335.67 549.045V545.763H338.954V549.045C338.954 549.045 338.953 549.046 338.953 549.046V549.046ZM335.672 545.763H332.921C332.919 545.763 332.919 545.762 332.919 545.762V543.012C332.919 543.012 332.919 543.01 332.921 543.01H335.67C335.671 543.01 335.672 543.011 335.672 543.011V545.763V545.763Z" fill="#0080FF"/>
<path d="M324.925 554.374C324.368 553.987 323.675 553.791 322.865 553.791H321.102V559.385H322.865C323.673 559.385 324.366 559.178 324.926 558.771C325.23 558.555 325.47 558.253 325.637 557.874C325.804 557.496 325.888 557.052 325.888 556.552C325.888 556.057 325.804 555.618 325.637 555.247C325.47 554.873 325.23 554.579 324.925 554.374V554.374ZM322.132 554.737H322.685C323.301 554.737 323.808 554.858 324.192 555.097C324.619 555.354 324.835 555.844 324.835 556.552C324.835 557.281 324.618 557.792 324.19 558.072H324.19C323.822 558.316 323.318 558.439 322.693 558.439H322.132V554.737V554.737ZM326.61 559.385H327.602V555.445H326.61V559.385ZM327.115 553.722C326.946 553.722 326.8 553.782 326.682 553.9C326.563 554.013 326.503 554.157 326.503 554.327C326.503 554.497 326.563 554.642 326.682 554.761C326.8 554.879 326.946 554.939 327.115 554.939C327.285 554.939 327.431 554.879 327.549 554.761C327.668 554.642 327.728 554.496 327.728 554.327C327.728 554.157 327.668 554.014 327.549 553.901C327.493 553.843 327.425 553.798 327.351 553.767C327.276 553.736 327.196 553.721 327.115 553.722V553.722ZM331.202 555.774C330.903 555.508 330.57 555.353 330.209 555.353C329.661 555.353 329.206 555.542 328.857 555.916C328.503 556.285 328.323 556.762 328.323 557.331C328.323 557.887 328.5 558.361 328.849 558.742C329.201 559.11 329.659 559.297 330.209 559.297C330.591 559.297 330.92 559.19 331.187 558.98V559.071C331.187 559.398 331.1 559.652 330.927 559.827C330.755 560.001 330.515 560.09 330.216 560.09C329.759 560.09 329.472 559.91 329.123 559.438L328.447 560.087L328.466 560.112C328.611 560.317 328.835 560.517 329.13 560.707C329.425 560.897 329.795 560.993 330.232 560.993C330.82 560.993 331.296 560.812 331.647 560.454C332 560.094 332.178 559.613 332.178 559.023V555.445H331.202V555.774V555.774ZM330.942 558.101C330.769 558.298 330.547 558.393 330.262 558.393C329.978 558.393 329.757 558.298 329.586 558.101C329.416 557.906 329.33 557.646 329.33 557.331C329.33 557.01 329.416 556.747 329.586 556.55C329.754 556.356 329.982 556.257 330.262 556.257C330.546 556.257 330.769 556.353 330.942 556.551C331.115 556.748 331.202 557.01 331.202 557.331C331.202 557.646 331.115 557.906 330.942 558.101V558.101ZM333.027 559.385H334.019V555.445H333.027V559.385ZM333.532 553.722C333.363 553.722 333.217 553.782 333.099 553.9C332.98 554.013 332.92 554.157 332.92 554.327C332.92 554.497 332.98 554.642 333.099 554.761C333.217 554.879 333.363 554.939 333.533 554.939C333.613 554.941 333.693 554.926 333.768 554.895C333.843 554.864 333.91 554.818 333.967 554.761C334.085 554.642 334.145 554.496 334.145 554.327C334.145 554.157 334.085 554.014 333.967 553.901C333.91 553.843 333.843 553.798 333.768 553.767C333.693 553.736 333.613 553.721 333.533 553.722H333.532ZM336.192 554.381H335.216V555.445H334.649V556.349H335.216V557.985C335.216 558.497 335.318 558.864 335.52 559.074C335.722 559.286 336.082 559.393 336.588 559.393C336.75 559.393 336.912 559.387 337.07 559.377L337.115 559.374V558.471L336.775 558.489C336.539 558.489 336.381 558.447 336.306 558.366C336.23 558.283 336.192 558.107 336.192 557.845V556.349H337.115V555.445H336.192V554.381V554.381ZM340.518 555.74C340.217 555.483 339.802 555.353 339.283 555.353C338.953 555.353 338.645 555.426 338.366 555.567C338.108 555.698 337.854 555.915 337.693 556.199L337.703 556.211L338.338 556.818C338.599 556.401 338.89 556.257 339.276 556.257C339.483 556.257 339.655 556.312 339.787 556.422C339.919 556.531 339.983 556.669 339.983 556.844V557.036C339.746 556.962 339.5 556.925 339.253 556.923C338.759 556.923 338.358 557.039 338.06 557.268C337.758 557.5 337.605 557.831 337.605 558.254C337.605 558.624 337.733 558.924 337.989 559.148C338.247 559.364 338.569 559.473 338.947 559.473C339.324 559.473 339.677 559.321 339.998 559.06V559.385H340.974V556.852C340.974 556.373 340.82 555.998 340.518 555.74ZM338.757 557.879C338.87 557.801 339.029 557.761 339.23 557.761C339.468 557.761 339.721 557.809 339.983 557.904V558.29C339.767 558.491 339.479 558.592 339.126 558.592C338.955 558.592 338.821 558.554 338.73 558.479C338.64 558.405 338.596 558.311 338.596 558.192C338.596 558.057 338.649 557.955 338.757 557.879V557.879ZM341.764 559.385H342.755V553.791H341.764V559.385V559.385ZM346.353 559.469C344.763 559.469 343.469 558.176 343.469 556.585C343.469 554.995 344.763 553.702 346.353 553.702C347.943 553.702 349.237 554.995 349.237 556.585C349.237 558.176 347.943 559.469 346.353 559.469H346.353ZM346.353 554.718C345.323 554.718 344.485 555.556 344.485 556.585C344.485 557.615 345.323 558.453 346.353 558.453C347.383 558.453 348.221 557.615 348.221 556.585C348.221 555.556 347.383 554.718 346.353 554.718L346.353 554.718ZM352.772 557.976C352.595 558.175 352.414 558.347 352.274 558.437V558.437C352.137 558.525 351.964 558.57 351.76 558.57C351.468 558.57 351.233 558.463 351.041 558.244C350.851 558.026 350.755 557.746 350.755 557.411C350.755 557.076 350.85 556.797 351.038 556.58C351.226 556.362 351.46 556.257 351.752 556.257C352.071 556.257 352.408 556.455 352.697 556.796L353.352 556.168C352.925 555.612 352.38 555.353 351.729 555.353C351.185 555.353 350.713 555.551 350.327 555.942C349.942 556.33 349.748 556.825 349.748 557.411C349.748 557.998 349.942 558.493 350.326 558.884C350.71 559.275 351.182 559.473 351.729 559.473C352.447 559.473 353.026 559.163 353.417 558.596L352.772 557.976ZM356.842 555.995C356.701 555.8 356.51 555.642 356.273 555.527C356.036 555.412 355.76 555.353 355.453 555.353C354.9 555.353 354.447 555.557 354.107 555.961C353.777 556.36 353.61 556.857 353.61 557.438C353.61 558.035 353.793 558.529 354.155 558.907C354.515 559.282 354.997 559.473 355.587 559.473C356.256 559.473 356.805 559.203 357.218 558.669L357.24 558.641L356.594 558.019C356.534 558.092 356.449 558.174 356.371 558.247C356.273 558.339 356.181 558.41 356.083 558.459C355.935 558.533 355.768 558.57 355.582 558.57C355.308 558.57 355.08 558.489 354.906 558.329C354.744 558.18 354.648 557.979 354.623 557.731H357.25L357.259 557.369C357.259 557.113 357.224 556.866 357.155 556.635C357.087 556.406 356.981 556.19 356.842 555.995V555.995ZM354.675 556.923C354.723 556.734 354.809 556.578 354.934 556.456C355.068 556.324 355.243 556.257 355.453 556.257C355.694 556.257 355.88 556.325 356.007 556.46C356.124 556.585 356.19 556.741 356.204 556.923H354.675V556.923ZM360.65 555.74C360.349 555.483 359.934 555.353 359.415 555.353C359.085 555.353 358.777 555.426 358.498 555.567C358.239 555.698 357.986 555.915 357.825 556.199L357.835 556.211L358.47 556.818C358.731 556.401 359.022 556.257 359.408 556.257C359.615 556.257 359.787 556.312 359.919 556.422C360.05 556.531 360.115 556.669 360.115 556.844V557.036C359.878 556.962 359.632 556.925 359.385 556.923C358.891 556.923 358.49 557.039 358.191 557.268C357.889 557.5 357.736 557.831 357.736 558.254C357.736 558.624 357.865 558.924 358.121 559.148C358.379 559.364 358.701 559.473 359.078 559.473C359.456 559.473 359.809 559.321 360.13 559.06V559.385H361.106V556.852C361.106 556.373 360.952 555.998 360.65 555.74V555.74ZM358.889 557.879C359.002 557.801 359.16 557.761 359.362 557.761C359.6 557.761 359.853 557.809 360.115 557.904V558.29C359.899 558.491 359.611 558.592 359.258 558.592C359.087 558.592 358.953 558.554 358.862 558.479C358.772 558.405 358.728 558.311 358.728 558.192C358.728 558.057 358.781 557.955 358.889 557.879V557.879ZM364.92 555.817C364.644 555.509 364.256 555.353 363.766 555.353C363.373 555.353 363.054 555.466 362.815 555.689V555.445H361.842V559.385H362.834V557.212C362.834 556.914 362.905 556.677 363.045 556.507C363.185 556.339 363.377 556.257 363.633 556.257C363.857 556.257 364.027 556.33 364.153 556.481C364.279 556.632 364.343 556.841 364.343 557.101V559.385H365.334V557.101C365.334 556.555 365.195 556.124 364.92 555.817V555.817Z" fill="#0080FF"/>
<g clip-path="url(#clip2)">
<path d="M229.519 608.729C229.519 609.124 229.563 609.443 229.64 609.677C229.738 609.941 229.856 610.197 229.993 610.444C230.049 610.529 230.071 610.614 230.071 610.689C230.071 610.795 230.004 610.902 229.861 611.008L229.166 611.455C229.067 611.519 228.967 611.551 228.879 611.551C228.769 611.551 228.658 611.498 228.548 611.402C228.399 611.248 228.267 611.08 228.151 610.902C228.041 610.721 227.93 610.518 227.809 610.273C226.949 611.253 225.867 611.743 224.566 611.743C223.639 611.743 222.9 611.487 222.359 610.976C221.819 610.465 221.543 609.784 221.543 608.932C221.543 608.027 221.874 607.292 222.547 606.738C223.22 606.185 224.113 605.908 225.25 605.908C225.625 605.908 226.011 605.94 226.419 605.993C226.827 606.046 227.246 606.132 227.688 606.227V605.45C227.688 604.641 227.511 604.077 227.169 603.746C226.816 603.416 226.22 603.257 225.371 603.257C224.985 603.257 224.588 603.299 224.18 603.395C223.771 603.491 223.374 603.608 222.988 603.757C222.812 603.832 222.679 603.874 222.602 603.896C222.525 603.917 222.47 603.927 222.425 603.927C222.271 603.927 222.194 603.821 222.194 603.597V603.076C222.194 602.905 222.216 602.777 222.271 602.703C222.326 602.628 222.425 602.554 222.58 602.479C222.966 602.288 223.429 602.128 223.97 602C224.511 601.862 225.084 601.798 225.691 601.798C227.004 601.798 227.964 602.085 228.581 602.66C229.188 603.235 229.497 604.108 229.497 605.28V608.729H229.519H229.519ZM225.04 610.348C225.404 610.348 225.779 610.284 226.176 610.156C226.573 610.029 226.927 609.794 227.224 609.475C227.401 609.273 227.533 609.049 227.599 608.793C227.666 608.538 227.71 608.229 227.71 607.867V607.42C227.375 607.341 227.036 607.281 226.695 607.239C226.351 607.197 226.004 607.175 225.658 607.175C224.919 607.175 224.378 607.313 224.014 607.601C223.65 607.888 223.473 608.293 223.473 608.825C223.473 609.326 223.606 609.698 223.882 609.954C224.146 610.22 224.533 610.348 225.04 610.348ZM233.899 611.498C233.7 611.498 233.568 611.466 233.479 611.391C233.391 611.328 233.314 611.179 233.248 610.976L230.655 602.746C230.589 602.533 230.556 602.394 230.556 602.32C230.556 602.149 230.644 602.053 230.821 602.053H231.902C232.111 602.053 232.255 602.085 232.332 602.16C232.42 602.224 232.487 602.373 232.553 602.575L234.406 609.624L236.127 602.575C236.182 602.362 236.248 602.224 236.337 602.16C236.425 602.096 236.579 602.053 236.778 602.053H237.66C237.87 602.053 238.014 602.085 238.102 602.16C238.19 602.224 238.267 602.373 238.311 602.575L240.054 609.709L241.963 602.575C242.029 602.362 242.106 602.224 242.183 602.16C242.272 602.096 242.415 602.053 242.614 602.053H243.64C243.816 602.053 243.915 602.139 243.915 602.32C243.915 602.373 243.904 602.426 243.893 602.49C243.882 602.554 243.86 602.639 243.816 602.756L241.157 610.987C241.091 611.2 241.014 611.338 240.926 611.402C240.838 611.466 240.694 611.509 240.507 611.509H239.558C239.348 611.509 239.205 611.477 239.117 611.402C239.028 611.328 238.951 611.189 238.907 610.976L237.197 604.108L235.498 610.965C235.443 611.179 235.377 611.317 235.289 611.391C235.2 611.466 235.046 611.498 234.847 611.498H233.898H233.899ZM248.075 611.785C247.501 611.785 246.927 611.722 246.376 611.594C245.824 611.466 245.394 611.327 245.107 611.168C244.93 611.072 244.809 610.966 244.765 610.87C244.722 610.776 244.7 610.674 244.699 610.572V610.029C244.699 609.805 244.787 609.698 244.953 609.698C245.02 609.699 245.087 609.71 245.151 609.73C245.217 609.752 245.317 609.794 245.427 609.837C245.817 610.002 246.223 610.127 246.64 610.21C247.073 610.294 247.512 610.337 247.953 610.337C248.648 610.337 249.189 610.22 249.564 609.986C249.939 609.752 250.138 609.411 250.138 608.974C250.138 608.676 250.038 608.431 249.84 608.229C249.641 608.027 249.266 607.846 248.726 607.675L247.126 607.196C246.321 606.951 245.725 606.589 245.361 606.11C244.997 605.642 244.809 605.12 244.809 604.566C244.809 604.119 244.908 603.725 245.107 603.384C245.306 603.044 245.57 602.746 245.901 602.511C246.232 602.266 246.607 602.085 247.049 601.958C247.49 601.83 247.953 601.777 248.439 601.777C248.681 601.777 248.935 601.787 249.178 601.819C249.432 601.851 249.663 601.894 249.895 601.936C250.115 601.99 250.325 602.043 250.524 602.107C250.722 602.171 250.877 602.234 250.987 602.298C251.141 602.384 251.252 602.469 251.318 602.565C251.384 602.65 251.417 602.767 251.417 602.916V603.416C251.417 603.64 251.329 603.757 251.163 603.757C251.075 603.757 250.932 603.714 250.744 603.629C250.115 603.352 249.409 603.214 248.626 603.214C247.997 603.214 247.501 603.31 247.159 603.512C246.817 603.714 246.64 604.023 246.64 604.46C246.64 604.758 246.751 605.013 246.971 605.216C247.192 605.418 247.6 605.62 248.185 605.801L249.751 606.281C250.546 606.526 251.119 606.866 251.461 607.303C251.803 607.739 251.969 608.24 251.969 608.793C251.969 609.251 251.869 609.667 251.682 610.029C251.483 610.391 251.219 610.71 250.877 610.966C250.535 611.232 250.127 611.423 249.652 611.562C249.156 611.711 248.637 611.785 248.075 611.785V611.785Z" fill="#A8A8C1"/>
<path d="M250.16 616.96C246.531 619.548 241.257 620.921 236.723 620.921C230.369 620.921 224.643 618.653 220.319 614.884C219.977 614.586 220.286 614.181 220.694 614.415C225.371 617.035 231.141 618.621 237.109 618.621C241.136 618.621 245.56 617.812 249.631 616.151C250.237 615.885 250.756 616.534 250.16 616.96V616.96ZM251.671 615.299C251.208 614.724 248.604 615.022 247.424 615.161C247.071 615.203 247.016 614.905 247.336 614.682C249.41 613.276 252.819 613.681 253.216 614.149C253.613 614.628 253.105 617.918 251.164 619.494C250.866 619.739 250.579 619.612 250.712 619.292C251.153 618.238 252.135 615.864 251.671 615.299V615.299Z" fill="#FF9900"/>
</g>
<rect opacity="0.05" width="275.765" height="278.095" rx="1.44" transform="matrix(0.866074 -0.499916 0.866074 0.499916 -0.0976562 337.823)" fill="#8686B3"/>
<rect opacity="0.4" width="107.996" height="105.428" rx="1.44" transform="matrix(0.866074 -0.499916 0.866074 0.499916 148.492 275.158)" fill="#357AFF"/>
<rect opacity="0.4" width="107.996" height="105.428" rx="1.44" transform="matrix(0.866074 -0.499916 0.866074 0.499916 41.457 338.651)" fill="#357AFF"/>
<rect opacity="0.4" width="107.996" height="105.428" rx="1.44" transform="matrix(0.866074 -0.499916 0.866074 0.499916 146.23 400.451)" fill="#357AFF"/>
<rect opacity="0.4" width="107.996" height="105.428" rx="1.44" transform="matrix(0.866074 -0.499916 0.866074 0.499916 252.51 337.897)" fill="#357AFF"/>
<g clip-path="url(#clip3)">
<path d="M336.468 342.794C335.792 342.794 335.153 342.494 334.721 341.949L328.147 333.779C327.715 333.235 327.546 332.54 327.715 331.864L330.063 321.666C330.213 320.99 330.664 320.445 331.284 320.145L340.788 315.6C341.089 315.45 341.427 315.374 341.765 315.374C342.103 315.374 342.441 315.449 342.742 315.6L352.246 320.126C352.866 320.426 353.317 320.971 353.467 321.647L355.815 331.845C355.965 332.521 355.815 333.216 355.383 333.761L348.809 341.93C348.376 342.456 347.738 342.775 347.062 342.775L336.468 342.794H336.468Z" fill="#326DE6"/>
<path d="M351.269 331.15C351.251 331.15 351.251 331.15 351.269 331.15H351.251C351.232 331.15 351.213 331.15 351.213 331.131C351.176 331.131 351.138 331.113 351.1 331.113C350.969 331.094 350.856 331.075 350.744 331.075C350.687 331.075 350.631 331.075 350.556 331.056H350.537C350.143 331.019 349.823 330.981 349.523 330.887C349.391 330.831 349.354 330.756 349.316 330.681C349.316 330.662 349.297 330.662 349.297 330.643L349.053 330.568C349.168 329.684 349.124 328.787 348.922 327.92C348.716 327.045 348.361 326.212 347.87 325.46L348.058 325.291V325.253C348.058 325.159 348.076 325.065 348.151 324.971C348.377 324.765 348.659 324.596 348.997 324.389C349.053 324.352 349.109 324.333 349.166 324.295C349.278 324.239 349.372 324.183 349.485 324.107C349.504 324.089 349.541 324.07 349.579 324.032C349.598 324.013 349.617 324.013 349.617 323.995C349.879 323.769 349.936 323.394 349.748 323.149C349.654 323.018 349.485 322.943 349.316 322.943C349.166 322.943 349.034 322.999 348.903 323.093L348.865 323.131C348.828 323.149 348.809 323.187 348.771 323.206C348.677 323.3 348.602 323.375 348.527 323.469C348.49 323.506 348.452 323.563 348.396 323.6C348.133 323.882 347.888 324.107 347.644 324.276C347.588 324.314 347.532 324.333 347.475 324.333C347.438 324.333 347.4 324.333 347.363 324.314H347.325L347.1 324.464C346.855 324.201 346.592 323.976 346.329 323.751C345.197 322.866 343.835 322.325 342.404 322.192L342.385 321.948L342.347 321.91C342.291 321.854 342.216 321.797 342.197 321.666C342.178 321.365 342.216 321.027 342.254 320.652V320.633C342.254 320.577 342.272 320.501 342.291 320.445C342.31 320.333 342.329 320.22 342.347 320.088V319.919C342.347 319.581 342.084 319.3 341.765 319.3C341.615 319.3 341.465 319.375 341.352 319.487C341.239 319.6 341.183 319.75 341.183 319.919V320.069C341.183 320.201 341.202 320.314 341.239 320.426C341.258 320.483 341.258 320.539 341.277 320.614V320.633C341.314 321.009 341.371 321.347 341.333 321.647C341.314 321.779 341.239 321.835 341.183 321.891L341.145 321.929L341.126 322.173C340.788 322.21 340.45 322.248 340.112 322.323C338.666 322.642 337.389 323.375 336.393 324.427L336.205 324.295H336.168C336.13 324.295 336.093 324.314 336.055 324.314C335.999 324.314 335.942 324.295 335.886 324.258C335.642 324.089 335.398 323.844 335.135 323.563C335.097 323.525 335.06 323.469 335.003 323.431C334.928 323.337 334.853 323.262 334.759 323.168C334.74 323.149 334.703 323.131 334.665 323.093C334.646 323.074 334.628 323.074 334.628 323.056C334.511 322.96 334.365 322.906 334.214 322.905C334.045 322.905 333.876 322.98 333.782 323.112C333.594 323.356 333.651 323.732 333.914 323.957C333.933 323.957 333.932 323.976 333.951 323.976C333.989 323.995 334.008 324.032 334.045 324.051C334.158 324.126 334.252 324.182 334.365 324.239C334.421 324.258 334.477 324.295 334.534 324.333C334.872 324.539 335.153 324.708 335.379 324.915C335.473 325.009 335.473 325.103 335.473 325.197V325.234L335.661 325.403C335.623 325.46 335.586 325.497 335.567 325.553C334.627 327.037 334.271 328.784 334.515 330.512L334.271 330.587C334.271 330.605 334.252 330.605 334.252 330.624C334.214 330.699 334.158 330.774 334.045 330.831C333.764 330.925 333.425 330.962 333.031 331H333.012C332.956 331 332.881 331 332.824 331.019C332.712 331.019 332.599 331.037 332.467 331.056C332.43 331.056 332.392 331.075 332.355 331.075C332.336 331.075 332.317 331.075 332.298 331.094C331.96 331.169 331.754 331.488 331.81 331.789C331.866 332.052 332.111 332.221 332.411 332.221C332.467 332.221 332.505 332.221 332.561 332.202C332.58 332.202 332.599 332.202 332.599 332.183C332.636 332.183 332.674 332.164 332.712 332.164C332.843 332.127 332.937 332.089 333.05 332.033C333.106 332.014 333.162 331.976 333.219 331.958H333.238C333.594 331.826 333.914 331.713 334.214 331.676H334.252C334.365 331.676 334.44 331.732 334.496 331.77C334.515 331.77 334.515 331.789 334.534 331.789L334.797 331.751C335.247 333.141 336.111 334.38 337.257 335.282C337.52 335.488 337.783 335.657 338.065 335.827L337.952 336.071C337.952 336.089 337.971 336.089 337.971 336.108C338.008 336.183 338.046 336.277 338.008 336.409C337.896 336.69 337.727 336.972 337.52 337.291V337.31C337.483 337.367 337.445 337.404 337.408 337.46C337.332 337.554 337.276 337.648 337.201 337.761C337.182 337.78 337.163 337.817 337.144 337.855C337.144 337.874 337.126 337.892 337.126 337.892C336.975 338.212 337.088 338.568 337.37 338.7C337.445 338.737 337.52 338.756 337.595 338.756C337.821 338.756 338.046 338.606 338.159 338.399C338.159 338.381 338.178 338.362 338.178 338.362C338.196 338.324 338.215 338.287 338.234 338.268C338.29 338.136 338.309 338.043 338.347 337.93L338.403 337.761C338.534 337.385 338.628 337.085 338.797 336.822C338.872 336.709 338.966 336.69 339.042 336.653C339.06 336.653 339.06 336.653 339.079 336.634L339.211 336.39C340.037 336.709 340.939 336.878 341.84 336.878C342.385 336.878 342.949 336.822 343.474 336.69C343.805 336.616 344.132 336.522 344.451 336.409L344.564 336.615C344.583 336.615 344.583 336.615 344.601 336.634C344.695 336.653 344.77 336.69 344.846 336.803C344.996 337.066 345.109 337.385 345.24 337.742V337.761L345.296 337.93C345.334 338.043 345.353 338.155 345.409 338.268C345.428 338.305 345.447 338.324 345.465 338.362C345.465 338.381 345.484 338.399 345.484 338.399C345.597 338.625 345.822 338.756 346.048 338.756C346.123 338.756 346.198 338.737 346.273 338.7C346.405 338.625 346.517 338.512 346.555 338.362C346.592 338.212 346.592 338.043 346.517 337.892C346.517 337.874 346.498 337.874 346.498 337.855C346.48 337.817 346.461 337.78 346.442 337.761C346.386 337.648 346.311 337.554 346.236 337.46C346.198 337.404 346.16 337.367 346.123 337.31V337.291C345.916 336.972 345.728 336.69 345.635 336.409C345.597 336.277 345.635 336.202 345.653 336.108C345.653 336.089 345.672 336.089 345.672 336.071L345.578 335.845C346.574 335.263 347.419 334.437 348.058 333.423C348.396 332.897 348.659 332.314 348.846 331.732L349.072 331.77C349.091 331.77 349.091 331.751 349.109 331.751C349.184 331.713 349.241 331.657 349.354 331.657H349.391C349.692 331.695 350.011 331.807 350.368 331.939H350.387C350.443 331.958 350.499 331.995 350.556 332.014C350.668 332.07 350.762 332.108 350.894 332.145C350.931 332.145 350.969 332.164 351.006 332.164C351.025 332.164 351.044 332.164 351.063 332.183C351.119 332.202 351.157 332.202 351.213 332.202C351.495 332.202 351.739 332.014 351.814 331.77C351.814 331.545 351.608 331.244 351.269 331.15V331.15ZM342.573 330.23L341.746 330.624L340.92 330.23L340.713 329.347L341.277 328.634H342.197L342.761 329.347L342.573 330.23H342.573ZM347.475 328.277C347.621 328.898 347.665 329.538 347.607 330.173L344.733 329.347C344.47 329.272 344.32 329.009 344.376 328.746C344.395 328.671 344.432 328.596 344.489 328.54L346.762 326.492C347.081 327.018 347.325 327.619 347.475 328.277V328.277ZM345.86 325.366L343.399 327.112C343.193 327.244 342.911 327.206 342.742 327C342.686 326.943 342.667 326.868 342.648 326.793L342.479 323.732C343.758 323.879 344.95 324.455 345.86 325.366V325.366ZM340.413 323.825C340.619 323.788 340.807 323.75 341.014 323.713L340.845 326.718C340.826 326.981 340.619 327.206 340.338 327.206C340.263 327.206 340.169 327.187 340.112 327.15L337.614 325.366C338.384 324.596 339.342 324.07 340.413 323.826V323.825ZM336.712 326.492L338.948 328.483C339.154 328.652 339.173 328.971 339.004 329.178C338.948 329.253 338.873 329.309 338.779 329.328L335.867 330.173C335.755 328.896 336.036 327.6 336.712 326.492V326.492ZM336.205 331.582L339.192 331.075C339.436 331.056 339.661 331.225 339.718 331.469C339.737 331.582 339.737 331.676 339.699 331.77L338.553 334.53C337.501 333.854 336.656 332.821 336.205 331.582H336.205ZM343.061 335.319C342.629 335.413 342.197 335.469 341.746 335.469C341.089 335.469 340.45 335.357 339.849 335.169L341.333 332.483C341.483 332.314 341.728 332.239 341.934 332.352C342.022 332.406 342.098 332.476 342.16 332.558L343.606 335.169C343.437 335.225 343.249 335.263 343.061 335.319H343.061ZM346.724 332.709C346.254 333.46 345.634 334.061 344.921 334.53L343.737 331.695C343.681 331.469 343.775 331.225 344 331.112C344.075 331.075 344.169 331.056 344.263 331.056L347.269 331.563C347.156 331.976 346.968 332.352 346.724 332.709V332.709Z" fill="white"/>
</g>
<g clip-path="url(#clip4)">
<path d="M233.956 290.038C233.28 290.038 232.641 289.738 232.209 289.193L225.635 281.023C225.203 280.479 225.034 279.784 225.203 279.108L227.551 268.91C227.701 268.234 228.152 267.689 228.772 267.389L238.276 262.844C238.577 262.694 238.915 262.618 239.253 262.618C239.591 262.618 239.929 262.693 240.23 262.844L249.734 267.37C250.354 267.67 250.805 268.215 250.955 268.891L253.303 279.089C253.453 279.765 253.303 280.46 252.871 281.005L246.297 289.174C245.865 289.7 245.226 290.019 244.55 290.019L233.956 290.038H233.956Z" fill="#326DE6"/>
<path d="M248.758 278.394C248.739 278.394 248.739 278.394 248.758 278.394H248.739C248.72 278.394 248.701 278.394 248.701 278.375C248.664 278.375 248.626 278.357 248.589 278.357C248.457 278.338 248.345 278.319 248.232 278.319C248.175 278.319 248.119 278.319 248.044 278.3H248.025C247.631 278.263 247.311 278.225 247.011 278.131C246.879 278.075 246.842 278 246.804 277.925C246.804 277.906 246.785 277.906 246.785 277.887L246.541 277.812C246.657 276.929 246.612 276.031 246.41 275.164C246.205 274.289 245.849 273.456 245.358 272.704L245.546 272.535V272.497C245.546 272.403 245.565 272.309 245.64 272.215C245.865 272.009 246.147 271.84 246.485 271.633C246.541 271.596 246.598 271.577 246.654 271.539C246.767 271.483 246.861 271.427 246.973 271.351C246.992 271.333 247.03 271.314 247.067 271.276C247.086 271.257 247.105 271.257 247.105 271.239C247.368 271.013 247.424 270.638 247.236 270.393C247.142 270.262 246.973 270.187 246.804 270.187C246.654 270.187 246.523 270.243 246.391 270.337L246.354 270.375C246.316 270.393 246.297 270.431 246.26 270.45C246.166 270.544 246.09 270.619 246.015 270.713C245.978 270.75 245.94 270.807 245.884 270.844C245.621 271.126 245.377 271.351 245.133 271.52C245.076 271.558 245.02 271.577 244.964 271.577C244.926 271.577 244.888 271.577 244.851 271.558H244.813L244.588 271.708C244.344 271.445 244.081 271.22 243.818 270.995C242.686 270.11 241.323 269.569 239.892 269.436L239.873 269.192L239.836 269.154C239.779 269.098 239.704 269.041 239.685 268.91C239.667 268.609 239.704 268.271 239.742 267.896V267.877C239.742 267.821 239.761 267.746 239.779 267.689C239.798 267.577 239.817 267.464 239.836 267.332V267.163C239.836 266.825 239.573 266.544 239.253 266.544C239.103 266.544 238.953 266.619 238.84 266.731C238.728 266.844 238.671 266.994 238.671 267.163V267.314C238.671 267.445 238.69 267.558 238.727 267.67C238.746 267.727 238.746 267.783 238.765 267.858V267.877C238.803 268.253 238.859 268.591 238.821 268.891C238.803 269.023 238.727 269.079 238.671 269.135L238.634 269.173L238.615 269.417C238.277 269.454 237.939 269.492 237.6 269.567C236.154 269.886 234.877 270.619 233.881 271.671L233.694 271.539H233.656C233.619 271.539 233.581 271.558 233.543 271.558C233.487 271.558 233.431 271.539 233.374 271.502C233.13 271.333 232.886 271.088 232.623 270.807C232.585 270.769 232.548 270.713 232.492 270.675C232.416 270.581 232.341 270.506 232.247 270.412C232.228 270.393 232.191 270.375 232.153 270.337C232.135 270.318 232.116 270.318 232.116 270.3C232 270.204 231.854 270.15 231.703 270.149C231.533 270.149 231.364 270.225 231.271 270.356C231.083 270.6 231.139 270.976 231.402 271.201C231.421 271.201 231.421 271.22 231.44 271.22C231.477 271.239 231.496 271.276 231.533 271.295C231.646 271.37 231.74 271.426 231.853 271.483C231.909 271.502 231.966 271.539 232.022 271.577C232.36 271.783 232.642 271.952 232.867 272.159C232.961 272.253 232.961 272.347 232.961 272.441V272.478L233.149 272.647C233.111 272.704 233.074 272.741 233.055 272.797C232.116 274.281 231.759 276.028 232.003 277.756L231.759 277.831C231.759 277.85 231.74 277.85 231.74 277.868C231.703 277.943 231.646 278.018 231.533 278.075C231.252 278.169 230.914 278.206 230.519 278.244H230.5C230.444 278.244 230.369 278.244 230.313 278.263C230.2 278.263 230.087 278.281 229.956 278.3C229.918 278.3 229.881 278.319 229.843 278.319C229.824 278.319 229.806 278.319 229.787 278.338C229.449 278.413 229.242 278.732 229.298 279.033C229.355 279.296 229.599 279.465 229.899 279.465C229.956 279.465 229.993 279.465 230.05 279.446C230.068 279.446 230.087 279.446 230.087 279.427C230.125 279.427 230.162 279.408 230.2 279.408C230.331 279.371 230.425 279.333 230.538 279.277C230.594 279.258 230.651 279.22 230.707 279.202H230.726C231.083 279.07 231.402 278.958 231.703 278.92H231.74C231.853 278.92 231.928 278.976 231.984 279.014C232.003 279.014 232.003 279.033 232.022 279.033L232.285 278.995C232.736 280.385 233.6 281.624 234.745 282.526C235.008 282.732 235.271 282.901 235.553 283.071L235.44 283.315C235.44 283.333 235.459 283.333 235.459 283.352C235.497 283.427 235.534 283.521 235.497 283.653C235.384 283.934 235.215 284.216 235.008 284.535V284.554C234.971 284.611 234.933 284.648 234.896 284.704C234.821 284.798 234.764 284.892 234.689 285.005C234.67 285.024 234.652 285.061 234.633 285.099C234.633 285.118 234.614 285.136 234.614 285.136C234.464 285.456 234.576 285.812 234.858 285.944C234.933 285.981 235.008 286 235.084 286C235.309 286 235.534 285.85 235.647 285.643C235.647 285.625 235.666 285.606 235.666 285.606C235.685 285.568 235.703 285.531 235.722 285.512C235.779 285.38 235.797 285.287 235.835 285.174L235.891 285.005C236.023 284.629 236.117 284.329 236.286 284.066C236.361 283.953 236.455 283.934 236.53 283.897C236.549 283.897 236.549 283.897 236.567 283.878L236.699 283.634C237.525 283.953 238.427 284.122 239.329 284.122C239.873 284.122 240.437 284.066 240.963 283.934C241.294 283.86 241.62 283.766 241.939 283.653L242.052 283.859C242.071 283.859 242.071 283.859 242.09 283.878C242.184 283.897 242.259 283.934 242.334 284.047C242.484 284.31 242.597 284.629 242.728 284.986V285.005L242.785 285.174C242.822 285.287 242.841 285.399 242.897 285.512C242.916 285.549 242.935 285.568 242.954 285.606C242.954 285.625 242.973 285.643 242.973 285.643C243.085 285.869 243.311 286 243.536 286C243.611 286 243.686 285.981 243.761 285.944C243.893 285.869 244.006 285.756 244.043 285.606C244.081 285.456 244.081 285.287 244.006 285.136C244.006 285.118 243.987 285.118 243.987 285.099C243.968 285.061 243.949 285.024 243.93 285.005C243.874 284.892 243.799 284.798 243.724 284.704C243.686 284.648 243.649 284.611 243.611 284.554V284.535C243.404 284.216 243.217 283.934 243.123 283.653C243.085 283.521 243.123 283.446 243.142 283.352C243.142 283.333 243.16 283.333 243.16 283.315L243.066 283.089C244.062 282.507 244.907 281.681 245.546 280.667C245.884 280.141 246.147 279.558 246.335 278.976L246.56 279.014C246.579 279.014 246.579 278.995 246.598 278.995C246.673 278.958 246.729 278.901 246.842 278.901H246.879C247.18 278.939 247.499 279.051 247.856 279.183H247.875C247.931 279.202 247.988 279.239 248.044 279.258C248.157 279.314 248.251 279.352 248.382 279.389C248.42 279.389 248.457 279.408 248.495 279.408C248.514 279.408 248.532 279.408 248.551 279.427C248.607 279.446 248.645 279.446 248.701 279.446C248.983 279.446 249.227 279.258 249.302 279.014C249.302 278.789 249.096 278.488 248.758 278.394V278.394ZM240.061 277.474L239.235 277.868L238.408 277.474L238.202 276.591L238.765 275.878H239.685L240.249 276.591L240.061 277.474H240.061ZM244.964 275.521C245.109 276.142 245.154 276.782 245.095 277.417L242.221 276.591C241.958 276.516 241.808 276.253 241.864 275.99C241.883 275.915 241.921 275.84 241.977 275.784L244.25 273.736C244.569 274.262 244.813 274.863 244.964 275.521V275.521ZM243.348 272.61L240.888 274.356C240.681 274.488 240.399 274.45 240.23 274.244C240.174 274.187 240.155 274.112 240.136 274.037L239.967 270.976C241.246 271.123 242.438 271.699 243.348 272.61V272.61ZM237.901 271.07C238.108 271.032 238.295 270.994 238.502 270.957L238.333 273.962C238.314 274.225 238.108 274.45 237.826 274.45C237.751 274.45 237.657 274.431 237.6 274.394L235.102 272.61C235.872 271.84 236.83 271.314 237.901 271.07V271.07ZM234.201 273.736L236.436 275.727C236.643 275.896 236.661 276.215 236.492 276.422C236.436 276.497 236.361 276.553 236.267 276.572L233.355 277.417C233.243 276.14 233.524 274.844 234.201 273.736V273.736ZM233.693 278.826L236.68 278.319C236.924 278.3 237.15 278.469 237.206 278.713C237.225 278.826 237.225 278.92 237.187 279.014L236.041 281.774C234.99 281.098 234.144 280.065 233.694 278.826H233.693ZM240.549 282.563C240.117 282.657 239.685 282.713 239.235 282.713C238.577 282.713 237.939 282.601 237.338 282.413L238.821 279.727C238.972 279.558 239.216 279.483 239.422 279.596C239.51 279.65 239.587 279.72 239.648 279.802L241.094 282.413C240.925 282.469 240.737 282.507 240.549 282.563H240.549ZM244.212 279.953C243.743 280.704 243.123 281.305 242.409 281.774L241.226 278.939C241.169 278.713 241.263 278.469 241.489 278.356C241.564 278.319 241.658 278.3 241.752 278.3L244.757 278.807C244.644 279.22 244.456 279.596 244.212 279.953V279.953Z" fill="white"/>
</g>
<g clip-path="url(#clip5)">
<path d="M233.956 409.116C233.28 409.116 232.641 408.816 232.209 408.271L225.635 400.101C225.203 399.557 225.034 398.862 225.203 398.186L227.551 387.988C227.701 387.312 228.152 386.767 228.772 386.467L238.276 381.922C238.577 381.772 238.915 381.696 239.253 381.696C239.591 381.696 239.929 381.771 240.23 381.922L249.734 386.448C250.354 386.748 250.805 387.293 250.955 387.969L253.303 398.167C253.453 398.843 253.303 399.538 252.871 400.083L246.297 408.252C245.865 408.778 245.226 409.097 244.55 409.097L233.956 409.116H233.956Z" fill="#326DE6"/>
<path d="M248.758 397.472C248.739 397.472 248.739 397.472 248.758 397.472H248.739C248.72 397.472 248.701 397.472 248.701 397.453C248.664 397.453 248.626 397.434 248.589 397.434C248.457 397.416 248.345 397.397 248.232 397.397C248.175 397.397 248.119 397.397 248.044 397.378H248.025C247.631 397.341 247.311 397.303 247.011 397.209C246.879 397.153 246.842 397.078 246.804 397.003C246.804 396.984 246.785 396.984 246.785 396.965L246.541 396.89C246.657 396.006 246.612 395.109 246.41 394.242C246.205 393.367 245.849 392.534 245.358 391.781L245.546 391.612V391.575C245.546 391.481 245.565 391.387 245.64 391.293C245.865 391.087 246.147 390.918 246.485 390.711C246.541 390.673 246.598 390.655 246.654 390.617C246.767 390.561 246.861 390.504 246.973 390.429C246.992 390.411 247.03 390.392 247.067 390.354C247.086 390.335 247.105 390.335 247.105 390.317C247.368 390.091 247.424 389.716 247.236 389.471C247.142 389.34 246.973 389.265 246.804 389.265C246.654 389.265 246.523 389.321 246.391 389.415L246.354 389.453C246.316 389.471 246.297 389.509 246.26 389.528C246.166 389.622 246.09 389.697 246.015 389.791C245.978 389.828 245.94 389.885 245.884 389.922C245.621 390.204 245.377 390.429 245.133 390.598C245.076 390.636 245.02 390.655 244.964 390.655C244.926 390.655 244.888 390.655 244.851 390.636H244.813L244.588 390.786C244.344 390.523 244.081 390.298 243.818 390.073C242.686 389.188 241.323 388.647 239.892 388.514L239.873 388.27L239.836 388.232C239.779 388.176 239.704 388.119 239.685 387.988C239.667 387.687 239.704 387.349 239.742 386.974V386.955C239.742 386.898 239.761 386.823 239.779 386.767C239.798 386.654 239.817 386.542 239.836 386.41V386.241C239.836 385.903 239.573 385.622 239.253 385.622C239.103 385.622 238.953 385.697 238.84 385.809C238.728 385.922 238.671 386.072 238.671 386.241V386.391C238.671 386.523 238.69 386.636 238.727 386.748C238.746 386.805 238.746 386.861 238.765 386.936V386.955C238.803 387.33 238.859 387.669 238.821 387.969C238.803 388.101 238.727 388.157 238.671 388.213L238.634 388.251L238.615 388.495C238.277 388.532 237.939 388.57 237.6 388.645C236.154 388.964 234.877 389.697 233.881 390.749L233.694 390.617H233.656C233.619 390.617 233.581 390.636 233.543 390.636C233.487 390.636 233.431 390.617 233.374 390.58C233.13 390.411 232.886 390.166 232.623 389.885C232.585 389.847 232.548 389.791 232.492 389.753C232.416 389.659 232.341 389.584 232.247 389.49C232.228 389.471 232.191 389.453 232.153 389.415C232.135 389.396 232.116 389.396 232.116 389.378C232 389.281 231.854 389.228 231.703 389.227C231.533 389.227 231.364 389.302 231.271 389.434C231.083 389.678 231.139 390.054 231.402 390.279C231.421 390.279 231.421 390.298 231.44 390.298C231.477 390.317 231.496 390.354 231.533 390.373C231.646 390.448 231.74 390.504 231.853 390.561C231.909 390.58 231.966 390.617 232.022 390.655C232.36 390.861 232.642 391.03 232.867 391.237C232.961 391.331 232.961 391.425 232.961 391.519V391.556L233.149 391.725C233.111 391.781 233.074 391.819 233.055 391.875C232.116 393.359 231.759 395.106 232.003 396.834L231.759 396.909C231.759 396.927 231.74 396.927 231.74 396.946C231.703 397.021 231.646 397.096 231.533 397.153C231.252 397.247 230.914 397.284 230.519 397.322H230.5C230.444 397.322 230.369 397.322 230.313 397.341C230.2 397.341 230.087 397.359 229.956 397.378C229.918 397.378 229.881 397.397 229.843 397.397C229.824 397.397 229.806 397.397 229.787 397.416C229.449 397.491 229.242 397.81 229.298 398.111C229.355 398.374 229.599 398.543 229.899 398.543C229.956 398.543 229.993 398.543 230.05 398.524C230.068 398.524 230.087 398.524 230.087 398.505C230.125 398.505 230.162 398.486 230.2 398.486C230.331 398.449 230.425 398.411 230.538 398.355C230.594 398.336 230.651 398.298 230.707 398.28H230.726C231.083 398.148 231.402 398.035 231.703 397.998H231.74C231.853 397.998 231.928 398.054 231.984 398.092C232.003 398.092 232.003 398.111 232.022 398.111L232.285 398.073C232.736 399.463 233.6 400.702 234.745 401.604C235.008 401.81 235.271 401.979 235.553 402.149L235.44 402.393C235.44 402.411 235.459 402.411 235.459 402.43C235.497 402.505 235.534 402.599 235.497 402.731C235.384 403.012 235.215 403.294 235.008 403.613V403.632C234.971 403.688 234.933 403.726 234.896 403.782C234.821 403.876 234.764 403.97 234.689 404.083C234.67 404.102 234.652 404.139 234.633 404.177C234.633 404.196 234.614 404.214 234.614 404.214C234.464 404.534 234.576 404.89 234.858 405.022C234.933 405.059 235.008 405.078 235.084 405.078C235.309 405.078 235.534 404.928 235.647 404.721C235.647 404.703 235.666 404.684 235.666 404.684C235.685 404.646 235.703 404.609 235.722 404.59C235.779 404.458 235.797 404.364 235.835 404.252L235.891 404.083C236.023 403.707 236.117 403.407 236.286 403.144C236.361 403.031 236.455 403.012 236.53 402.975C236.549 402.975 236.549 402.975 236.567 402.956L236.699 402.712C237.525 403.031 238.427 403.2 239.329 403.2C239.873 403.2 240.437 403.144 240.963 403.012C241.294 402.938 241.62 402.844 241.939 402.731L242.052 402.937C242.071 402.937 242.071 402.937 242.09 402.956C242.184 402.975 242.259 403.012 242.334 403.125C242.484 403.388 242.597 403.707 242.728 404.064V404.083L242.785 404.252C242.822 404.364 242.841 404.477 242.897 404.59C242.916 404.627 242.935 404.646 242.954 404.684C242.954 404.703 242.973 404.721 242.973 404.721C243.085 404.947 243.311 405.078 243.536 405.078C243.611 405.078 243.686 405.059 243.761 405.022C243.893 404.947 244.006 404.834 244.043 404.684C244.081 404.534 244.081 404.364 244.006 404.214C244.006 404.196 243.987 404.196 243.987 404.177C243.968 404.139 243.949 404.102 243.93 404.083C243.874 403.97 243.799 403.876 243.724 403.782C243.686 403.726 243.649 403.688 243.611 403.632V403.613C243.404 403.294 243.217 403.012 243.123 402.731C243.085 402.599 243.123 402.524 243.142 402.43C243.142 402.411 243.16 402.411 243.16 402.393L243.066 402.167C244.062 401.585 244.907 400.759 245.546 399.745C245.884 399.219 246.147 398.636 246.335 398.054L246.56 398.092C246.579 398.092 246.579 398.073 246.598 398.073C246.673 398.035 246.729 397.979 246.842 397.979H246.879C247.18 398.017 247.499 398.129 247.856 398.261H247.875C247.931 398.28 247.988 398.317 248.044 398.336C248.157 398.392 248.251 398.43 248.382 398.467C248.42 398.467 248.457 398.486 248.495 398.486C248.514 398.486 248.532 398.486 248.551 398.505C248.607 398.524 248.645 398.524 248.701 398.524C248.983 398.524 249.227 398.336 249.302 398.092C249.302 397.866 249.096 397.566 248.758 397.472V397.472ZM240.061 396.552L239.235 396.946L238.408 396.552L238.202 395.669L238.765 394.955H239.685L240.249 395.669L240.061 396.552H240.061ZM244.964 394.599C245.109 395.22 245.154 395.86 245.095 396.495L242.221 395.669C241.958 395.594 241.808 395.331 241.864 395.068C241.883 394.993 241.921 394.918 241.977 394.862L244.25 392.814C244.569 393.34 244.813 393.941 244.964 394.599V394.599ZM243.348 391.688L240.888 393.434C240.681 393.566 240.399 393.528 240.23 393.322C240.174 393.265 240.155 393.19 240.136 393.115L239.967 390.054C241.246 390.201 242.438 390.777 243.348 391.688V391.688ZM237.901 390.147C238.108 390.11 238.295 390.072 238.502 390.035L238.333 393.04C238.314 393.303 238.108 393.528 237.826 393.528C237.751 393.528 237.657 393.509 237.6 393.472L235.102 391.688C235.872 390.918 236.83 390.392 237.901 390.148V390.147ZM234.201 392.814L236.436 394.805C236.643 394.974 236.661 395.293 236.492 395.5C236.436 395.575 236.361 395.631 236.267 395.65L233.355 396.495C233.243 395.218 233.524 393.922 234.201 392.814V392.814ZM233.693 397.904L236.68 397.397C236.924 397.378 237.15 397.547 237.206 397.791C237.225 397.904 237.225 397.998 237.187 398.092L236.041 400.852C234.99 400.176 234.144 399.143 233.694 397.904H233.693ZM240.549 401.641C240.117 401.735 239.685 401.791 239.235 401.791C238.577 401.791 237.939 401.679 237.338 401.491L238.821 398.805C238.972 398.636 239.216 398.561 239.422 398.674C239.51 398.728 239.587 398.798 239.648 398.88L241.094 401.491C240.925 401.547 240.737 401.585 240.549 401.641H240.549ZM244.212 399.031C243.743 399.782 243.123 400.383 242.409 400.852L241.226 398.016C241.169 397.791 241.263 397.547 241.489 397.434C241.564 397.397 241.658 397.378 241.752 397.378L244.757 397.885C244.644 398.298 244.456 398.674 244.212 399.031V399.031Z" fill="white"/>
</g>
<g clip-path="url(#clip6)">
<path d="M126.923 347.316C126.247 347.316 125.608 347.016 125.176 346.471L118.602 338.301C118.17 337.757 118.001 337.062 118.17 336.386L120.518 326.188C120.668 325.512 121.119 324.967 121.739 324.667L131.243 320.122C131.544 319.972 131.882 319.896 132.22 319.896C132.558 319.896 132.896 319.971 133.197 320.122L142.701 324.648C143.321 324.948 143.772 325.493 143.922 326.169L146.27 336.367C146.42 337.043 146.27 337.738 145.838 338.283L139.264 346.452C138.832 346.978 138.193 347.297 137.517 347.297L126.923 347.316H126.923Z" fill="#326DE6"/>
<path d="M141.724 335.672C141.706 335.672 141.706 335.672 141.724 335.672H141.706C141.687 335.672 141.668 335.672 141.668 335.653C141.631 335.653 141.593 335.634 141.556 335.634C141.424 335.616 141.311 335.597 141.199 335.597C141.142 335.597 141.086 335.597 141.011 335.578H140.992C140.598 335.541 140.278 335.503 139.978 335.409C139.846 335.353 139.809 335.278 139.771 335.202C139.771 335.184 139.752 335.184 139.752 335.165L139.508 335.09C139.623 334.206 139.579 333.309 139.377 332.442C139.172 331.567 138.816 330.734 138.325 329.981L138.513 329.812V329.775C138.513 329.681 138.531 329.587 138.606 329.493C138.832 329.287 139.114 329.118 139.452 328.911C139.508 328.873 139.564 328.855 139.621 328.817C139.733 328.761 139.827 328.704 139.94 328.629C139.959 328.611 139.996 328.592 140.034 328.554C140.053 328.535 140.072 328.535 140.072 328.517C140.335 328.291 140.391 327.916 140.203 327.671C140.109 327.54 139.94 327.465 139.771 327.465C139.621 327.465 139.489 327.521 139.358 327.615L139.32 327.653C139.283 327.671 139.264 327.709 139.226 327.728C139.132 327.822 139.057 327.897 138.982 327.991C138.945 328.028 138.907 328.085 138.851 328.122C138.588 328.404 138.344 328.629 138.099 328.798C138.043 328.836 137.987 328.855 137.93 328.855C137.893 328.855 137.855 328.855 137.818 328.836H137.78L137.555 328.986C137.31 328.723 137.047 328.498 136.785 328.272C135.652 327.388 134.29 326.846 132.859 326.714L132.84 326.469L132.803 326.432C132.746 326.376 132.671 326.319 132.652 326.188C132.633 325.887 132.671 325.549 132.709 325.174V325.155C132.709 325.098 132.727 325.023 132.746 324.967C132.765 324.854 132.784 324.742 132.803 324.61V324.441C132.803 324.103 132.539 323.821 132.22 323.821C132.07 323.821 131.92 323.897 131.807 324.009C131.694 324.122 131.638 324.272 131.638 324.441V324.591C131.638 324.723 131.657 324.836 131.694 324.948C131.713 325.005 131.713 325.061 131.732 325.136V325.155C131.769 325.53 131.826 325.868 131.788 326.169C131.769 326.3 131.694 326.357 131.638 326.413L131.6 326.451L131.582 326.695C131.243 326.732 130.905 326.77 130.567 326.845C129.121 327.164 127.844 327.897 126.848 328.948L126.66 328.817H126.623C126.585 328.817 126.548 328.836 126.51 328.836C126.454 328.836 126.397 328.817 126.341 328.779C126.097 328.611 125.853 328.366 125.59 328.085C125.552 328.047 125.515 327.991 125.458 327.953C125.383 327.859 125.308 327.784 125.214 327.69C125.195 327.671 125.158 327.653 125.12 327.615C125.101 327.596 125.083 327.596 125.083 327.578C124.966 327.481 124.82 327.428 124.669 327.427C124.5 327.427 124.331 327.502 124.237 327.634C124.049 327.878 124.106 328.254 124.369 328.479C124.388 328.479 124.388 328.498 124.406 328.498C124.444 328.517 124.463 328.554 124.5 328.573C124.613 328.648 124.707 328.704 124.82 328.761C124.876 328.779 124.932 328.817 124.989 328.855C125.327 329.061 125.609 329.23 125.834 329.437C125.928 329.531 125.928 329.625 125.928 329.719V329.756L126.116 329.925C126.078 329.981 126.041 330.019 126.022 330.075C125.083 331.559 124.726 333.306 124.97 335.033L124.726 335.109C124.726 335.127 124.707 335.127 124.707 335.146C124.669 335.221 124.613 335.296 124.5 335.353C124.219 335.447 123.88 335.484 123.486 335.522H123.467C123.411 335.522 123.336 335.522 123.279 335.541C123.167 335.541 123.054 335.559 122.923 335.578C122.885 335.578 122.847 335.597 122.81 335.597C122.791 335.597 122.772 335.597 122.753 335.616C122.415 335.691 122.209 336.01 122.265 336.31C122.322 336.573 122.566 336.743 122.866 336.743C122.923 336.743 122.96 336.743 123.016 336.724C123.035 336.724 123.054 336.724 123.054 336.705C123.092 336.705 123.129 336.686 123.167 336.686C123.298 336.649 123.392 336.611 123.505 336.555C123.561 336.536 123.617 336.498 123.674 336.48H123.693C124.049 336.348 124.369 336.235 124.669 336.198H124.707C124.82 336.198 124.895 336.254 124.951 336.292C124.97 336.292 124.97 336.311 124.989 336.311L125.252 336.273C125.702 337.663 126.566 338.902 127.712 339.804C127.975 340.01 128.238 340.179 128.52 340.348L128.407 340.592C128.407 340.611 128.426 340.611 128.426 340.63C128.464 340.705 128.501 340.799 128.464 340.931C128.351 341.212 128.182 341.494 127.975 341.813V341.832C127.938 341.888 127.9 341.926 127.863 341.982C127.787 342.076 127.731 342.17 127.656 342.283C127.637 342.302 127.618 342.339 127.6 342.377C127.6 342.395 127.581 342.414 127.581 342.414C127.431 342.734 127.543 343.09 127.825 343.222C127.9 343.259 127.975 343.278 128.05 343.278C128.276 343.278 128.501 343.128 128.614 342.921C128.614 342.903 128.633 342.884 128.633 342.884C128.651 342.846 128.67 342.809 128.689 342.79C128.745 342.658 128.764 342.564 128.802 342.452L128.858 342.283C128.99 341.907 129.083 341.607 129.252 341.344C129.328 341.231 129.422 341.212 129.497 341.175C129.515 341.175 129.515 341.175 129.534 341.156L129.666 340.912C130.492 341.231 131.394 341.4 132.295 341.4C132.84 341.4 133.404 341.344 133.93 341.212C134.261 341.138 134.587 341.044 134.906 340.931L135.019 341.137C135.038 341.137 135.038 341.137 135.056 341.156C135.15 341.175 135.225 341.212 135.301 341.325C135.451 341.588 135.564 341.907 135.695 342.264V342.283L135.751 342.452C135.789 342.564 135.808 342.677 135.864 342.79C135.883 342.827 135.902 342.846 135.92 342.884C135.92 342.903 135.939 342.921 135.939 342.921C136.052 343.147 136.277 343.278 136.503 343.278C136.578 343.278 136.653 343.259 136.728 343.222C136.86 343.147 136.972 343.034 137.01 342.884C137.047 342.734 137.047 342.564 136.972 342.414C136.972 342.395 136.954 342.395 136.954 342.377C136.935 342.339 136.916 342.302 136.897 342.283C136.841 342.17 136.766 342.076 136.691 341.982C136.653 341.926 136.616 341.888 136.578 341.832V341.813C136.371 341.494 136.183 341.212 136.09 340.931C136.052 340.799 136.09 340.724 136.108 340.63C136.108 340.611 136.127 340.611 136.127 340.593L136.033 340.367C137.029 339.785 137.874 338.959 138.513 337.944C138.851 337.419 139.114 336.836 139.301 336.254L139.527 336.292C139.546 336.292 139.546 336.273 139.564 336.273C139.64 336.235 139.696 336.179 139.809 336.179H139.846C140.147 336.217 140.466 336.329 140.823 336.461H140.842C140.898 336.48 140.954 336.517 141.011 336.536C141.123 336.592 141.217 336.63 141.349 336.667C141.386 336.667 141.424 336.686 141.462 336.686C141.48 336.686 141.499 336.686 141.518 336.705C141.574 336.724 141.612 336.724 141.668 336.724C141.95 336.724 142.194 336.536 142.269 336.292C142.269 336.066 142.063 335.766 141.724 335.672V335.672ZM133.028 334.752L132.201 335.146L131.375 334.752L131.168 333.869L131.732 333.155H132.652L133.216 333.869L133.028 334.752H133.028ZM137.93 332.799C138.076 333.42 138.12 334.06 138.062 334.695L135.188 333.869C134.925 333.794 134.775 333.531 134.831 333.268C134.85 333.193 134.887 333.118 134.944 333.062L137.217 331.014C137.536 331.54 137.78 332.141 137.93 332.798V332.799ZM136.315 329.888L133.854 331.634C133.648 331.766 133.366 331.728 133.197 331.522C133.141 331.465 133.122 331.39 133.103 331.315L132.934 328.254C134.213 328.401 135.405 328.977 136.315 329.888V329.888ZM130.868 328.347C131.074 328.31 131.262 328.272 131.469 328.235L131.3 331.24C131.281 331.503 131.074 331.728 130.793 331.728C130.718 331.728 130.624 331.709 130.567 331.672L128.069 329.888C128.839 329.118 129.797 328.592 130.868 328.348V328.347ZM127.168 331.014L129.403 333.005C129.609 333.174 129.628 333.493 129.459 333.7C129.403 333.775 129.328 333.831 129.234 333.85L126.322 334.695C126.21 333.418 126.491 332.122 127.168 331.014V331.014ZM126.66 336.104L129.647 335.597C129.891 335.578 130.117 335.747 130.173 335.991C130.192 336.104 130.192 336.198 130.154 336.292L129.008 339.052C127.956 338.376 127.111 337.343 126.66 336.104H126.66ZM133.516 339.841C133.084 339.935 132.652 339.991 132.201 339.991C131.544 339.991 130.905 339.879 130.304 339.691L131.788 337.005C131.938 336.836 132.183 336.761 132.389 336.874C132.477 336.928 132.553 336.998 132.615 337.08L134.061 339.691C133.892 339.747 133.704 339.785 133.516 339.841H133.516ZM137.179 337.231C136.709 337.982 136.089 338.583 135.376 339.052L134.193 336.216C134.136 335.991 134.23 335.747 134.455 335.634C134.531 335.597 134.624 335.578 134.718 335.578L137.724 336.085C137.611 336.498 137.423 336.874 137.179 337.231V337.231Z" fill="white"/>
</g>
<path d="M430.492 308.22L453.02 294.502" stroke="#326DE6" stroke-dasharray="4.15 4.15"/>
<path d="M430.492 519.244L453.02 505.526" stroke="#FF9900" stroke-dasharray="4.15 4.15"/>
<path d="M425.214 106.239L447.743 92.5213" stroke="#7173CD" stroke-dasharray="4.15 4.15"/>
<rect x="447.975" y="278.382" width="96" height="25" rx="3" fill="#326DE6"/>
<path d="M459.389 295.382H457.625V285.517H459.389V290.057H459.505L463.395 285.517H465.418L461.692 289.817L465.712 295.382H463.559L460.441 291.027L459.389 292.237V295.382ZM473.156 287.903V295.382H471.522V294.192H471.406C471.028 295.085 470.283 295.532 469.171 295.532C468.355 295.532 467.719 295.291 467.264 294.807C466.808 294.32 466.58 293.639 466.58 292.764V287.903H468.275V292.34C468.275 292.914 468.396 293.342 468.638 293.625C468.879 293.903 469.253 294.042 469.759 294.042C470.306 294.042 470.725 293.885 471.017 293.57C471.313 293.256 471.461 292.818 471.461 292.258V287.903H473.156ZM479.391 295.505C478.867 295.505 478.399 295.391 477.989 295.163C477.579 294.931 477.267 294.609 477.053 294.199H476.937V295.382H475.303V285.012H476.998V289.093H477.114C477.31 288.687 477.611 288.368 478.017 288.136C478.422 287.899 478.88 287.78 479.391 287.78C480.339 287.78 481.086 288.127 481.633 288.819C482.184 289.507 482.46 290.448 482.46 291.642C482.46 292.832 482.184 293.773 481.633 294.466C481.081 295.158 480.334 295.505 479.391 295.505ZM480.218 289.872C479.89 289.439 479.436 289.223 478.857 289.223C478.279 289.223 477.818 289.441 477.477 289.879C477.139 290.312 476.971 290.9 476.971 291.642C476.971 292.39 477.139 292.98 477.477 293.413C477.818 293.846 478.279 294.062 478.857 294.062C479.436 294.062 479.89 293.848 480.218 293.42C480.55 292.987 480.717 292.394 480.717 291.642C480.717 290.891 480.55 290.3 480.218 289.872ZM487.3 289.099C486.794 289.099 486.377 289.266 486.049 289.599C485.721 289.931 485.538 290.371 485.502 290.918H489.022C489.004 290.362 488.84 289.92 488.53 289.592C488.22 289.264 487.81 289.099 487.3 289.099ZM489.036 293.324H490.643C490.483 294.008 490.107 294.548 489.515 294.944C488.927 295.336 488.195 295.532 487.32 295.532C486.222 295.532 485.358 295.19 484.729 294.507C484.105 293.819 483.793 292.873 483.793 291.67C483.793 290.467 484.107 289.514 484.736 288.812C485.365 288.106 486.222 287.753 487.307 287.753C488.373 287.753 489.207 288.088 489.809 288.758C490.415 289.423 490.718 290.346 490.718 291.526V292.073H485.495V292.162C485.518 292.786 485.696 293.281 486.028 293.645C486.366 294.005 486.812 294.185 487.368 294.185C488.225 294.185 488.781 293.898 489.036 293.324ZM492.42 295.382V287.903H494.054V289.065H494.17C494.275 288.692 494.509 288.384 494.874 288.142C495.243 287.901 495.667 287.78 496.146 287.78C496.451 287.78 496.686 287.805 496.85 287.855V289.428C496.676 289.364 496.387 289.332 495.981 289.332C495.43 289.332 494.981 289.491 494.635 289.81C494.288 290.125 494.115 290.542 494.115 291.061V295.382H492.42ZM498.34 295.382V287.903H499.974V289.099H500.09C500.272 288.671 500.55 288.341 500.924 288.108C501.302 287.871 501.765 287.753 502.312 287.753C503.141 287.753 503.777 287.994 504.219 288.477C504.665 288.96 504.889 289.649 504.889 290.542V295.382H503.193V290.945C503.193 289.801 502.69 289.229 501.683 289.229C501.177 289.229 500.776 289.391 500.479 289.715C500.183 290.038 500.035 290.476 500.035 291.027V295.382H498.34ZM510.036 289.099C509.53 289.099 509.113 289.266 508.785 289.599C508.457 289.931 508.275 290.371 508.238 290.918H511.759C511.741 290.362 511.576 289.92 511.267 289.592C510.957 289.264 510.547 289.099 510.036 289.099ZM511.772 293.324H513.379C513.219 294.008 512.843 294.548 512.251 294.944C511.663 295.336 510.932 295.532 510.057 295.532C508.958 295.532 508.095 295.19 507.466 294.507C506.841 293.819 506.529 292.873 506.529 291.67C506.529 290.467 506.844 289.514 507.473 288.812C508.102 288.106 508.958 287.753 510.043 287.753C511.109 287.753 511.943 288.088 512.545 288.758C513.151 289.423 513.454 290.346 513.454 291.526V292.073H508.231V292.162C508.254 292.786 508.432 293.281 508.765 293.645C509.102 294.005 509.549 294.185 510.104 294.185C510.961 294.185 511.517 293.898 511.772 293.324ZM515.696 286.071H517.385V287.951H518.984V289.305H517.385V292.975C517.385 293.345 517.467 293.616 517.631 293.789C517.795 293.958 518.055 294.042 518.41 294.042C518.565 294.042 518.757 294.03 518.984 294.008V295.334C518.702 295.389 518.406 295.416 518.096 295.416C517.239 295.416 516.624 295.259 516.25 294.944C515.881 294.63 515.696 294.11 515.696 293.386V289.305H514.514V287.951H515.696V286.071ZM523.749 289.099C523.243 289.099 522.826 289.266 522.498 289.599C522.17 289.931 521.988 290.371 521.951 290.918H525.472C525.453 290.362 525.289 289.92 524.979 289.592C524.67 289.264 524.259 289.099 523.749 289.099ZM525.485 293.324H527.092C526.932 294.008 526.556 294.548 525.964 294.944C525.376 295.336 524.645 295.532 523.77 295.532C522.671 295.532 521.808 295.19 521.179 294.507C520.554 293.819 520.242 292.873 520.242 291.67C520.242 290.467 520.557 289.514 521.186 288.812C521.814 288.106 522.671 287.753 523.756 287.753C524.822 287.753 525.656 288.088 526.258 288.758C526.864 289.423 527.167 290.346 527.167 291.526V292.073H521.944V292.162C521.967 292.786 522.145 293.281 522.478 293.645C522.815 294.005 523.261 294.185 523.817 294.185C524.674 294.185 525.23 293.898 525.485 293.324ZM528.698 290.043C528.698 289.368 528.976 288.819 529.532 288.395C530.088 287.967 530.808 287.753 531.692 287.753C532.581 287.753 533.29 287.942 533.818 288.32C534.352 288.694 534.648 289.22 534.707 289.899H533.114C533.05 289.63 532.896 289.421 532.649 289.27C532.408 289.115 532.091 289.038 531.699 289.038C531.307 289.038 530.984 289.122 530.729 289.291C530.473 289.46 530.346 289.678 530.346 289.947C530.346 290.157 530.435 290.33 530.612 290.467C530.795 290.603 531.075 290.715 531.453 290.802L532.772 291.102C533.493 291.266 534.021 291.51 534.358 291.834C534.696 292.157 534.864 292.593 534.864 293.14C534.864 293.855 534.568 294.434 533.976 294.876C533.383 295.313 532.618 295.532 531.679 295.532C530.744 295.532 529.997 295.341 529.437 294.958C528.881 294.575 528.571 294.044 528.507 293.365H530.182C530.264 293.648 530.435 293.866 530.694 294.021C530.959 294.172 531.3 294.247 531.72 294.247C532.148 294.247 532.497 294.163 532.766 293.994C533.035 293.821 533.169 293.595 533.169 293.317C533.169 292.903 532.825 292.62 532.137 292.47L530.811 292.162C530.09 291.998 529.557 291.745 529.211 291.403C528.869 291.057 528.698 290.603 528.698 290.043Z" fill="#E9EAFA"/>
<rect x="440.514" y="489.406" width="126" height="25" rx="3" fill="#FF9900"/>
<path d="M454.158 506.652C452.759 506.652 451.654 506.19 450.843 505.265C450.032 504.335 449.626 503.072 449.626 501.477C449.626 499.873 450.029 498.609 450.836 497.683C451.647 496.758 452.752 496.296 454.151 496.296C455.272 496.296 456.223 496.626 457.002 497.287C457.781 497.943 458.223 498.786 458.328 499.816H456.592C456.469 499.224 456.186 498.752 455.744 498.401C455.302 498.046 454.771 497.868 454.151 497.868C453.313 497.868 452.65 498.192 452.162 498.839C451.674 499.481 451.431 500.359 451.431 501.471C451.431 502.583 451.674 503.462 452.162 504.109C452.65 504.756 453.315 505.08 454.158 505.08C454.783 505.08 455.316 504.918 455.758 504.595C456.2 504.266 456.48 503.827 456.599 503.275H458.335C458.216 504.287 457.774 505.103 457.009 505.723C456.243 506.342 455.293 506.652 454.158 506.652ZM460.188 506.406V496.036H461.883V506.406H460.188ZM465.882 504.492C466.205 504.92 466.663 505.135 467.256 505.135C467.848 505.135 468.304 504.92 468.623 504.492C468.947 504.059 469.108 503.451 469.108 502.667C469.108 501.888 468.947 501.281 468.623 500.849C468.299 500.416 467.844 500.199 467.256 500.199C466.663 500.199 466.205 500.416 465.882 500.849C465.558 501.281 465.396 501.888 465.396 502.667C465.396 503.451 465.558 504.059 465.882 504.492ZM467.256 506.557C466.135 506.557 465.255 506.212 464.617 505.524C463.979 504.832 463.66 503.879 463.66 502.667C463.66 501.464 463.981 500.516 464.624 499.823C465.267 499.126 466.144 498.777 467.256 498.777C468.372 498.777 469.25 499.124 469.888 499.816C470.53 500.509 470.852 501.459 470.852 502.667C470.852 503.879 470.53 504.832 469.888 505.524C469.25 506.212 468.372 506.557 467.256 506.557ZM479.068 498.928V506.406H477.435V505.217H477.318C476.94 506.11 476.195 506.557 475.083 506.557C474.267 506.557 473.632 506.315 473.176 505.832C472.72 505.344 472.492 504.663 472.492 503.788V498.928H474.188V503.364C474.188 503.938 474.308 504.367 474.55 504.649C474.791 504.927 475.165 505.066 475.671 505.066C476.218 505.066 476.637 504.909 476.929 504.595C477.225 504.28 477.373 503.843 477.373 503.282V498.928H479.068ZM483.854 506.529C482.906 506.529 482.156 506.183 481.604 505.49C481.053 504.793 480.777 503.849 480.777 502.66C480.777 501.48 481.053 500.543 481.604 499.85C482.16 499.153 482.91 498.805 483.854 498.805C484.364 498.805 484.82 498.921 485.221 499.153C485.622 499.386 485.923 499.707 486.123 500.117H486.239V496.036H487.935V506.406H486.294V505.224H486.178C485.964 505.634 485.651 505.955 485.241 506.187C484.836 506.415 484.373 506.529 483.854 506.529ZM485.754 500.896C485.417 500.463 484.959 500.247 484.38 500.247C483.801 500.247 483.345 500.463 483.013 500.896C482.68 501.325 482.514 501.915 482.514 502.667C482.514 503.423 482.678 504.016 483.006 504.444C483.339 504.873 483.797 505.087 484.38 505.087C484.963 505.087 485.421 504.873 485.754 504.444C486.091 504.011 486.26 503.419 486.26 502.667C486.26 501.919 486.091 501.329 485.754 500.896ZM493.984 496.542H497.963C498.947 496.542 499.745 496.849 500.355 497.465C500.971 498.08 501.278 498.884 501.278 499.878C501.278 500.853 500.962 501.646 500.328 502.257C499.699 502.867 498.886 503.173 497.888 503.173H495.748V506.406H493.984V496.542ZM495.748 498.018V501.71H497.491C498.125 501.71 498.615 501.55 498.961 501.231C499.312 500.912 499.487 500.461 499.487 499.878C499.487 499.276 499.314 498.816 498.968 498.497C498.626 498.178 498.136 498.018 497.498 498.018H495.748ZM503.049 506.406V498.928H504.683V500.09H504.799C504.904 499.716 505.138 499.408 505.503 499.167C505.872 498.925 506.296 498.805 506.774 498.805C507.08 498.805 507.314 498.83 507.479 498.88V500.452C507.305 500.388 507.016 500.356 506.61 500.356C506.059 500.356 505.61 500.516 505.264 500.835C504.917 501.149 504.744 501.566 504.744 502.086V506.406H503.049ZM510.534 504.492C510.858 504.92 511.316 505.135 511.908 505.135C512.501 505.135 512.956 504.92 513.275 504.492C513.599 504.059 513.761 503.451 513.761 502.667C513.761 501.888 513.599 501.281 513.275 500.849C512.952 500.416 512.496 500.199 511.908 500.199C511.316 500.199 510.858 500.416 510.534 500.849C510.211 501.281 510.049 501.888 510.049 502.667C510.049 503.451 510.211 504.059 510.534 504.492ZM511.908 506.557C510.787 506.557 509.908 506.212 509.27 505.524C508.632 504.832 508.312 503.879 508.312 502.667C508.312 501.464 508.634 500.516 509.276 499.823C509.919 499.126 510.796 498.777 511.908 498.777C513.025 498.777 513.902 499.124 514.54 499.816C515.183 500.509 515.504 501.459 515.504 502.667C515.504 503.879 515.183 504.832 514.54 505.524C513.902 506.212 513.025 506.557 511.908 506.557ZM516.263 498.928H518.081L519.811 504.711H519.927L521.643 498.928H523.434L520.788 506.406H518.922L516.263 498.928ZM524.89 506.406V498.928H526.578V506.406H524.89ZM525.73 497.711C525.425 497.711 525.174 497.624 524.979 497.451C524.783 497.273 524.685 497.048 524.685 496.774C524.685 496.501 524.783 496.278 524.979 496.104C525.174 495.927 525.425 495.838 525.73 495.838C526.04 495.838 526.291 495.927 526.482 496.104C526.678 496.278 526.776 496.501 526.776 496.774C526.776 497.048 526.678 497.273 526.482 497.451C526.291 497.624 526.04 497.711 525.73 497.711ZM531.391 506.529C530.443 506.529 529.693 506.183 529.142 505.49C528.59 504.793 528.314 503.849 528.314 502.66C528.314 501.48 528.59 500.543 529.142 499.85C529.698 499.153 530.447 498.805 531.391 498.805C531.901 498.805 532.357 498.921 532.758 499.153C533.159 499.386 533.46 499.707 533.66 500.117H533.776V496.036H535.472V506.406H533.831V505.224H533.715C533.501 505.634 533.188 505.955 532.778 506.187C532.373 506.415 531.91 506.529 531.391 506.529ZM533.291 500.896C532.954 500.463 532.496 500.247 531.917 500.247C531.338 500.247 530.882 500.463 530.55 500.896C530.217 501.325 530.051 501.915 530.051 502.667C530.051 503.423 530.215 504.016 530.543 504.444C530.876 504.873 531.334 505.087 531.917 505.087C532.5 505.087 532.958 504.873 533.291 504.444C533.628 504.011 533.797 503.419 533.797 502.667C533.797 501.919 533.628 501.329 533.291 500.896ZM540.749 500.124C540.243 500.124 539.826 500.29 539.498 500.623C539.17 500.956 538.988 501.395 538.951 501.942H542.472C542.453 501.386 542.289 500.944 541.979 500.616C541.67 500.288 541.259 500.124 540.749 500.124ZM542.485 504.349H544.092C543.932 505.032 543.556 505.572 542.964 505.969C542.376 506.361 541.645 506.557 540.77 506.557C539.671 506.557 538.808 506.215 538.179 505.531C537.554 504.843 537.242 503.897 537.242 502.694C537.242 501.491 537.557 500.539 538.186 499.837C538.814 499.13 539.671 498.777 540.756 498.777C541.822 498.777 542.656 499.112 543.258 499.782C543.864 500.447 544.167 501.37 544.167 502.551V503.098H538.944V503.186C538.967 503.811 539.145 504.305 539.478 504.67C539.815 505.03 540.261 505.21 540.817 505.21C541.674 505.21 542.23 504.923 542.485 504.349ZM545.869 506.406V498.928H547.503V500.09H547.619C547.724 499.716 547.959 499.408 548.323 499.167C548.692 498.925 549.116 498.805 549.595 498.805C549.9 498.805 550.135 498.83 550.299 498.88V500.452C550.126 500.388 549.836 500.356 549.431 500.356C548.879 500.356 548.43 500.516 548.084 500.835C547.738 501.149 547.564 501.566 547.564 502.086V506.406H545.869ZM551.358 501.067C551.358 500.393 551.636 499.844 552.192 499.42C552.748 498.991 553.468 498.777 554.353 498.777C555.241 498.777 555.95 498.966 556.479 499.345C557.012 499.718 557.308 500.245 557.367 500.924H555.774C555.711 500.655 555.556 500.445 555.31 500.295C555.068 500.14 554.751 500.062 554.359 500.062C553.967 500.062 553.644 500.147 553.389 500.315C553.133 500.484 553.006 500.703 553.006 500.972C553.006 501.181 553.095 501.354 553.272 501.491C553.455 501.628 553.735 501.739 554.113 501.826L555.433 502.127C556.153 502.291 556.681 502.535 557.019 502.858C557.356 503.182 557.524 503.617 557.524 504.164C557.524 504.879 557.228 505.458 556.636 505.9C556.043 506.338 555.278 506.557 554.339 506.557C553.405 506.557 552.657 506.365 552.097 505.982C551.541 505.599 551.231 505.069 551.167 504.39H552.842C552.924 504.672 553.095 504.891 553.354 505.046C553.619 505.196 553.961 505.271 554.38 505.271C554.808 505.271 555.157 505.187 555.426 505.018C555.695 504.845 555.829 504.62 555.829 504.342C555.829 503.927 555.485 503.644 554.797 503.494L553.471 503.186C552.751 503.022 552.217 502.769 551.871 502.428C551.529 502.081 551.358 501.628 551.358 501.067Z" fill="#E9EAFA"/>
<rect x="446.393" y="77.1549" width="66" height="25" rx="3" fill="#7173CD"/>
<path d="M464.593 95.1735L463.362 93.3551C464.401 92.5211 464.989 91.0651 464.989 89.2262C464.989 86.0338 463.185 84.0446 460.334 84.0446C457.47 84.0446 455.658 86.027 455.658 89.2262C455.658 92.4323 457.449 94.401 460.334 94.401C460.956 94.401 461.551 94.3053 462.07 94.1276L462.822 95.1735H464.593ZM460.334 92.8356C458.577 92.8356 457.463 91.4479 457.463 89.2262C457.463 87.0045 458.577 85.61 460.334 85.61C462.07 85.61 463.185 87.0114 463.185 89.2262C463.185 90.3746 462.87 91.2906 462.303 91.817L461.681 91.0377H459.985L461.168 92.7194C460.901 92.7946 460.621 92.8356 460.334 92.8356ZM470.062 92.8834C468.879 92.8834 468.202 91.9811 468.202 90.4156C468.202 88.8571 468.879 87.9479 470.062 87.9479C471.237 87.9479 471.914 88.8571 471.914 90.4156C471.914 91.9811 471.244 92.8834 470.062 92.8834ZM470.062 94.3053C472.297 94.3053 473.657 92.8424 473.657 90.4156C473.657 87.9957 472.29 86.526 470.062 86.526C467.84 86.526 466.466 88.0026 466.466 90.4156C466.466 92.8424 467.819 94.3053 470.062 94.3053ZM474.416 86.6764L477.075 94.1549H478.941L481.587 86.6764H479.796L478.08 92.4596H477.964L476.234 86.6764H474.416ZM485.859 87.8727C486.878 87.8727 487.548 88.5836 487.582 89.691H484.062C484.137 88.5973 484.848 87.8727 485.859 87.8727ZM487.596 92.0973C487.35 92.651 486.769 92.9586 485.928 92.9586C484.813 92.9586 484.096 92.1793 484.055 90.9352V90.8463H489.277V90.2994C489.277 87.941 487.999 86.526 485.866 86.526C483.699 86.526 482.353 88.0367 482.353 90.443C482.353 92.8492 483.679 94.3053 485.88 94.3053C487.644 94.3053 488.881 93.4576 489.202 92.0973H487.596ZM490.979 94.1549H492.675V89.8346C492.675 88.7887 493.44 88.1051 494.541 88.1051C494.828 88.1051 495.279 88.153 495.409 88.2008V86.6285C495.252 86.5807 494.951 86.5533 494.705 86.5533C493.741 86.5533 492.935 87.1002 492.729 87.8385H492.613V86.6764H490.979V94.1549ZM497.692 96.8688C499.367 96.8688 500.167 96.2535 500.803 94.3942L503.503 86.6764H501.712L499.969 92.5143H499.853L498.103 86.6764H496.243L498.916 94.1891L498.827 94.5172C498.608 95.2076 498.205 95.4811 497.487 95.4811C497.371 95.4811 497.118 95.4742 497.022 95.4537V96.8414C497.132 96.8619 497.59 96.8688 497.692 96.8688Z" fill="#E9EAFA"/>
<rect opacity="0.05" width="275.765" height="278.095" rx="1.44" transform="matrix(0.866074 -0.499916 0.866074 0.499916 1.41016 138.103)" fill="#8686B3"/>
<rect opacity="0.9" width="232" height="228.629" rx="1.44" transform="matrix(0.866074 -0.499916 0.866074 0.499916 42.9648 137.429)" fill="#7173CD"/>
<path d="M257.473 111.318V149.089L275.878 138.419V99.9635L257.473 111.318Z" fill="#33369F"/>
<path d="M241.736 79.4805L205.777 99.2219L225.489 111.318L241.679 102.189L257.472 111.318L275.877 99.9636L241.736 79.4805Z" fill="#B7B9E7"/>
<path d="M205.777 99.222L225.546 111.318L225.376 129.975L247.417 141.957L247.644 162.383L205.777 138.534V99.222Z" fill="#7173CD"/>
<path d="M241.68 102.189L257.472 111.318C257.472 111.318 257.515 130.228 257.515 129.943C258.662 130.496 241.907 121.588 241.907 121.588L241.68 102.189Z" fill="#7173CD"/>
<path d="M225.375 129.975L241.906 121.588L241.679 102.189L225.545 111.318L225.375 129.975Z" fill="#33369F"/>
<path d="M247.416 141.957L225.375 129.975L241.906 121.588L263.038 132.885L247.416 141.957Z" fill="#B7B9E7"/>
<path d="M247.645 162.383L262.756 152.17L263.04 132.885L247.418 141.957L247.645 162.383Z" fill="#33369F"/>
<defs>
<clipPath id="clip0">
<rect width="62.5623" height="27.1317" fill="white" transform="translate(97.9883 527.907)"/>
</clipPath>
<clipPath id="clip1">
<rect width="62.5509" height="17.8692" fill="white" transform="translate(205.777 474.398)"/>
</clipPath>
<clipPath id="clip2">
<rect width="33.3163" height="19.2183" fill="white" transform="translate(220.098 601.766)"/>
</clipPath>
<clipPath id="clip3">
<rect width="29.114" height="28.314" fill="white" transform="translate(327.133 314.942)"/>
</clipPath>
<clipPath id="clip4">
<rect width="29.114" height="28.314" fill="white" transform="translate(224.621 262.186)"/>
</clipPath>
<clipPath id="clip5">
<rect width="29.114" height="28.314" fill="white" transform="translate(224.621 381.264)"/>
</clipPath>
<clipPath id="clip6">
<rect width="29.114" height="28.314" fill="white" transform="translate(117.588 319.464)"/>
</clipPath>
</defs>
</svg>
