<svg width="158" height="49" viewBox="0 0 158 49" fill="none" xmlns="http://www.w3.org/2000/svg">
<path d="M78.5483 33.0781L76.4014 35.6681L74.2224 33.8551C72.3425 35.2364 70.1422 35.9271 67.6214 35.9271C64.3744 35.9271 61.7147 34.8479 59.6426 32.6896C57.5918 30.5313 56.5664 27.6824 56.5664 24.1428C56.5664 20.6032 57.5918 17.7543 59.6426 15.596C61.7147 13.4377 64.3744 12.3585 67.6214 12.3585C70.8685 12.3585 73.5175 13.4377 75.5683 15.596C77.6404 17.7543 78.6765 20.6032 78.6765 24.1428C78.6765 26.9054 77.9715 29.3443 76.5616 31.4594L78.5483 33.0781ZM67.6214 15.9521C65.3998 15.9521 63.6908 16.7075 62.4945 18.2183C61.2982 19.7291 60.7 21.7039 60.7 24.1428C60.7 26.5817 61.2982 28.5565 62.4945 30.0673C63.6908 31.5781 65.3998 32.3335 67.6214 32.3335C69.1168 32.3335 70.3558 32.0206 71.3385 31.3947L68.4546 28.9666L70.5695 26.3766L73.5816 28.9666C74.2865 27.6716 74.639 26.0637 74.639 24.1428C74.639 21.7039 74.0302 19.7291 72.8125 18.2183C71.5949 16.7075 69.8645 15.9521 67.6214 15.9521Z" fill="#A8A8C1"/>
<path d="M94.4672 33.4019C93.0359 34.999 91.092 35.7976 88.6353 35.7976C86.1786 35.7976 84.224 34.999 82.7713 33.4019C81.34 31.8047 80.6244 29.8191 80.6244 27.445C80.6244 25.0924 81.34 23.1176 82.7713 21.5205C84.224 19.9018 86.1786 19.0924 88.6353 19.0924C91.092 19.0924 93.0359 19.9018 94.4672 21.5205C95.9199 23.1176 96.6462 25.0924 96.6462 27.445C96.6462 29.8191 95.9199 31.8047 94.4672 33.4019ZM91.7756 23.6248C91.0279 22.6752 89.9811 22.2003 88.6353 22.2003C87.2895 22.2003 86.232 22.6752 85.463 23.6248C84.7153 24.5745 84.3414 25.8478 84.3414 27.445C84.3414 29.0637 84.7153 30.3479 85.463 31.2975C86.232 32.2472 87.2895 32.722 88.6353 32.722C89.9811 32.722 91.0279 32.2472 91.7756 31.2975C92.5446 30.3479 92.9291 29.0637 92.9291 27.445C92.9291 25.8478 92.5446 24.5745 91.7756 23.6248Z" fill="#A8A8C1"/>
<path d="M113.015 19.3838L106.927 35.4738H103.562L97.4738 19.3838H101.159L105.228 31.0385L109.298 19.3838H113.015Z" fill="#A8A8C1"/>
<path d="M128.277 28.0277H117.606C117.82 29.6464 118.397 30.8335 119.337 31.5889C120.298 32.3443 121.43 32.722 122.733 32.722C124.357 32.722 125.959 32.3227 127.54 31.5242L127.796 34.5673C126.173 35.3875 124.399 35.7976 122.477 35.7976C119.742 35.7976 117.617 34.999 116.1 33.4019C114.605 31.8047 113.857 29.8083 113.857 27.4126C113.857 25.0817 114.541 23.1176 115.908 21.5205C117.296 19.9018 119.176 19.0924 121.548 19.0924C123.577 19.0924 125.243 19.7291 126.546 21.0025C127.849 22.2543 128.501 23.927 128.501 26.0205C128.501 26.5385 128.426 27.2076 128.277 28.0277ZM121.612 22.2003C119.518 22.2003 118.236 23.3119 117.766 25.5349H124.784C124.784 24.6068 124.517 23.8191 123.983 23.1716C123.47 22.5241 122.68 22.2003 121.612 22.2003Z" fill="#A8A8C1"/>
<path d="M140.186 19.0276L139.481 22.6212H138.136C137.495 22.6212 136.875 22.7939 136.277 23.1392C135.7 23.4845 135.284 23.8946 135.027 24.3694V35.4738H131.31V19.3838H134.611L134.803 21.391C136.213 19.8154 137.74 19.0276 139.385 19.0276H140.186Z" fill="#A8A8C1"/>
<path d="M157.999 19.3838L148.098 43.3084H144.349L147.937 34.5026L141.304 19.3838H145.342L149.7 30.2292L153.962 19.3838H157.999Z" fill="#A8A8C1"/>
<path d="M30.373 18.8176V41.1425L41.1878 34.8362V12.1067L30.373 18.8176Z" fill="#33369F"/>
<path d="M21.1287 0L0 11.6683L11.5824 18.8176L21.0954 13.4219L30.3747 18.8176L41.1894 12.1067L21.1287 0Z" fill="#B7B9E7"/>
<path d="M0 11.6682L11.6158 18.8176L11.5157 29.8451L24.4666 36.927L24.6001 48.9999L0 34.9036V11.6682Z" fill="#7173CD"/>
<path d="M21.0938 13.4218L30.373 18.8175C30.373 18.8175 30.3983 29.9945 30.3983 29.8258C31.0724 30.1531 21.2273 24.8877 21.2273 24.8877L21.0938 13.4218Z" fill="#7173CD"/>
<path d="M11.5156 29.845L21.2288 24.8877L21.0953 13.4218L11.6158 18.8175L11.5156 29.845Z" fill="#33369F"/>
<path d="M24.4666 36.927L11.5156 29.8451L21.2288 24.8878L33.6457 31.565L24.4666 36.927Z" fill="#B7B9E7"/>
<path d="M24.6003 49L33.479 42.9636L33.6459 31.5651L24.4668 36.9271L24.6003 49Z" fill="#33369F"/>
<path d="M1.13867 12.3765C4.61006 14.5348 8.1451 16.6613 11.6165 18.8196C14.7875 17.0322 17.9262 15.2095 21.0972 13.4222C24.2014 15.2095 27.2742 17.0303 30.3785 18.8177C33.5494 16.7943 36.7564 14.9087 39.9117 12.8992L21.0992 1.48389C14.4568 5.126 7.81442 8.7344 1.13867 12.3765Z" fill="#B7B9E7"/>
</svg>
