<svg width="567" height="299" viewBox="0 0 567 299" fill="none" xmlns="http://www.w3.org/2000/svg">
<path d="M430.589 130.257L453.118 116.538" stroke="#326DE6" stroke-dasharray="4.15 4.15"/>
<rect x="448.072" y="100.418" width="96" height="25" rx="3" fill="#326DE6"/>
<path d="M459.486 117.418H457.723V107.554H459.486V112.093H459.603L463.492 107.554H465.516L461.79 111.854L465.81 117.418H463.656L460.539 113.064L459.486 114.274V117.418ZM473.254 109.94V117.418H471.62V116.229H471.504C471.126 117.122 470.381 117.569 469.269 117.569C468.453 117.569 467.817 117.327 467.361 116.844C466.906 116.356 466.678 115.675 466.678 114.8V109.94H468.373V114.376C468.373 114.951 468.494 115.379 468.735 115.661C468.977 115.939 469.351 116.078 469.856 116.078C470.403 116.078 470.823 115.921 471.114 115.607C471.41 115.292 471.559 114.855 471.559 114.294V109.94H473.254ZM479.488 117.541C478.964 117.541 478.497 117.427 478.087 117.2C477.677 116.967 477.365 116.646 477.15 116.236H477.034V117.418H475.4V107.048H477.096V111.129H477.212C477.408 110.724 477.709 110.405 478.114 110.172C478.52 109.935 478.978 109.817 479.488 109.817C480.436 109.817 481.184 110.163 481.73 110.856C482.282 111.544 482.558 112.485 482.558 113.679C482.558 114.869 482.282 115.81 481.73 116.502C481.179 117.195 480.432 117.541 479.488 117.541ZM480.315 111.909C479.987 111.476 479.534 111.259 478.955 111.259C478.376 111.259 477.916 111.478 477.574 111.915C477.237 112.348 477.068 112.936 477.068 113.679C477.068 114.426 477.237 115.017 477.574 115.45C477.916 115.883 478.376 116.099 478.955 116.099C479.534 116.099 479.987 115.885 480.315 115.456C480.648 115.023 480.814 114.431 480.814 113.679C480.814 112.927 480.648 112.337 480.315 111.909ZM487.397 111.136C486.892 111.136 486.475 111.302 486.146 111.635C485.818 111.968 485.636 112.408 485.6 112.954H489.12C489.102 112.398 488.938 111.956 488.628 111.628C488.318 111.3 487.908 111.136 487.397 111.136ZM489.134 115.361H490.74C490.581 116.044 490.205 116.584 489.612 116.981C489.024 117.373 488.293 117.569 487.418 117.569C486.32 117.569 485.456 117.227 484.827 116.543C484.203 115.855 483.891 114.91 483.891 113.706C483.891 112.503 484.205 111.551 484.834 110.849C485.463 110.143 486.32 109.789 487.404 109.789C488.471 109.789 489.305 110.124 489.906 110.794C490.512 111.46 490.815 112.383 490.815 113.563V114.11H485.593V114.199C485.616 114.823 485.793 115.317 486.126 115.682C486.463 116.042 486.91 116.222 487.466 116.222C488.323 116.222 488.879 115.935 489.134 115.361ZM492.518 117.418V109.94H494.151V111.102H494.268C494.372 110.728 494.607 110.421 494.972 110.179C495.341 109.938 495.765 109.817 496.243 109.817C496.549 109.817 496.783 109.842 496.947 109.892V111.464C496.774 111.4 496.485 111.369 496.079 111.369C495.528 111.369 495.079 111.528 494.732 111.847C494.386 112.161 494.213 112.578 494.213 113.098V117.418H492.518ZM498.438 117.418V109.94H500.071V111.136H500.188C500.37 110.708 500.648 110.377 501.021 110.145C501.4 109.908 501.862 109.789 502.409 109.789C503.239 109.789 503.874 110.031 504.316 110.514C504.763 110.997 504.986 111.685 504.986 112.578V117.418H503.291V112.982C503.291 111.838 502.787 111.266 501.78 111.266C501.274 111.266 500.873 111.428 500.577 111.751C500.281 112.075 500.133 112.512 500.133 113.064V117.418H498.438ZM510.134 111.136C509.628 111.136 509.211 111.302 508.883 111.635C508.555 111.968 508.372 112.408 508.336 112.954H511.856C511.838 112.398 511.674 111.956 511.364 111.628C511.054 111.3 510.644 111.136 510.134 111.136ZM511.87 115.361H513.477C513.317 116.044 512.941 116.584 512.349 116.981C511.761 117.373 511.029 117.569 510.154 117.569C509.056 117.569 508.192 117.227 507.563 116.543C506.939 115.855 506.627 114.91 506.627 113.706C506.627 112.503 506.941 111.551 507.57 110.849C508.199 110.143 509.056 109.789 510.141 109.789C511.207 109.789 512.041 110.124 512.643 110.794C513.249 111.46 513.552 112.383 513.552 113.563V114.11H508.329V114.199C508.352 114.823 508.53 115.317 508.862 115.682C509.2 116.042 509.646 116.222 510.202 116.222C511.059 116.222 511.615 115.935 511.87 115.361ZM515.794 108.108H517.482V109.988H519.082V111.341H517.482V115.012C517.482 115.381 517.564 115.652 517.729 115.826C517.893 115.994 518.152 116.078 518.508 116.078C518.663 116.078 518.854 116.067 519.082 116.044V117.37C518.799 117.425 518.503 117.453 518.193 117.453C517.337 117.453 516.721 117.295 516.348 116.981C515.979 116.666 515.794 116.147 515.794 115.422V111.341H514.611V109.988H515.794V108.108ZM523.847 111.136C523.341 111.136 522.924 111.302 522.596 111.635C522.268 111.968 522.085 112.408 522.049 112.954H525.569C525.551 112.398 525.387 111.956 525.077 111.628C524.767 111.3 524.357 111.136 523.847 111.136ZM525.583 115.361H527.189C527.03 116.044 526.654 116.584 526.062 116.981C525.474 117.373 524.742 117.569 523.867 117.569C522.769 117.569 521.905 117.227 521.276 116.543C520.652 115.855 520.34 114.91 520.34 113.706C520.34 112.503 520.654 111.551 521.283 110.849C521.912 110.143 522.769 109.789 523.854 109.789C524.92 109.789 525.754 110.124 526.355 110.794C526.962 111.46 527.265 112.383 527.265 113.563V114.11H522.042V114.199C522.065 114.823 522.243 115.317 522.575 115.682C522.912 116.042 523.359 116.222 523.915 116.222C524.772 116.222 525.328 115.935 525.583 115.361ZM528.796 112.079C528.796 111.405 529.074 110.856 529.63 110.432C530.186 110.004 530.906 109.789 531.79 109.789C532.679 109.789 533.387 109.979 533.916 110.357C534.449 110.731 534.745 111.257 534.805 111.936H533.212C533.148 111.667 532.993 111.457 532.747 111.307C532.506 111.152 532.189 111.075 531.797 111.075C531.405 111.075 531.081 111.159 530.826 111.328C530.571 111.496 530.443 111.715 530.443 111.984C530.443 112.193 530.532 112.367 530.71 112.503C530.892 112.64 531.173 112.752 531.551 112.838L532.87 113.139C533.59 113.303 534.119 113.547 534.456 113.87C534.793 114.194 534.962 114.629 534.962 115.176C534.962 115.892 534.666 116.47 534.073 116.912C533.481 117.35 532.715 117.569 531.776 117.569C530.842 117.569 530.095 117.377 529.534 116.995C528.978 116.612 528.668 116.081 528.604 115.402H530.279C530.361 115.684 530.532 115.903 530.792 116.058C531.056 116.208 531.398 116.284 531.817 116.284C532.246 116.284 532.594 116.199 532.863 116.031C533.132 115.857 533.267 115.632 533.267 115.354C533.267 114.939 532.923 114.657 532.234 114.506L530.908 114.199C530.188 114.035 529.655 113.782 529.309 113.44C528.967 113.093 528.796 112.64 528.796 112.079Z" fill="#E9EAFA"/>
<rect opacity="0.05" width="275.765" height="278.095" rx="1.44" transform="matrix(0.866074 -0.499916 0.866074 0.499916 0 159.859)" fill="#8686B3"/>
<rect opacity="0.4" width="107.996" height="105.428" rx="1.44" transform="matrix(0.866074 -0.499916 0.866074 0.499916 148.589 97.1942)" fill="#357AFF"/>
<rect opacity="0.4" width="107.996" height="105.428" rx="1.44" transform="matrix(0.866074 -0.499916 0.866074 0.499916 41.5548 160.687)" fill="#357AFF"/>
<rect opacity="0.4" width="107.996" height="105.428" rx="1.44" transform="matrix(0.866074 -0.499916 0.866074 0.499916 146.328 222.487)" fill="#357AFF"/>
<rect opacity="0.4" width="107.996" height="105.428" rx="1.44" transform="matrix(0.866074 -0.499916 0.866074 0.499916 252.608 159.934)" fill="#357AFF"/>
<g clip-path="url(#clip0)">
<path d="M336.566 164.831C335.89 164.831 335.251 164.53 334.819 163.986L328.245 155.816C327.813 155.271 327.644 154.577 327.813 153.9L330.161 143.703C330.311 143.026 330.762 142.482 331.382 142.181L340.886 137.636C341.187 137.486 341.525 137.411 341.863 137.411C342.201 137.411 342.539 137.486 342.84 137.636L352.344 142.163C352.964 142.463 353.415 143.008 353.565 143.684L355.913 153.882C356.063 154.558 355.913 155.253 355.481 155.797L348.907 163.967C348.475 164.493 347.836 164.812 347.16 164.812L336.566 164.831H336.566Z" fill="#326DE6"/>
<path d="M351.367 153.187C351.348 153.187 351.348 153.187 351.367 153.187H351.348C351.329 153.187 351.31 153.187 351.31 153.168C351.273 153.168 351.235 153.149 351.198 153.149C351.066 153.13 350.954 153.112 350.841 153.112C350.784 153.112 350.728 153.112 350.653 153.093H350.634C350.24 153.055 349.92 153.018 349.62 152.924C349.488 152.867 349.451 152.792 349.413 152.717C349.413 152.698 349.394 152.698 349.394 152.68L349.15 152.605C349.266 151.721 349.221 150.824 349.019 149.956C348.814 149.081 348.458 148.249 347.967 147.496L348.155 147.327V147.29C348.155 147.196 348.174 147.102 348.249 147.008C348.474 146.801 348.756 146.632 349.094 146.426C349.15 146.388 349.207 146.369 349.263 146.332C349.376 146.275 349.47 146.219 349.582 146.144C349.601 146.125 349.639 146.106 349.676 146.069C349.695 146.05 349.714 146.05 349.714 146.031C349.977 145.806 350.033 145.43 349.845 145.186C349.751 145.055 349.582 144.98 349.413 144.98C349.263 144.98 349.132 145.036 349 145.13L348.963 145.167C348.925 145.186 348.906 145.224 348.869 145.242C348.775 145.336 348.699 145.411 348.624 145.505C348.587 145.543 348.549 145.599 348.493 145.637C348.23 145.919 347.986 146.144 347.742 146.313C347.685 146.35 347.629 146.369 347.573 146.369C347.535 146.369 347.497 146.369 347.46 146.35H347.422L347.197 146.501C346.953 146.238 346.69 146.012 346.427 145.787C345.295 144.902 343.932 144.361 342.501 144.228L342.482 143.984L342.445 143.947C342.388 143.89 342.313 143.834 342.294 143.702C342.276 143.402 342.313 143.064 342.351 142.688V142.669C342.351 142.613 342.37 142.538 342.388 142.482C342.407 142.369 342.426 142.256 342.445 142.125V141.956C342.445 141.618 342.182 141.336 341.862 141.336C341.712 141.336 341.562 141.411 341.449 141.524C341.337 141.637 341.28 141.787 341.28 141.956V142.106C341.28 142.238 341.299 142.35 341.337 142.463C341.355 142.519 341.355 142.576 341.374 142.651V142.669C341.412 143.045 341.468 143.383 341.43 143.684C341.412 143.815 341.337 143.871 341.28 143.928L341.243 143.965L341.224 144.209C340.886 144.247 340.548 144.285 340.209 144.36C338.763 144.679 337.486 145.412 336.491 146.463L336.303 146.332H336.265C336.228 146.332 336.19 146.35 336.152 146.35C336.096 146.35 336.04 146.332 335.983 146.294C335.739 146.125 335.495 145.881 335.232 145.599C335.194 145.562 335.157 145.505 335.101 145.468C335.025 145.374 334.95 145.299 334.856 145.205C334.837 145.186 334.8 145.167 334.762 145.13C334.744 145.111 334.725 145.111 334.725 145.092C334.609 144.996 334.463 144.943 334.312 144.942C334.143 144.942 333.974 145.017 333.88 145.149C333.692 145.393 333.748 145.768 334.011 145.994C334.03 145.994 334.03 146.012 334.049 146.012C334.086 146.031 334.105 146.069 334.143 146.088C334.255 146.163 334.349 146.219 334.462 146.275C334.518 146.294 334.575 146.332 334.631 146.369C334.969 146.576 335.251 146.745 335.476 146.952C335.57 147.045 335.57 147.139 335.57 147.233V147.271L335.758 147.44C335.72 147.496 335.683 147.534 335.664 147.59C334.725 149.074 334.368 150.82 334.612 152.548L334.368 152.623C334.368 152.642 334.349 152.642 334.349 152.661C334.312 152.736 334.255 152.811 334.143 152.867C333.861 152.961 333.523 152.999 333.128 153.036H333.109C333.053 153.036 332.978 153.036 332.922 153.055C332.809 153.055 332.696 153.074 332.565 153.093C332.527 153.093 332.49 153.112 332.452 153.112C332.433 153.112 332.415 153.112 332.396 153.13C332.058 153.205 331.851 153.525 331.907 153.825C331.964 154.088 332.208 154.257 332.508 154.257C332.565 154.257 332.602 154.257 332.659 154.238C332.677 154.238 332.696 154.238 332.696 154.22C332.734 154.22 332.771 154.201 332.809 154.201C332.94 154.163 333.034 154.126 333.147 154.069C333.203 154.051 333.26 154.013 333.316 153.994H333.335C333.692 153.863 334.011 153.75 334.312 153.713H334.349C334.462 153.713 334.537 153.769 334.593 153.806C334.612 153.806 334.612 153.825 334.631 153.825L334.894 153.788C335.345 155.177 336.209 156.417 337.354 157.318C337.617 157.525 337.88 157.694 338.162 157.863L338.049 158.107C338.049 158.126 338.068 158.126 338.068 158.145C338.106 158.22 338.143 158.314 338.106 158.445C337.993 158.727 337.824 159.009 337.617 159.328V159.347C337.58 159.403 337.542 159.441 337.505 159.497C337.43 159.591 337.373 159.685 337.298 159.797C337.279 159.816 337.261 159.854 337.242 159.891C337.242 159.91 337.223 159.929 337.223 159.929C337.073 160.248 337.185 160.605 337.467 160.736C337.542 160.774 337.617 160.793 337.693 160.793C337.918 160.793 338.143 160.643 338.256 160.436C338.256 160.417 338.275 160.398 338.275 160.398C338.294 160.361 338.312 160.323 338.331 160.304C338.388 160.173 338.406 160.079 338.444 159.966L338.5 159.797C338.632 159.422 338.726 159.121 338.895 158.858C338.97 158.746 339.064 158.727 339.139 158.689C339.158 158.689 339.158 158.689 339.176 158.671L339.308 158.426C340.134 158.746 341.036 158.915 341.938 158.915C342.482 158.915 343.046 158.858 343.572 158.727C343.903 158.653 344.229 158.559 344.548 158.445L344.661 158.652C344.68 158.652 344.68 158.652 344.699 158.671C344.793 158.689 344.868 158.727 344.943 158.84C345.093 159.103 345.206 159.422 345.337 159.779V159.797L345.394 159.966C345.431 160.079 345.45 160.192 345.506 160.304C345.525 160.342 345.544 160.361 345.563 160.398C345.563 160.417 345.582 160.436 345.582 160.436C345.694 160.661 345.92 160.793 346.145 160.793C346.22 160.793 346.295 160.774 346.37 160.736C346.502 160.661 346.615 160.549 346.652 160.398C346.69 160.248 346.69 160.079 346.615 159.929C346.615 159.91 346.596 159.91 346.596 159.891C346.577 159.854 346.558 159.816 346.539 159.797C346.483 159.685 346.408 159.591 346.333 159.497C346.295 159.441 346.258 159.403 346.22 159.347V159.328C346.014 159.009 345.826 158.727 345.732 158.445C345.694 158.314 345.732 158.239 345.751 158.145C345.751 158.126 345.769 158.126 345.769 158.107L345.675 157.882C346.671 157.3 347.516 156.473 348.155 155.459C348.493 154.933 348.756 154.351 348.944 153.769L349.169 153.806C349.188 153.806 349.188 153.788 349.207 153.788C349.282 153.75 349.338 153.694 349.451 153.694H349.488C349.789 153.731 350.108 153.844 350.465 153.975H350.484C350.54 153.994 350.597 154.032 350.653 154.05C350.766 154.107 350.86 154.144 350.991 154.182C351.029 154.182 351.066 154.201 351.104 154.201C351.123 154.201 351.141 154.201 351.16 154.22C351.216 154.238 351.254 154.238 351.31 154.238C351.592 154.238 351.836 154.051 351.911 153.806C351.911 153.581 351.705 153.281 351.367 153.187V153.187ZM342.67 152.266L341.844 152.661L341.017 152.266L340.811 151.384L341.374 150.67H342.294L342.858 151.384L342.67 152.266H342.67ZM347.573 150.313C347.718 150.934 347.763 151.575 347.704 152.21L344.83 151.384C344.567 151.309 344.417 151.046 344.473 150.783C344.492 150.708 344.53 150.632 344.586 150.576L346.859 148.529C347.178 149.055 347.422 149.656 347.573 150.313V150.313ZM345.957 147.402L343.497 149.149C343.29 149.28 343.008 149.243 342.839 149.036C342.783 148.98 342.764 148.905 342.745 148.83L342.576 145.768C343.855 145.916 345.047 146.491 345.957 147.402V147.402ZM340.51 145.862C340.717 145.825 340.904 145.787 341.111 145.749L340.942 148.754C340.923 149.017 340.717 149.243 340.435 149.243C340.36 149.243 340.266 149.224 340.209 149.186L337.711 147.402C338.482 146.632 339.439 146.106 340.51 145.862V145.862ZM336.81 148.529L339.045 150.52C339.252 150.689 339.27 151.008 339.101 151.215C339.045 151.29 338.97 151.346 338.876 151.365L335.965 152.21C335.852 150.933 336.134 149.637 336.81 148.529V148.529ZM336.303 153.618L339.289 153.111C339.533 153.093 339.759 153.262 339.815 153.506C339.834 153.618 339.834 153.712 339.796 153.806L338.651 156.567C337.599 155.891 336.753 154.858 336.303 153.618H336.303ZM343.159 157.356C342.726 157.45 342.294 157.506 341.844 157.506C341.186 157.506 340.548 157.393 339.947 157.206L341.43 154.52C341.581 154.351 341.825 154.276 342.031 154.389C342.119 154.442 342.196 154.512 342.257 154.595L343.703 157.206C343.534 157.262 343.346 157.3 343.158 157.356H343.159ZM346.821 154.745C346.352 155.497 345.732 156.098 345.018 156.567L343.835 153.731C343.778 153.506 343.872 153.262 344.098 153.149C344.173 153.111 344.267 153.093 344.361 153.093L347.366 153.6C347.253 154.013 347.065 154.389 346.821 154.745V154.745Z" fill="white"/>
</g>
<g clip-path="url(#clip1)">
<path d="M234.054 112.075C233.378 112.075 232.739 111.774 232.307 111.229L225.733 103.06C225.301 102.515 225.132 101.82 225.301 101.144L227.649 90.9464C227.8 90.2703 228.25 89.7256 228.87 89.4252L238.375 84.8802C238.675 84.7301 239.013 84.6549 239.351 84.6549C239.689 84.6549 240.027 84.73 240.328 84.8803L249.832 89.4064C250.452 89.7069 250.903 90.2515 251.053 90.9277L253.401 101.125C253.551 101.802 253.401 102.496 252.969 103.041L246.395 111.211C245.963 111.737 245.324 112.056 244.648 112.056L234.055 112.075H234.054Z" fill="#326DE6"/>
<path d="M248.855 100.431C248.836 100.431 248.836 100.431 248.855 100.431H248.836C248.818 100.431 248.799 100.431 248.799 100.412C248.761 100.412 248.724 100.393 248.686 100.393C248.555 100.374 248.442 100.355 248.329 100.355C248.273 100.355 248.217 100.355 248.141 100.337H248.123C247.728 100.299 247.409 100.262 247.108 100.168C246.977 100.111 246.939 100.036 246.902 99.961C246.902 99.9422 246.883 99.9422 246.883 99.9235L246.639 99.8484C246.754 98.9649 246.71 98.0679 246.507 97.2002C246.302 96.3253 245.946 95.4928 245.455 94.74L245.643 94.571V94.5335C245.643 94.4395 245.662 94.3456 245.737 94.2517C245.962 94.0451 246.244 93.8761 246.582 93.6695C246.639 93.632 246.695 93.6132 246.751 93.5756C246.864 93.5193 246.958 93.463 247.071 93.3878C247.09 93.3691 247.127 93.3503 247.165 93.3128C247.183 93.2939 247.202 93.2939 247.202 93.2751C247.465 93.0498 247.522 92.6742 247.334 92.4299C247.24 92.2985 247.071 92.2234 246.902 92.2234C246.752 92.2234 246.62 92.2797 246.488 92.3736L246.451 92.4112C246.413 92.4299 246.395 92.4676 246.357 92.4863C246.263 92.5803 246.188 92.6553 246.113 92.7492C246.075 92.7868 246.038 92.8432 245.981 92.8807C245.718 93.1625 245.474 93.3878 245.23 93.5568C245.174 93.5943 245.117 93.6132 245.061 93.6132C245.023 93.6132 244.986 93.6132 244.948 93.5943H244.911L244.685 93.7447C244.441 93.4818 244.178 93.2564 243.915 93.031C242.783 92.1461 241.42 91.605 239.989 91.4721L239.971 91.228L239.933 91.1905C239.877 91.1341 239.802 91.0778 239.783 90.9463C239.764 90.6458 239.802 90.3077 239.839 89.9322V89.9134C239.839 89.857 239.858 89.7819 239.877 89.7255C239.896 89.613 239.914 89.5002 239.933 89.3687V89.1997C239.933 88.8617 239.67 88.58 239.351 88.58C239.201 88.58 239.05 88.6551 238.938 88.7678C238.825 88.8804 238.769 89.0307 238.769 89.1997V89.35C238.769 89.4814 238.787 89.5941 238.825 89.7068C238.844 89.7632 238.844 89.8195 238.862 89.8946V89.9134C238.9 90.289 238.956 90.627 238.919 90.9276C238.9 91.059 238.825 91.1153 238.769 91.1717L238.731 91.2092L238.712 91.4534C238.374 91.4909 238.036 91.5284 237.698 91.6036C236.252 91.9229 234.974 92.6554 233.979 93.707L233.791 93.5756H233.753C233.716 93.5756 233.678 93.5943 233.641 93.5943C233.584 93.5943 233.528 93.5756 233.472 93.538C233.228 93.3691 232.983 93.1248 232.72 92.8432C232.683 92.8056 232.645 92.7492 232.589 92.7117C232.514 92.6178 232.439 92.5426 232.345 92.4488C232.326 92.4299 232.288 92.4113 232.251 92.3736C232.232 92.3549 232.213 92.3549 232.213 92.3361C232.097 92.24 231.951 92.1869 231.8 92.1858C231.631 92.1858 231.462 92.261 231.368 92.3924C231.18 92.6365 231.236 93.0121 231.499 93.2375C231.518 93.2375 231.518 93.2564 231.537 93.2564C231.574 93.2751 231.593 93.3127 231.631 93.3314C231.744 93.4065 231.838 93.4629 231.95 93.5193C232.007 93.538 232.063 93.5756 232.119 93.6132C232.457 93.8197 232.739 93.9888 232.965 94.1954C233.059 94.2892 233.059 94.3831 233.059 94.4771V94.5146L233.246 94.6837C233.209 94.74 233.171 94.7776 233.152 94.8339C232.213 96.3176 231.856 98.0642 232.1 99.792L231.856 99.8671C231.856 99.8859 231.838 99.8859 231.838 99.9046C231.8 99.9798 231.744 100.055 231.631 100.111C231.349 100.205 231.011 100.243 230.617 100.28H230.598C230.542 100.28 230.466 100.28 230.41 100.299C230.297 100.299 230.185 100.318 230.053 100.337C230.016 100.337 229.978 100.355 229.94 100.355C229.922 100.355 229.903 100.355 229.884 100.374C229.546 100.449 229.339 100.769 229.396 101.069C229.452 101.332 229.696 101.501 229.997 101.501C230.053 101.501 230.091 101.501 230.147 101.482C230.166 101.482 230.185 101.482 230.185 101.463C230.222 101.463 230.26 101.445 230.297 101.445C230.429 101.407 230.523 101.37 230.635 101.313C230.692 101.294 230.748 101.257 230.804 101.238H230.823C231.18 101.107 231.499 100.994 231.8 100.956H231.838C231.95 100.956 232.025 101.013 232.082 101.05C232.1 101.05 232.1 101.069 232.119 101.069L232.382 101.032C232.833 102.421 233.697 103.661 234.843 104.562C235.106 104.769 235.369 104.938 235.651 105.107L235.538 105.351C235.538 105.37 235.557 105.37 235.557 105.389C235.594 105.464 235.632 105.558 235.594 105.689C235.482 105.971 235.312 106.253 235.106 106.572V106.591C235.068 106.647 235.031 106.684 234.993 106.741C234.918 106.835 234.862 106.929 234.786 107.041C234.768 107.06 234.749 107.098 234.73 107.135C234.73 107.154 234.711 107.173 234.711 107.173C234.561 107.492 234.674 107.849 234.956 107.98C235.031 108.018 235.106 108.037 235.181 108.037C235.406 108.037 235.632 107.886 235.744 107.68C235.744 107.661 235.763 107.642 235.763 107.642C235.782 107.605 235.801 107.567 235.82 107.548C235.876 107.417 235.895 107.323 235.932 107.21L235.989 107.041C236.12 106.666 236.214 106.365 236.383 106.102C236.458 105.99 236.552 105.971 236.627 105.933C236.646 105.933 236.646 105.933 236.665 105.914L236.796 105.67C237.623 105.99 238.524 106.159 239.426 106.159C239.971 106.159 240.534 106.102 241.06 105.971C241.391 105.897 241.717 105.803 242.037 105.689L242.149 105.896C242.168 105.896 242.168 105.896 242.187 105.914C242.281 105.933 242.356 105.971 242.431 106.084C242.582 106.346 242.694 106.666 242.826 107.023V107.041L242.882 107.21C242.92 107.323 242.938 107.436 242.995 107.548C243.014 107.586 243.032 107.605 243.051 107.642C243.051 107.661 243.07 107.68 243.07 107.68C243.183 107.905 243.408 108.037 243.633 108.037C243.709 108.037 243.784 108.018 243.859 107.98C243.99 107.905 244.103 107.792 244.141 107.642C244.178 107.492 244.178 107.323 244.103 107.173C244.103 107.154 244.084 107.154 244.084 107.135C244.065 107.098 244.047 107.06 244.028 107.041C243.971 106.929 243.896 106.835 243.821 106.741C243.784 106.684 243.746 106.647 243.709 106.591V106.572C243.502 106.253 243.314 105.971 243.22 105.689C243.183 105.558 243.22 105.483 243.239 105.389C243.239 105.37 243.258 105.37 243.258 105.351L243.164 105.126C244.159 104.544 245.005 103.717 245.643 102.703C245.981 102.177 246.244 101.595 246.432 101.013L246.657 101.05C246.676 101.05 246.676 101.031 246.695 101.031C246.77 100.994 246.827 100.938 246.939 100.938H246.977C247.277 100.975 247.597 101.088 247.954 101.219H247.972C248.029 101.238 248.085 101.276 248.141 101.294C248.254 101.351 248.348 101.388 248.479 101.426C248.517 101.426 248.555 101.445 248.592 101.445C248.611 101.445 248.63 101.445 248.648 101.463C248.705 101.482 248.742 101.482 248.799 101.482C249.081 101.482 249.325 101.294 249.4 101.05C249.4 100.825 249.193 100.524 248.855 100.431V100.431ZM240.158 99.5102L239.332 99.9047L238.506 99.5102L238.299 98.6276L238.862 97.914H239.783L240.346 98.6276L240.159 99.5102H240.158ZM245.061 97.5572C245.207 98.1782 245.251 98.8187 245.192 99.4538L242.319 98.6276C242.056 98.5526 241.905 98.2896 241.962 98.0267C241.98 97.9515 242.018 97.8763 242.074 97.8201L244.347 95.7729C244.666 96.2988 244.911 96.8998 245.061 97.557V97.5572ZM243.446 94.6462L240.985 96.3928C240.778 96.5242 240.497 96.4866 240.328 96.2801C240.271 96.2237 240.253 96.1485 240.234 96.0735L240.065 93.0121C241.344 93.1594 242.536 93.7353 243.446 94.6462V94.6462ZM237.998 93.1059C238.205 93.0684 238.393 93.0309 238.599 92.9934L238.43 95.9982C238.412 96.2611 238.205 96.4864 237.923 96.4864C237.848 96.4864 237.754 96.4677 237.698 96.4302L235.2 94.6462C235.97 93.8761 236.928 93.3502 237.998 93.1061V93.1059ZM234.298 95.7728L236.533 97.7635C236.74 97.9326 236.759 98.2518 236.59 98.4584C236.533 98.5335 236.458 98.5899 236.364 98.6087L233.453 99.4538C233.34 98.1768 233.622 96.8809 234.298 95.7728V95.7728ZM233.791 100.862L236.778 100.355C237.022 100.336 237.247 100.506 237.303 100.75C237.322 100.862 237.322 100.956 237.285 101.05L236.139 103.811C235.087 103.135 234.242 102.102 233.791 100.862H233.791ZM240.647 104.6C240.215 104.694 239.783 104.75 239.332 104.75C238.675 104.75 238.036 104.637 237.435 104.45L238.919 101.764C239.069 101.595 239.313 101.52 239.52 101.632C239.608 101.686 239.684 101.756 239.745 101.839L241.192 104.45C241.023 104.506 240.835 104.543 240.647 104.6H240.647ZM244.31 101.989C243.84 102.74 243.22 103.341 242.506 103.811L241.323 100.975C241.267 100.75 241.361 100.506 241.586 100.393C241.661 100.355 241.755 100.336 241.849 100.336L244.854 100.844C244.742 101.257 244.554 101.632 244.31 101.989V101.989Z" fill="white"/>
</g>
<g clip-path="url(#clip2)">
<path d="M234.054 231.153C233.378 231.153 232.739 230.852 232.307 230.308L225.733 222.138C225.301 221.593 225.132 220.899 225.301 220.222L227.649 210.024C227.8 209.348 228.25 208.804 228.87 208.503L238.375 203.958C238.675 203.808 239.013 203.733 239.351 203.733C239.689 203.733 240.027 203.808 240.328 203.958L249.832 208.484C250.452 208.785 250.903 209.33 251.053 210.006L253.401 220.204C253.551 220.88 253.401 221.575 252.969 222.119L246.395 230.289C245.963 230.815 245.324 231.134 244.648 231.134L234.055 231.153H234.054Z" fill="#326DE6"/>
<path d="M248.855 219.509C248.836 219.509 248.836 219.509 248.855 219.509H248.836C248.818 219.509 248.799 219.509 248.799 219.49C248.761 219.49 248.724 219.471 248.686 219.471C248.555 219.452 248.442 219.434 248.329 219.434C248.273 219.434 248.217 219.434 248.141 219.415H248.123C247.728 219.377 247.409 219.34 247.108 219.246C246.977 219.189 246.939 219.114 246.902 219.039C246.902 219.02 246.883 219.02 246.883 219.002L246.639 218.926C246.754 218.043 246.71 217.146 246.507 216.278C246.302 215.403 245.946 214.571 245.455 213.818L245.643 213.649V213.612C245.643 213.518 245.662 213.424 245.737 213.33C245.962 213.123 246.244 212.954 246.582 212.748C246.639 212.71 246.695 212.691 246.751 212.654C246.864 212.597 246.958 212.541 247.071 212.466C247.09 212.447 247.127 212.428 247.165 212.391C247.183 212.372 247.202 212.372 247.202 212.353C247.465 212.128 247.522 211.752 247.334 211.508C247.24 211.377 247.071 211.301 246.902 211.301C246.752 211.301 246.62 211.358 246.488 211.452L246.451 211.489C246.413 211.508 246.395 211.546 246.357 211.564C246.263 211.658 246.188 211.733 246.113 211.827C246.075 211.865 246.038 211.921 245.981 211.959C245.718 212.241 245.474 212.466 245.23 212.635C245.174 212.672 245.117 212.691 245.061 212.691C245.023 212.691 244.986 212.691 244.948 212.672H244.911L244.685 212.823C244.441 212.56 244.178 212.334 243.915 212.109C242.783 211.224 241.42 210.683 239.989 210.55L239.971 210.306L239.933 210.269C239.877 210.212 239.802 210.156 239.783 210.024C239.764 209.724 239.802 209.386 239.839 209.01V208.991C239.839 208.935 239.858 208.86 239.877 208.804C239.896 208.691 239.914 208.578 239.933 208.447V208.278C239.933 207.94 239.67 207.658 239.351 207.658C239.201 207.658 239.05 207.733 238.938 207.846C238.825 207.959 238.769 208.109 238.769 208.278V208.428C238.769 208.559 238.787 208.672 238.825 208.785C238.844 208.841 238.844 208.898 238.862 208.973V208.991C238.9 209.367 238.956 209.705 238.919 210.006C238.9 210.137 238.825 210.193 238.769 210.25L238.731 210.287L238.712 210.531C238.374 210.569 238.036 210.606 237.698 210.682C236.252 211.001 234.974 211.733 233.979 212.785L233.791 212.654H233.753C233.716 212.654 233.678 212.672 233.641 212.672C233.584 212.672 233.528 212.654 233.472 212.616C233.228 212.447 232.983 212.203 232.72 211.921C232.683 211.884 232.645 211.827 232.589 211.79C232.514 211.696 232.439 211.621 232.345 211.527C232.326 211.508 232.288 211.489 232.251 211.452C232.232 211.433 232.213 211.433 232.213 211.414C232.097 211.318 231.951 211.265 231.8 211.264C231.631 211.264 231.462 211.339 231.368 211.47C231.18 211.715 231.236 212.09 231.499 212.316C231.518 212.316 231.518 212.334 231.537 212.334C231.574 212.353 231.593 212.391 231.631 212.409C231.744 212.485 231.838 212.541 231.95 212.597C232.007 212.616 232.063 212.654 232.119 212.691C232.457 212.898 232.739 213.067 232.965 213.273C233.059 213.367 233.059 213.461 233.059 213.555V213.593L233.246 213.762C233.209 213.818 233.171 213.856 233.152 213.912C232.213 215.396 231.856 217.142 232.1 218.87L231.856 218.945C231.856 218.964 231.838 218.964 231.838 218.983C231.8 219.058 231.744 219.133 231.631 219.189C231.349 219.283 231.011 219.321 230.617 219.358H230.598C230.542 219.358 230.466 219.358 230.41 219.377C230.297 219.377 230.185 219.396 230.053 219.415C230.016 219.415 229.978 219.434 229.94 219.434C229.922 219.434 229.903 219.434 229.884 219.452C229.546 219.527 229.339 219.847 229.396 220.147C229.452 220.41 229.696 220.579 229.997 220.579C230.053 220.579 230.091 220.579 230.147 220.56C230.166 220.56 230.185 220.56 230.185 220.542C230.222 220.542 230.26 220.523 230.297 220.523C230.429 220.485 230.523 220.448 230.635 220.391C230.692 220.373 230.748 220.335 230.804 220.316H230.823C231.18 220.185 231.499 220.072 231.8 220.034H231.838C231.95 220.034 232.025 220.091 232.082 220.128C232.1 220.128 232.1 220.147 232.119 220.147L232.382 220.11C232.833 221.499 233.697 222.739 234.843 223.64C235.106 223.847 235.369 224.016 235.651 224.185L235.538 224.429C235.538 224.448 235.557 224.448 235.557 224.467C235.594 224.542 235.632 224.636 235.594 224.767C235.482 225.049 235.312 225.331 235.106 225.65V225.669C235.068 225.725 235.031 225.763 234.993 225.819C234.918 225.913 234.862 226.007 234.786 226.119C234.768 226.138 234.749 226.176 234.73 226.213C234.73 226.232 234.711 226.251 234.711 226.251C234.561 226.57 234.674 226.927 234.956 227.058C235.031 227.096 235.106 227.115 235.181 227.115C235.406 227.115 235.632 226.964 235.744 226.758C235.744 226.739 235.763 226.72 235.763 226.72C235.782 226.683 235.801 226.645 235.82 226.626C235.876 226.495 235.895 226.401 235.932 226.288L235.989 226.119C236.12 225.744 236.214 225.443 236.383 225.18C236.458 225.068 236.552 225.049 236.627 225.011C236.646 225.011 236.646 225.011 236.665 224.993L236.796 224.748C237.623 225.068 238.524 225.237 239.426 225.237C239.971 225.237 240.534 225.18 241.06 225.049C241.391 224.975 241.717 224.881 242.037 224.767L242.149 224.974C242.168 224.974 242.168 224.974 242.187 224.993C242.281 225.011 242.356 225.049 242.431 225.162C242.582 225.425 242.694 225.744 242.826 226.101V226.119L242.882 226.288C242.92 226.401 242.938 226.514 242.995 226.626C243.014 226.664 243.032 226.683 243.051 226.72C243.051 226.739 243.07 226.758 243.07 226.758C243.183 226.983 243.408 227.115 243.633 227.115C243.709 227.115 243.784 227.096 243.859 227.058C243.99 226.983 244.103 226.871 244.141 226.72C244.178 226.57 244.178 226.401 244.103 226.251C244.103 226.232 244.084 226.232 244.084 226.213C244.065 226.176 244.047 226.138 244.028 226.119C243.971 226.007 243.896 225.913 243.821 225.819C243.784 225.763 243.746 225.725 243.709 225.669V225.65C243.502 225.331 243.314 225.049 243.22 224.767C243.183 224.636 243.22 224.561 243.239 224.467C243.239 224.448 243.258 224.448 243.258 224.429L243.164 224.204C244.159 223.622 245.005 222.795 245.643 221.781C245.981 221.255 246.244 220.673 246.432 220.091L246.657 220.128C246.676 220.128 246.676 220.11 246.695 220.11C246.77 220.072 246.827 220.016 246.939 220.016H246.977C247.277 220.053 247.597 220.166 247.954 220.297H247.972C248.029 220.316 248.085 220.354 248.141 220.372C248.254 220.429 248.348 220.466 248.479 220.504C248.517 220.504 248.555 220.523 248.592 220.523C248.611 220.523 248.63 220.523 248.648 220.542C248.705 220.56 248.742 220.56 248.799 220.56C249.081 220.56 249.325 220.373 249.4 220.128C249.4 219.903 249.193 219.603 248.855 219.509V219.509ZM240.158 218.588L239.332 218.983L238.506 218.588L238.299 217.706L238.862 216.992H239.783L240.346 217.706L240.159 218.588H240.158ZM245.061 216.635C245.207 217.256 245.251 217.897 245.192 218.532L242.319 217.706C242.056 217.631 241.905 217.368 241.962 217.105C241.98 217.03 242.018 216.954 242.074 216.898L244.347 214.851C244.666 215.377 244.911 215.978 245.061 216.635V216.635ZM243.446 213.724L240.985 215.471C240.778 215.602 240.497 215.565 240.328 215.358C240.271 215.302 240.253 215.227 240.234 215.152L240.065 212.09C241.344 212.237 242.536 212.813 243.446 213.724V213.724ZM237.998 212.184C238.205 212.146 238.393 212.109 238.599 212.071L238.43 215.076C238.412 215.339 238.205 215.565 237.923 215.565C237.848 215.565 237.754 215.546 237.698 215.508L235.2 213.724C235.97 212.954 236.928 212.428 237.998 212.184V212.184ZM234.298 214.851L236.533 216.842C236.74 217.011 236.759 217.33 236.59 217.536C236.533 217.612 236.458 217.668 236.364 217.687L233.453 218.532C233.34 217.255 233.622 215.959 234.298 214.851V214.851ZM233.791 219.94L236.778 219.433C237.022 219.415 237.247 219.584 237.303 219.828C237.322 219.94 237.322 220.034 237.285 220.128L236.139 222.889C235.087 222.213 234.242 221.18 233.791 219.94H233.791ZM240.647 223.678C240.215 223.772 239.783 223.828 239.332 223.828C238.675 223.828 238.036 223.715 237.435 223.528L238.919 220.842C239.069 220.673 239.313 220.598 239.52 220.711C239.608 220.764 239.684 220.834 239.745 220.917L241.192 223.528C241.023 223.584 240.835 223.622 240.647 223.678H240.647ZM244.31 221.067C243.84 221.819 243.22 222.419 242.506 222.889L241.323 220.053C241.267 219.828 241.361 219.584 241.586 219.471C241.661 219.433 241.755 219.415 241.849 219.415L244.854 219.922C244.742 220.335 244.554 220.711 244.31 221.067V221.067Z" fill="white"/>
</g>
<g clip-path="url(#clip3)">
<path d="M127.02 169.353C126.344 169.353 125.705 169.052 125.273 168.508L118.699 160.338C118.267 159.793 118.098 159.099 118.267 158.422L120.615 148.224C120.765 147.548 121.216 147.004 121.836 146.703L131.34 142.158C131.641 142.008 131.979 141.933 132.317 141.933C132.655 141.933 132.993 142.008 133.294 142.158L142.798 146.685C143.418 146.985 143.869 147.53 144.019 148.206L146.367 158.404C146.517 159.08 146.367 159.775 145.935 160.319L139.361 168.489C138.929 169.015 138.29 169.334 137.614 169.334L127.02 169.353H127.02Z" fill="#326DE6"/>
<path d="M141.821 157.709C141.802 157.709 141.802 157.709 141.821 157.709H141.802C141.783 157.709 141.765 157.709 141.765 157.69C141.727 157.69 141.69 157.671 141.652 157.671C141.52 157.652 141.408 157.634 141.295 157.634C141.239 157.634 141.182 157.634 141.107 157.615H141.088C140.694 157.577 140.375 157.54 140.074 157.446C139.943 157.389 139.905 157.314 139.867 157.239C139.867 157.22 139.849 157.22 139.849 157.202L139.604 157.127C139.72 156.243 139.675 155.346 139.473 154.478C139.268 153.603 138.912 152.771 138.421 152.018L138.609 151.849V151.812C138.609 151.718 138.628 151.624 138.703 151.53C138.928 151.323 139.21 151.154 139.548 150.948C139.604 150.91 139.661 150.891 139.717 150.854C139.83 150.797 139.924 150.741 140.037 150.666C140.055 150.647 140.093 150.628 140.13 150.591C140.149 150.572 140.168 150.572 140.168 150.553C140.431 150.328 140.487 149.952 140.299 149.708C140.206 149.577 140.037 149.502 139.867 149.502C139.717 149.502 139.586 149.558 139.454 149.652L139.417 149.689C139.379 149.708 139.36 149.746 139.323 149.764C139.229 149.858 139.154 149.933 139.079 150.027C139.041 150.065 139.004 150.121 138.947 150.159C138.684 150.441 138.44 150.666 138.196 150.835C138.139 150.872 138.083 150.891 138.027 150.891C137.989 150.891 137.952 150.891 137.914 150.872H137.876L137.651 151.023C137.407 150.76 137.144 150.534 136.881 150.309C135.749 149.424 134.386 148.883 132.955 148.75L132.936 148.506L132.899 148.469C132.843 148.412 132.767 148.356 132.749 148.224C132.73 147.924 132.767 147.586 132.805 147.21V147.191C132.805 147.135 132.824 147.06 132.843 147.004C132.861 146.891 132.88 146.778 132.899 146.647V146.478C132.899 146.14 132.636 145.858 132.317 145.858C132.166 145.858 132.016 145.933 131.903 146.046C131.791 146.159 131.734 146.309 131.734 146.478V146.628C131.734 146.759 131.753 146.872 131.791 146.985C131.809 147.041 131.809 147.098 131.828 147.173V147.191C131.866 147.567 131.922 147.905 131.885 148.206C131.866 148.337 131.791 148.393 131.734 148.45L131.697 148.487L131.678 148.731C131.34 148.769 131.002 148.807 130.664 148.882C129.217 149.201 127.94 149.933 126.945 150.985L126.757 150.854H126.719C126.682 150.854 126.644 150.872 126.607 150.872C126.55 150.872 126.494 150.854 126.437 150.816C126.193 150.647 125.949 150.403 125.686 150.121C125.649 150.084 125.611 150.027 125.555 149.99C125.48 149.896 125.404 149.821 125.31 149.727C125.292 149.708 125.254 149.689 125.217 149.652C125.198 149.633 125.179 149.633 125.179 149.614C125.063 149.518 124.917 149.465 124.766 149.464C124.597 149.464 124.428 149.539 124.334 149.67C124.146 149.915 124.202 150.29 124.465 150.516C124.484 150.516 124.484 150.534 124.503 150.534C124.54 150.553 124.559 150.591 124.597 150.61C124.709 150.685 124.803 150.741 124.916 150.797C124.972 150.816 125.029 150.854 125.085 150.891C125.423 151.098 125.705 151.267 125.93 151.473C126.024 151.567 126.024 151.661 126.024 151.755V151.793L126.212 151.962C126.174 152.018 126.137 152.056 126.118 152.112C125.179 153.596 124.822 155.342 125.066 157.07L124.822 157.145C124.822 157.164 124.803 157.164 124.803 157.183C124.766 157.258 124.709 157.333 124.597 157.389C124.315 157.483 123.977 157.521 123.582 157.558H123.564C123.507 157.558 123.432 157.558 123.376 157.577C123.263 157.577 123.15 157.596 123.019 157.615C122.981 157.615 122.944 157.634 122.906 157.634C122.887 157.634 122.869 157.634 122.85 157.652C122.512 157.727 122.305 158.047 122.361 158.347C122.418 158.61 122.662 158.779 122.963 158.779C123.019 158.779 123.056 158.779 123.113 158.76C123.132 158.76 123.15 158.76 123.15 158.742C123.188 158.742 123.225 158.723 123.263 158.723C123.395 158.685 123.489 158.648 123.601 158.591C123.658 158.573 123.714 158.535 123.77 158.516H123.789C124.146 158.385 124.465 158.272 124.766 158.235H124.803C124.916 158.235 124.991 158.291 125.047 158.328C125.066 158.328 125.066 158.347 125.085 158.347L125.348 158.31C125.799 159.699 126.663 160.939 127.809 161.84C128.072 162.047 128.335 162.216 128.616 162.385L128.504 162.629C128.504 162.648 128.522 162.648 128.522 162.667C128.56 162.742 128.597 162.836 128.56 162.967C128.447 163.249 128.278 163.531 128.072 163.85V163.869C128.034 163.925 127.997 163.963 127.959 164.019C127.884 164.113 127.827 164.207 127.752 164.319C127.733 164.338 127.715 164.376 127.696 164.413C127.696 164.432 127.677 164.451 127.677 164.451C127.527 164.77 127.64 165.127 127.921 165.258C127.996 165.296 128.072 165.315 128.147 165.315C128.372 165.315 128.598 165.165 128.71 164.958C128.71 164.939 128.729 164.92 128.729 164.92C128.748 164.883 128.767 164.845 128.785 164.826C128.842 164.695 128.86 164.601 128.898 164.488L128.954 164.319C129.086 163.944 129.18 163.643 129.349 163.38C129.424 163.268 129.518 163.249 129.593 163.211C129.612 163.211 129.612 163.211 129.631 163.193L129.762 162.948C130.589 163.268 131.49 163.437 132.392 163.437C132.936 163.437 133.5 163.38 134.026 163.249C134.357 163.175 134.683 163.081 135.003 162.967L135.115 163.174C135.134 163.174 135.134 163.174 135.153 163.193C135.247 163.211 135.322 163.249 135.397 163.362C135.547 163.625 135.66 163.944 135.791 164.301V164.319L135.848 164.488C135.885 164.601 135.904 164.714 135.96 164.826C135.979 164.864 135.998 164.883 136.017 164.92C136.017 164.939 136.036 164.958 136.036 164.958C136.148 165.183 136.374 165.315 136.599 165.315C136.674 165.315 136.749 165.296 136.825 165.258C136.956 165.183 137.069 165.071 137.106 164.92C137.144 164.77 137.144 164.601 137.069 164.451C137.069 164.432 137.05 164.432 137.05 164.413C137.031 164.376 137.012 164.338 136.994 164.319C136.937 164.207 136.862 164.113 136.787 164.019C136.749 163.963 136.712 163.925 136.674 163.869V163.85C136.468 163.531 136.28 163.249 136.186 162.967C136.148 162.836 136.186 162.761 136.205 162.667C136.205 162.648 136.223 162.648 136.223 162.629L136.13 162.404C137.125 161.822 137.97 160.995 138.609 159.981C138.947 159.455 139.21 158.873 139.398 158.291L139.623 158.328C139.642 158.328 139.642 158.31 139.661 158.31C139.736 158.272 139.792 158.216 139.905 158.216H139.943C140.243 158.253 140.562 158.366 140.919 158.497H140.938C140.994 158.516 141.051 158.554 141.107 158.572C141.22 158.629 141.314 158.666 141.445 158.704C141.483 158.704 141.52 158.723 141.558 158.723C141.577 158.723 141.595 158.723 141.614 158.742C141.671 158.76 141.708 158.76 141.765 158.76C142.046 158.76 142.29 158.573 142.366 158.328C142.366 158.103 142.159 157.803 141.821 157.709V157.709ZM133.124 156.788L132.298 157.183L131.471 156.788L131.265 155.906L131.828 155.192H132.749L133.312 155.906L133.124 156.788H133.124ZM138.027 154.835C138.172 155.456 138.217 156.097 138.158 156.732L135.284 155.906C135.021 155.831 134.871 155.568 134.927 155.305C134.946 155.23 134.984 155.154 135.04 155.098L137.313 153.051C137.632 153.577 137.876 154.178 138.027 154.835V154.835ZM136.411 151.924L133.951 153.671C133.744 153.802 133.462 153.765 133.293 153.558C133.237 153.502 133.218 153.427 133.199 153.352L133.03 150.29C134.31 150.437 135.501 151.013 136.411 151.924V151.924ZM130.964 150.384C131.171 150.346 131.359 150.309 131.565 150.271L131.396 153.276C131.377 153.539 131.171 153.765 130.889 153.765C130.814 153.765 130.72 153.746 130.664 153.708L128.166 151.924C128.936 151.154 129.894 150.628 130.964 150.384V150.384ZM127.264 153.051L129.499 155.042C129.706 155.211 129.724 155.53 129.555 155.737C129.499 155.812 129.424 155.868 129.33 155.887L126.419 156.732C126.306 155.455 126.588 154.159 127.264 153.051V153.051ZM126.757 158.14L129.743 157.633C129.988 157.615 130.213 157.784 130.269 158.028C130.288 158.14 130.288 158.234 130.25 158.328L129.105 161.089C128.053 160.413 127.208 159.38 126.757 158.14H126.757ZM133.613 161.878C133.181 161.972 132.749 162.028 132.298 162.028C131.64 162.028 131.002 161.915 130.401 161.728L131.885 159.042C132.035 158.873 132.279 158.798 132.486 158.911C132.573 158.964 132.65 159.034 132.711 159.117L134.157 161.728C133.988 161.784 133.8 161.822 133.613 161.878H133.613ZM137.275 159.267C136.806 160.019 136.186 160.619 135.472 161.089L134.289 158.253C134.232 158.028 134.326 157.784 134.552 157.671C134.627 157.633 134.721 157.615 134.815 157.615L137.82 158.122C137.707 158.535 137.52 158.911 137.275 159.267V159.267Z" fill="white"/>
</g>
<defs>
<clipPath id="clip0">
<rect width="29.114" height="28.314" fill="white" transform="translate(327.231 136.979)"/>
</clipPath>
<clipPath id="clip1">
<rect width="29.114" height="28.314" fill="white" transform="translate(224.719 84.2229)"/>
</clipPath>
<clipPath id="clip2">
<rect width="29.114" height="28.314" fill="white" transform="translate(224.719 203.301)"/>
</clipPath>
<clipPath id="clip3">
<rect width="29.114" height="28.314" fill="white" transform="translate(117.685 141.501)"/>
</clipPath>
</defs>
</svg>
