<svg width="861" height="472" viewBox="0 0 861 472" fill="none" xmlns="http://www.w3.org/2000/svg">
<rect x="745.027" y="117" width="94" height="23" rx="3" fill="#B160F0" fill-opacity="0.1"/>
<path d="M755.091 134V126.566H755.194L758.116 133.59H759.464L762.386 126.566H762.489V134H764.247V123.431H762.035L758.856 131.129H758.724L755.545 123.431H753.333V134H755.091ZM770.121 132.638C768.854 132.638 768.128 131.671 768.128 129.994C768.128 128.324 768.854 127.35 770.121 127.35C771.38 127.35 772.105 128.324 772.105 129.994C772.105 131.671 771.388 132.638 770.121 132.638ZM770.121 134.161C772.516 134.161 773.973 132.594 773.973 129.994C773.973 127.401 772.508 125.826 770.121 125.826C767.74 125.826 766.268 127.408 766.268 129.994C766.268 132.594 767.718 134.161 770.121 134.161ZM775.804 134H777.621V129.335C777.621 128.155 778.302 127.408 779.386 127.408C780.492 127.408 781.004 128.023 781.004 129.247V134H782.821V128.815C782.821 126.903 781.847 125.826 780.06 125.826C778.866 125.826 778.06 126.376 777.679 127.269H777.555V125.987H775.804V134ZM784.996 134H786.805V125.987H784.996V134ZM785.897 124.684C786.563 124.684 787.018 124.259 787.018 123.68C787.018 123.102 786.563 122.677 785.897 122.677C785.238 122.677 784.776 123.102 784.776 123.68C784.776 124.259 785.238 124.684 785.897 124.684ZM789.64 124.024V126.039H788.373V127.489H789.64V131.861C789.64 133.414 790.372 134.037 792.21 134.037C792.562 134.037 792.899 134 793.163 133.949V132.528C792.943 132.55 792.804 132.565 792.547 132.565C791.786 132.565 791.449 132.213 791.449 131.422V127.489H793.163V126.039H791.449V124.024H789.64ZM798.363 132.638C797.096 132.638 796.371 131.671 796.371 129.994C796.371 128.324 797.096 127.35 798.363 127.35C799.623 127.35 800.348 128.324 800.348 129.994C800.348 131.671 799.63 132.638 798.363 132.638ZM798.363 134.161C800.758 134.161 802.215 132.594 802.215 129.994C802.215 127.401 800.75 125.826 798.363 125.826C795.982 125.826 794.51 127.408 794.51 129.994C794.51 132.594 795.96 134.161 798.363 134.161ZM804.046 134H805.863V129.371C805.863 128.251 806.683 127.518 807.862 127.518C808.17 127.518 808.653 127.569 808.792 127.621V125.936C808.624 125.885 808.302 125.856 808.038 125.856C807.005 125.856 806.141 126.441 805.921 127.232H805.797V125.987H804.046V134ZM810.411 134H812.22V125.987H810.411V134ZM811.312 124.684C811.979 124.684 812.433 124.259 812.433 123.68C812.433 123.102 811.979 122.677 811.312 122.677C810.653 122.677 810.191 123.102 810.191 123.68C810.191 124.259 810.653 124.684 811.312 124.684ZM814.476 134H816.292V129.335C816.292 128.155 816.974 127.408 818.058 127.408C819.164 127.408 819.676 128.023 819.676 129.247V134H821.493V128.815C821.493 126.903 820.519 125.826 818.731 125.826C817.538 125.826 816.732 126.376 816.351 127.269H816.227V125.987H814.476V134ZM829.117 129.906C829.117 131.437 828.355 132.403 827.088 132.403C825.821 132.403 825.104 131.437 825.104 129.906C825.104 128.375 825.821 127.401 827.088 127.401C828.348 127.401 829.117 128.375 829.117 129.906ZM827.088 137.047C829.425 137.047 830.904 135.882 830.904 134.029V125.987H829.154V127.269H829.029C828.59 126.398 827.638 125.856 826.546 125.856C824.503 125.856 823.236 127.452 823.236 129.906C823.236 132.315 824.496 133.883 826.517 133.883C827.63 133.883 828.502 133.414 828.963 132.557H829.088V134.073C829.088 135.077 828.363 135.663 827.118 135.663C826.122 135.663 825.477 135.311 825.36 134.762H823.536C823.683 136.139 825.03 137.047 827.088 137.047Z" fill="#B160F0"/>
<rect x="512.027" width="123" height="23" rx="3" fill="#F8AA14" fill-opacity="0.1"/>
<path d="M524.895 17.2637C527.333 17.2637 529.121 15.8062 529.37 13.6455H527.509C527.253 14.832 526.235 15.5791 524.895 15.5791C523.093 15.5791 521.972 14.0996 521.972 11.7119C521.972 9.33154 523.093 7.85205 524.887 7.85205C526.22 7.85205 527.238 8.67236 527.502 9.93945H529.362C529.143 7.73486 527.29 6.16748 524.887 6.16748C521.892 6.16748 520.039 8.28418 520.039 11.7192C520.039 15.1396 521.899 17.2637 524.895 17.2637ZM531.354 17H533.171V5.88916H531.354V17ZM538.928 15.6377C537.661 15.6377 536.936 14.6709 536.936 12.9937C536.936 11.3237 537.661 10.3496 538.928 10.3496C540.188 10.3496 540.913 11.3237 540.913 12.9937C540.913 14.6709 540.195 15.6377 538.928 15.6377ZM538.928 17.1611C541.323 17.1611 542.78 15.5938 542.78 12.9937C542.78 10.4009 541.315 8.82617 538.928 8.82617C536.547 8.82617 535.075 10.4082 535.075 12.9937C535.075 15.5938 536.525 17.1611 538.928 17.1611ZM551.584 8.9873H549.768V13.6528C549.768 14.8394 549.123 15.5645 547.944 15.5645C546.86 15.5645 546.354 14.9639 546.354 13.7407V8.9873H544.538V14.1948C544.538 16.0698 545.563 17.1611 547.314 17.1611C548.537 17.1611 549.321 16.6411 549.709 15.7256H549.833V17H551.584V8.9873ZM556.711 17.1318C557.824 17.1318 558.747 16.6118 559.201 15.7329H559.326V17H561.083V5.88916H559.267V10.2617H559.143C558.718 9.38281 557.81 8.85547 556.711 8.85547C554.689 8.85547 553.415 10.4521 553.415 12.9863C553.415 15.5352 554.682 17.1318 556.711 17.1318ZM557.275 10.4009C558.52 10.4009 559.289 11.397 559.289 12.9937C559.289 14.605 558.527 15.5864 557.275 15.5864C556.03 15.5864 555.275 14.6123 555.275 12.9937C555.275 11.3823 556.037 10.4009 557.275 10.4009ZM571.74 8.85547C570.642 8.85547 569.711 9.40479 569.25 10.313H569.125V8.9873H567.375V19.666H569.191V15.7842H569.316C569.726 16.6338 570.612 17.1318 571.762 17.1318C573.784 17.1318 575.043 15.5498 575.043 12.9937C575.043 10.4229 573.769 8.85547 571.74 8.85547ZM571.169 15.5864C569.931 15.5864 569.162 14.5977 569.155 12.9937C569.162 11.397 569.938 10.4009 571.176 10.4009C572.421 10.4009 573.176 11.375 573.176 12.9937C573.176 14.6123 572.429 15.5864 571.169 15.5864ZM576.867 17H578.684V12.3711C578.684 11.2505 579.504 10.5181 580.683 10.5181C580.991 10.5181 581.474 10.5693 581.613 10.6206V8.93604C581.445 8.88477 581.123 8.85547 580.859 8.85547C579.826 8.85547 578.962 9.44141 578.742 10.2324H578.618V8.9873H576.867V17ZM586.359 15.6377C585.092 15.6377 584.367 14.6709 584.367 12.9937C584.367 11.3237 585.092 10.3496 586.359 10.3496C587.619 10.3496 588.344 11.3237 588.344 12.9937C588.344 14.6709 587.626 15.6377 586.359 15.6377ZM586.359 17.1611C588.754 17.1611 590.212 15.5938 590.212 12.9937C590.212 10.4009 588.747 8.82617 586.359 8.82617C583.979 8.82617 582.507 10.4082 582.507 12.9937C582.507 15.5938 583.957 17.1611 586.359 17.1611ZM591.025 8.9873L593.874 17H595.874L598.708 8.9873H596.789L594.951 15.1836H594.826L592.973 8.9873H591.025ZM600.268 17H602.077V8.9873H600.268V17ZM601.169 7.68359C601.835 7.68359 602.29 7.25879 602.29 6.68018C602.29 6.10156 601.835 5.67676 601.169 5.67676C600.51 5.67676 600.048 6.10156 600.048 6.68018C600.048 7.25879 600.51 7.68359 601.169 7.68359ZM607.233 17.1318C608.347 17.1318 609.27 16.6118 609.724 15.7329H609.848V17H611.606V5.88916H609.79V10.2617H609.665C609.24 9.38281 608.332 8.85547 607.233 8.85547C605.212 8.85547 603.938 10.4521 603.938 12.9863C603.938 15.5352 605.205 17.1318 607.233 17.1318ZM607.797 10.4009C609.042 10.4009 609.812 11.397 609.812 12.9937C609.812 14.605 609.05 15.5864 607.797 15.5864C606.552 15.5864 605.798 14.6123 605.798 12.9937C605.798 11.3823 606.56 10.4009 607.797 10.4009ZM617.26 10.269C618.352 10.269 619.069 11.0308 619.106 12.2173H615.334C615.415 11.0454 616.176 10.269 617.26 10.269ZM619.121 14.7954C618.857 15.3887 618.234 15.7183 617.333 15.7183C616.14 15.7183 615.371 14.8833 615.327 13.5503V13.4551H620.922V12.8691C620.922 10.3423 619.553 8.82617 617.268 8.82617C614.946 8.82617 613.503 10.4448 613.503 13.0229C613.503 15.6011 614.924 17.1611 617.282 17.1611C619.172 17.1611 620.498 16.2529 620.842 14.7954H619.121ZM622.746 17H624.562V12.3711C624.562 11.2505 625.383 10.5181 626.562 10.5181C626.87 10.5181 627.353 10.5693 627.492 10.6206V8.93604C627.324 8.88477 627.001 8.85547 626.738 8.85547C625.705 8.85547 624.841 9.44141 624.621 10.2324H624.497V8.9873H622.746V17Z" fill="#FF9900"/>
<rect x="355.027" y="118" width="76" height="23" rx="3" fill="#2396ED" fill-opacity="0.1"/>
<path d="M365.481 125.999H367.62C368.821 125.999 369.553 126.672 369.553 127.771C369.553 128.892 368.865 129.536 367.664 129.536H365.481V125.999ZM365.481 131.038H367.576L369.648 135H371.809L369.502 130.745C370.762 130.291 371.494 129.126 371.494 127.734C371.494 125.706 370.103 124.431 367.883 124.431H363.591V135H365.481V131.038ZM376.709 128.269C377.8 128.269 378.518 129.031 378.555 130.217H374.783C374.863 129.045 375.625 128.269 376.709 128.269ZM378.569 132.795C378.306 133.389 377.683 133.718 376.782 133.718C375.588 133.718 374.819 132.883 374.775 131.55V131.455H380.371V130.869C380.371 128.342 379.001 126.826 376.716 126.826C374.395 126.826 372.952 128.445 372.952 131.023C372.952 133.601 374.373 135.161 376.731 135.161C378.621 135.161 379.946 134.253 380.291 132.795H378.569ZM387.666 130.906C387.666 132.437 386.904 133.403 385.637 133.403C384.37 133.403 383.652 132.437 383.652 130.906C383.652 129.375 384.37 128.401 385.637 128.401C386.897 128.401 387.666 129.375 387.666 130.906ZM385.637 138.047C387.974 138.047 389.453 136.882 389.453 135.029V126.987H387.703V128.269H387.578C387.139 127.397 386.187 126.855 385.095 126.855C383.052 126.855 381.785 128.452 381.785 130.906C381.785 133.315 383.044 134.883 385.066 134.883C386.179 134.883 387.051 134.414 387.512 133.557H387.637V135.073C387.637 136.077 386.912 136.663 385.667 136.663C384.67 136.663 384.026 136.311 383.909 135.762H382.085C382.231 137.139 383.579 138.047 385.637 138.047ZM391.709 135H393.518V126.987H391.709V135ZM392.61 125.684C393.276 125.684 393.73 125.259 393.73 124.68C393.73 124.102 393.276 123.677 392.61 123.677C391.951 123.677 391.489 124.102 391.489 124.68C391.489 125.259 391.951 125.684 392.61 125.684ZM395.591 129.28C395.591 130.488 396.316 131.199 397.854 131.55L399.275 131.88C400.037 132.048 400.381 132.334 400.381 132.788C400.381 133.381 399.744 133.784 398.828 133.784C397.92 133.784 397.356 133.433 397.18 132.839H395.386C395.525 134.297 396.785 135.161 398.784 135.161C400.784 135.161 402.197 134.136 402.197 132.598C402.197 131.418 401.487 130.759 399.956 130.415L398.542 130.093C397.737 129.91 397.356 129.631 397.356 129.177C397.356 128.599 397.979 128.203 398.806 128.203C399.656 128.203 400.19 128.562 400.322 129.126H402.029C401.897 127.668 400.703 126.826 398.799 126.826C396.909 126.826 395.591 127.83 395.591 129.28ZM404.556 125.024V127.039H403.289V128.489H404.556V132.861C404.556 134.414 405.288 135.037 407.126 135.037C407.478 135.037 407.815 135 408.079 134.949V133.528C407.859 133.55 407.72 133.564 407.463 133.564C406.702 133.564 406.365 133.213 406.365 132.422V128.489H408.079V127.039H406.365V125.024H404.556ZM409.895 135H411.711V130.371C411.711 129.25 412.532 128.518 413.711 128.518C414.019 128.518 414.502 128.569 414.641 128.621V126.936C414.473 126.885 414.15 126.855 413.887 126.855C412.854 126.855 411.99 127.441 411.77 128.232H411.646V126.987H409.895V135ZM417.087 137.908C418.882 137.908 419.739 137.249 420.42 135.256L423.313 126.987H421.394L419.526 133.242H419.402L417.527 126.987H415.535L418.398 135.037L418.303 135.388C418.069 136.128 417.637 136.421 416.868 136.421C416.743 136.421 416.472 136.414 416.37 136.392V137.878C416.487 137.9 416.978 137.908 417.087 137.908Z" fill="#2396ED"/>
<path d="M142.053 389.011L136.28 389.091L139.237 394.051L142.053 389.011ZM65.6631 435.134L138.444 391.744L137.932 390.885L65.1511 434.275L65.6631 435.134Z" fill="#8686B3"/>
<path d="M117.013 433C119.118 433 120.424 431.906 120.424 430.177C120.424 428.905 119.474 427.921 118.168 427.825V427.702C119.18 427.552 119.952 426.643 119.952 425.597C119.952 424.072 118.811 423.136 116.896 423.136H112.583V433H117.013ZM114.647 424.715H116.37C117.354 424.715 117.922 425.187 117.922 425.973C117.922 426.766 117.313 427.224 116.199 427.224H114.647V424.715ZM114.647 431.421V428.618H116.438C117.655 428.618 118.318 429.097 118.318 429.999C118.318 430.922 117.676 431.421 116.486 431.421H114.647ZM124.375 423.136H122.311V429.596C122.311 431.783 123.917 433.253 126.439 433.253C128.969 433.253 130.575 431.783 130.575 429.596V423.136H128.511V429.384C128.511 430.628 127.766 431.421 126.439 431.421C125.12 431.421 124.375 430.628 124.375 429.384V423.136ZM135.046 433V423.136H132.981V433H135.046ZM143.892 431.202H139.503V423.136H137.438V433H143.892V431.202ZM145.765 423.129V433H149.647C152.601 433 154.275 431.202 154.275 427.996C154.275 424.906 152.58 423.129 149.647 423.129H145.765ZM147.829 424.893H149.319C151.11 424.893 152.17 426.034 152.17 428.03C152.17 430.115 151.145 431.236 149.319 431.236H147.829V424.893Z" fill="#8686B3"/>
<path d="M307.831 315V305.136H305.767V315H307.831ZM312.138 315V308.403H312.247L314.763 314.433H316.137L318.646 308.403H318.755V315H320.669V305.136H318.242L315.508 311.767H315.385L312.657 305.136H310.224V315H312.138ZM329.398 315H331.634L328.209 305.136H325.782L322.357 315H324.429L325.188 312.648H328.653L329.398 315ZM326.869 307.187H326.992L328.216 311.056H325.632L326.869 307.187ZM341.532 310.974V309.716H337.39V311.268H339.529L339.522 311.445C339.481 312.635 338.545 313.435 337.191 313.435C335.564 313.435 334.539 312.149 334.539 310.037C334.539 307.966 335.517 306.701 337.109 306.701C338.258 306.701 339.085 307.282 339.393 308.28H341.443C341.156 306.229 339.44 304.883 337.109 304.883C334.238 304.883 332.427 306.879 332.427 310.058C332.427 313.284 334.225 315.253 337.157 315.253C339.851 315.253 341.532 313.612 341.532 310.974ZM350.05 313.236H345.579V310.837H349.797V309.203H345.579V306.899H350.05V305.136H343.515V315H350.05V313.236Z" fill="#8686B3"/>
<path d="M343.95 267.866L338.177 267.935L341.123 272.9L343.95 267.866ZM241.662 329.134L340.335 270.592L339.825 269.732L241.152 328.274L241.662 329.134Z" fill="#8686B3"/>
<rect x="8.02734" y="449" width="50" height="23" rx="3" fill="#A8A8C1"/>
<path d="M16.394 466H18.2104V461.129C18.2104 460.148 18.877 459.408 19.7778 459.408C20.6714 459.408 21.228 459.943 21.228 460.822V466H22.9932V461.012C22.9932 460.097 23.6157 459.408 24.5605 459.408C25.5347 459.408 26.0254 459.921 26.0254 460.954V466H27.8345V460.492C27.8345 458.83 26.8677 457.826 25.2637 457.826C24.1504 457.826 23.2275 458.405 22.832 459.284H22.7075C22.3706 458.383 21.6016 457.826 20.4956 457.826C19.4336 457.826 18.6133 458.368 18.269 459.284H18.1445V457.987H16.394V466ZM32.7271 464.704C31.9214 464.704 31.3428 464.301 31.3428 463.627C31.3428 462.975 31.8188 462.609 32.8369 462.543L34.646 462.426V463.063C34.646 463.993 33.8257 464.704 32.7271 464.704ZM32.1924 466.132C33.2397 466.132 34.1187 465.678 34.5654 464.901H34.6899V466H36.4404V460.529C36.4404 458.83 35.2832 457.826 33.2251 457.826C31.3208 457.826 29.9951 458.727 29.8486 460.141H31.5625C31.731 459.599 32.3022 459.306 33.1372 459.306C34.1187 459.306 34.646 459.745 34.646 460.529V461.203L32.5806 461.327C30.6323 461.444 29.541 462.279 29.541 463.729C29.541 465.194 30.647 466.132 32.1924 466.132ZM38.6523 466H40.4614V457.987H38.6523V466ZM39.5532 456.684C40.2197 456.684 40.6738 456.259 40.6738 455.68C40.6738 455.102 40.2197 454.677 39.5532 454.677C38.894 454.677 38.4326 455.102 38.4326 455.68C38.4326 456.259 38.894 456.684 39.5532 456.684ZM42.7173 466H44.5337V461.334C44.5337 460.155 45.2148 459.408 46.2988 459.408C47.4048 459.408 47.9175 460.023 47.9175 461.247V466H49.7339V460.814C49.7339 458.903 48.7598 457.826 46.9727 457.826C45.7788 457.826 44.9731 458.375 44.5923 459.269H44.4678V457.987H42.7173V466Z" fill="white"/>
<rect x="180.027" y="242" width="30" height="23" rx="3" fill="#454658"/>
<path d="M192.999 259.264C195.438 259.264 197.225 257.806 197.474 255.646H195.613C195.357 256.832 194.339 257.579 192.999 257.579C191.197 257.579 190.076 256.1 190.076 253.712C190.076 251.332 191.197 249.852 192.991 249.852C194.324 249.852 195.342 250.672 195.606 251.94H197.466C197.247 249.735 195.394 248.168 192.991 248.168C189.996 248.168 188.143 250.284 188.143 253.719C188.143 257.14 190.003 259.264 192.999 259.264ZM201.465 259V248.431H199.576V259H201.465Z" fill="#C7C7DB"/>
<rect opacity="0.1" width="85.2308" height="80.4915" rx="1.72236" transform="matrix(0.866044 -0.499967 0.866044 0.499967 124.027 363.4)" fill="#C5C4F7"/>
<path d="M191.527 377.852L191.527 377.852L191.53 377.854C192.683 378.464 193.971 378.771 195.275 378.748C196.576 378.773 197.862 378.465 199.01 377.854L199.01 377.854L199.013 377.852L218.63 366.532C219.109 366.362 219.524 366.048 219.818 365.633C220.113 365.216 220.272 364.717 220.272 364.205C220.272 363.694 220.113 363.195 219.818 362.778C219.524 362.363 219.109 362.049 218.63 361.879L199.013 350.559L199.014 350.559L199.009 350.556C197.85 349.97 196.569 349.664 195.27 349.664C193.971 349.664 192.69 349.97 191.531 350.556L191.531 350.556L191.527 350.559L171.916 361.881C171.463 362.085 171.072 362.406 170.783 362.811C170.494 363.218 170.319 363.695 170.276 364.192L170.275 364.201L170.276 364.209C170.321 364.707 170.497 365.184 170.786 365.592C171.074 365.998 171.464 366.322 171.916 366.53L191.527 377.852ZM218.379 366.03L218.369 366.033L218.36 366.038L198.748 377.381C197.67 377.926 196.478 378.21 195.27 378.21C194.062 378.21 192.87 377.926 191.792 377.381L172.18 366.038L172.171 366.033L172.161 366.03C171.774 365.901 171.437 365.654 171.198 365.323C170.959 364.992 170.83 364.594 170.83 364.186C170.83 363.777 170.959 363.379 171.198 363.048C171.437 362.717 171.774 362.47 172.161 362.341L172.171 362.338L172.18 362.333L191.792 351.01C192.87 350.465 194.062 350.181 195.27 350.181C196.478 350.181 197.67 350.465 198.748 351.01L218.36 362.333L218.369 362.338L218.379 362.341C218.766 362.47 219.103 362.717 219.342 363.048C219.581 363.379 219.71 363.777 219.71 364.186C219.71 364.594 219.581 364.992 219.342 365.323C219.103 365.654 218.766 365.901 218.379 366.03Z" fill="#5D64D2" stroke="#5D64D2" stroke-width="0.198328"/>
<path opacity="0.4" d="M220.769 359.857V353.144L219.54 352.46C219.193 354.552 216.733 355.94 214.661 356.228L200.609 364.439L194.471 366.66L174.896 356.555L175.352 356.297C173.677 355.514 172.774 353.719 171.872 352.093L170.553 352.876L169.77 353.094V359.927C169.821 360.444 170.008 360.939 170.311 361.362C170.614 361.784 171.022 362.121 171.495 362.336L191.1 373.661C192.392 374.311 193.818 374.65 195.265 374.65C196.711 374.65 198.137 374.311 199.429 373.661L219.044 362.336C219.509 362.123 219.91 361.794 220.211 361.381C220.511 360.968 220.7 360.484 220.76 359.976V359.857H220.769Z" fill="#5D64D2"/>
<path d="M220.769 353.888V349.445L219.54 348.761C219.193 350.853 216.733 352.241 214.661 352.529L200.609 360.75L194.471 362.961L174.896 352.856L175.352 352.598C173.677 351.815 172.774 350.03 171.872 348.394L170.553 349.177L169.77 349.405V353.957C169.821 354.474 170.008 354.969 170.311 355.392C170.614 355.815 171.022 356.151 171.495 356.367L191.1 367.691C192.392 368.342 193.818 368.68 195.265 368.68C196.711 368.68 198.137 368.342 199.429 367.691L219.044 356.367C219.51 356.153 219.913 355.822 220.213 355.407C220.514 354.992 220.702 354.506 220.76 353.997V353.888H220.769Z" fill="url(#paint0_linear)"/>
<path opacity="0.3" d="M214.662 352.529L200.61 360.75L195.275 362.673V368.683C196.726 368.713 198.159 368.371 199.44 367.691L219.055 356.367C219.521 356.153 219.924 355.822 220.224 355.407C220.525 354.992 220.713 354.506 220.77 353.997V353.888V349.445L219.65 348.82H219.531C219.154 350.883 216.715 352.241 214.662 352.529Z" fill="#0F054C"/>
<path d="M191.1 363.149L171.495 351.845C169.194 350.526 169.194 348.364 171.495 347.035L191.1 335.711C192.392 335.06 193.818 334.722 195.265 334.722C196.711 334.722 198.137 335.06 199.429 335.711L219.044 347.035C221.335 348.364 221.335 350.526 219.044 351.845L199.439 363.149C198.147 363.806 196.719 364.148 195.269 364.148C193.82 364.148 192.392 363.806 191.1 363.149Z" fill="url(#paint1_linear)"/>
<path d="M219.055 351.845L199.44 363.149C198.149 363.805 196.722 364.146 195.275 364.146C193.828 364.146 192.401 363.805 191.11 363.149L171.496 351.845C171.067 351.646 170.691 351.351 170.395 350.983C170.099 350.615 169.892 350.184 169.79 349.723C169.651 350.714 170.216 351.706 171.496 352.4L191.1 363.725C192.391 364.38 193.818 364.721 195.265 364.721C196.713 364.721 198.139 364.38 199.43 363.725L219.045 352.4C219.568 352.182 220.012 351.809 220.316 351.329C220.619 350.85 220.768 350.289 220.74 349.723C220.64 350.181 220.435 350.611 220.143 350.979C219.851 351.347 219.479 351.643 219.055 351.845Z" fill="white"/>
<path opacity="0.3" d="M214.677 344.8V254H175.016V344.917C175.016 347.517 176.747 347.258 180.316 349.247C187.389 353.147 202.318 353.147 209.39 349.247C213.014 347.232 214.772 347.439 214.677 344.8Z" fill="url(#paint2_linear)"/>
<g clip-path="url(#clip0)">
<path d="M194.854 296.789C196.438 296.789 197.723 295.52 197.723 293.954C197.723 292.389 196.438 291.119 194.854 291.119C193.27 291.119 191.986 292.389 191.986 293.954C191.986 295.52 193.27 296.789 194.854 296.789Z" fill="#C7C7DB"/>
<path d="M183.14 290.949C183.14 290.983 183.105 291.051 183.105 291.085C183.105 291.393 183.347 291.666 183.693 291.666H188.565C188.807 291.666 188.98 291.529 189.084 291.324C190.086 289.138 192.297 287.67 194.82 287.67C198.31 287.67 201.144 290.47 201.144 293.92C201.144 297.37 198.31 300.17 194.82 300.17C192.263 300.17 190.086 298.668 189.084 296.55C188.98 296.311 188.807 296.174 188.565 296.174H183.693C183.382 296.174 183.106 296.413 183.106 296.755C183.106 296.789 183.106 296.857 183.14 296.892C184.488 302.083 189.222 305.908 194.855 305.908C201.524 305.908 206.949 300.546 206.949 293.954C206.949 287.362 201.524 282 194.854 282C189.222 282 184.488 285.825 183.14 290.949Z" fill="#C7C7DB"/>
</g>
<rect opacity="0.1" width="85.2308" height="80.4915" rx="1.72236" transform="matrix(0.866044 -0.499967 0.866044 0.499967 717.027 238.4)" fill="#B160F0"/>
<path d="M784.527 252.852L784.527 252.852L784.53 252.854C785.683 253.464 786.971 253.771 788.275 253.748C789.576 253.773 790.862 253.465 792.01 252.854L792.01 252.854L792.013 252.852L811.63 241.532C812.109 241.362 812.524 241.048 812.818 240.633C813.113 240.216 813.272 239.717 813.272 239.205C813.272 238.694 813.113 238.195 812.818 237.778C812.524 237.363 812.109 237.049 811.63 236.879L792.013 225.559L792.014 225.559L792.009 225.556C790.85 224.97 789.569 224.664 788.27 224.664C786.971 224.664 785.69 224.97 784.531 225.556L784.531 225.556L784.527 225.559L764.916 236.881C764.463 237.085 764.072 237.406 763.783 237.811C763.494 238.218 763.319 238.695 763.276 239.192L763.275 239.201L763.276 239.209C763.321 239.707 763.497 240.184 763.786 240.592C764.074 240.998 764.464 241.322 764.916 241.53L784.527 252.852ZM811.379 241.03L811.369 241.033L811.36 241.038L791.748 252.381C790.67 252.926 789.478 253.21 788.27 253.21C787.062 253.21 785.87 252.926 784.792 252.381L765.18 241.038L765.171 241.033L765.161 241.03C764.774 240.902 764.437 240.654 764.198 240.323C763.959 239.992 763.83 239.594 763.83 239.186C763.83 238.777 763.959 238.379 764.198 238.048C764.437 237.717 764.774 237.47 765.161 237.341L765.171 237.338L765.18 237.333L784.792 226.01C785.87 225.465 787.062 225.181 788.27 225.181C789.478 225.181 790.67 225.465 791.748 226.01L811.36 237.333L811.369 237.338L811.379 237.341C811.766 237.47 812.103 237.717 812.342 238.048C812.581 238.379 812.71 238.777 812.71 239.186C812.71 239.594 812.581 239.992 812.342 240.323C812.103 240.654 811.766 240.902 811.379 241.03Z" fill="#5D64D2" stroke="#5D64D2" stroke-width="0.198328"/>
<path opacity="0.4" d="M813.769 234.857V228.144L812.54 227.46C812.193 229.552 809.733 230.94 807.661 231.228L793.609 239.439L787.471 241.66L767.896 231.555L768.352 231.297C766.677 230.514 765.774 228.719 764.872 227.093L763.553 227.876L762.77 228.094V234.927C762.821 235.444 763.008 235.939 763.311 236.362C763.614 236.784 764.022 237.121 764.495 237.336L784.1 248.661C785.392 249.311 786.818 249.65 788.265 249.65C789.711 249.65 791.137 249.311 792.429 248.661L812.044 237.336C812.509 237.123 812.91 236.794 813.211 236.381C813.511 235.968 813.7 235.484 813.76 234.976V234.857H813.769Z" fill="#5D64D2"/>
<path d="M813.769 228.888V224.445L812.54 223.761C812.193 225.853 809.733 227.241 807.661 227.529L793.609 235.75L787.471 237.961L767.896 227.856L768.352 227.598C766.677 226.815 765.774 225.03 764.872 223.394L763.553 224.177L762.77 224.405V228.957C762.821 229.474 763.008 229.969 763.311 230.392C763.614 230.815 764.022 231.151 764.495 231.367L784.1 242.691C785.392 243.342 786.818 243.68 788.265 243.68C789.711 243.68 791.137 243.342 792.429 242.691L812.044 231.367C812.51 231.153 812.913 230.822 813.213 230.407C813.514 229.992 813.702 229.506 813.76 228.997V228.888H813.769Z" fill="url(#paint3_linear)"/>
<path opacity="0.3" d="M807.662 227.529L793.61 235.75L788.275 237.673V243.683C789.726 243.713 791.159 243.371 792.44 242.691L812.055 231.367C812.521 231.153 812.924 230.822 813.224 230.407C813.525 229.992 813.713 229.506 813.77 228.997V228.888V224.445L812.65 223.82H812.531C812.154 225.883 809.715 227.241 807.662 227.529Z" fill="#0F054C"/>
<path d="M784.1 238.149L764.495 226.845C762.194 225.526 762.194 223.364 764.495 222.035L784.1 210.711C785.392 210.06 786.818 209.722 788.265 209.722C789.711 209.722 791.137 210.06 792.429 210.711L812.044 222.035C814.335 223.364 814.335 225.526 812.044 226.845L792.439 238.149C791.147 238.806 789.719 239.148 788.269 239.148C786.82 239.148 785.392 238.806 784.1 238.149Z" fill="url(#paint4_linear)"/>
<path d="M812.055 226.845L792.44 238.15C791.149 238.805 789.722 239.146 788.275 239.146C786.828 239.146 785.401 238.805 784.11 238.15L764.496 226.845C764.067 226.646 763.691 226.351 763.395 225.983C763.099 225.615 762.892 225.184 762.79 224.723C762.651 225.714 763.216 226.706 764.496 227.4L784.1 238.725C785.391 239.38 786.818 239.721 788.265 239.721C789.713 239.721 791.139 239.38 792.43 238.725L812.045 227.4C812.568 227.183 813.012 226.809 813.316 226.329C813.619 225.85 813.768 225.289 813.74 224.723C813.64 225.181 813.435 225.611 813.143 225.979C812.851 226.347 812.479 226.643 812.055 226.845Z" fill="white"/>
<path opacity="0.3" d="M807.677 219.8V129H768.016V219.917C768.016 222.517 769.747 222.258 773.316 224.247C780.389 228.147 795.318 228.147 802.39 224.247C806.014 222.232 807.772 222.439 807.677 219.8Z" fill="url(#paint5_linear)"/>
<g clip-path="url(#clip1)">
<path fill-rule="evenodd" clip-rule="evenodd" d="M796.806 174.881L794.49 173.344L792.559 176.59L790.313 175.93L788.335 178.967L788.436 179.923L799.19 177.929L798.565 171.169L796.806 174.881ZM786.777 171.966L788.502 171.727C788.781 171.854 788.976 171.902 789.31 171.987C789.832 172.124 790.435 172.255 791.329 171.802C791.537 171.698 791.97 171.3 792.145 171.072L799.215 169.782L799.936 178.564L787.825 180.76L786.777 171.966ZM799.908 168.802L799.211 168.936L797.87 155L775.027 157.665L777.841 180.642L780.515 180.251C780.302 179.945 779.969 179.574 779.401 179.098C778.614 178.44 778.893 177.322 779.357 176.616C779.972 175.423 783.138 173.907 782.959 172.001C782.894 171.308 782.785 170.405 782.145 169.787C782.121 170.043 782.164 170.291 782.164 170.291C782.164 170.291 781.902 169.954 781.771 169.494C781.641 169.318 781.539 169.261 781.401 169.026C781.302 169.298 781.315 169.614 781.315 169.614C781.315 169.614 781.1 169.103 781.065 168.672C780.938 168.865 780.906 169.232 780.906 169.232C780.906 169.232 780.627 168.427 780.69 167.993C780.563 167.616 780.185 166.867 780.292 165.165C780.989 165.657 782.524 165.54 783.122 164.653C783.321 164.359 783.456 163.558 783.023 161.978C782.744 160.965 782.055 159.457 781.786 158.884L781.754 158.908C781.895 159.369 782.188 160.335 782.3 160.804C782.639 162.225 782.73 162.72 782.571 163.375C782.435 163.945 782.11 164.318 781.286 164.734C780.463 165.152 779.369 164.135 779.3 164.079C778.5 163.437 777.88 162.391 777.811 161.882C777.739 161.326 778.13 160.991 778.327 160.536C778.045 160.617 777.731 160.761 777.731 160.761C777.731 160.761 778.106 160.371 778.568 160.033C778.76 159.905 778.872 159.824 779.074 159.656C778.782 159.651 778.545 159.659 778.545 159.659C778.545 159.659 779.032 159.394 779.537 159.201C779.167 159.185 778.814 159.199 778.814 159.199C778.814 159.199 779.901 158.71 780.76 158.351C781.35 158.107 781.927 158.179 782.251 158.651C782.676 159.268 783.123 159.604 784.07 159.812C784.652 159.552 784.829 159.419 785.559 159.219C786.202 158.507 786.707 158.415 786.707 158.415C786.707 158.415 786.457 158.646 786.39 159.01C786.754 158.72 787.154 158.479 787.154 158.479C787.154 158.479 787 158.671 786.855 158.977L786.889 159.027C787.314 158.77 787.814 158.568 787.814 158.568C787.814 158.568 787.671 158.75 787.504 158.985C787.824 158.982 788.475 158.999 788.728 159.028C790.218 159.061 790.528 157.426 791.1 157.221C791.816 156.963 792.136 156.808 793.357 158.014C794.404 159.049 795.223 160.903 794.816 161.318C794.476 161.663 793.804 161.184 793.059 160.25C792.665 159.755 792.368 159.17 792.228 158.427C792.11 157.8 791.653 157.436 791.653 157.436C791.653 157.436 791.918 158.031 791.918 158.556C791.918 158.842 791.954 159.915 792.411 160.516C792.366 160.604 792.345 160.952 792.295 161.018C791.763 160.371 790.621 159.909 790.435 159.772C791.065 160.292 792.514 161.485 793.07 162.629C793.596 163.711 793.286 164.702 793.552 164.959C793.628 165.033 794.684 166.356 794.887 167.021C795.241 168.181 794.908 169.399 794.445 170.154L793.149 170.357C792.96 170.304 792.832 170.278 792.662 170.179C792.756 170.012 792.942 169.596 792.944 169.51L792.871 169.381C792.468 169.956 791.793 170.514 791.232 170.834C790.497 171.253 789.651 171.188 789.1 171.017C787.537 170.531 786.058 169.468 785.702 169.189C785.702 169.189 785.691 169.412 785.758 169.462C786.152 169.909 787.055 170.719 787.928 171.283L786.067 171.489L786.947 178.381C786.557 178.437 786.496 178.465 786.069 178.526C785.693 177.188 784.973 176.315 784.186 175.806C783.493 175.357 782.535 175.256 781.619 175.439L781.56 175.507C782.197 175.441 782.949 175.534 783.722 176.026C784.48 176.508 785.091 177.754 785.316 178.504C785.604 179.463 785.803 180.488 785.028 181.575C784.477 182.348 782.867 182.775 781.566 181.851C781.913 182.413 782.383 182.873 783.015 182.96C783.954 183.088 784.844 182.924 785.458 182.29C785.981 181.749 786.259 180.617 786.186 179.424L787.014 179.303L787.313 181.444L801.027 179.782L799.908 168.802ZM791.565 162.989C791.526 163.077 791.466 163.135 791.557 163.421L791.562 163.437L791.576 163.474L791.614 163.56C791.777 163.894 791.956 164.21 792.254 164.372C792.332 164.358 792.412 164.35 792.495 164.345C792.775 164.333 792.952 164.378 793.065 164.439C793.075 164.382 793.077 164.3 793.071 164.179C793.049 163.754 793.154 163.033 792.344 162.654C792.038 162.511 791.609 162.555 791.466 162.733C791.492 162.736 791.516 162.742 791.534 162.748C791.75 162.824 791.603 162.899 791.565 162.989ZM793.836 166.946C793.729 166.887 793.233 166.911 792.884 166.952C792.219 167.031 791.501 167.263 791.343 167.387C791.057 167.609 791.187 167.997 791.399 168.156C791.991 168.602 792.51 168.9 793.059 168.828C793.395 168.783 793.692 168.247 793.902 167.76C794.046 167.425 794.046 167.064 793.836 166.946ZM787.949 163.514C788.136 163.335 787.014 163.1 786.144 163.697C785.502 164.137 785.482 165.081 786.096 165.617C786.158 165.67 786.209 165.707 786.256 165.738C786.435 165.653 786.64 165.567 786.875 165.49C787.273 165.36 787.603 165.293 787.875 165.258C788.005 165.111 788.156 164.854 788.118 164.388C788.067 163.756 787.591 163.856 787.949 163.514Z" fill="#B160F0"/>
</g>
<rect opacity="0.1" width="85.2308" height="80.4915" rx="1.72236" transform="matrix(0.866044 -0.499967 0.866044 0.499967 318.027 233.4)" fill="#2396ED"/>
<path d="M385.527 247.852L385.527 247.852L385.53 247.854C386.683 248.464 387.971 248.771 389.275 248.748C390.576 248.773 391.862 248.465 393.01 247.854L393.01 247.854L393.013 247.852L412.63 236.532C413.109 236.362 413.524 236.048 413.818 235.633C414.113 235.216 414.272 234.717 414.272 234.205C414.272 233.694 414.113 233.195 413.818 232.778C413.524 232.363 413.109 232.049 412.63 231.879L393.013 220.559L393.014 220.559L393.009 220.556C391.85 219.97 390.569 219.664 389.27 219.664C387.971 219.664 386.69 219.97 385.531 220.556L385.531 220.556L385.527 220.559L365.916 231.881C365.463 232.085 365.072 232.406 364.783 232.811C364.494 233.218 364.319 233.695 364.276 234.192L364.275 234.201L364.276 234.209C364.321 234.707 364.497 235.184 364.786 235.592C365.074 235.998 365.464 236.322 365.916 236.53L385.527 247.852ZM412.379 236.03L412.369 236.033L412.36 236.038L392.748 247.381C391.67 247.926 390.478 248.21 389.27 248.21C388.062 248.21 386.87 247.926 385.792 247.381L366.18 236.038L366.171 236.033L366.161 236.03C365.774 235.902 365.437 235.654 365.198 235.323C364.959 234.992 364.83 234.594 364.83 234.186C364.83 233.777 364.959 233.379 365.198 233.048C365.437 232.717 365.774 232.47 366.161 232.341L366.171 232.338L366.18 232.333L385.792 221.01C386.87 220.465 388.062 220.181 389.27 220.181C390.478 220.181 391.67 220.465 392.748 221.01L412.36 232.333L412.369 232.338L412.379 232.341C412.766 232.47 413.103 232.717 413.342 233.048C413.581 233.379 413.71 233.777 413.71 234.186C413.71 234.594 413.581 234.992 413.342 235.323C413.103 235.654 412.766 235.902 412.379 236.03Z" fill="#2396ED" stroke="#2396ED" stroke-width="0.198328"/>
<path opacity="0.4" d="M414.769 229.857V223.144L413.54 222.46C413.193 224.552 410.733 225.94 408.661 226.228L394.609 234.439L388.471 236.66L368.896 226.555L369.352 226.297C367.677 225.514 366.774 223.719 365.872 222.093L364.553 222.876L363.77 223.094V229.927C363.821 230.444 364.008 230.939 364.311 231.362C364.614 231.784 365.022 232.121 365.495 232.336L385.1 243.661C386.392 244.311 387.818 244.65 389.265 244.65C390.711 244.65 392.137 244.311 393.429 243.661L413.044 232.336C413.509 232.123 413.91 231.794 414.211 231.381C414.511 230.968 414.7 230.484 414.76 229.976V229.857H414.769Z" fill="#2396ED"/>
<path d="M414.769 223.888V219.445L413.54 218.761C413.193 220.853 410.733 222.241 408.661 222.529L394.609 230.75L388.471 232.961L368.896 222.856L369.352 222.598C367.677 221.815 366.774 220.03 365.872 218.394L364.553 219.177L363.77 219.405V223.957C363.821 224.474 364.008 224.969 364.311 225.392C364.614 225.815 365.022 226.151 365.495 226.367L385.1 237.691C386.392 238.342 387.818 238.68 389.265 238.68C390.711 238.68 392.137 238.342 393.429 237.691L413.044 226.367C413.51 226.153 413.913 225.822 414.213 225.407C414.514 224.992 414.702 224.506 414.76 223.997V223.888H414.769Z" fill="url(#paint6_linear)"/>
<path opacity="0.3" d="M408.662 222.529L394.61 230.75L389.275 232.673V238.683C390.726 238.713 392.159 238.371 393.44 237.691L413.055 226.367C413.521 226.153 413.924 225.822 414.224 225.407C414.525 224.992 414.713 224.506 414.77 223.997V223.888V219.445L413.65 218.82H413.531C413.154 220.883 410.715 222.241 408.662 222.529Z" fill="#0F054C"/>
<path d="M385.1 233.149L365.495 221.845C363.194 220.526 363.194 218.364 365.495 217.035L385.1 205.711C386.392 205.06 387.818 204.722 389.265 204.722C390.711 204.722 392.137 205.06 393.429 205.711L413.044 217.035C415.335 218.364 415.335 220.526 413.044 221.845L393.439 233.149C392.147 233.806 390.719 234.148 389.269 234.148C387.82 234.148 386.392 233.806 385.1 233.149Z" fill="url(#paint7_linear)"/>
<path d="M413.055 221.845L393.44 233.15C392.149 233.805 390.722 234.146 389.275 234.146C387.828 234.146 386.401 233.805 385.11 233.15L365.496 221.845C365.067 221.646 364.691 221.351 364.395 220.983C364.099 220.615 363.892 220.184 363.79 219.723C363.651 220.714 364.216 221.706 365.496 222.4L385.1 233.725C386.391 234.38 387.818 234.721 389.265 234.721C390.713 234.721 392.139 234.38 393.43 233.725L413.045 222.4C413.568 222.183 414.012 221.809 414.316 221.329C414.619 220.85 414.768 220.289 414.74 219.723C414.64 220.181 414.435 220.611 414.143 220.979C413.851 221.347 413.479 221.643 413.055 221.845Z" fill="white"/>
<path opacity="0.3" d="M408.677 214.8V124H369.016V214.917C369.016 217.517 370.747 217.258 374.316 219.247C381.389 223.147 396.318 223.147 403.39 219.247C407.014 217.232 408.772 217.439 408.677 214.8Z" fill="url(#paint8_linear)"/>
<g clip-path="url(#clip2)">
<path d="M405.445 160.383C404.746 159.908 403.143 159.729 401.89 159.967C401.744 158.778 401.074 157.738 399.908 156.816L399.238 156.34L398.772 157.024C398.189 157.916 397.898 159.165 397.985 160.354C398.014 160.77 398.16 161.513 398.597 162.167C398.189 162.405 397.344 162.702 396.236 162.702H375.167L375.109 162.94C374.905 164.129 374.905 167.845 377.295 170.699C379.101 172.869 381.782 173.969 385.309 173.969C392.943 173.969 398.597 170.372 401.249 163.862C402.298 163.891 404.542 163.862 405.678 161.632C405.707 161.572 405.766 161.454 405.97 161.008L406.086 160.77L405.445 160.383ZM392.011 152H388.806V154.973H392.011V152ZM392.011 155.567H388.806V158.54H392.011V155.567V155.567ZM388.223 155.567H385.017V158.54H388.223V155.567V155.567ZM384.434 155.567H381.229V158.54H384.434V155.567V155.567ZM380.646 159.135H377.44V162.108H380.646V159.135L380.646 159.135ZM384.434 159.135H381.229V162.108H384.434V159.135V159.135ZM388.223 159.135H385.017V162.108H388.223V159.135V159.135ZM392.011 159.135H388.805V162.108H392.011V159.135V159.135ZM395.799 159.135H392.594V162.108H395.799V159.135V159.135Z" fill="#2396ED"/>
</g>
<path d="M526.686 154.962L520.913 155.038L523.865 160L526.686 154.962ZM441.663 206.134L523.074 157.693L522.563 156.834L441.151 205.275L441.663 206.134Z" fill="#8686B3"/>
<path d="M488.226 194.129V204H492.108C495.062 204 496.736 202.202 496.736 198.996C496.736 195.906 495.041 194.129 492.108 194.129H488.226ZM490.29 195.893H491.78C493.571 195.893 494.631 197.034 494.631 199.03C494.631 201.115 493.605 202.236 491.78 202.236H490.29V195.893ZM505.22 202.236H500.749V199.837H504.967V198.203H500.749V195.899H505.22V194.136H498.685V204H505.22V202.236ZM507.394 194.136V204H509.458V200.938H511.406C513.484 200.938 514.927 199.577 514.927 197.547C514.927 195.496 513.539 194.136 511.509 194.136H507.394ZM509.458 195.831H510.962C512.151 195.831 512.828 196.433 512.828 197.554C512.828 198.661 512.138 199.263 510.955 199.263H509.458V195.831ZM523.28 202.202H518.892V194.136H516.827V204H523.28V202.202ZM529.193 193.883C526.295 193.883 524.442 195.865 524.442 199.064C524.442 202.264 526.268 204.253 529.193 204.253C532.112 204.253 533.931 202.264 533.931 199.064C533.931 195.872 532.105 193.883 529.193 193.883ZM529.193 195.694C530.8 195.694 531.825 197 531.825 199.064C531.825 201.122 530.8 202.441 529.193 202.441C527.573 202.441 526.555 201.122 526.555 199.064C526.555 197 527.594 195.694 529.193 195.694ZM540.097 204V200.37L543.528 194.136H541.293L539.126 198.265H539.003L536.829 194.136H534.594L538.032 200.37V204H540.097Z" fill="#8686B3"/>
<path d="M635.407 141.704L641.179 141.823L638.191 146.763L635.407 141.704ZM639.516 143.606L740.287 204.572L739.769 205.428L638.998 144.462L639.516 143.606Z" fill="#8686B3"/>
<path d="M630.45 204V197.403H630.56L633.075 203.433H634.449L636.958 197.403H637.067V204H638.981V194.136H636.555L633.82 200.767H633.697L630.97 194.136H628.536V204H630.45ZM645.688 193.883C642.789 193.883 640.937 195.865 640.937 199.064C640.937 202.264 642.762 204.253 645.688 204.253C648.606 204.253 650.425 202.264 650.425 199.064C650.425 195.872 648.6 193.883 645.688 193.883ZM645.688 195.694C647.294 195.694 648.319 197 648.319 199.064C648.319 201.122 647.294 202.441 645.688 202.441C644.067 202.441 643.049 201.122 643.049 199.064C643.049 197 644.088 195.694 645.688 195.694ZM654.355 204V197.827H654.479L659.031 204H660.74V194.136H658.765V200.281H658.642L654.103 194.136H652.38V204H654.355ZM665.204 204V194.136H663.14V204H665.204ZM672.054 204V195.899H675.014V194.136H667.029V195.899H669.989V204H672.054ZM680.811 193.883C677.912 193.883 676.06 195.865 676.06 199.064C676.06 202.264 677.885 204.253 680.811 204.253C683.729 204.253 685.548 202.264 685.548 199.064C685.548 195.872 683.723 193.883 680.811 193.883ZM680.811 195.694C682.417 195.694 683.442 197 683.442 199.064C683.442 201.122 682.417 202.441 680.811 202.441C679.19 202.441 678.172 201.122 678.172 199.064C678.172 197 679.211 195.694 680.811 195.694ZM689.567 195.804H691.358C692.384 195.804 693.026 196.392 693.026 197.328C693.026 198.278 692.418 198.839 691.379 198.839H689.567V195.804ZM689.567 200.425H691.256L693.095 204H695.433L693.354 200.104C694.489 199.652 695.146 198.559 695.146 197.301C695.146 195.339 693.812 194.136 691.646 194.136H687.503V204H689.567V200.425Z" fill="#8686B3"/>
<rect opacity="0.1" width="85.2308" height="80.4915" rx="1.72236" transform="matrix(0.866044 -0.499967 0.866044 0.499967 498.027 124.4)" fill="#F8AA14"/>
<path d="M565.527 138.852L565.527 138.852L565.53 138.854C566.683 139.464 567.971 139.771 569.275 139.748C570.576 139.773 571.862 139.465 573.01 138.854L573.01 138.854L573.013 138.852L592.63 127.532C593.109 127.362 593.524 127.048 593.818 126.633C594.113 126.216 594.272 125.717 594.272 125.205C594.272 124.694 594.113 124.195 593.818 123.778C593.524 123.363 593.109 123.049 592.63 122.879L573.013 111.559L573.014 111.559L573.009 111.556C571.85 110.97 570.569 110.664 569.27 110.664C567.971 110.664 566.69 110.97 565.531 111.556L565.531 111.556L565.527 111.559L545.916 122.881C545.463 123.085 545.072 123.406 544.783 123.811C544.494 124.218 544.319 124.695 544.276 125.192L544.275 125.201L544.276 125.209C544.321 125.707 544.497 126.184 544.786 126.592C545.074 126.998 545.464 127.322 545.916 127.53L565.527 138.852ZM592.379 127.03L592.369 127.033L592.36 127.038L572.748 138.381C571.67 138.926 570.478 139.21 569.27 139.21C568.062 139.21 566.87 138.926 565.792 138.381L546.18 127.038L546.171 127.033L546.161 127.03C545.774 126.901 545.437 126.654 545.198 126.323C544.959 125.992 544.83 125.594 544.83 125.186C544.83 124.777 544.959 124.379 545.198 124.048C545.437 123.717 545.774 123.47 546.161 123.341L546.171 123.338L546.18 123.333L565.792 112.01C566.87 111.465 568.062 111.181 569.27 111.181C570.478 111.181 571.67 111.465 572.748 112.01L592.36 123.333L592.369 123.338L592.379 123.341C592.766 123.47 593.103 123.717 593.342 124.048C593.581 124.379 593.71 124.777 593.71 125.186C593.71 125.594 593.581 125.992 593.342 126.323C593.103 126.654 592.766 126.901 592.379 127.03Z" fill="#FF9900" stroke="#FF9900" stroke-width="0.198328"/>
<path opacity="0.4" d="M594.769 120.857V114.144L593.54 113.46C593.193 115.552 590.733 116.94 588.661 117.228L574.609 125.439L568.471 127.66L548.896 117.555L549.352 117.297C547.677 116.514 546.774 114.719 545.872 113.093L544.553 113.876L543.77 114.094V120.927C543.821 121.444 544.008 121.939 544.311 122.362C544.614 122.784 545.022 123.121 545.495 123.336L565.1 134.661C566.392 135.311 567.818 135.65 569.265 135.65C570.711 135.65 572.137 135.311 573.429 134.661L593.044 123.336C593.509 123.123 593.91 122.794 594.211 122.381C594.511 121.968 594.7 121.484 594.76 120.976V120.857H594.769Z" fill="#FF9900"/>
<path d="M594.769 114.888V110.445L593.54 109.761C593.193 111.853 590.733 113.241 588.661 113.529L574.609 121.75L568.471 123.961L548.896 113.856L549.352 113.598C547.677 112.815 546.774 111.03 545.872 109.394L544.553 110.177L543.77 110.405V114.957C543.821 115.474 544.008 115.969 544.311 116.392C544.614 116.815 545.022 117.151 545.495 117.367L565.1 128.691C566.392 129.342 567.818 129.68 569.265 129.68C570.711 129.68 572.137 129.342 573.429 128.691L593.044 117.367C593.51 117.153 593.913 116.822 594.213 116.407C594.514 115.992 594.702 115.506 594.76 114.997V114.888H594.769Z" fill="url(#paint9_linear)"/>
<path opacity="0.3" d="M588.662 113.529L574.61 121.75L569.275 123.673V129.683C570.726 129.713 572.159 129.371 573.44 128.691L593.055 117.367C593.521 117.153 593.924 116.822 594.224 116.407C594.525 115.992 594.713 115.506 594.77 114.997V114.888V110.445L593.65 109.82H593.531C593.154 111.883 590.715 113.241 588.662 113.529Z" fill="#0F054C"/>
<path d="M565.1 124.149L545.495 112.845C543.194 111.526 543.194 109.364 545.495 108.035L565.1 96.7109C566.392 96.0604 567.818 95.7216 569.265 95.7216C570.711 95.7216 572.137 96.0604 573.429 96.7109L593.044 108.035C595.335 109.364 595.335 111.526 593.044 112.845L573.439 124.149C572.147 124.806 570.719 125.148 569.269 125.148C567.82 125.148 566.392 124.806 565.1 124.149Z" fill="url(#paint10_linear)"/>
<path d="M593.055 112.845L573.44 124.15C572.149 124.805 570.722 125.146 569.275 125.146C567.828 125.146 566.401 124.805 565.11 124.15L545.496 112.845C545.067 112.646 544.691 112.351 544.395 111.983C544.099 111.615 543.892 111.184 543.79 110.723C543.651 111.714 544.216 112.706 545.496 113.4L565.1 124.725C566.391 125.38 567.818 125.721 569.265 125.721C570.713 125.721 572.139 125.38 573.43 124.725L593.045 113.4C593.568 113.183 594.012 112.809 594.316 112.329C594.619 111.85 594.768 111.289 594.74 110.723C594.64 111.181 594.435 111.611 594.143 111.979C593.851 112.347 593.479 112.643 593.055 112.845Z" fill="white"/>
<path opacity="0.3" d="M588.677 105.8V15H549.016V105.917C549.016 108.517 550.747 108.258 554.316 110.247C561.389 114.147 576.318 114.147 583.39 110.247C587.014 108.232 588.772 108.439 588.677 105.8Z" fill="url(#paint11_linear)"/>
<g clip-path="url(#clip3)">
<path d="M563.077 43.9586C563.077 44.3371 563.119 44.6439 563.194 44.869C563.288 45.1222 563.401 45.3683 563.533 45.6054C563.586 45.6872 563.607 45.769 563.607 45.8407C563.607 45.9429 563.543 46.0452 563.405 46.1475L562.738 46.5771C562.643 46.6385 562.547 46.6692 562.462 46.6692C562.356 46.6692 562.25 46.618 562.144 46.5259C562.002 46.3778 561.874 46.2168 561.763 46.0452C561.657 45.8714 561.551 45.6769 561.435 45.4418C560.608 46.3827 559.57 46.8533 558.319 46.8533C557.429 46.8533 556.719 46.6077 556.2 46.1169C555.681 45.6258 555.416 44.9712 555.416 44.153C555.416 43.2836 555.734 42.5778 556.38 42.0459C557.027 41.514 557.885 41.2481 558.976 41.2481C559.337 41.2481 559.707 41.2788 560.099 41.3299C560.492 41.3811 560.894 41.4629 561.318 41.555V40.8083C561.318 40.0309 561.148 39.4888 560.82 39.1717C560.481 38.8546 559.909 38.7011 559.093 38.7011C558.722 38.7011 558.341 38.7422 557.948 38.8342C557.556 38.9262 557.175 39.0388 556.804 39.182C556.635 39.2535 556.507 39.2944 556.433 39.315C556.359 39.3355 556.306 39.3456 556.264 39.3456C556.115 39.3456 556.041 39.2433 556.041 39.0285V38.5273C556.041 38.3636 556.062 38.2409 556.115 38.1694C556.168 38.0977 556.264 38.0261 556.412 37.9546C556.783 37.7705 557.228 37.617 557.747 37.4943C558.266 37.3613 558.817 37.3 559.4 37.3C560.661 37.3 561.583 37.5761 562.176 38.1285C562.759 38.6807 563.056 39.5195 563.056 40.6447V43.9586H563.077H563.077ZM558.775 45.5133C559.125 45.5133 559.485 45.452 559.866 45.3292C560.248 45.2065 560.587 44.9814 560.873 44.6746C561.043 44.4803 561.17 44.2655 561.233 44.02C561.297 43.7746 561.339 43.4778 561.339 43.1301V42.7005C561.018 42.625 560.692 42.567 560.364 42.5267C560.034 42.4862 559.701 42.4656 559.368 42.4652C558.658 42.4652 558.139 42.5982 557.79 42.8744C557.44 43.1506 557.27 43.5393 557.27 44.0506C557.27 44.5314 557.397 44.8894 557.662 45.1349C557.917 45.3906 558.288 45.5133 558.775 45.5133ZM567.284 46.618C567.093 46.618 566.966 46.5873 566.881 46.5157C566.796 46.4544 566.722 46.3111 566.658 46.1169L564.168 38.2103C564.105 38.0056 564.073 37.8727 564.073 37.8011C564.073 37.6375 564.158 37.5453 564.327 37.5453H565.366C565.567 37.5453 565.705 37.5761 565.779 37.6476C565.864 37.709 565.927 37.8523 565.991 38.0465L567.771 44.8178L569.424 38.0465C569.477 37.842 569.541 37.709 569.625 37.6476C569.71 37.5863 569.858 37.5454 570.049 37.5454H570.897C571.098 37.5454 571.236 37.5761 571.321 37.6476C571.405 37.709 571.48 37.8523 571.522 38.0465L573.196 44.8996L575.029 38.0465C575.093 37.842 575.167 37.709 575.241 37.6476C575.326 37.5863 575.464 37.5454 575.654 37.5454H576.64C576.809 37.5454 576.905 37.6272 576.905 37.8011C576.905 37.8523 576.894 37.9034 576.883 37.9647C576.873 38.0261 576.852 38.108 576.809 38.2205L574.256 46.127C574.192 46.3317 574.118 46.4646 574.033 46.5259C573.948 46.5873 573.811 46.6283 573.631 46.6283H572.719C572.518 46.6283 572.38 46.5976 572.295 46.5259C572.211 46.4544 572.136 46.3214 572.094 46.1169L570.452 39.5195L568.82 46.1065C568.767 46.3111 568.703 46.4441 568.619 46.5157C568.534 46.5873 568.385 46.618 568.195 46.618H567.283H567.284ZM580.899 46.8942C580.348 46.8942 579.797 46.8328 579.268 46.7101C578.738 46.5873 578.325 46.4543 578.049 46.301C577.88 46.2088 577.763 46.1066 577.721 46.0146C577.679 45.9243 577.658 45.8268 577.657 45.7281V45.2065C577.657 44.9917 577.742 44.8894 577.901 44.8894C577.966 44.8896 578.03 44.9 578.092 44.9201C578.155 44.9406 578.25 44.9814 578.356 45.0223C578.731 45.1812 579.121 45.3013 579.522 45.3803C579.937 45.4617 580.359 45.5028 580.783 45.5031C581.45 45.5031 581.97 45.3906 582.33 45.1656C582.69 44.9405 582.881 44.6133 582.881 44.1939C582.881 43.9075 582.786 43.6722 582.595 43.4778C582.404 43.2836 582.044 43.1097 581.525 42.946L579.988 42.4857C579.215 42.2505 578.643 41.9027 578.293 41.4424C577.943 40.9923 577.763 40.4912 577.763 39.9593C577.763 39.5297 577.858 39.1512 578.049 38.8239C578.24 38.4966 578.494 38.2103 578.812 37.9852C579.13 37.7499 579.49 37.5761 579.914 37.4534C580.338 37.3306 580.783 37.2795 581.249 37.2795C581.482 37.2795 581.726 37.2897 581.959 37.3204C582.203 37.351 582.425 37.3919 582.648 37.4328C582.86 37.484 583.061 37.5352 583.252 37.5966C583.443 37.6579 583.591 37.7193 583.697 37.7806C583.845 37.8625 583.951 37.9443 584.015 38.0364C584.078 38.1182 584.11 38.2307 584.11 38.3739V38.8546C584.11 39.0694 584.025 39.182 583.866 39.182C583.782 39.182 583.644 39.141 583.464 39.0591C582.86 38.7932 582.182 38.6602 581.429 38.6602C580.825 38.6602 580.348 38.7523 580.02 38.9467C579.692 39.141 579.522 39.4377 579.522 39.857C579.522 40.1434 579.628 40.3889 579.84 40.5832C580.052 40.7775 580.444 40.9719 581.005 41.1458L582.51 41.6061C583.273 41.8414 583.824 42.1686 584.152 42.588C584.481 43.0074 584.64 43.4881 584.64 44.02C584.64 44.4598 584.544 44.8587 584.364 45.2065C584.174 45.5542 583.919 45.8611 583.591 46.1066C583.262 46.3623 582.87 46.5464 582.415 46.6794C581.938 46.8226 581.44 46.8942 580.899 46.8942Z" fill="#F9F9FD"/>
<path d="M582.901 51.8652C579.415 54.3507 574.35 55.6702 569.995 55.6702C563.892 55.6702 558.392 53.4915 554.239 49.8706C553.91 49.5843 554.207 49.1956 554.599 49.4205C559.092 51.9369 564.633 53.4608 570.366 53.4608C574.233 53.4608 578.482 52.6835 582.392 51.0879C582.975 50.8321 583.473 51.4561 582.901 51.8652ZM584.353 50.2695C583.908 49.7172 581.407 50.0036 580.273 50.1366C579.934 50.1776 579.881 49.8911 580.188 49.6763C582.18 48.3261 585.455 48.7149 585.836 49.1648C586.218 49.6252 585.73 52.7857 583.865 54.2996C583.579 54.5349 583.304 54.4122 583.431 54.1053C583.855 53.0926 584.798 50.8117 584.353 50.2695Z" fill="#FF9900"/>
</g>
<defs>
<linearGradient id="paint0_linear" x1="13307.9" y1="2443.38" x2="14201.2" y2="3739.88" gradientUnits="userSpaceOnUse">
<stop stop-color="#BCBEFF"/>
<stop offset="0.23" stop-color="#AAADF8"/>
<stop offset="0.68" stop-color="#7C83E5"/>
<stop offset="1" stop-color="#5761D7"/>
</linearGradient>
<linearGradient id="paint1_linear" x1="13044.9" y1="3635.82" x2="15667.4" y2="3635.82" gradientUnits="userSpaceOnUse">
<stop stop-color="#E9E9FD"/>
<stop offset="0.36" stop-color="#D3D2F9"/>
<stop offset="0.71" stop-color="#C5C4F7"/>
<stop offset="1" stop-color="#C0BFF6"/>
</linearGradient>
<linearGradient id="paint2_linear" x1="194.848" y1="290.054" x2="194.848" y2="352.172" gradientUnits="userSpaceOnUse">
<stop stop-color="#151B2B" stop-opacity="0"/>
<stop offset="0.515094" stop-color="#6273A0" stop-opacity="0.49"/>
<stop offset="1" stop-color="#E9E9FD"/>
</linearGradient>
<linearGradient id="paint3_linear" x1="13900.9" y1="2318.38" x2="14794.2" y2="3614.88" gradientUnits="userSpaceOnUse">
<stop stop-color="#BCBEFF"/>
<stop offset="0.23" stop-color="#AAADF8"/>
<stop offset="0.68" stop-color="#7C83E5"/>
<stop offset="1" stop-color="#5761D7"/>
</linearGradient>
<linearGradient id="paint4_linear" x1="13637.9" y1="3510.82" x2="16260.4" y2="3510.82" gradientUnits="userSpaceOnUse">
<stop stop-color="#E9E9FD"/>
<stop offset="0.36" stop-color="#D3D2F9"/>
<stop offset="0.71" stop-color="#C5C4F7"/>
<stop offset="1" stop-color="#C0BFF6"/>
</linearGradient>
<linearGradient id="paint5_linear" x1="787.848" y1="165.054" x2="787.848" y2="227.172" gradientUnits="userSpaceOnUse">
<stop stop-color="#151B2B" stop-opacity="0"/>
<stop offset="0.515094" stop-color="#6273A0" stop-opacity="0.49"/>
<stop offset="1" stop-color="#E9E9FD"/>
</linearGradient>
<linearGradient id="paint6_linear" x1="13501.9" y1="2313.38" x2="14395.2" y2="3609.88" gradientUnits="userSpaceOnUse">
<stop stop-color="#BCBEFF"/>
<stop offset="0.23" stop-color="#AAADF8"/>
<stop offset="0.68" stop-color="#7C83E5"/>
<stop offset="1" stop-color="#5761D7"/>
</linearGradient>
<linearGradient id="paint7_linear" x1="13238.9" y1="3505.82" x2="15861.4" y2="3505.82" gradientUnits="userSpaceOnUse">
<stop stop-color="#E9E9FD"/>
<stop offset="0.36" stop-color="#D3D2F9"/>
<stop offset="0.71" stop-color="#C5C4F7"/>
<stop offset="1" stop-color="#C0BFF6"/>
</linearGradient>
<linearGradient id="paint8_linear" x1="388.848" y1="160.054" x2="388.848" y2="222.172" gradientUnits="userSpaceOnUse">
<stop stop-color="#151B2B" stop-opacity="0"/>
<stop offset="0.515094" stop-color="#6273A0" stop-opacity="0.49"/>
<stop offset="1" stop-color="#E9E9FD"/>
</linearGradient>
<linearGradient id="paint9_linear" x1="13681.9" y1="2204.38" x2="14575.2" y2="3500.88" gradientUnits="userSpaceOnUse">
<stop stop-color="#BCBEFF"/>
<stop offset="0.23" stop-color="#AAADF8"/>
<stop offset="0.68" stop-color="#7C83E5"/>
<stop offset="1" stop-color="#5761D7"/>
</linearGradient>
<linearGradient id="paint10_linear" x1="13418.9" y1="3396.82" x2="16041.4" y2="3396.82" gradientUnits="userSpaceOnUse">
<stop stop-color="#E9E9FD"/>
<stop offset="0.36" stop-color="#D3D2F9"/>
<stop offset="0.71" stop-color="#C5C4F7"/>
<stop offset="1" stop-color="#C0BFF6"/>
</linearGradient>
<linearGradient id="paint11_linear" x1="568.848" y1="51.0542" x2="568.848" y2="113.172" gradientUnits="userSpaceOnUse">
<stop stop-color="#151B2B" stop-opacity="0"/>
<stop offset="0.515094" stop-color="#FF9900" stop-opacity="0.26"/>
<stop offset="1" stop-color="#FF9900" stop-opacity="0.48"/>
</linearGradient>
<clipPath id="clip0">
<rect width="24" height="24" fill="white" transform="translate(183.027 282)"/>
</clipPath>
<clipPath id="clip1">
<rect width="25.4504" height="27.2402" fill="white" transform="translate(775.535 157.541)"/>
</clipPath>
<clipPath id="clip2">
<rect width="31.0588" height="22" fill="white" transform="translate(375.027 152)"/>
</clipPath>
<clipPath id="clip3">
<rect width="32" height="18.4615" fill="white" transform="translate(554.027 37.2692)"/>
</clipPath>
</defs>
</svg>
