<svg width="567" height="299" viewBox="0 0 567 299" fill="none" xmlns="http://www.w3.org/2000/svg">
<path d="M423.804 120.996L446.332 107.277" stroke="#7173CD" stroke-dasharray="4.15 4.15"/>
<rect x="444.982" y="91.911" width="66" height="25" rx="3" fill="#7173CD"/>
<path d="M463.183 109.93L461.952 108.111C462.991 107.277 463.579 105.821 463.579 103.982C463.579 100.79 461.774 98.8007 458.924 98.8007C456.06 98.8007 454.248 100.783 454.248 103.982C454.248 107.188 456.039 109.157 458.924 109.157C459.546 109.157 460.141 109.061 460.66 108.884L461.412 109.93H463.183ZM458.924 107.592C457.167 107.592 456.053 106.204 456.053 103.982C456.053 101.761 457.167 100.366 458.924 100.366C460.66 100.366 461.774 101.767 461.774 103.982C461.774 105.131 461.46 106.047 460.893 106.573L460.271 105.794H458.575L459.758 107.475C459.491 107.551 459.211 107.592 458.924 107.592ZM468.651 107.64C467.469 107.64 466.792 106.737 466.792 105.172C466.792 103.613 467.469 102.704 468.651 102.704C469.827 102.704 470.504 103.613 470.504 105.172C470.504 106.737 469.834 107.64 468.651 107.64ZM468.651 109.061C470.887 109.061 472.247 107.599 472.247 105.172C472.247 102.752 470.88 101.282 468.651 101.282C466.43 101.282 465.056 102.759 465.056 105.172C465.056 107.599 466.409 109.061 468.651 109.061ZM473.006 101.432L475.665 108.911H477.531L480.177 101.432H478.386L476.67 107.216H476.554L474.824 101.432H473.006ZM484.449 102.629C485.468 102.629 486.138 103.34 486.172 104.447H482.651C482.727 103.353 483.438 102.629 484.449 102.629ZM486.186 106.853C485.939 107.407 485.358 107.715 484.518 107.715C483.403 107.715 482.686 106.935 482.645 105.691V105.602H487.867V105.056C487.867 102.697 486.589 101.282 484.456 101.282C482.289 101.282 480.942 102.793 480.942 105.199C480.942 107.605 482.269 109.061 484.47 109.061C486.233 109.061 487.471 108.214 487.792 106.853H486.186ZM489.569 108.911H491.265V104.591C491.265 103.545 492.03 102.861 493.131 102.861C493.418 102.861 493.869 102.909 493.999 102.957V101.385C493.842 101.337 493.541 101.309 493.295 101.309C492.331 101.309 491.524 101.856 491.319 102.595H491.203V101.432H489.569V108.911ZM496.282 111.625C497.957 111.625 498.757 111.01 499.393 109.15L502.093 101.432H500.302L498.559 107.27H498.442L496.692 101.432H494.833L497.506 108.945L497.417 109.273C497.198 109.964 496.795 110.237 496.077 110.237C495.961 110.237 495.708 110.23 495.612 110.21V111.598C495.722 111.618 496.18 111.625 496.282 111.625Z" fill="#E9EAFA"/>
<rect opacity="0.05" width="275.765" height="278.095" rx="1.44" transform="matrix(0.866074 -0.499916 0.866074 0.499916 0 152.859)" fill="#8686B3"/>
<rect opacity="0.9" width="232" height="228.629" rx="1.44" transform="matrix(0.866074 -0.499916 0.866074 0.499916 41.5548 152.186)" fill="#7173CD"/>
<path d="M256.062 126.074V163.845L274.467 153.175V114.72L256.062 126.074Z" fill="#33369F"/>
<path d="M240.326 94.2366L204.367 113.978L224.079 126.074L240.269 116.945L256.062 126.074L274.467 114.72L240.326 94.2366Z" fill="#B7B9E7"/>
<path d="M204.367 113.978L224.136 126.074L223.966 144.731L246.007 156.713L246.234 177.139L204.367 153.29V113.978Z" fill="#7173CD"/>
<path d="M240.269 116.945L256.062 126.074C256.062 126.074 256.105 144.984 256.105 144.699C257.252 145.252 240.496 136.344 240.496 136.344L240.269 116.945Z" fill="#7173CD"/>
<path d="M223.966 144.731L240.496 136.344L240.269 116.945L224.136 126.074L223.966 144.731Z" fill="#33369F"/>
<path d="M246.007 156.713L223.966 144.731L240.496 136.344L261.629 147.641L246.007 156.713Z" fill="#B7B9E7"/>
<path d="M246.235 177.139L261.345 166.926L261.629 147.641L246.007 156.713L246.235 177.139Z" fill="#33369F"/>
</svg>
