<svg width="139" height="99" viewBox="0 0 139 99" fill="none" xmlns="http://www.w3.org/2000/svg">
<g clip-path="url(#clip0)">
<path d="M66.5592 15.4807V58.6202H30.7638L66.5592 15.4807ZM66.5592 0C66.5592 4.73832 64.6735 9.28258 61.3171 12.6331C57.9606 15.9836 53.4082 17.8659 48.6615 17.8659C43.9147 17.8659 39.3624 15.9836 36.0059 12.6331C32.6494 9.28258 30.7638 4.73832 30.7638 0L66.5592 0ZM72.4561 58.624C72.4561 53.8857 74.3418 49.3415 77.6983 45.991C81.0547 42.6405 85.6071 40.7582 90.3538 40.7582C95.1006 40.7582 99.6529 42.6405 103.009 45.991C106.366 49.3415 108.252 53.8857 108.252 58.624H72.4561ZM72.4561 43.1434V0H108.259L72.4561 43.1395V43.1434ZM92.4752 95.5331C94.316 95.5742 96.0985 94.8872 97.434 93.6219L99.8924 96.2708C98.2688 97.9374 96.0172 99.1758 92.5173 99.1758C86.517 99.1758 82.638 95.2005 82.638 89.8262C82.6137 88.5945 82.8381 87.3705 83.298 86.2272C83.7579 85.084 84.4437 84.0449 85.3146 83.172C86.1855 82.299 87.2237 81.6102 88.3671 81.1464C89.5105 80.6827 90.7357 80.4536 91.9697 80.4728C97.928 80.4728 101.305 84.9986 101.007 91.2749H86.9229C87.4207 93.8818 89.2587 95.5445 92.4637 95.5445L92.4752 95.5331ZM96.7524 88.282C96.3695 85.8471 94.9144 84.0544 92.0042 84.0544C89.297 84.0544 87.4092 85.5834 86.9229 88.282H96.7562H96.7524ZM0 95.3305L10.8366 84.3373H0.256556V80.8895H15.8644V84.4061L5.02774 95.3955H16.0175V98.8471H0V95.3305ZM28.1829 95.5293C30.0237 95.5703 31.8062 94.8834 33.1417 93.6181L35.6001 96.267C33.9765 97.9335 31.7249 99.172 28.225 99.172C22.2247 99.172 18.3457 95.1967 18.3457 89.8224C18.3214 88.5907 18.5459 87.3667 19.0057 86.2234C19.4656 85.0801 20.1514 84.0411 21.0223 83.1681C21.8932 82.2952 22.9314 81.6063 24.0748 81.1426C25.2182 80.6789 26.4434 80.4498 27.6775 80.469C33.6357 80.469 37.0131 84.9947 36.7144 91.2711H22.6382C23.136 93.878 24.974 95.5407 28.1791 95.5407L28.1829 95.5293ZM32.4678 88.2782C32.0849 85.8433 30.6298 84.0506 27.7196 84.0506C25.0123 84.0506 23.1245 85.5796 22.6382 88.2782H32.4716H32.4678ZM60.1261 89.8186C60.1261 84.085 64.4263 80.4767 69.163 80.4767C70.2996 80.4616 71.4257 80.695 72.4623 81.1605C73.4989 81.6261 74.4208 82.3124 75.1634 83.1715V72.5758H78.9926V98.7974H75.1634V96.3243C74.435 97.2187 73.5144 97.9379 72.4698 98.4289C71.4251 98.9199 70.2832 99.1699 69.1286 99.1605C64.5335 99.1605 60.1299 95.5293 60.1299 89.8224L60.1261 89.8186ZM75.3778 89.7842C75.3477 88.6631 74.9871 87.5757 74.3411 86.6581C73.6952 85.7405 72.7925 85.0334 71.746 84.6252C70.6996 84.217 69.5558 84.1259 68.4577 84.3632C67.3597 84.6006 66.3561 85.1558 65.5725 85.9595C64.7889 86.7632 64.2601 87.7797 64.0522 88.8819C63.8443 89.984 63.9666 91.1229 64.4037 92.156C64.8409 93.1892 65.5735 94.0707 66.5099 94.6904C67.4463 95.3101 68.545 95.6405 69.6685 95.6401C72.9616 95.6401 75.374 93.0179 75.374 89.7842H75.3778ZM103.511 94.9827L106.98 93.1861C107.439 94.0023 108.112 94.6779 108.927 95.1401C109.743 95.6022 110.669 95.8332 111.606 95.8083C113.773 95.8083 114.899 94.6998 114.899 93.4384C114.899 92.0012 112.804 91.6801 110.526 91.21C107.463 90.5601 104.273 89.5549 104.273 85.8586C104.273 83.0186 106.98 80.3926 111.242 80.4308C114.6 80.4308 117.101 81.761 118.518 83.9092L115.301 85.6675C114.857 85.0105 114.252 84.4775 113.544 84.119C112.835 83.7605 112.047 83.5883 111.254 83.6187C109.194 83.6187 108.144 84.624 108.144 85.7745C108.144 87.0665 109.806 87.4258 112.41 88.003C115.374 88.6528 118.728 89.6198 118.728 93.3543C118.728 95.8312 116.561 99.172 111.43 99.1376C107.677 99.1376 105.035 97.6278 103.515 94.9712L103.511 94.9827ZM129.132 90.8162L126.096 94.1226V98.7859H122.266V72.5643H126.096V89.7383L134.225 80.8322H138.889L131.843 88.5152L139.073 98.7898H134.738L129.136 90.8162H129.132ZM48.5543 80.4728C43.9975 80.4728 40.1875 83.4161 40.1875 88.3088V98.8012H44.0933V88.7942C44.0933 85.851 45.7896 84.085 48.6883 84.085C51.587 84.085 53.0268 85.8433 53.0268 88.7942V98.8012H56.9096V88.3088C56.9096 83.4237 53.0804 80.4728 48.5428 80.4728" fill="#03363D"/>
</g>
<defs>
<clipPath id="clip0">
<rect width="139" height="99" fill="white"/>
</clipPath>
</defs>
</svg>
