<svg width="156" height="159" viewBox="0 0 156 159" fill="none" xmlns="http://www.w3.org/2000/svg">
<g clip-path="url(#clip0)">
<g opacity="0.8">
<path opacity="0.8" d="M74.4005 103.782L46.363 87.6C44.3752 86.4446 44.6192 84.4353 46.9228 83.1077L73.8407 67.5855C76.1443 66.2579 79.6248 66.1144 81.6197 67.2626L109.657 83.4521C111.652 84.6003 111.401 86.6097 109.097 87.9444L82.1795 103.467C79.8759 104.794 76.3955 104.938 74.4005 103.782Z" fill="#0C0F38"/>
<path opacity="0.2" d="M119.387 131.927L91.3998 115.745C89.4048 114.59 89.656 112.58 91.9524 111.253L118.87 95.7091C121.174 94.3815 124.654 94.238 126.649 95.3861L154.687 111.576C156.682 112.724 156.431 114.74 154.127 116.068L127.209 131.604C124.884 132.939 121.404 133.083 119.387 131.927Z" fill="#A8A8C1"/>
<path opacity="0.2" d="M29.1326 129.624L1.09512 113.441C-0.899863 112.286 -0.648704 110.277 1.64768 108.949L28.5728 93.4199C30.8692 92.0923 34.3569 91.9846 36.3447 93.0969L64.3821 109.286C66.3771 110.435 66.126 112.444 63.8224 113.779L36.9044 129.301C34.608 130.629 31.1204 130.779 29.1326 129.624Z" fill="#A8A8C1"/>
<path opacity="0.2" d="M74.1768 157.769L46.1394 141.587C44.1444 140.431 44.3956 138.422 46.6991 137.094L73.6171 121.551C75.9135 120.223 79.4011 120.08 81.3889 121.228L109.426 137.417C111.421 138.565 111.17 140.575 108.867 141.91L81.9487 157.446C79.6164 158.774 76.1288 158.924 74.1768 157.769Z" fill="#A8A8C1"/>
</g>
<path d="M74.4067 96.2903L46.3764 80.108C44.3814 78.9526 44.6326 76.9433 46.9289 75.6157L73.8469 60.072C76.1505 58.7444 79.6309 58.6009 81.6259 59.7491L109.663 75.9386C111.658 77.0868 111.407 79.1033 109.104 80.4309L82.1857 95.9674C79.918 97.2735 76.4016 97.417 74.4067 96.2903Z" fill="#0C0F38"/>
<g opacity="0.4">
<path opacity="0.4" d="M111.006 57.6248H97.0981L81.619 48.6833C79.624 47.5351 76.1435 47.6786 73.84 49.0062L58.9206 57.6176H45.0275V66.9467C45.0224 67.387 45.1461 67.8191 45.3832 68.1901C45.6203 68.5611 45.9606 68.8547 46.3623 69.035L74.3997 85.2174C76.3947 86.3727 79.8752 86.2292 82.1787 84.9016L109.097 69.3579C110.295 68.6403 110.934 67.7935 110.991 66.9467L111.006 57.6248Z" fill="url(#paint0_linear)"/>
<path opacity="0.4" d="M45.9102 67.5855V58.2564H59.8248L74.7442 49.645C77.0406 48.3174 80.5282 48.2097 82.516 49.322L97.9736 58.2564H111.006V57.6177H97.0981L81.619 48.6762C79.624 47.528 76.1435 47.6715 73.84 48.9991L58.9206 57.6106H45.0275V66.9396C45.0224 67.3799 45.1461 67.812 45.3832 68.183C45.6203 68.554 45.9606 68.8476 46.3623 69.0279L46.5201 69.1212C46.3131 68.9248 46.1513 68.6857 46.046 68.4205C45.9407 68.1553 45.8943 67.8704 45.9102 67.5855Z" fill="#D4088C"/>
<path opacity="0.4" d="M74.3985 75.8955L46.3611 59.6916C44.3733 58.5434 44.6172 56.5341 46.9208 55.1993L73.8388 39.6628C76.1423 38.3352 79.6228 38.1845 81.6178 39.3399L109.655 55.5222C111.65 56.6776 111.399 58.6869 109.096 60.0145L82.1775 75.5582C79.874 76.9145 76.3935 77.0437 74.3985 75.8955Z" fill="url(#paint1_linear)"/>
<path opacity="0.4" d="M109.656 55.5367L81.6184 39.3543C80.4078 38.7359 79.047 38.4722 77.693 38.5937C78.681 38.6292 79.648 38.8893 80.5204 39.3543L108.558 55.5367C110.553 56.6921 110.302 58.7014 107.998 60.029L81.0802 75.5727C79.8956 76.2232 78.5768 76.5915 77.2266 76.6491C78.9456 76.7644 80.6621 76.3912 82.1781 75.5727L109.096 60.029C111.4 58.7014 111.651 56.6921 109.656 55.5367Z" fill="#6EE8FC"/>
<path opacity="0.4" d="M77.8358 72.0419C76.9202 72.0672 76.0134 71.8572 75.2021 71.4319L54.3265 59.3831C54.0087 59.2322 53.7371 58.9988 53.5402 58.7072C53.3433 58.4156 53.2283 58.0766 53.207 57.7254C53.2575 57.2714 53.4257 56.8386 53.6951 56.4697C53.9645 56.1009 54.3257 55.8089 54.7428 55.6227L74.7859 44.0547C76.5656 43.0285 79.2639 42.9208 80.8139 43.8107L101.69 55.8667C102.011 56.0169 102.285 56.252 102.482 56.5467C102.68 56.8414 102.793 57.1845 102.809 57.5388C102.758 57.9917 102.59 58.4234 102.32 58.791C102.051 59.1586 101.69 59.4493 101.273 59.6342L81.2301 71.1736C80.1912 71.7477 79.0228 72.0466 77.8358 72.0419ZM78.1802 43.6815C77.0776 43.6708 75.9906 43.9425 75.0227 44.4709L54.9867 56.039C54.6426 56.1834 54.342 56.4147 54.1143 56.7104C53.8866 57.006 53.7396 57.3558 53.6878 57.7254C53.7114 57.9921 53.8056 58.2476 53.9608 58.4658C54.1159 58.684 54.3264 58.857 54.5705 58.9669L75.4461 71.0157C76.8813 71.8338 79.35 71.7333 80.9933 70.7789L101.036 59.2108C101.379 59.0654 101.678 58.8336 101.905 58.5381C102.131 58.2425 102.277 57.8932 102.328 57.5244C102.307 57.2581 102.214 57.0024 102.06 56.784C101.906 56.5656 101.696 56.3926 101.453 56.2829L80.5771 44.2269C79.8373 43.8448 79.0125 43.6571 78.1802 43.6815Z" fill="#480689"/>
<path opacity="0.4" d="M75.6622 75.8957L47.6248 59.6918C45.6298 58.5436 45.8809 56.5342 48.1773 55.1995L75.1025 39.663C76.2683 39.0233 77.5635 38.6554 78.8915 38.5865C77.1487 38.4599 75.406 38.8333 73.8682 39.663L46.9071 55.2138C44.6036 56.5486 44.3596 58.5579 46.3474 59.7061L74.3849 75.8957C75.6205 76.5065 77.0038 76.7553 78.3748 76.6133C77.4288 76.5772 76.5024 76.3321 75.6622 75.8957Z" fill="#D4088C"/>
</g>
<g opacity="0.5">
<path opacity="0.5" d="M111.006 44.7652H97.098L81.6189 35.8308C79.6239 34.6755 76.1435 34.8262 73.8399 36.1538L58.9206 44.7652H45.0274V54.0943C45.0238 54.5333 45.148 54.9639 45.3851 55.3335C45.6221 55.7031 45.9616 55.9956 46.3622 56.1754L74.3997 72.3649C76.3946 73.5131 79.8751 73.3696 82.1787 72.042L109.097 56.4983C110.295 55.7807 110.934 54.9339 110.991 54.0943L111.006 44.7652Z" fill="url(#paint2_linear)"/>
<path opacity="0.5" d="M45.9101 54.7402V45.4111H59.8248L74.7441 36.7997C77.0405 35.4721 80.5281 35.3285 82.5159 36.4767L97.995 45.4183H111.027V44.7724H97.098L81.6189 35.838C79.6239 34.6827 76.1435 34.8334 73.8399 36.161L58.9206 44.7724H45.0274V54.1015C45.0238 54.5405 45.148 54.9711 45.3851 55.3407C45.6221 55.7103 45.9616 56.0028 46.3622 56.1826L46.5201 56.2759C46.3131 56.0795 46.1513 55.8404 46.0459 55.5752C45.9406 55.31 45.8942 55.0251 45.9101 54.7402Z" fill="#D4088C"/>
<path opacity="0.5" d="M74.3985 63.0358L46.3611 46.8463C44.3733 45.6981 44.6172 43.6888 46.9208 42.3612L73.8388 26.8175C76.1423 25.4899 79.6228 25.3464 81.6178 26.4945L109.655 42.6841C111.65 43.8323 111.399 45.8416 109.096 47.1692L82.1775 62.7129C79.874 64.0405 76.3935 64.184 74.3985 63.0358Z" fill="url(#paint3_linear)"/>
<path opacity="0.5" d="M109.656 42.6841L81.6184 26.4946C80.4066 25.8794 79.0468 25.6159 77.693 25.7339C78.681 25.7694 79.648 26.0296 80.5204 26.4946L108.558 42.6841C110.553 43.8323 110.302 45.8416 107.998 47.1692L81.0802 62.7129C79.8948 63.3626 78.5768 63.7332 77.2266 63.7965C78.9462 63.9092 80.6627 63.5336 82.1781 62.7129L109.096 47.1692C111.4 45.8416 111.651 43.8323 109.656 42.6841Z" fill="#6EE8FC"/>
<path opacity="0.5" d="M77.8358 59.1821C76.9202 59.2074 76.0134 58.9974 75.2021 58.5721L54.3265 46.5233C54.0082 46.373 53.7363 46.1398 53.5393 45.8481C53.3423 45.5564 53.2275 45.217 53.207 44.8656C53.2589 44.4121 53.4276 43.9798 53.6969 43.6112C53.9661 43.2426 54.3265 42.9503 54.7428 42.7629L74.7859 31.1949C76.5656 30.1687 79.271 30.061 80.8139 30.9581L101.69 43.0069C102.009 43.1559 102.282 43.3888 102.479 43.6808C102.676 43.9728 102.79 44.3128 102.809 44.6646C102.757 45.1181 102.588 45.5504 102.319 45.919C102.05 46.2876 101.69 46.5799 101.273 46.7673L81.2301 58.3353C80.1892 58.9019 79.0209 59.1934 77.8358 59.1821ZM75.4461 58.1631C76.8813 58.974 79.35 58.8807 80.9933 57.9191L101.036 46.351C101.379 46.2056 101.678 45.9738 101.905 45.6782C102.131 45.3827 102.277 45.0334 102.328 44.6646C102.306 44.3985 102.213 44.1431 102.059 43.9248C101.905 43.7066 101.696 43.5334 101.453 43.4231L80.5771 31.3671C79.1419 30.5562 76.6732 30.6495 75.0227 31.6111L54.9867 43.1863C54.6426 43.3307 54.342 43.5621 54.1143 43.8578C53.8866 44.1534 53.7396 44.5032 53.6878 44.8727C53.7107 45.1396 53.8046 45.3956 53.9598 45.6139C54.115 45.8322 54.3259 46.005 54.5705 46.1142L75.4461 58.1631Z" fill="#480689"/>
<path opacity="0.5" d="M75.6622 63.0358L47.6248 46.8463C45.6298 45.6981 45.8809 43.6888 48.1773 42.3612L75.1025 26.8175C76.2683 26.1779 77.5635 25.8099 78.8915 25.7411C77.1487 25.6144 75.406 25.9878 73.8682 26.8175L46.9071 42.3612C44.6036 43.6888 44.3596 45.6981 46.3474 46.8463L74.3849 63.0358C75.6169 63.659 77.0004 63.9203 78.3748 63.7894C77.426 63.7421 76.4995 63.4848 75.6622 63.0358Z" fill="#D4088C"/>
</g>
<g opacity="0.7">
<path opacity="0.7" d="M111.006 31.9054H97.0981L81.619 22.971C79.624 21.8228 76.1435 21.9663 73.84 23.2939L58.9206 31.9054H45.0275V41.2344C45.0229 41.6737 45.1468 42.1047 45.3839 42.4744C45.6211 42.8441 45.9611 43.1365 46.3622 43.3155L74.3997 59.5051C76.3947 60.6533 79.8751 60.5097 82.1787 59.1821L109.097 43.6385C110.295 42.9209 110.934 42.0741 110.991 41.2344L111.006 31.9054Z" fill="url(#paint4_linear)"/>
<path opacity="0.7" d="M45.9101 41.8875V32.5584H59.8248L74.7442 23.947C77.0406 22.6122 80.5282 22.4687 82.516 23.6241L97.9951 32.5584H111.027V31.9126H97.0981L81.619 22.9782C79.624 21.83 76.1435 21.9735 73.84 23.3011L58.9206 31.9126H45.0275V41.2416C45.0229 41.6809 45.1468 42.1119 45.3839 42.4816C45.6211 42.8513 45.9611 43.1437 46.3622 43.3228L46.5201 43.416C46.3137 43.2208 46.1522 42.9829 46.0468 42.7189C45.9415 42.455 45.8949 42.1713 45.9101 41.8875Z" fill="#D4088C"/>
<path opacity="0.7" d="M74.3985 50.1759L46.3611 33.9936C44.3733 32.8382 44.6172 30.8289 46.9208 29.5013L73.8388 13.9576C76.1423 12.63 79.6228 12.4865 81.6178 13.6347L109.655 29.8242C111.65 30.9724 111.399 32.9817 109.096 34.3165L82.1775 49.853C79.874 51.1878 76.3935 51.3313 74.3985 50.1759Z" fill="url(#paint5_linear)"/>
<path opacity="0.7" d="M109.656 29.8243L81.6184 13.6348C80.4035 13.0311 79.0429 12.7824 77.693 12.9171C78.6776 12.9393 79.6444 13.1847 80.5204 13.6348L108.558 29.8243C110.553 30.9725 110.302 32.9818 107.998 34.3166L81.0802 49.8531C79.8961 50.5058 78.5773 50.8767 77.2266 50.9367C78.9462 51.0494 80.6627 50.6738 82.1781 49.8531L109.096 34.3166C111.4 32.9818 111.651 30.9868 109.656 29.8243Z" fill="#6EE8FC"/>
<path opacity="0.7" d="M77.8358 46.3224C76.9211 46.3464 76.0152 46.1391 75.2021 45.7196L54.3265 33.6635C54.0082 33.5133 53.7363 33.28 53.5393 32.9883C53.3423 32.6966 53.2275 32.3572 53.207 32.0058C53.258 31.5529 53.4265 31.1212 53.6959 30.7536C53.9653 30.386 54.3262 30.0953 54.7428 29.9104L74.7859 18.3351C76.5656 17.3089 79.2639 17.2013 80.8139 18.0983L101.69 30.1472C102.009 30.298 102.281 30.5324 102.479 30.8255C102.676 31.1185 102.79 31.4594 102.809 31.8121C102.757 32.2647 102.589 32.6961 102.319 33.0636C102.05 33.4311 101.689 33.722 101.273 33.9075L81.2301 45.4756C80.1892 46.0422 79.0209 46.3337 77.8358 46.3224ZM75.4461 45.3392C76.8813 46.1573 79.35 46.0569 80.9933 45.0952L101.036 33.5272C101.378 33.3824 101.677 33.1517 101.903 32.8575C102.13 32.5632 102.276 32.2155 102.328 31.8479C102.307 31.5805 102.215 31.3237 102.061 31.104C101.907 30.8844 101.697 30.7101 101.453 30.5993L80.5771 18.5504C79.1419 17.7323 76.6732 17.8328 75.0227 18.7872L54.9867 30.3625C54.6436 30.5063 54.3435 30.7366 54.1159 31.0309C53.8883 31.3252 53.7408 31.6734 53.6878 32.0417C53.7109 32.3094 53.8049 32.5662 53.96 32.7856C54.1151 33.0051 54.3258 33.1793 54.5705 33.2904L75.4461 45.3392Z" fill="#480689"/>
<path opacity="0.7" d="M75.6622 50.176L47.6248 33.9936C45.6298 32.8383 45.8809 30.8289 48.1773 29.5013L75.1025 13.9576C76.2683 13.318 77.5635 12.95 78.8915 12.8812C77.1487 12.7545 75.406 13.128 73.8682 13.9576L46.9071 29.5013C44.6036 30.8289 44.3596 32.8383 46.3474 33.9936L74.3849 50.176C75.6194 50.7902 77.0036 51.0392 78.3748 50.8936C77.4288 50.8575 76.5024 50.6124 75.6622 50.176Z" fill="#D4088C"/>
</g>
<path d="M111.006 19.0528H97.0981L81.619 10.1112C79.624 8.96305 76.1435 9.10657 73.84 10.4342L58.9206 19.0456H45.0275V28.3747C45.0224 28.815 45.1461 29.2471 45.3832 29.6181C45.6203 29.9891 45.9606 30.2827 46.3623 30.463L74.3997 46.6453C76.3947 47.8007 79.8752 47.6572 82.1787 46.3224L109.097 30.7859C110.295 30.0683 110.934 29.2215 110.991 28.3747L111.006 19.0528Z" fill="url(#paint6_linear)"/>
<path d="M45.9102 29.0278V19.6987H59.8248L74.7442 11.0872C77.0406 9.75964 80.5282 9.652 82.516 10.7643L97.9951 19.6987H111.027V19.06H97.0981L81.619 10.1184C79.624 8.97025 76.1435 9.11378 73.84 10.4414L58.9206 19.0528H45.0275V28.3819C45.0224 28.8222 45.1461 29.2543 45.3832 29.6253C45.6203 29.9963 45.9606 30.2899 46.3623 30.4702L46.5201 30.5563C46.3133 30.3613 46.1515 30.1235 46.0462 29.8595C45.9408 29.5954 45.8944 29.3116 45.9102 29.0278Z" fill="#D4088C"/>
<path d="M74.3985 37.3235L46.3611 21.134C44.3733 19.9858 44.6172 17.9692 46.9208 16.6417L73.8388 1.10516C76.1423 -0.229618 79.6228 -0.37314 81.6178 0.78223L109.655 16.9646C111.65 18.12 111.399 20.1293 109.096 21.4569L82.1775 37.0006C79.874 38.3282 76.3935 38.4717 74.3985 37.3235Z" fill="url(#paint7_linear)"/>
<path d="M109.656 16.9646L81.6184 0.782207C80.4078 0.163758 79.047 -0.0999403 77.693 0.0215252C78.681 0.0570587 79.648 0.317203 80.5204 0.782207L108.558 16.9646C110.553 18.1199 110.302 20.1293 107.998 21.4569L81.0802 37.0005C79.8943 37.6479 78.5763 38.0161 77.2266 38.077C78.9453 38.1888 80.6609 37.8158 82.1781 37.0005L109.096 21.4569C111.4 20.1293 111.651 18.1199 109.656 16.9646Z" fill="#6EE8FC"/>
<path d="M77.8358 33.4627C76.9208 33.4906 76.0139 33.283 75.2021 32.8599L54.3265 20.8111C54.0086 20.6584 53.7372 20.4235 53.5404 20.1308C53.3436 19.8382 53.2285 19.4982 53.207 19.1462C53.2587 18.6935 53.4275 18.2621 53.6968 17.8946C53.9661 17.5272 54.3266 17.2363 54.7428 17.0507L74.7859 5.48266C76.5656 4.45646 79.271 4.34882 80.8139 5.23867L101.69 17.2875C102.008 17.439 102.281 17.6735 102.478 17.9664C102.675 18.2594 102.789 18.6 102.809 18.9524C102.758 19.4053 102.59 19.837 102.32 20.2046C102.051 20.5722 101.69 20.8629 101.273 21.0479L81.2301 32.6231C80.1873 33.184 79.0198 33.4728 77.8358 33.4627ZM75.4461 32.4222C76.8813 33.2402 79.35 33.1398 80.9933 32.1853L101.036 20.6101C101.378 20.4653 101.677 20.2346 101.903 19.9404C102.13 19.6462 102.276 19.2984 102.328 18.9309C102.307 18.6637 102.214 18.4071 102.06 18.1876C101.906 17.9681 101.697 17.7937 101.453 17.6822L80.5771 5.65489C79.1419 4.8368 76.6732 4.93727 75.0227 5.89171L54.9867 17.4669C54.6436 17.6107 54.3435 17.841 54.1159 18.1353C53.8883 18.4296 53.7408 18.7779 53.6878 19.1462C53.7109 19.4139 53.8049 19.6707 53.96 19.8901C54.1151 20.1095 54.3258 20.2838 54.5705 20.3948L75.4461 32.4222Z" fill="url(#paint8_linear)"/>
<path d="M75.6622 37.3234L47.6248 21.1339C45.6298 19.9857 45.8809 17.9692 48.1773 16.6416L75.1025 1.1051C76.2669 0.462199 77.563 0.094009 78.8915 0.0286711C77.1487 -0.0980049 75.406 0.275436 73.8682 1.1051L46.9071 16.6344C44.6036 17.962 44.3596 19.9785 46.3474 21.1267L74.3849 37.3163C75.6205 37.9271 77.0038 38.1759 78.3748 38.0339C77.4298 37.9967 76.5042 37.7543 75.6622 37.3234Z" fill="#25BFEC"/>
<g opacity="0.4">
<path opacity="0.4" d="M155.987 85.77H142.108L126.629 76.8356C124.634 75.6803 121.153 75.8238 118.85 77.1514L103.93 85.7628H90.0371V95.0919C90.035 95.5315 90.1607 95.9623 90.399 96.3318C90.6372 96.7013 90.9777 96.9935 91.3791 97.173L119.388 113.377C121.383 114.525 124.863 114.382 127.167 113.054L154.085 97.5103C155.283 96.7927 155.922 95.9459 155.979 95.1063L155.987 85.77Z" fill="url(#paint9_linear)"/>
<path opacity="0.4" d="M90.9198 95.745V86.4159H104.82L119.739 77.8045C122.036 76.4769 125.524 76.3692 127.511 77.4815L142.99 86.4159H155.987V85.7772H142.108L126.629 76.8428C124.634 75.6875 121.153 75.831 118.85 77.1586L103.93 85.77H90.0371V95.0991C90.035 95.5388 90.1607 95.9695 90.399 96.339C90.6372 96.7085 90.9777 97.0008 91.3791 97.1802L91.537 97.2735C91.3284 97.0795 91.1651 96.842 91.0584 96.5779C90.9518 96.3137 90.9044 96.0294 90.9198 95.745Z" fill="#D4088C"/>
<path opacity="0.4" d="M119.387 104.041L91.3998 87.851C89.4048 86.7028 89.656 84.6935 91.9524 83.3587L118.87 67.8222C121.174 66.4946 124.654 66.3439 126.649 67.4993L154.687 83.6816C156.682 84.837 156.431 86.8464 154.127 88.174L127.209 103.718C124.884 105.045 121.404 105.189 119.387 104.041Z" fill="url(#paint10_linear)"/>
<path opacity="0.4" d="M154.666 83.6818L126.628 67.4994C125.416 66.8843 124.057 66.6208 122.703 66.7388C123.691 66.7743 124.658 67.0344 125.53 67.4994L153.568 83.6818C155.563 84.8372 155.311 86.8465 153.008 88.1741L126.09 103.718C124.905 104.368 123.587 104.737 122.236 104.794C123.955 104.91 125.672 104.536 127.188 103.718L154.106 88.1741C156.409 86.8465 156.661 84.8085 154.666 83.6818Z" fill="#6EE8FC"/>
<path opacity="0.4" d="M122.846 100.187C121.93 100.212 121.023 100.002 120.212 99.5771L99.3435 87.5282C99.0233 87.3796 98.7495 87.1469 98.5511 86.855C98.3527 86.5631 98.2372 86.2229 98.2168 85.8705C98.2672 85.4166 98.4355 84.9837 98.7049 84.6149C98.9743 84.246 99.3354 83.954 99.7525 83.7679L119.796 72.1998C121.575 71.1736 124.281 71.066 125.824 71.9558L146.699 84.0119C147.019 84.1609 147.291 84.3938 147.488 84.6858C147.686 84.9777 147.8 85.3178 147.819 85.6696C147.768 86.1225 147.599 86.5542 147.33 86.9218C147.06 87.2894 146.7 87.5801 146.283 87.765L126.24 99.3403C125.199 99.9069 124.031 100.198 122.846 100.187ZM123.19 71.8267C122.09 71.8172 121.005 72.0889 120.04 72.616L100.011 84.1841C99.6668 84.3285 99.3661 84.5599 99.1384 84.8555C98.9107 85.1512 98.7637 85.5009 98.712 85.8705C98.7355 86.1372 98.8297 86.3928 98.9849 86.611C99.14 86.8292 99.3505 87.0021 99.5946 87.112L120.456 99.1609C121.891 99.9789 124.36 99.8785 126.003 98.924L146.046 87.356C146.396 87.2156 146.702 86.9859 146.935 86.69C147.168 86.3941 147.319 86.0422 147.374 85.6696C147.351 85.4027 147.257 85.1468 147.102 84.9284C146.947 84.7101 146.736 84.5373 146.491 84.4281L125.616 72.3721C124.867 71.9851 124.032 71.7973 123.19 71.8267Z" fill="#480689"/>
<path opacity="0.4" d="M120.672 104.041L92.6342 87.8512C90.6392 86.703 90.8903 84.6937 93.1939 83.3589L120.105 67.8224C121.271 67.1827 122.566 66.8148 123.894 66.746C122.151 66.6193 120.408 66.9927 118.87 67.8224L91.9309 83.3732C89.6345 84.708 89.3833 86.7173 91.3783 87.8655L119.387 104.041C120.619 104.664 122.003 104.925 123.377 104.794C122.431 104.746 121.507 104.489 120.672 104.041Z" fill="#D4088C"/>
</g>
<g opacity="0.5">
<path opacity="0.5" d="M155.987 72.9103H142.108L126.629 63.9975C124.634 62.8421 121.153 62.9928 118.85 64.3204L103.93 72.9318H90.0371V82.2609C90.035 82.7006 90.1607 83.1313 90.399 83.5008C90.6372 83.8703 90.9777 84.1626 91.3791 84.342L119.388 100.517C121.383 101.665 124.863 101.522 127.167 100.194L154.085 84.6506C155.283 83.933 155.922 83.0862 155.979 82.2466L155.987 72.9103Z" fill="url(#paint11_linear)"/>
<path opacity="0.5" d="M90.9198 82.8853V73.5562H104.82L119.739 64.9447C122.036 63.6171 125.524 63.4736 127.511 64.6218L142.99 73.5634H155.987V72.9175H142.108L126.629 63.9975C124.634 62.8421 121.153 62.9928 118.85 64.3204L103.93 72.9318H90.0371V82.2609C90.035 82.7006 90.1607 83.1313 90.399 83.5008C90.6372 83.8703 90.9777 84.1626 91.3791 84.342L91.537 84.4353C91.3255 84.2389 91.1605 83.9979 91.0537 83.7298C90.947 83.4617 90.9012 83.1732 90.9198 82.8853Z" fill="#D4088C"/>
<path opacity="0.5" d="M119.387 91.1809L91.3998 74.9914C89.4048 73.8432 89.656 71.8339 91.9524 70.5063L118.87 54.9626C121.174 53.635 124.654 53.5273 126.649 54.6397L154.687 70.8292C156.682 71.9774 156.431 73.9867 154.127 75.3143L127.209 90.858C124.884 92.1856 121.404 92.3291 119.387 91.1809Z" fill="url(#paint12_linear)"/>
<path opacity="0.5" d="M154.666 70.8292L126.628 54.6684C125.416 54.0533 124.057 53.7898 122.703 53.9077C123.691 53.9432 124.658 54.2034 125.53 54.6684L153.568 70.8579C155.563 72.0061 155.311 74.0155 153.008 75.3431L126.09 90.8867C124.905 91.5364 123.587 91.907 122.236 91.9703C123.956 92.083 125.672 91.7074 127.188 90.8867L154.106 75.3431C156.409 73.9868 156.661 71.9774 154.666 70.8292Z" fill="#6EE8FC"/>
<path opacity="0.5" d="M122.848 87.3272C121.933 87.3513 121.027 87.144 120.214 86.7244L99.3454 74.6684C99.0253 74.5198 98.7515 74.2871 98.5531 73.9952C98.3547 73.7033 98.2391 73.3631 98.2188 73.0107C98.2697 72.5578 98.4382 72.1261 98.7076 71.7585C98.977 71.3909 99.3379 71.1002 99.7545 70.9153L119.798 59.34C121.577 58.3138 124.283 58.2062 125.826 59.1032L146.701 71.1736C147.02 71.3226 147.293 71.5555 147.49 71.8475C147.688 72.1395 147.802 72.4795 147.821 72.8313C147.769 73.2848 147.6 73.7171 147.331 74.0857C147.062 74.4543 146.701 74.7466 146.285 74.9339L126.242 86.502C125.199 87.0611 124.031 87.3451 122.848 87.3272ZM120.458 86.3082C121.893 87.1191 124.362 87.0259 126.005 86.0642L146.048 74.4962C146.392 74.3518 146.693 74.1204 146.921 73.8247C147.148 73.5291 147.295 73.1793 147.347 72.8098C147.324 72.5431 147.229 72.2875 147.074 72.0693C146.919 71.8511 146.709 71.6782 146.464 71.5683L125.589 59.5194C124.154 58.7013 121.685 58.8018 120.042 59.7562L100.013 71.3243C99.6687 71.4687 99.3681 71.7001 99.1403 71.9957C98.9126 72.2914 98.7657 72.6411 98.7139 73.0107C98.7368 73.2776 98.8307 73.5335 98.9859 73.7518C99.1411 73.9702 99.352 74.1429 99.5966 74.2522L120.458 86.3082Z" fill="#480689"/>
<path opacity="0.5" d="M120.672 91.1809L92.6341 74.9913C90.6391 73.8431 90.8903 71.8338 93.1939 70.5062L120.105 54.9625C121.27 54.3229 122.566 53.9549 123.894 53.8861C122.151 53.7594 120.408 54.1329 118.87 54.9625L91.9524 70.5062C89.656 71.8338 89.4048 73.8431 91.3998 74.9913L119.387 91.1809C120.619 91.804 122.003 92.0653 123.377 91.9344C122.431 91.8861 121.507 91.6288 120.672 91.1809Z" fill="#D4088C"/>
</g>
<g opacity="0.7">
<path opacity="0.7" d="M155.987 60.0505H142.108L126.629 51.1161C124.634 49.9679 121.153 50.1115 118.85 51.4391L103.93 60.0505H90.0372V69.3796C90.0341 69.8194 90.1595 70.2506 90.3978 70.6202C90.6362 70.9899 90.9772 71.282 91.3791 71.4607L119.388 87.6789C121.383 88.8271 124.863 88.6836 127.167 87.356L154.085 71.8123C155.283 71.0947 155.922 70.2479 155.979 69.4083L155.987 60.0505Z" fill="url(#paint13_linear)"/>
<path opacity="0.7" d="M90.9198 70.0325V60.7035H104.82L119.739 52.092C122.036 50.7644 125.524 50.6137 127.511 51.7691L142.99 60.7035H155.987V60.0576H142.108L126.629 51.1232C124.634 49.975 121.153 50.1185 118.85 51.4461L103.93 60.0576H90.0372V69.3867C90.0341 69.8265 90.1595 70.2577 90.3978 70.6273C90.6362 70.997 90.9772 71.2891 91.3791 71.4678L91.537 71.5611C91.3277 71.3676 91.1638 71.1303 91.057 70.866C90.9503 70.6017 90.9035 70.3171 90.9198 70.0325Z" fill="#D4088C"/>
<path opacity="0.7" d="M119.387 78.3499L91.3998 62.1389C89.4048 60.9835 89.656 58.9741 91.9524 57.6465L118.87 42.1029C121.174 40.7753 124.654 40.6317 126.649 41.7799L154.687 57.9695C156.682 59.1177 156.431 61.1342 154.127 62.4618L127.209 77.9983C124.884 79.3331 121.404 79.4766 119.387 78.3499Z" fill="url(#paint14_linear)"/>
<path opacity="0.7" d="M154.666 57.9695L126.628 41.7512C125.413 41.1476 124.053 40.8988 122.703 41.0336C123.687 41.0558 124.654 41.3012 125.53 41.7512L153.568 57.9407C155.563 59.0889 155.311 61.1055 153.008 62.4331L126.09 77.9696C124.913 78.6241 123.602 78.9998 122.258 79.0675C123.977 79.1802 125.694 78.8046 127.209 77.9839L154.127 62.4474C156.409 61.127 156.661 59.1176 154.666 57.9695Z" fill="#6EE8FC"/>
<path opacity="0.7" d="M122.848 74.4675C121.933 74.4916 121.027 74.2842 120.214 73.8647L99.3454 61.8446C99.0253 61.6959 98.7515 61.4633 98.5531 61.1714C98.3547 60.8795 98.2391 60.5392 98.2188 60.1869C98.2697 59.734 98.4382 59.3023 98.7076 58.9347C98.977 58.5671 99.3379 58.2764 99.7545 58.0914L119.798 46.5162C121.577 45.49 124.283 45.3823 125.826 46.2794L146.701 58.3282C147.02 58.4785 147.292 58.7117 147.488 59.0034C147.685 59.2951 147.8 59.6345 147.821 59.9859C147.77 60.4399 147.602 60.8727 147.333 61.2416C147.063 61.6104 146.702 61.9024 146.285 62.0885L126.242 73.6566C125.198 74.2108 124.029 74.4898 122.848 74.4675ZM120.458 73.4485C121.893 74.2666 124.362 74.1661 126.005 73.2117L146.048 61.6365C146.391 61.4927 146.691 61.2624 146.919 60.9681C147.147 60.6738 147.294 60.3255 147.347 59.9572C147.325 59.6893 147.231 59.4322 147.076 59.2126C146.921 58.9931 146.71 58.819 146.464 58.7086L125.589 46.6597C124.154 45.8416 121.685 45.9421 120.042 46.8965L100.013 58.4717C99.6696 58.6155 99.3696 58.8458 99.142 59.1401C98.9143 59.4344 98.7669 59.7827 98.7139 60.151C98.737 60.4187 98.8309 60.6755 98.986 60.8949C99.1412 61.1143 99.3519 61.2886 99.5966 61.3996L120.458 73.4485Z" fill="#480689"/>
<path opacity="0.7" d="M120.672 78.3499L92.6341 62.1675C90.6391 61.0121 90.8903 59.0028 93.1939 57.6752L120.105 42.1028C121.27 41.4632 122.566 41.0952 123.894 41.0264C122.151 40.9033 120.409 41.2765 118.87 42.1028L91.9524 57.6465C89.656 58.9741 89.4048 60.9834 91.3998 62.1388L119.387 78.3499C120.62 78.9676 122.006 79.2167 123.377 79.0675C122.433 79.0303 121.51 78.7853 120.672 78.3499Z" fill="#D4088C"/>
</g>
<path d="M155.987 47.1979H142.108L126.629 38.2564C124.634 37.1082 121.153 37.2517 118.85 38.5793L103.93 47.1908H90.0372V56.5198C90.0341 56.9643 90.1616 57.3999 90.4041 57.7724C90.6465 58.145 90.993 58.4381 91.4006 58.6153L119.388 74.7977C121.383 75.953 124.863 75.8095 127.167 74.4747L154.106 58.9741C155.305 58.2565 155.943 57.4097 156.001 56.5629L155.987 47.1979Z" fill="url(#paint15_linear)"/>
<path d="M90.9198 57.1729V47.8438H104.82L119.739 39.2324C122.036 37.9048 125.523 37.7971 127.511 38.9094L142.99 47.8438H155.987V47.2052H142.108L126.629 38.2636C124.634 37.1154 121.153 37.2589 118.85 38.5865L103.93 47.198H90.0371V56.527C90.0354 56.9703 90.1637 57.4043 90.406 57.7755C90.6483 58.1466 90.9941 58.4386 91.4006 58.6153L91.5585 58.7014C91.3453 58.51 91.1773 58.2736 91.0668 58.0092C90.9564 57.7448 90.9061 57.4591 90.9198 57.1729Z" fill="#D4088C"/>
<path d="M119.387 65.4686L91.3998 49.2791C89.4048 48.1309 89.656 46.1144 91.9524 44.7868L118.87 29.2503C121.174 27.9155 124.654 27.772 126.649 28.9274L154.687 45.1097C156.682 46.2651 156.431 48.2744 154.127 49.602L127.188 65.1457C124.884 66.4733 121.404 66.6168 119.387 65.4686Z" fill="url(#paint16_linear)"/>
<path d="M154.666 45.1097L126.628 28.9273C125.418 28.3089 124.057 28.0452 122.703 28.1667C123.691 28.2022 124.658 28.4623 125.53 28.9273L153.568 45.1097C155.563 46.2651 155.311 48.2744 153.008 49.602L126.09 65.1457C124.904 65.7931 123.586 66.1612 122.236 66.2221C123.955 66.3339 125.671 65.9609 127.188 65.1457L154.106 49.602C156.409 48.2744 156.661 46.2651 154.666 45.1097Z" fill="#6EE8FC"/>
<path d="M122.848 61.6079C121.932 61.6357 121.026 61.4282 120.214 61.0051L99.3454 48.9275C99.0252 48.777 98.7515 48.5429 98.5532 48.2499C98.3549 47.9569 98.2394 47.6158 98.2188 47.2626C98.2704 46.8099 98.4392 46.3786 98.7085 46.0111C98.9778 45.6436 99.3384 45.3527 99.7545 45.1672L119.798 33.5991C121.577 32.5729 124.283 32.4653 125.826 33.3551L146.701 45.4112C147.02 45.5602 147.293 45.7931 147.49 46.0851C147.688 46.377 147.802 46.7171 147.821 47.0689C147.77 47.5218 147.601 47.9535 147.332 48.3211C147.062 48.6886 146.702 48.9794 146.285 49.1643L126.242 60.7683C125.2 61.3324 124.032 61.6214 122.848 61.6079ZM120.458 60.5889C121.893 61.4069 124.362 61.3065 126.005 60.352L146.048 48.7768C146.391 48.633 146.691 48.4027 146.919 48.1084C147.147 47.8141 147.294 47.4659 147.347 47.0976C147.324 46.8298 147.23 46.5731 147.075 46.3536C146.92 46.1342 146.709 45.96 146.464 45.8489L125.589 33.8001C124.154 32.982 121.685 33.0824 120.042 34.044L100.013 45.6121C99.6696 45.7559 99.3696 45.9862 99.142 46.2805C98.9143 46.5748 98.7669 46.9231 98.7139 47.2913C98.7363 47.5593 98.8299 47.8164 98.9851 48.0359C99.1403 48.2555 99.3515 48.4295 99.5966 48.54L120.458 60.5889Z" fill="url(#paint17_linear)"/>
<path d="M120.672 65.4687L92.6341 49.2792C90.6391 48.131 90.8903 46.1145 93.1939 44.7869L120.105 29.2504C121.269 28.6075 122.565 28.2393 123.894 28.1739C122.151 28.0473 120.408 28.4207 118.87 29.2504L91.9524 44.7869C89.656 46.1145 89.4048 48.131 91.3998 49.2792L119.387 65.4687C120.623 66.0795 122.006 66.3283 123.377 66.1863C122.433 66.1492 121.51 65.9041 120.672 65.4687Z" fill="#25BFEC"/>
<path d="M127.998 70.6642L151.68 56.9433C151.797 56.8624 151.893 56.7554 151.962 56.6309C152.03 56.5064 152.069 56.3677 152.075 56.2257V55.099C152.075 54.812 151.902 54.6756 151.68 54.8048L127.998 68.5257C127.882 68.6066 127.785 68.7136 127.717 68.8381C127.648 68.9626 127.61 69.1013 127.604 69.2433V70.3628C127.597 70.657 127.769 70.7862 127.998 70.6642Z" fill="#9495C0"/>
<path d="M151.184 56.6491C151.3 56.567 151.396 56.4598 151.464 56.3355C151.532 56.2112 151.572 56.0731 151.579 55.9314V54.8837L151.701 54.812C151.924 54.69 152.096 54.812 152.096 55.1062V56.2328C152.09 56.3748 152.051 56.5136 151.983 56.6381C151.914 56.7626 151.818 56.8695 151.701 56.9505L128.02 70.6714C127.797 70.7934 127.625 70.6714 127.625 70.37V70.2982L151.184 56.6491Z" fill="#267FE5"/>
<g opacity="0.4">
<path opacity="0.4" d="M65.7303 83.4666H51.8228L36.3437 74.5251C34.3559 73.3769 30.8683 73.5204 28.5719 74.848L13.6526 83.4594H-0.247771V92.7885C-0.254678 93.2292 -0.131808 93.6621 0.105532 94.0334C0.342872 94.4047 0.684195 94.698 1.087 94.8768L29.1245 111.059C31.1123 112.215 34.5999 112.071 36.8963 110.736L63.8143 95.1997C65.0127 94.4821 65.6514 93.6353 65.7088 92.7885L65.7303 83.4666Z" fill="url(#paint18_linear)"/>
<path opacity="0.4" d="M0.634911 93.42V84.0909H14.5352L29.4546 75.4794C31.7581 74.1518 35.2386 74.0083 37.2336 75.1565L52.6983 84.0909H65.7303V83.4522H51.8228L36.3437 74.5107C34.3559 73.3625 30.8683 73.506 28.5719 74.8336L13.6526 83.445H-0.247771V92.7741C-0.254678 93.2148 -0.131808 93.6477 0.105532 94.019C0.342872 94.3903 0.684195 94.6836 1.087 94.8624L1.24488 94.9485C1.03685 94.7544 0.874292 94.5168 0.768841 94.2525C0.66339 93.9883 0.61766 93.704 0.634911 93.42Z" fill="#D4088C"/>
<path opacity="0.4" d="M29.1326 101.737L1.09512 85.5262C-0.899863 84.378 -0.648704 82.3615 1.64768 81.0339L28.5728 65.4974C30.8692 64.1626 34.3569 64.0191 36.3447 65.1744L64.3821 81.3568C66.3771 82.5122 66.126 84.5215 63.8224 85.8491L36.9044 101.393C34.608 102.749 31.1204 102.885 29.1326 101.737Z" fill="url(#paint19_linear)"/>
<path opacity="0.4" d="M64.3831 81.3783L36.3456 65.1959C35.135 64.5774 33.7742 64.3138 32.4202 64.4352C33.4082 64.4708 34.3752 64.7309 35.2476 65.1959L63.2851 81.3783C65.2801 82.5336 65.0289 84.543 62.7254 85.8706L35.8074 101.414C34.6237 102.061 33.3082 102.429 31.9609 102.491C33.6774 102.602 35.3906 102.229 36.9053 101.414L63.8233 85.8706C66.1269 84.543 66.3781 82.5336 64.3831 81.3783Z" fill="#6EE8FC"/>
<path opacity="0.4" d="M32.5565 97.8764C31.6415 97.9043 30.7346 97.6967 29.9228 97.2736L9.0544 85.2247C8.73419 85.0743 8.46052 84.8402 8.26222 84.5472C8.06393 84.2542 7.94837 83.9131 7.92773 83.5599C7.98004 83.1064 8.14993 82.6745 8.42056 82.307C8.69119 81.9394 9.05317 81.649 9.47063 81.4644L29.5066 69.8964C31.2863 68.8702 33.9917 68.7625 35.5418 69.6524L56.4102 81.7012C56.7291 81.8527 57.0013 82.0872 57.1983 82.3801C57.3953 82.6731 57.5097 83.0137 57.5297 83.3661C57.4788 83.819 57.3102 84.2507 57.0408 84.6183C56.7714 84.9859 56.4105 85.2766 55.994 85.4616L35.9652 97.0081C34.9203 97.5801 33.7477 97.8788 32.5565 97.8764ZM30.1668 96.8574C31.6021 97.6755 34.0707 97.575 35.714 96.6206L55.7572 85.0453C56.1003 84.9015 56.4004 84.6713 56.628 84.377C56.8557 84.0827 57.0032 83.7344 57.0561 83.3661C57.033 83.0984 56.9391 82.8416 56.7839 82.6222C56.6288 82.4027 56.4181 82.2285 56.1734 82.1174L35.2978 70.0686C33.8626 69.2505 31.3939 69.351 29.7506 70.3054L9.70744 81.8806C9.36429 82.0244 9.06426 82.2547 8.83662 82.549C8.60898 82.8433 8.46149 83.1916 8.40855 83.5599C8.43164 83.8276 8.52556 84.0844 8.68068 84.3038C8.8358 84.5232 9.04653 84.6974 9.29122 84.8085L30.1668 96.8574Z" fill="#480689"/>
<path opacity="0.4" d="M30.4027 101.737L2.35091 85.5262C0.355926 84.378 0.607092 82.3615 2.91066 81.0339L29.8286 65.4974C30.9931 64.8545 32.2891 64.4863 33.6177 64.4209C31.8747 64.2923 30.1315 64.6658 28.5943 65.4974L1.66917 81.0339C-0.627213 82.3615 -0.878384 84.378 1.1166 85.5262L29.1541 101.716C30.3835 102.339 31.7647 102.6 33.1369 102.469C32.1829 102.428 31.2495 102.179 30.4027 101.737Z" fill="#D4088C"/>
</g>
<g opacity="0.5">
<path opacity="0.5" d="M65.7322 70.6068H51.8247L36.3456 61.6724C34.3578 60.517 30.8701 60.6605 28.5738 61.9953L13.6544 70.6068H-0.245918V79.9358C-0.251411 80.3753 -0.127877 80.8066 0.109377 81.1765C0.346632 81.5465 0.687183 81.8386 1.08886 82.0169L29.1263 98.2065C31.1141 99.3546 34.6018 99.2111 36.8982 97.8835L63.8161 82.3399C65.0146 81.6222 65.6533 80.7754 65.7107 79.9358L65.7322 70.6068Z" fill="url(#paint20_linear)"/>
<path opacity="0.5" d="M0.636764 80.5817V71.2526H14.5371L29.4564 62.6412C31.76 61.3136 35.2405 61.2059 37.2354 62.3183L52.7073 71.2598H65.7393V70.6139H51.8247L36.3456 61.6796C34.3578 60.5242 30.8701 60.6677 28.5737 62.0025L13.6544 70.6139H-0.245918V79.943C-0.251411 80.3825 -0.127877 80.8138 0.109377 81.1838C0.346632 81.5537 0.687183 81.8458 1.08886 82.0241L1.24674 82.1174C1.03854 81.9219 0.875952 81.683 0.770529 81.4176C0.665106 81.1521 0.61944 80.8668 0.636764 80.5817Z" fill="#D4088C"/>
<path opacity="0.5" d="M29.1326 88.8775L1.09512 72.6879C-0.899863 71.5397 -0.648704 69.5304 1.64768 68.2028L28.5728 52.6591C30.8692 51.3315 34.3569 51.2239 36.3447 52.3362L64.3821 68.5257C66.3771 69.6739 66.126 71.6833 63.8224 73.0109L36.9044 88.5545C34.608 89.8821 31.1204 90.0257 29.1326 88.8775Z" fill="url(#paint21_linear)"/>
<path opacity="0.5" d="M64.3831 68.5256L36.3456 52.3361C35.1338 51.721 33.774 51.4575 32.4202 51.5754C33.4082 51.611 34.3752 51.8711 35.2476 52.3361L63.2851 68.5256C65.2801 69.6738 65.0289 71.6832 62.7254 73.0108L35.8074 88.5545C34.6242 89.2031 33.3087 89.5737 31.9609 89.6381C33.6781 89.7474 35.3914 89.372 36.9053 88.5545L63.8233 73.0108C66.1269 71.6832 66.3781 69.6738 64.3831 68.5256Z" fill="#6EE8FC"/>
<path opacity="0.5" d="M32.5565 85.0238C31.6409 85.0492 30.7341 84.8391 29.9228 84.4139L9.0544 72.365C8.73428 72.2164 8.46045 71.9837 8.26205 71.6918C8.06365 71.3999 7.94811 71.0597 7.92773 70.7073C7.97885 70.2526 8.14819 69.8192 8.41889 69.4503C8.68959 69.0814 9.0522 68.7898 9.47063 68.6047L29.5066 57.0366C31.2863 56.0104 33.9917 55.9028 35.5418 56.7926L56.4102 68.8487C56.7295 68.9977 57.0023 69.2306 57.1994 69.5225C57.3966 69.8145 57.5108 70.1546 57.5297 70.5064C57.4788 70.9593 57.3102 71.391 57.0408 71.7586C56.7714 72.1261 56.4105 72.4169 55.994 72.6018L35.958 84.177C34.9145 84.7437 33.7439 85.0351 32.5565 85.0238ZM32.901 56.6635C31.8007 56.6539 30.7163 56.9257 29.7506 57.4528L9.71461 69.0209C9.37052 69.1653 9.06987 69.3967 8.84216 69.6923C8.61445 69.988 8.4675 70.3377 8.41572 70.7073C8.43931 70.974 8.53352 71.2296 8.68865 71.4478C8.84379 71.666 9.05425 71.8389 9.29839 71.9488L30.174 83.9976C31.6092 84.8157 34.0779 84.7153 35.7212 83.7608L55.7644 72.1928C56.1085 72.0484 56.4091 71.817 56.6368 71.5213C56.8645 71.2257 57.0115 70.8759 57.0633 70.5064C57.0404 70.2395 56.9465 69.9835 56.7913 69.7652C56.636 69.5469 56.4252 69.3741 56.1806 69.2649L35.305 57.2088C34.5652 56.8267 33.7404 56.639 32.9081 56.6635H32.901Z" fill="#480689"/>
<path opacity="0.5" d="M30.4027 88.8775L2.36526 72.6879C0.37027 71.5397 0.621448 69.5304 2.92501 68.2028L29.8286 52.6591C30.9944 52.0195 32.2897 51.6515 33.6177 51.5827C31.8747 51.454 30.1315 51.8276 28.5943 52.6591L1.66917 68.2028C-0.627213 69.5304 -0.878384 71.5397 1.1166 72.6879L29.1541 88.8775C30.3835 89.5008 31.7647 89.7621 33.1369 89.631C32.1807 89.5869 31.2465 89.3294 30.4027 88.8775Z" fill="#D4088C"/>
</g>
<g opacity="0.7">
<path opacity="0.7" d="M65.7322 57.747H51.8247L36.3456 48.8127C34.3578 47.6645 30.8701 47.808 28.5738 49.1356L13.6544 57.747H-0.245918V67.0761C-0.251411 67.5155 -0.127877 67.9469 0.109377 68.3168C0.346632 68.6868 0.687183 68.9789 1.08886 69.1572L29.1263 85.3468C31.1141 86.4949 34.6018 86.3514 36.8982 85.0238L63.8161 69.4802C65.0146 68.7625 65.6533 67.9157 65.7107 67.0761L65.7322 57.747Z" fill="url(#paint22_linear)"/>
<path opacity="0.7" d="M0.636764 67.7291V58.4H14.5371L29.4564 49.7886C31.76 48.461 35.2405 48.3174 37.2354 49.4728L52.7073 58.4072H65.7393V57.7613H51.8247L36.3456 48.8269C34.3578 47.6788 30.8701 47.8223 28.5737 49.1499L13.6544 57.7613H-0.245918V67.0904C-0.251411 67.5298 -0.127877 67.9612 0.109377 68.3311C0.346632 68.701 0.687183 68.9932 1.08886 69.1715L1.24674 69.2648C1.03814 69.0696 0.875282 68.8307 0.769828 68.5652C0.664375 68.2997 0.618939 68.0142 0.636764 67.7291Z" fill="#D4088C"/>
<path opacity="0.7" d="M29.1326 76.0176L1.09512 59.8281C-0.899863 58.6799 -0.648704 56.6706 1.64768 55.343L28.5728 39.7993C30.8692 38.4717 34.3569 38.3282 36.3447 39.4764L64.3821 55.6659C66.3771 56.8141 66.126 58.8234 63.8224 60.1582L36.9044 75.6947C34.608 77.0223 31.1204 77.173 29.1326 76.0176Z" fill="url(#paint23_linear)"/>
<path opacity="0.7" d="M64.3831 55.6659L36.3456 39.4764C35.1338 38.8612 33.774 38.5977 32.4202 38.7157C33.4082 38.7512 34.3752 39.0114 35.2476 39.4764L63.2851 55.6659C65.2801 56.8141 65.0289 58.8234 62.7254 60.1582L35.8074 75.6947C34.6242 76.3433 33.3087 76.7139 31.9609 76.7783C33.6783 76.8912 35.3926 76.5155 36.9053 75.6947L63.8233 60.1582C66.1269 58.8234 66.3781 56.8213 64.3831 55.6659Z" fill="#6EE8FC"/>
<path opacity="0.7" d="M32.5565 72.164C31.6419 72.1881 30.7359 71.9807 29.9228 71.5612L9.0544 59.5052C8.73428 59.3566 8.46045 59.1239 8.26205 58.832C8.06365 58.5401 7.94811 58.1998 7.92773 57.8475C7.97864 57.3936 8.14799 56.9611 8.41879 56.5933C8.68959 56.2255 9.05233 55.9354 9.47063 55.752L29.5066 44.1768C31.2863 43.1506 33.9917 43.043 35.5418 43.94L56.4102 55.9889C56.7295 56.1378 57.0023 56.3708 57.1994 56.6627C57.3966 56.9547 57.5108 57.2948 57.5297 57.6466C57.4793 58.1005 57.311 58.5334 57.0416 58.9022C56.7722 59.271 56.4111 59.563 55.994 59.7492L35.9652 71.3172C34.9196 71.885 33.7463 72.1765 32.5565 72.164ZM32.901 43.8036C31.8007 43.7941 30.7163 44.0659 29.7506 44.593L9.70744 56.1611C9.36335 56.3055 9.0627 56.5369 8.83499 56.8325C8.60728 57.1282 8.46033 57.4779 8.40855 57.8475C8.4314 58.1144 8.52531 58.3703 8.68054 58.5886C8.83576 58.807 9.04663 58.9797 9.29122 59.089L30.174 71.1737C31.6092 71.9918 34.0779 71.8913 35.7212 70.9297L55.7644 59.3617C56.1085 59.2173 56.4091 58.9859 56.6368 58.6902C56.8645 58.3946 57.0115 58.0448 57.0633 57.6753C57.0397 57.4086 56.9455 57.153 56.7903 56.9348C56.6352 56.7166 56.4247 56.5437 56.1806 56.4338L35.305 44.3849C34.5698 43.987 33.7439 43.7867 32.9081 43.8036H32.901Z" fill="#480689"/>
<path opacity="0.7" d="M30.402 76.0176L2.36458 59.8281C0.369591 58.6799 0.620768 56.6705 2.92433 55.3429L29.8423 39.7993C31.0081 39.1596 32.3034 38.7916 33.6313 38.7228C31.8884 38.5941 30.1451 38.9677 28.608 39.7993L1.68284 55.3429C-0.613548 56.6705 -0.864707 58.6799 1.13028 59.8281L29.1677 76.0176C30.3972 76.6409 31.7784 76.9022 33.1505 76.7711C32.1895 76.7292 31.2501 76.4716 30.402 76.0176Z" fill="#D4088C"/>
</g>
<path d="M65.7303 44.8872H51.8228L36.3437 35.9528C34.3559 34.8046 30.8682 34.9481 28.5719 36.2757L13.6525 44.8872H-0.247808V54.2163C-0.254233 54.6559 -0.131072 55.0877 0.106294 55.4577C0.343661 55.8278 0.684727 56.1199 1.08697 56.2974L29.1244 72.4869C31.1122 73.6351 34.5999 73.4916 36.8963 72.164L63.8142 56.6203C65.0127 55.9027 65.6514 55.063 65.7088 54.2163L65.7303 44.8872Z" fill="url(#paint24_linear)"/>
<path d="M0.634874 54.8693V45.5402H14.5352L29.4545 36.9288C31.7581 35.6012 35.2386 35.4505 37.2336 36.6059L52.7055 45.5402H65.7375V44.8944H51.8228L36.3437 35.96C34.3559 34.8118 30.8682 34.9553 28.5719 36.2829L13.6525 44.8944H-0.247808V54.2235C-0.254233 54.6631 -0.131072 55.0949 0.106294 55.465C0.343661 55.835 0.684727 56.127 1.08697 56.3046L1.24485 56.3979C1.03681 56.2038 0.874255 55.9661 0.768804 55.7018C0.663353 55.4376 0.617624 55.1533 0.634874 54.8693Z" fill="#D4088C"/>
<path d="M29.1326 63.1586L1.09512 46.9763C-0.899863 45.8209 -0.648704 43.8116 1.64768 42.484L28.5728 26.9403C30.8692 25.6127 34.3569 25.4692 36.3447 26.6173L64.3821 42.8069C66.3771 43.9551 66.126 45.9716 63.8224 47.2992L36.9044 62.8357C34.608 64.1705 31.1204 64.314 29.1326 63.1586Z" fill="url(#paint25_linear)"/>
<path d="M64.3831 42.8061L36.3456 26.6166C35.1307 26.0129 33.7701 25.7642 32.4202 25.8989C33.4048 25.9212 34.3716 26.1665 35.2476 26.6166L63.2851 42.8061C65.2801 43.9543 65.0289 45.9708 62.7254 47.2984L35.8074 62.8349C34.6255 63.4868 33.3093 63.8576 31.9609 63.9185C33.6783 64.0314 35.3926 63.6557 36.9053 62.8349L63.8233 47.2984C66.1269 45.9708 66.3781 43.9543 64.3831 42.8061Z" fill="#6EE8FC"/>
<path d="M32.5565 59.3042C31.6419 59.3283 30.7359 59.1209 29.9228 58.7014L9.0544 46.6454C8.73428 46.4967 8.46045 46.2641 8.26205 45.9722C8.06365 45.6803 7.94811 45.34 7.92773 44.9877C7.97864 44.5338 8.14799 44.1013 8.41879 43.7335C8.68959 43.3657 9.05233 43.0756 9.47063 42.8922L29.5066 31.317C31.2863 30.298 33.9917 30.1903 35.5418 31.0802L56.4102 43.129C56.7291 43.2805 57.0013 43.515 57.1983 43.8079C57.3953 44.1009 57.5097 44.4415 57.5297 44.7939C57.4781 45.2466 57.3093 45.678 57.04 46.0454C56.7706 46.4129 56.4101 46.7038 55.994 46.8894L35.958 58.4574C34.9145 59.024 33.7439 59.3155 32.5565 59.3042ZM30.174 58.2565C31.6092 59.0746 34.0779 58.9741 35.7212 58.0197L55.7644 46.4444C56.1075 46.3006 56.4076 46.0703 56.6352 45.776C56.8628 45.4817 57.0103 45.1335 57.0633 44.7652C57.0402 44.4975 56.9462 44.2407 56.7911 44.0213C56.636 43.8018 56.4253 43.6276 56.1806 43.5165L35.305 31.4677C33.8697 30.6496 31.4011 30.7501 29.7578 31.7045L9.71461 43.2797C9.37146 43.4235 9.07143 43.6538 8.84379 43.9481C8.61615 44.2424 8.46866 44.5907 8.41572 44.959C8.43881 45.2267 8.53273 45.4835 8.68785 45.7029C8.84297 45.9223 9.0537 46.0965 9.29839 46.2076L30.174 58.2565Z" fill="url(#paint26_linear)"/>
<path d="M30.4028 63.1579L2.3653 46.9755C0.370318 45.8201 0.621495 43.8108 2.92506 42.4832L29.843 26.9395C31.0088 26.2999 32.3041 25.9319 33.6321 25.8631C31.8894 25.738 30.1471 26.1114 28.6087 26.9395L1.64768 42.4689C-0.648704 43.7965 -0.899863 45.8058 1.09512 46.9612L29.1326 63.1435C30.3638 63.7599 31.7464 64.009 33.1154 63.8611C32.1699 63.8331 31.2428 63.5927 30.4028 63.1579Z" fill="#25BFEC"/>
<path d="M27.8848 68.3605L4.20329 54.6396C4.08162 54.5551 3.98219 54.4425 3.91346 54.3113C3.84474 54.1801 3.80876 54.0342 3.80859 53.8861V52.7666C3.80859 52.4796 3.98083 52.3432 4.20329 52.4724L27.8848 66.1861C28.0004 66.2682 28.096 66.3754 28.1644 66.4997C28.2327 66.624 28.2721 66.7621 28.2795 66.9038V68.0232C28.2508 68.3533 28.1072 68.4825 27.8848 68.3605Z" fill="#9495C0"/>
<path d="M4.69068 54.3454C4.57151 54.2585 4.47393 54.1453 4.40549 54.0146C4.33704 53.884 4.29958 53.7393 4.29598 53.5919V52.5154L4.17399 52.4437C3.95153 52.3145 3.7793 52.4437 3.7793 52.7379V53.8574C3.77946 54.0055 3.81544 54.1514 3.88417 54.2826C3.95289 54.4138 4.05233 54.5264 4.17399 54.6109L27.8555 68.3318C28.078 68.4538 28.2502 68.3318 28.2502 68.0304V67.9587L4.69068 54.3454Z" fill="#267FE5"/>
<g opacity="0.4">
<path opacity="0.4" d="M110.777 111.612H96.8339L81.3548 102.67C79.367 101.522 75.8794 101.665 73.583 102.993L58.6636 111.604H44.7561V120.934C44.7492 121.374 44.8721 121.807 45.1094 122.178C45.3468 122.55 45.6881 122.843 46.0909 123.022L74.1786 139.211C76.1664 140.367 79.654 140.223 81.9504 138.888L108.868 123.352C110.067 122.634 110.706 121.788 110.763 120.941L110.777 111.612Z" fill="url(#paint27_linear)"/>
<path opacity="0.4" d="M45.646 121.587V112.257H59.5391L74.4585 103.646C76.762 102.318 80.2425 102.175 82.2375 103.323L97.7166 112.257H110.777V111.619H96.8339L81.3548 102.67C79.367 101.522 75.8794 101.665 73.583 102.993L58.6636 111.604H44.7561V120.934C44.7492 121.374 44.8721 121.807 45.1094 122.178C45.3468 122.55 45.6881 122.843 46.0909 123.022L46.2488 123.108C46.043 122.914 45.8824 122.677 45.7782 122.414C45.674 122.151 45.6289 121.869 45.646 121.587Z" fill="#D4088C"/>
<path opacity="0.4" d="M74.1788 129.882L46.1413 113.693C44.1463 112.545 44.3975 110.528 46.7011 109.2L73.619 93.664C75.9154 92.3292 79.4031 92.1857 81.3909 93.3411L109.428 109.523C111.423 110.679 111.172 112.688 108.869 114.016L81.9506 129.559C79.6183 130.887 76.1307 131.031 74.1788 129.882Z" fill="url(#paint28_linear)"/>
<path opacity="0.4" d="M109.393 109.523L81.3554 93.341C80.1475 92.7221 78.7889 92.4583 77.4372 92.5804C78.425 92.6169 79.3917 92.877 80.2646 93.341L108.295 109.523C110.29 110.679 110.039 112.688 107.742 114.016L80.8171 129.559C79.6334 130.206 78.318 130.574 76.9707 130.636C78.6871 130.747 80.4004 130.374 81.9151 129.559L108.833 114.016C111.137 112.688 111.388 110.679 109.393 109.523Z" fill="#6EE8FC"/>
<path opacity="0.4" d="M77.5734 126.021C76.6585 126.048 75.7519 125.841 74.9397 125.419L54.0857 113.37C53.7665 113.22 53.4935 112.987 53.2952 112.695C53.097 112.404 52.9809 112.064 52.959 111.712C53.0115 111.258 53.1814 110.825 53.4519 110.456C53.7224 110.088 54.0843 109.796 54.5019 109.609L74.5379 98.0414C76.3176 97.0152 79.023 96.9075 80.5731 97.7974L101.449 109.853C101.769 110.002 102.043 110.235 102.241 110.527C102.439 110.819 102.555 111.159 102.575 111.511C102.524 111.965 102.355 112.398 102.084 112.765C101.813 113.133 101.451 113.423 101.032 113.607L80.9964 125.182C79.9459 125.749 78.7674 126.039 77.5734 126.021ZM75.1837 124.995C76.619 125.813 79.0876 125.713 80.7309 124.758L100.774 113.183C101.117 113.039 101.417 112.809 101.645 112.515C101.873 112.22 102.02 111.872 102.073 111.504C102.05 111.236 101.956 110.979 101.801 110.76C101.646 110.541 101.435 110.366 101.19 110.255L80.3147 98.2064C78.8795 97.3883 76.4109 97.4888 74.7675 98.4504L54.7243 110.018C54.3803 110.163 54.0796 110.394 53.8519 110.69C53.6242 110.986 53.4772 111.335 53.4254 111.705C53.449 111.972 53.5432 112.227 53.6984 112.445C53.8535 112.664 54.064 112.836 54.3081 112.946L75.1837 124.995Z" fill="#480689"/>
<path opacity="0.4" d="M75.3995 129.882L47.362 113.693C45.367 112.544 45.6182 110.528 47.9218 109.2L74.8397 93.6639C76.0046 93.0219 77.3004 92.6538 78.6288 92.5874C76.8858 92.4588 75.1426 92.8323 73.6054 93.6639L46.6659 109.208C44.3624 110.535 44.1112 112.552 46.1062 113.7L74.1795 129.882C75.4092 130.505 76.7902 130.766 78.1623 130.636C77.1963 130.596 76.2519 130.338 75.3995 129.882Z" fill="#D4088C"/>
</g>
<g opacity="0.5">
<path opacity="0.5" d="M110.777 98.7521H96.8338L81.3547 89.832C79.3669 88.6767 75.8793 88.8202 73.5829 90.155L58.6635 98.7664H44.756V108.096C44.7505 108.535 44.8741 108.966 45.1113 109.336C45.3486 109.706 45.6891 109.998 46.0908 110.177L74.1785 126.359C76.1663 127.507 79.6539 127.364 81.9503 126.036L108.868 110.492C110.067 109.775 110.705 108.928 110.763 108.088L110.777 98.7521Z" fill="url(#paint29_linear)"/>
<path opacity="0.5" d="M45.6459 108.727V99.3979H59.539L74.4584 90.7865C76.762 89.4589 80.2424 89.3512 82.2374 90.4635L97.7165 99.4051H110.777V98.7592H96.8338L81.3547 89.832C79.3669 88.6767 75.8793 88.8202 73.5829 90.155L58.6635 98.7664H44.756V108.095C44.7505 108.535 44.8741 108.966 45.1113 109.336C45.3486 109.706 45.6891 109.998 46.0908 110.177L46.2487 110.27C46.0408 110.073 45.879 109.833 45.7748 109.566C45.6706 109.299 45.6266 109.013 45.6459 108.727Z" fill="#D4088C"/>
<path opacity="0.5" d="M74.1788 117.023L46.1413 100.833C44.1463 99.6849 44.3975 97.6755 46.7011 96.3479L73.619 80.8043C75.9154 79.4767 79.4031 79.369 81.3909 80.4813L109.428 96.6709C111.423 97.8191 111.172 99.8284 108.869 101.156L81.9506 116.7C79.6183 118.027 76.1307 118.171 74.1788 117.023Z" fill="url(#paint30_linear)"/>
<path opacity="0.5" d="M109.393 96.6709L81.3554 80.5029C80.1461 79.888 78.7887 79.6245 77.4372 79.7422C78.425 79.7788 79.3917 80.0388 80.2646 80.5029L108.295 96.6924C110.29 97.8406 110.039 99.85 107.742 101.178L80.8171 116.721C79.6339 117.37 78.3185 117.74 76.9707 117.805C78.6881 117.918 80.4023 117.542 81.9151 116.721L108.833 101.178C111.137 99.8284 111.388 97.8191 109.393 96.6709Z" fill="#6EE8FC"/>
<path opacity="0.5" d="M77.5734 113.169C76.6579 113.194 75.7512 112.984 74.9397 112.559L54.0857 100.51C53.7655 100.362 53.4917 100.129 53.2933 99.837C53.0949 99.5451 52.9794 99.2049 52.959 98.8525C53.0122 98.3985 53.1823 97.966 53.4528 97.5974C53.7232 97.2289 54.0847 96.9368 54.5019 96.7499L74.5379 85.1818C76.3176 84.1556 79.023 84.048 80.5731 84.945L101.449 97.0082C101.769 97.1568 102.043 97.3895 102.241 97.6814C102.439 97.9733 102.555 98.3136 102.575 98.6659C102.524 99.1198 102.355 99.5523 102.084 99.9201C101.813 100.288 101.451 100.578 101.032 100.761L80.9964 112.337C79.9452 112.902 78.7668 113.188 77.5734 113.169ZM77.925 84.8087C76.8224 84.7979 75.7354 85.0697 74.7675 85.598L54.7243 97.1661C54.3803 97.3105 54.0796 97.5419 53.8519 97.8375C53.6242 98.1332 53.4772 98.4829 53.4254 98.8525C53.449 99.1192 53.5432 99.3748 53.6984 99.593C53.8535 99.8112 54.064 99.9841 54.3081 100.094L75.1837 112.143C76.619 112.961 79.0876 112.86 80.7309 111.906L100.774 100.338C101.118 100.194 101.419 99.9622 101.647 99.6665C101.874 99.3709 102.021 99.0211 102.073 98.6516C102.05 98.3847 101.956 98.1287 101.801 97.9104C101.646 97.6921 101.435 97.5193 101.19 97.4101L80.3147 85.354C79.5772 84.9728 78.7549 84.7851 77.925 84.8087Z" fill="#480689"/>
<path opacity="0.5" d="M75.3994 117.023L47.362 100.833C45.367 99.6849 45.6181 97.6755 47.9217 96.3479L74.8397 80.8043C76.0059 80.1655 77.3009 79.7976 78.6287 79.7278C76.8858 79.5991 75.1425 79.9727 73.6054 80.8043L46.6874 96.3479C44.3838 97.6755 44.1327 99.6849 46.1277 100.833L74.1795 117.023C75.4092 117.645 76.7901 117.906 78.1623 117.776C77.1963 117.736 76.2518 117.479 75.3994 117.023Z" fill="#D4088C"/>
</g>
<g opacity="0.7">
<path opacity="0.7" d="M110.777 85.8922H96.8338L81.3547 76.9578C79.3669 75.8096 75.8793 75.9531 73.5829 77.2807L58.6635 85.8922H44.756V95.2213C44.7505 95.6607 44.8741 96.0921 45.1113 96.462C45.3486 96.8319 45.6891 97.1241 46.0908 97.3024L74.1785 113.513C76.1663 114.662 79.6539 114.518 81.9503 113.19L108.868 97.6468C110.067 96.9292 110.705 96.0824 110.763 95.2428L110.777 85.8922Z" fill="url(#paint31_linear)"/>
<path opacity="0.7" d="M45.6459 95.8743V86.5452H59.539L74.4584 77.9338C76.762 76.599 80.2424 76.4555 82.2374 77.6108L97.7165 86.5452H110.777V85.8994H96.8338L81.3547 76.9578C79.3669 75.8096 75.8793 75.9531 73.5829 77.2807L58.6635 85.8922H44.756V95.2213C44.7505 95.6607 44.8741 96.0921 45.1113 96.462C45.3486 96.8319 45.6891 97.1241 46.0908 97.3024L46.2487 97.3957C46.0433 97.2014 45.8829 96.9646 45.7788 96.7017C45.6747 96.4389 45.6293 96.1565 45.6459 95.8743Z" fill="#D4088C"/>
<path opacity="0.7" d="M74.1788 104.184L46.1413 88.002C44.1463 86.8466 44.3975 84.8373 46.7011 83.5097L73.619 67.966C75.9154 66.6384 79.4031 66.4949 81.3909 67.6431L109.428 83.8326C111.423 84.9808 111.172 86.9902 108.869 88.3249L81.9506 103.861C79.6183 105.168 76.1307 105.318 74.1788 104.184Z" fill="url(#paint32_linear)"/>
<path opacity="0.7" d="M109.393 83.8111L81.3554 67.6216C80.1468 67.0051 78.7882 66.7438 77.4372 66.8681C78.4249 66.8996 79.3922 67.1574 80.2646 67.6216L108.295 83.8111C110.29 84.9593 110.039 86.9686 107.742 88.3034L80.8171 103.84C79.6353 104.492 78.3191 104.863 76.9707 104.924C78.6881 105.036 80.4023 104.661 81.9151 103.84L108.833 88.3034C111.137 86.9615 111.388 84.9593 109.393 83.8111Z" fill="#6EE8FC"/>
<path opacity="0.7" d="M77.5734 100.309C76.6588 100.333 75.7528 100.126 74.9397 99.7064L54.0857 87.679C53.7655 87.5304 53.4917 87.2977 53.2933 87.0058C53.0949 86.7139 52.9794 86.3737 52.959 86.0213C53.0113 85.5679 53.1812 85.136 53.4518 84.7684C53.7224 84.4009 54.0844 84.1104 54.5019 83.9259L74.5379 72.3506C76.3176 71.3244 79.023 71.2168 80.5731 72.1138L101.449 84.134C101.769 84.2826 102.043 84.5153 102.241 84.8072C102.439 85.0991 102.555 85.4393 102.575 85.7917C102.524 86.2464 102.355 86.6798 102.084 87.0487C101.813 87.4176 101.451 87.7091 101.032 87.8943L80.9964 99.4624C79.9466 100.033 78.768 100.324 77.5734 100.309ZM77.925 71.9488C76.8224 71.938 75.7354 72.2098 74.7675 72.7382L54.7243 84.3062C54.3803 84.4506 54.0796 84.682 53.8519 84.9776C53.6242 85.2733 53.4772 85.6231 53.4254 85.9926C53.4483 86.2595 53.5422 86.5154 53.6974 86.7338C53.8527 86.9521 54.0635 87.1249 54.3081 87.2341L75.1837 99.2901C76.619 100.108 79.0876 100.008 80.7309 99.0461L100.774 87.4781C101.118 87.3337 101.419 87.1023 101.647 86.8067C101.874 86.511 102.021 86.1612 102.073 85.7917C102.049 85.525 101.955 85.2694 101.8 85.0512C101.645 84.833 101.434 84.6601 101.19 84.5502L80.3147 72.5013C79.5791 72.1143 78.7559 71.9239 77.925 71.9488Z" fill="#480689"/>
<path opacity="0.7" d="M75.3994 104.184L47.362 88.002C45.367 86.8466 45.6181 84.8373 47.9217 83.5097L74.8397 67.966C76.0059 67.3273 77.3009 66.9594 78.6287 66.8896C76.8858 66.7609 75.1425 67.1344 73.6054 67.966L46.6874 83.5097C44.3838 84.8373 44.1327 86.8466 46.1277 88.002L74.1795 104.184C75.4127 104.795 76.7935 105.043 78.1623 104.902C77.1991 104.873 76.2548 104.628 75.3994 104.184Z" fill="#D4088C"/>
</g>
<path d="M110.777 73.0323H96.8339L81.3548 64.0979C79.367 62.9497 75.8794 63.0933 73.583 64.4209L58.6636 73.0323H44.7561V82.3614C44.7492 82.802 44.8721 83.235 45.1094 83.6063C45.3468 83.9776 45.6881 84.2709 46.0909 84.4497L74.1786 100.639C76.1664 101.795 79.654 101.644 81.9504 100.316L108.833 84.8085C110.031 84.0909 110.67 83.2441 110.727 82.3973L110.777 73.0323Z" fill="url(#paint33_linear)"/>
<path d="M45.646 83.0144V73.6854H59.5391L74.4585 65.0739C76.762 63.7463 80.2425 63.6028 82.2375 64.751L97.7166 73.6854H110.777V73.0395H96.8339L81.3548 64.0979C79.367 62.9497 75.8794 63.0933 73.583 64.4209L58.6636 73.0323H44.7561V82.3614C44.7492 82.802 44.8721 83.235 45.1094 83.6063C45.3468 83.9776 45.6881 84.2709 46.0909 84.4497L46.2488 84.5358C46.043 84.3418 45.8824 84.105 45.7782 83.8421C45.674 83.5793 45.6289 83.2967 45.646 83.0144Z" fill="#D4088C"/>
<path d="M74.1795 91.3039L46.1062 75.1216C44.1112 73.9662 44.3624 71.9569 46.6659 70.6293L73.5839 55.0856C75.8803 53.758 79.3679 53.6145 81.3557 54.7698L109.393 70.9522C111.388 72.1076 111.137 74.1169 108.833 75.4445L81.9155 90.9882C79.6191 92.3158 76.1314 92.4593 74.1795 91.3039Z" fill="#502FAC"/>
<path d="M75.3994 91.303L47.362 75.1207C45.367 73.9653 45.6181 71.956 47.9217 70.6284L74.8397 55.0847C76.0072 54.4491 77.3015 54.0814 78.6287 54.0082C76.8861 53.8832 75.1438 54.2565 73.6054 55.0847L46.6874 70.6284C44.3838 71.956 44.1327 73.9653 46.1277 75.1207L74.1795 91.303C75.4073 91.9315 76.7893 92.1954 78.1623 92.0637C77.1957 92.0217 76.2512 91.7617 75.3994 91.303Z" fill="#25BFEC"/>
<path d="M82.7189 96.5058L106.472 82.7848C106.587 82.7024 106.681 82.595 106.749 82.4706C106.816 82.3463 106.854 82.2084 106.86 82.0672V80.9406C106.86 80.6535 106.687 80.5172 106.472 80.6463L82.7189 94.3314C82.6043 94.4146 82.5096 94.522 82.4413 94.6461C82.3731 94.7701 82.3331 94.9077 82.3242 95.049V96.1685C82.3242 96.4986 82.5036 96.6278 82.7189 96.5058Z" fill="#9495C0"/>
<path d="M105.912 82.4906C106.033 82.4053 106.132 82.2925 106.201 82.1615C106.269 82.0305 106.306 81.885 106.307 81.7371V80.6894L106.436 80.6176C106.652 80.4885 106.824 80.6176 106.824 80.9119V82.0385C106.818 82.1797 106.78 82.3176 106.713 82.4419C106.645 82.5662 106.551 82.6737 106.436 82.7561L82.7189 96.5058C82.5036 96.6278 82.3242 96.5058 82.3242 96.2044V96.1326L105.912 82.4906Z" fill="#267FE5"/>
<path d="M72.9506 96.5058L49.2332 82.7848C49.1185 82.7024 49.024 82.595 48.9569 82.4706C48.8898 82.3463 48.8517 82.2084 48.8457 82.0672V80.9406C48.8457 80.6535 49.0179 80.5172 49.2332 80.6463L72.9506 94.3601C73.0652 94.4433 73.1599 94.5507 73.2282 94.6748C73.2964 94.7988 73.3364 94.9364 73.3453 95.0777V96.1972C73.3453 96.4986 73.1659 96.6278 72.9506 96.5058Z" fill="#9495C0"/>
<path d="M49.7786 82.4906C49.659 82.4041 49.5611 82.291 49.4926 82.1603C49.4241 82.0295 49.3869 81.8847 49.3839 81.7371V80.6894L49.2547 80.6176C49.0394 80.4885 48.8672 80.6176 48.8672 80.9119V82.0385C48.8732 82.1797 48.9112 82.3176 48.9784 82.4419C49.0455 82.5662 49.14 82.6737 49.2547 82.7561L72.9721 96.4771C73.1874 96.599 73.3668 96.4771 73.3668 96.1757V96.1039L49.7786 82.4906Z" fill="#267FE5"/>
<path d="M74.4005 37.3236L46.363 21.1341C44.3752 19.9859 44.6192 17.9694 46.9228 16.6418L73.8407 1.10528C76.1443 -0.229496 79.6248 -0.373018 81.6197 0.782352L109.657 16.9647C111.652 18.1201 111.401 20.1294 109.097 21.457L82.1795 37.0007C79.8759 38.3283 76.3955 38.4718 74.4005 37.3236Z" fill="#502FAC"/>
<path opacity="0.23" d="M75.6125 31.3602L56.7247 20.4524C55.3755 19.6773 55.5478 18.2995 57.0978 17.4312L75.2393 6.95391C76.0348 6.51069 76.9231 6.26032 77.833 6.22293C78.7428 6.18554 79.6488 6.36217 80.4779 6.73862L99.3729 17.6465C100.715 18.4215 100.55 19.7993 98.9925 20.6748L80.8583 31.1449C80.0615 31.5882 79.1719 31.8386 78.2609 31.876C77.3499 31.9134 76.4429 31.7367 75.6125 31.3602Z" fill="url(#paint34_linear)"/>
<path d="M119.387 65.4686L91.3998 49.2791C89.4048 48.1309 89.656 46.1144 91.9524 44.7868L118.87 29.2503C121.174 27.9155 124.654 27.772 126.649 28.9274L154.687 45.1097C156.682 46.2651 156.431 48.2744 154.127 49.602L127.188 65.1457C124.884 66.4733 121.404 66.6168 119.387 65.4686Z" fill="#502FAC"/>
<path d="M29.1326 63.158L1.09512 46.9756C-0.899863 45.8203 -0.648704 43.8109 1.64768 42.4833L28.5728 26.9397C30.8692 25.6121 34.3569 25.4685 36.3447 26.6167L64.3821 42.8063C66.3771 43.9545 66.126 45.971 63.8224 47.2986L36.9044 62.8351C34.608 64.1699 31.1204 64.3134 29.1326 63.158Z" fill="#502FAC"/>
<path opacity="0.3" d="M31.1864 55.2168L14.516 45.5863C13.332 44.9045 13.4755 43.7061 14.8462 42.9167L30.8563 33.6738C31.5593 33.2829 32.344 33.0618 33.1476 33.0282C33.9513 32.9946 34.7517 33.1493 35.4849 33.48L52.1553 43.1105C53.3393 43.7922 53.1958 44.9906 51.8252 45.78L35.815 55.023C35.112 55.4138 34.3273 55.6349 33.5237 55.6686C32.72 55.7022 31.9196 55.5475 31.1864 55.2168Z" fill="#454658"/>
<path opacity="0.3" d="M75.6122 83.9044L58.9418 74.2739C57.7577 73.5922 57.9013 72.3937 59.2719 71.6044L75.2821 62.3614C75.9851 61.9705 76.7698 61.7495 77.5734 61.7158C78.3771 61.6822 79.1775 61.8369 79.9107 62.1676L96.5811 71.7981C97.7651 72.4798 97.6216 73.6783 96.2509 74.4677L80.2408 83.7106C79.5378 84.1015 78.7531 84.3225 77.9495 84.3562C77.1458 84.3898 76.3454 84.2351 75.6122 83.9044Z" fill="#454658"/>
<path d="M123.06 35.637L121.732 34.8692L123.06 34.1013L124.395 34.8692L123.06 35.637Z" fill="#6DE0F6"/>
<path opacity="0.1" d="M125.722 37.18L124.395 36.4121L125.722 35.6371L127.057 36.4121L125.722 37.18Z" fill="#6DE0F6"/>
<path opacity="0.4" d="M128.384 38.7158L127.057 37.9479L128.384 37.1801L129.719 37.9479L128.384 38.7158Z" fill="#6DE0F6"/>
<path d="M131.046 40.2514L129.719 39.4836L131.046 38.7157L132.381 39.4836L131.046 40.2514Z" fill="#6DE0F6"/>
<path opacity="0.4" d="M133.71 41.7871L132.383 41.0192L133.71 40.2513L135.045 41.0192L133.71 41.7871Z" fill="#6DE0F6"/>
<path d="M136.373 43.3228L135.045 42.555L136.373 41.7871L137.707 42.555L136.373 43.3228Z" fill="#6DE0F6"/>
<path d="M139.035 44.8656L137.707 44.0978L139.035 43.3228L140.369 44.0978L139.035 44.8656Z" fill="#6DE0F6"/>
<path d="M141.697 46.4014L140.369 45.6336L141.697 44.8657L143.032 45.6336L141.697 46.4014Z" fill="#6DE0F6"/>
<path opacity="0.1" d="M144.359 47.9371L143.031 47.1692L144.359 46.4014L145.694 47.1692L144.359 47.9371Z" fill="#6DE0F6"/>
<path d="M120.391 37.18L119.057 36.4121L120.391 35.6443L121.719 36.4121L120.391 37.18Z" fill="#6DE0F6"/>
<path d="M123.054 38.7229L121.719 37.9551L123.054 37.1801L124.381 37.9551L123.054 38.7229Z" fill="#6DE0F6"/>
<path d="M125.716 40.2586L124.381 39.4908L125.716 38.7229L127.043 39.4908L125.716 40.2586Z" fill="#6DE0F6"/>
<path d="M128.378 41.7944L127.043 41.0265L128.378 40.2587L129.705 41.0265L128.378 41.7944Z" fill="#6DE0F6"/>
<path d="M131.042 43.3299L129.707 42.562L131.042 41.7942L132.369 42.562L131.042 43.3299Z" fill="#6DE0F6"/>
<path d="M133.704 44.8657L132.369 44.0978L133.704 43.33L135.032 44.0978L133.704 44.8657Z" fill="#6DE0F6"/>
<path d="M136.366 46.4086L135.031 45.6336L136.366 44.8657L137.694 45.6336L136.366 46.4086Z" fill="#6DE0F6"/>
<path d="M139.028 47.9443L137.693 47.1764L139.028 46.4086L140.356 47.1764L139.028 47.9443Z" fill="#6DE0F6"/>
<path d="M141.69 49.48L140.355 48.7122L141.69 47.9443L143.018 48.7122L141.69 49.48Z" fill="#6DE0F6"/>
<path d="M117.714 38.73L116.387 37.9622L117.714 37.1871L119.049 37.9622L117.714 38.73Z" fill="#6DE0F6"/>
<path d="M120.376 40.2658L119.049 39.498L120.376 38.7301L121.711 39.498L120.376 40.2658Z" fill="#6DE0F6"/>
<path d="M123.039 41.8015L121.711 41.0336L123.039 40.2657L124.373 41.0336L123.039 41.8015Z" fill="#6DE0F6"/>
<path opacity="0.1" d="M125.701 43.3372L124.373 42.5694L125.701 41.8015L127.035 42.5694L125.701 43.3372Z" fill="#6DE0F6"/>
<path opacity="0.4" d="M128.365 44.8729L127.037 44.105L128.365 43.3372L129.699 44.105L128.365 44.8729Z" fill="#6DE0F6"/>
<path opacity="0.4" d="M131.027 46.4086L129.699 45.6408L131.027 44.8729L132.362 45.6408L131.027 46.4086Z" fill="#6DE0F6"/>
<path d="M133.689 47.9515L132.361 47.1836L133.689 46.4086L135.024 47.1836L133.689 47.9515Z" fill="#6DE0F6"/>
<path d="M136.351 49.4872L135.023 48.7194L136.351 47.9515L137.686 48.7194L136.351 49.4872Z" fill="#6DE0F6"/>
<path d="M139.013 51.0229L137.686 50.255L139.013 49.4872L140.348 50.255L139.013 51.0229Z" fill="#6DE0F6"/>
<path opacity="0.4" d="M115.044 40.2729L113.709 39.505L115.044 38.73L116.371 39.505L115.044 40.2729Z" fill="#6DE0F6"/>
<path opacity="0.4" d="M117.706 41.8087L116.371 41.0408L117.706 40.2729L119.033 41.0408L117.706 41.8087Z" fill="#6DE0F6"/>
<path opacity="0.1" d="M120.368 43.3443L119.033 42.5765L120.368 41.8086L121.696 42.5765L120.368 43.3443Z" fill="#6DE0F6"/>
<path d="M123.03 44.8801L121.695 44.1122L123.03 43.3444L124.358 44.1122L123.03 44.8801Z" fill="#6DE0F6"/>
<path d="M125.694 46.4157L124.359 45.6479L125.694 44.88L127.022 45.6479L125.694 46.4157Z" fill="#6DE0F6"/>
<path d="M128.356 47.9585L127.021 47.1835L128.356 46.4156L129.684 47.1835L128.356 47.9585Z" fill="#6DE0F6"/>
<path opacity="0.4" d="M131.018 49.4943L129.684 48.7265L131.018 47.9586L132.346 48.7265L131.018 49.4943Z" fill="#6DE0F6"/>
<path d="M133.68 51.03L132.346 50.2621L133.68 49.4943L135.008 50.2621L133.68 51.03Z" fill="#6DE0F6"/>
<path d="M136.343 52.5657L135.008 51.7979L136.343 51.03L137.67 51.7979L136.343 52.5657Z" fill="#6DE0F6"/>
<path d="M112.369 41.8157L111.041 41.0479L112.369 40.28L113.703 41.0479L112.369 41.8157Z" fill="#6DE0F6"/>
<path d="M115.031 43.3515L113.703 42.5837L115.031 41.8158L116.365 42.5837L115.031 43.3515Z" fill="#6DE0F6"/>
<path d="M117.693 44.8873L116.365 44.1194L117.693 43.3516L119.028 44.1194L117.693 44.8873Z" fill="#6DE0F6"/>
<path d="M120.355 46.4229L119.027 45.6551L120.355 44.8872L121.69 45.6551L120.355 46.4229Z" fill="#6DE0F6"/>
<path d="M123.019 47.9587L121.691 47.1908L123.019 46.423L124.354 47.1908L123.019 47.9587Z" fill="#6DE0F6"/>
<path d="M125.681 49.5015L124.354 48.7337L125.681 47.9586L127.016 48.7337L125.681 49.5015Z" fill="#6DE0F6"/>
<path d="M128.343 51.0372L127.016 50.2693L128.343 49.5015L129.678 50.2693L128.343 51.0372Z" fill="#6DE0F6"/>
<path d="M131.005 52.5729L129.678 51.8051L131.005 51.0372L132.34 51.8051L131.005 52.5729Z" fill="#6DE0F6"/>
<path d="M133.667 54.1086L132.34 53.3407L133.667 52.5729L135.002 53.3407L133.667 54.1086Z" fill="#6DE0F6"/>
<path d="M109.698 43.3587L108.363 42.5908L109.698 41.8158L111.026 42.5908L109.698 43.3587Z" fill="#6DE0F6"/>
<path d="M112.36 44.8944L111.025 44.1265L112.36 43.3586L113.688 44.1265L112.36 44.8944Z" fill="#6DE0F6"/>
<path opacity="0.4" d="M115.022 46.4301L113.688 45.6623L115.022 44.8944L116.35 45.6623L115.022 46.4301Z" fill="#6DE0F6"/>
<path d="M117.684 47.9659L116.35 47.198L117.684 46.4302L119.012 47.198L117.684 47.9659Z" fill="#6DE0F6"/>
<path opacity="0.1" d="M120.348 49.5015L119.014 48.7337L120.348 47.9658L121.676 48.7337L120.348 49.5015Z" fill="#6DE0F6"/>
<path d="M123.011 51.0443L121.676 50.2765L123.011 49.5015L124.338 50.2765L123.011 51.0443Z" fill="#6DE0F6"/>
<path d="M125.673 52.5801L124.338 51.8123L125.673 51.0444L127 51.8123L125.673 52.5801Z" fill="#6DE0F6"/>
<path d="M128.335 54.1158L127 53.3479L128.335 52.5801L129.662 53.3479L128.335 54.1158Z" fill="#6DE0F6"/>
<path d="M130.997 55.6516L129.662 54.8837L130.997 54.1158L132.324 54.8837L130.997 55.6516Z" fill="#6DE0F6"/>
<path d="M107.021 44.9016L105.693 44.1337L107.021 43.3658L108.356 44.1337L107.021 44.9016Z" fill="#6DE0F6"/>
<path d="M109.683 46.4373L108.355 45.6695L109.683 44.9016L111.018 45.6695L109.683 46.4373Z" fill="#6DE0F6"/>
<path opacity="0.4" d="M112.345 47.9731L111.018 47.2052L112.345 46.4374L113.68 47.2052L112.345 47.9731Z" fill="#6DE0F6"/>
<path d="M115.007 49.5087L113.68 48.7409L115.007 47.973L116.342 48.7409L115.007 49.5087Z" fill="#6DE0F6"/>
<path d="M117.671 51.0516L116.344 50.2765L117.671 49.5087L119.006 50.2765L117.671 51.0516Z" fill="#6DE0F6"/>
<path opacity="0.1" d="M120.333 52.5873L119.006 51.8195L120.333 51.0516L121.668 51.8195L120.333 52.5873Z" fill="#6DE0F6"/>
<path opacity="0.4" d="M122.996 54.123L121.668 53.3551L122.996 52.5873L124.33 53.3551L122.996 54.123Z" fill="#6DE0F6"/>
<path d="M125.658 55.6588L124.33 54.8909L125.658 54.123L126.992 54.8909L125.658 55.6588Z" fill="#6DE0F6"/>
<path opacity="0.1" d="M128.32 57.1944L126.992 56.4265L128.32 55.6587L129.655 56.4265L128.32 57.1944Z" fill="#6DE0F6"/>
<path d="M104.352 46.4445L103.018 45.6767L104.352 44.9088L105.68 45.6767L104.352 46.4445Z" fill="#6DE0F6"/>
<path opacity="0.4" d="M107.014 47.9802L105.68 47.2123L107.014 46.4445L108.342 47.2123L107.014 47.9802Z" fill="#6DE0F6"/>
<path d="M109.677 49.5159L108.342 48.7481L109.677 47.9802L111.004 48.7481L109.677 49.5159Z" fill="#6DE0F6"/>
<path d="M112.339 51.0517L111.004 50.2838L112.339 49.516L113.666 50.2838L112.339 51.0517Z" fill="#6DE0F6"/>
<path d="M115.003 52.5945L113.668 51.8267L115.003 51.0516L116.33 51.8267L115.003 52.5945Z" fill="#6DE0F6"/>
<path d="M117.665 54.1302L116.33 53.3623L117.665 52.5945L118.992 53.3623L117.665 54.1302Z" fill="#6DE0F6"/>
<path d="M120.327 55.666L118.992 54.8981L120.327 54.1302L121.655 54.8981L120.327 55.666Z" fill="#6DE0F6"/>
<path opacity="0.4" d="M122.989 57.2016L121.654 56.4337L122.989 55.6659L124.317 56.4337L122.989 57.2016Z" fill="#6DE0F6"/>
<path d="M125.651 58.7374L124.316 57.9695L125.651 57.2017L126.979 57.9695L125.651 58.7374Z" fill="#6DE0F6"/>
<path d="M101.675 47.9874L100.348 47.2195L101.675 46.4517L103.01 47.2195L101.675 47.9874Z" fill="#6DE0F6"/>
<path opacity="0.1" d="M104.337 49.523L103.01 48.7552L104.337 47.9873L105.672 48.7552L104.337 49.523Z" fill="#6DE0F6"/>
<path d="M106.999 51.0588L105.672 50.2909L106.999 49.5231L108.334 50.2909L106.999 51.0588Z" fill="#6DE0F6"/>
<path d="M109.662 52.5944L108.334 51.8266L109.662 51.0587L110.996 51.8266L109.662 52.5944Z" fill="#6DE0F6"/>
<path d="M112.326 54.1374L110.998 53.3623L112.326 52.5945L113.66 53.3623L112.326 54.1374Z" fill="#6DE0F6"/>
<path d="M114.988 55.673L113.66 54.9052L114.988 54.1373L116.323 54.9052L114.988 55.673Z" fill="#6DE0F6"/>
<path opacity="0.4" d="M117.65 57.2087L116.322 56.4408L117.65 55.673L118.985 56.4408L117.65 57.2087Z" fill="#6DE0F6"/>
<path d="M120.312 58.7444L118.984 57.9766L120.312 57.2087L121.647 57.9766L120.312 58.7444Z" fill="#6DE0F6"/>
<path d="M122.974 60.2802L121.646 59.5124L122.974 58.7445L124.309 59.5124L122.974 60.2802Z" fill="#6DE0F6"/>
<path d="M122.845 61.658C121.943 61.6848 121.048 61.4797 120.247 61.0624L99.0992 48.8628C98.7995 48.7233 98.5428 48.5059 98.356 48.2332C98.1691 47.9605 98.059 47.6426 98.0371 47.3127C98.0883 46.8784 98.2524 46.465 98.513 46.1137C98.7736 45.7624 99.1217 45.4855 99.5226 45.3106L119.824 33.5846C121.589 32.5728 124.259 32.458 125.795 33.3407L146.936 45.5402C147.238 45.6793 147.497 45.8974 147.685 46.1716C147.873 46.4457 147.984 46.7656 148.005 47.0975C147.952 47.5303 147.787 47.9419 147.527 48.2917C147.266 48.6415 146.919 48.9175 146.52 49.0924L126.211 60.8184C125.178 61.3784 124.02 61.6672 122.845 61.658ZM123.197 32.9531C122.054 32.9437 120.928 33.2252 119.925 33.7712L99.623 45.4972C99.2523 45.6553 98.929 45.9072 98.6849 46.228C98.4409 46.5488 98.2844 46.9276 98.2309 47.3271C98.254 47.6234 98.3561 47.9081 98.5264 48.1517C98.6968 48.3952 98.9292 48.5887 99.1997 48.7121L120.348 60.9117C121.819 61.7656 124.41 61.6293 126.089 60.6677L146.419 48.9274C146.788 48.7676 147.11 48.5152 147.352 48.1946C147.595 47.8739 147.751 47.496 147.804 47.0975C147.783 46.8006 147.682 46.5149 147.513 46.2701C147.344 46.0253 147.113 45.8302 146.843 45.7053L125.694 33.5057C124.925 33.1013 124.065 32.9012 123.197 32.9244V32.9531Z" fill="#480689"/>
</g>
<defs>
<linearGradient id="paint0_linear" x1="38.7842" y1="66.9539" x2="119.165" y2="66.9539" gradientUnits="userSpaceOnUse">
<stop stop-color="#A31FA9"/>
<stop offset="0.07" stop-color="#8B17A0"/>
<stop offset="0.15" stop-color="#740F98"/>
<stop offset="0.24" stop-color="#640A92"/>
<stop offset="0.34" stop-color="#5B078F"/>
<stop offset="0.48" stop-color="#58068E"/>
<stop offset="0.63" stop-color="#4D22A3"/>
<stop offset="0.94" stop-color="#3168DA"/>
<stop offset="1" stop-color="#2C75E4"/>
</linearGradient>
<linearGradient id="paint1_linear" x1="46.0729" y1="59.0334" x2="108.199" y2="74.1552" gradientUnits="userSpaceOnUse">
<stop stop-color="#8D139B"/>
<stop offset="0.17" stop-color="#851BA1"/>
<stop offset="0.43" stop-color="#6E33B2"/>
<stop offset="0.76" stop-color="#4958CD"/>
<stop offset="1" stop-color="#2979E4"/>
</linearGradient>
<linearGradient id="paint2_linear" x1="16188.6" y1="7279.65" x2="23578.8" y2="7279.65" gradientUnits="userSpaceOnUse">
<stop stop-color="#A31FA9"/>
<stop offset="0.07" stop-color="#8B17A0"/>
<stop offset="0.15" stop-color="#740F98"/>
<stop offset="0.24" stop-color="#640A92"/>
<stop offset="0.34" stop-color="#5B078F"/>
<stop offset="0.48" stop-color="#58068E"/>
<stop offset="0.63" stop-color="#4D22A3"/>
<stop offset="0.94" stop-color="#3168DA"/>
<stop offset="1" stop-color="#2C75E4"/>
</linearGradient>
<linearGradient id="paint3_linear" x1="35571.5" y1="28161.7" x2="37448.6" y2="25345.8" gradientUnits="userSpaceOnUse">
<stop stop-color="#8D139B"/>
<stop offset="0.17" stop-color="#851BA1"/>
<stop offset="0.43" stop-color="#6E33B2"/>
<stop offset="0.76" stop-color="#4958CD"/>
<stop offset="1" stop-color="#2979E4"/>
</linearGradient>
<linearGradient id="paint4_linear" x1="16188.6" y1="6583.77" x2="23578.8" y2="6583.77" gradientUnits="userSpaceOnUse">
<stop stop-color="#A31FA9"/>
<stop offset="0.07" stop-color="#8B17A0"/>
<stop offset="0.15" stop-color="#740F98"/>
<stop offset="0.24" stop-color="#640A92"/>
<stop offset="0.34" stop-color="#5B078F"/>
<stop offset="0.48" stop-color="#58068E"/>
<stop offset="0.63" stop-color="#4D22A3"/>
<stop offset="0.94" stop-color="#3168DA"/>
<stop offset="1" stop-color="#2C75E4"/>
</linearGradient>
<linearGradient id="paint5_linear" x1="34389.1" y1="27561.9" x2="36266.6" y2="24745.8" gradientUnits="userSpaceOnUse">
<stop stop-color="#8D139B"/>
<stop offset="0.17" stop-color="#851BA1"/>
<stop offset="0.43" stop-color="#6E33B2"/>
<stop offset="0.76" stop-color="#4958CD"/>
<stop offset="1" stop-color="#2979E4"/>
</linearGradient>
<linearGradient id="paint6_linear" x1="20326.7" y1="7383.14" x2="27717" y2="7383.14" gradientUnits="userSpaceOnUse">
<stop stop-color="#5619A4"/>
<stop offset="0.07" stop-color="#8B17A0"/>
<stop offset="0.15" stop-color="#740F98"/>
<stop offset="0.24" stop-color="#640A92"/>
<stop offset="0.34" stop-color="#5B078F"/>
<stop offset="0.48" stop-color="#58068E"/>
<stop offset="0.63" stop-color="#4D22A3"/>
<stop offset="0.94" stop-color="#3168DA"/>
<stop offset="1" stop-color="#2C75E4"/>
</linearGradient>
<linearGradient id="paint7_linear" x1="45.9204" y1="20.3724" x2="108.047" y2="35.4943" gradientUnits="userSpaceOnUse">
<stop stop-color="#267FE5"/>
<stop offset="0.17" stop-color="#2C87E7"/>
<stop offset="0.44" stop-color="#3D9FEB"/>
<stop offset="0.78" stop-color="#59C4F2"/>
<stop offset="1" stop-color="#6EE1F8"/>
</linearGradient>
<linearGradient id="paint8_linear" x1="53.207" y1="19.0529" x2="102.809" y2="19.0529" gradientUnits="userSpaceOnUse">
<stop stop-color="#6DE0F6"/>
<stop offset="0.16" stop-color="#68D8F5"/>
<stop offset="0.41" stop-color="#5AC0F1"/>
<stop offset="0.73" stop-color="#439BEA"/>
<stop offset="1" stop-color="#2C75E4"/>
</linearGradient>
<linearGradient id="paint9_linear" x1="20362.9" y1="9499.5" x2="27749.9" y2="9499.5" gradientUnits="userSpaceOnUse">
<stop stop-color="#A31FA9"/>
<stop offset="0.07" stop-color="#8B17A0"/>
<stop offset="0.15" stop-color="#740F98"/>
<stop offset="0.24" stop-color="#640A92"/>
<stop offset="0.34" stop-color="#5B078F"/>
<stop offset="0.48" stop-color="#58068E"/>
<stop offset="0.63" stop-color="#4D22A3"/>
<stop offset="0.94" stop-color="#3168DA"/>
<stop offset="1" stop-color="#2C75E4"/>
</linearGradient>
<linearGradient id="paint10_linear" x1="41773.9" y1="28895.2" x2="43651.3" y2="26079.2" gradientUnits="userSpaceOnUse">
<stop stop-color="#8D139B"/>
<stop offset="0.17" stop-color="#851BA1"/>
<stop offset="0.43" stop-color="#6E33B2"/>
<stop offset="0.76" stop-color="#4958CD"/>
<stop offset="1" stop-color="#2979E4"/>
</linearGradient>
<linearGradient id="paint11_linear" x1="20362.9" y1="8798.32" x2="27749.9" y2="8798.32" gradientUnits="userSpaceOnUse">
<stop stop-color="#A31FA9"/>
<stop offset="0.07" stop-color="#8B17A0"/>
<stop offset="0.15" stop-color="#740F98"/>
<stop offset="0.24" stop-color="#640A92"/>
<stop offset="0.34" stop-color="#5B078F"/>
<stop offset="0.48" stop-color="#58068E"/>
<stop offset="0.63" stop-color="#4D22A3"/>
<stop offset="0.94" stop-color="#3168DA"/>
<stop offset="1" stop-color="#2C75E4"/>
</linearGradient>
<linearGradient id="paint12_linear" x1="40591.5" y1="28278.5" x2="42467.7" y2="25463.1" gradientUnits="userSpaceOnUse">
<stop stop-color="#8D139B"/>
<stop offset="0.17" stop-color="#851BA1"/>
<stop offset="0.43" stop-color="#6E33B2"/>
<stop offset="0.76" stop-color="#4958CD"/>
<stop offset="1" stop-color="#2979E4"/>
</linearGradient>
<linearGradient id="paint13_linear" x1="20362.9" y1="8111.66" x2="27749.9" y2="8111.66" gradientUnits="userSpaceOnUse">
<stop stop-color="#A31FA9"/>
<stop offset="0.07" stop-color="#8B17A0"/>
<stop offset="0.15" stop-color="#740F98"/>
<stop offset="0.24" stop-color="#640A92"/>
<stop offset="0.34" stop-color="#5B078F"/>
<stop offset="0.48" stop-color="#58068E"/>
<stop offset="0.63" stop-color="#4D22A3"/>
<stop offset="0.94" stop-color="#3168DA"/>
<stop offset="1" stop-color="#2C75E4"/>
</linearGradient>
<linearGradient id="paint14_linear" x1="39409.1" y1="27692.6" x2="41287" y2="24876.4" gradientUnits="userSpaceOnUse">
<stop stop-color="#8D139B"/>
<stop offset="0.17" stop-color="#851BA1"/>
<stop offset="0.43" stop-color="#6E33B2"/>
<stop offset="0.76" stop-color="#4958CD"/>
<stop offset="1" stop-color="#2979E4"/>
</linearGradient>
<linearGradient id="paint15_linear" x1="20367.3" y1="7412.67" x2="27755.9" y2="7412.67" gradientUnits="userSpaceOnUse">
<stop stop-color="#5619A4"/>
<stop offset="0.07" stop-color="#8B17A0"/>
<stop offset="0.15" stop-color="#740F98"/>
<stop offset="0.24" stop-color="#640A92"/>
<stop offset="0.34" stop-color="#5B078F"/>
<stop offset="0.48" stop-color="#58068E"/>
<stop offset="0.63" stop-color="#4D22A3"/>
<stop offset="0.94" stop-color="#3168DA"/>
<stop offset="1" stop-color="#2C75E4"/>
</linearGradient>
<linearGradient id="paint16_linear" x1="38227.4" y1="27085.4" x2="40105" y2="24269.4" gradientUnits="userSpaceOnUse">
<stop stop-color="#267FE5"/>
<stop offset="0.17" stop-color="#2C87E7"/>
<stop offset="0.44" stop-color="#3D9FEB"/>
<stop offset="0.78" stop-color="#59C4F2"/>
<stop offset="1" stop-color="#6EE1F8"/>
</linearGradient>
<linearGradient id="paint17_linear" x1="16342.9" y1="5244.18" x2="19771.4" y2="5244.18" gradientUnits="userSpaceOnUse">
<stop stop-color="#6DE0F6"/>
<stop offset="0.16" stop-color="#68D8F5"/>
<stop offset="0.41" stop-color="#5AC0F1"/>
<stop offset="0.73" stop-color="#439BEA"/>
<stop offset="1" stop-color="#2C75E4"/>
</linearGradient>
<linearGradient id="paint18_linear" x1="11980.8" y1="9372.61" x2="19371.7" y2="9372.61" gradientUnits="userSpaceOnUse">
<stop stop-color="#A31FA9"/>
<stop offset="0.07" stop-color="#8B17A0"/>
<stop offset="0.15" stop-color="#740F98"/>
<stop offset="0.24" stop-color="#640A92"/>
<stop offset="0.34" stop-color="#5B078F"/>
<stop offset="0.48" stop-color="#58068E"/>
<stop offset="0.63" stop-color="#4D22A3"/>
<stop offset="0.94" stop-color="#3168DA"/>
<stop offset="1" stop-color="#2C75E4"/>
</linearGradient>
<linearGradient id="paint19_linear" x1="36679" y1="31203" x2="38557.4" y2="28386.6" gradientUnits="userSpaceOnUse">
<stop stop-color="#8D139B"/>
<stop offset="0.17" stop-color="#851BA1"/>
<stop offset="0.43" stop-color="#6E33B2"/>
<stop offset="0.76" stop-color="#4958CD"/>
<stop offset="1" stop-color="#2979E4"/>
</linearGradient>
<linearGradient id="paint20_linear" x1="11980.7" y1="8677.57" x2="19371.6" y2="8677.57" gradientUnits="userSpaceOnUse">
<stop stop-color="#A31FA9"/>
<stop offset="0.07" stop-color="#8B17A0"/>
<stop offset="0.15" stop-color="#740F98"/>
<stop offset="0.24" stop-color="#640A92"/>
<stop offset="0.34" stop-color="#5B078F"/>
<stop offset="0.48" stop-color="#58068E"/>
<stop offset="0.63" stop-color="#4D22A3"/>
<stop offset="0.94" stop-color="#3168DA"/>
<stop offset="1" stop-color="#2C75E4"/>
</linearGradient>
<linearGradient id="paint21_linear" x1="35496.6" y1="30565.4" x2="37372.8" y2="27750" gradientUnits="userSpaceOnUse">
<stop stop-color="#8D139B"/>
<stop offset="0.17" stop-color="#851BA1"/>
<stop offset="0.43" stop-color="#6E33B2"/>
<stop offset="0.76" stop-color="#4958CD"/>
<stop offset="1" stop-color="#2979E4"/>
</linearGradient>
<linearGradient id="paint22_linear" x1="11980.7" y1="7981.03" x2="19371.6" y2="7981.03" gradientUnits="userSpaceOnUse">
<stop stop-color="#A31FA9"/>
<stop offset="0.07" stop-color="#8B17A0"/>
<stop offset="0.15" stop-color="#740F98"/>
<stop offset="0.24" stop-color="#640A92"/>
<stop offset="0.34" stop-color="#5B078F"/>
<stop offset="0.48" stop-color="#58068E"/>
<stop offset="0.63" stop-color="#4D22A3"/>
<stop offset="0.94" stop-color="#3168DA"/>
<stop offset="1" stop-color="#2C75E4"/>
</linearGradient>
<linearGradient id="paint23_linear" x1="34314.2" y1="29975.3" x2="36191.6" y2="27159.4" gradientUnits="userSpaceOnUse">
<stop stop-color="#8D139B"/>
<stop offset="0.17" stop-color="#851BA1"/>
<stop offset="0.43" stop-color="#6E33B2"/>
<stop offset="0.76" stop-color="#4958CD"/>
<stop offset="1" stop-color="#2979E4"/>
</linearGradient>
<linearGradient id="paint24_linear" x1="20281.5" y1="7407.95" x2="27671.7" y2="7407.95" gradientUnits="userSpaceOnUse">
<stop stop-color="#5619A4"/>
<stop offset="0.07" stop-color="#8B17A0"/>
<stop offset="0.15" stop-color="#740F98"/>
<stop offset="0.24" stop-color="#640A92"/>
<stop offset="0.34" stop-color="#5B078F"/>
<stop offset="0.48" stop-color="#58068E"/>
<stop offset="0.63" stop-color="#4D22A3"/>
<stop offset="0.94" stop-color="#3168DA"/>
<stop offset="1" stop-color="#2C75E4"/>
</linearGradient>
<linearGradient id="paint25_linear" x1="33131.9" y1="29373.5" x2="35009.4" y2="26557.5" gradientUnits="userSpaceOnUse">
<stop stop-color="#267FE5"/>
<stop offset="0.17" stop-color="#2C87E7"/>
<stop offset="0.44" stop-color="#3D9FEB"/>
<stop offset="0.78" stop-color="#59C4F2"/>
<stop offset="1" stop-color="#6EE1F8"/>
</linearGradient>
<linearGradient id="paint26_linear" x1="10012.1" y1="5143.9" x2="13440.6" y2="5143.9" gradientUnits="userSpaceOnUse">
<stop stop-color="#6DE0F6"/>
<stop offset="0.16" stop-color="#68D8F5"/>
<stop offset="0.41" stop-color="#5AC0F1"/>
<stop offset="0.73" stop-color="#439BEA"/>
<stop offset="1" stop-color="#2C75E4"/>
</linearGradient>
<linearGradient id="paint27_linear" x1="16174.4" y1="10896.7" x2="23570.2" y2="10896.7" gradientUnits="userSpaceOnUse">
<stop stop-color="#A31FA9"/>
<stop offset="0.07" stop-color="#8B17A0"/>
<stop offset="0.15" stop-color="#740F98"/>
<stop offset="0.24" stop-color="#640A92"/>
<stop offset="0.34" stop-color="#5B078F"/>
<stop offset="0.48" stop-color="#58068E"/>
<stop offset="0.63" stop-color="#4D22A3"/>
<stop offset="0.94" stop-color="#3168DA"/>
<stop offset="1" stop-color="#2C75E4"/>
</linearGradient>
<linearGradient id="paint28_linear" x1="41700.5" y1="31312.6" x2="43578" y2="28496.7" gradientUnits="userSpaceOnUse">
<stop stop-color="#8D139B"/>
<stop offset="0.17" stop-color="#851BA1"/>
<stop offset="0.43" stop-color="#6E33B2"/>
<stop offset="0.76" stop-color="#4958CD"/>
<stop offset="1" stop-color="#2979E4"/>
</linearGradient>
<linearGradient id="paint29_linear" x1="16174.4" y1="10197.7" x2="23570.1" y2="10197.7" gradientUnits="userSpaceOnUse">
<stop stop-color="#A31FA9"/>
<stop offset="0.07" stop-color="#8B17A0"/>
<stop offset="0.15" stop-color="#740F98"/>
<stop offset="0.24" stop-color="#640A92"/>
<stop offset="0.34" stop-color="#5B078F"/>
<stop offset="0.48" stop-color="#58068E"/>
<stop offset="0.63" stop-color="#4D22A3"/>
<stop offset="0.94" stop-color="#3168DA"/>
<stop offset="1" stop-color="#2C75E4"/>
</linearGradient>
<linearGradient id="paint30_linear" x1="40518.1" y1="30692.6" x2="42394.3" y2="27877.1" gradientUnits="userSpaceOnUse">
<stop stop-color="#8D139B"/>
<stop offset="0.17" stop-color="#851BA1"/>
<stop offset="0.43" stop-color="#6E33B2"/>
<stop offset="0.76" stop-color="#4958CD"/>
<stop offset="1" stop-color="#2979E4"/>
</linearGradient>
<linearGradient id="paint31_linear" x1="16174.4" y1="9508.18" x2="23570.1" y2="9508.18" gradientUnits="userSpaceOnUse">
<stop stop-color="#A31FA9"/>
<stop offset="0.07" stop-color="#8B17A0"/>
<stop offset="0.15" stop-color="#740F98"/>
<stop offset="0.24" stop-color="#640A92"/>
<stop offset="0.34" stop-color="#5B078F"/>
<stop offset="0.48" stop-color="#58068E"/>
<stop offset="0.63" stop-color="#4D22A3"/>
<stop offset="0.94" stop-color="#3168DA"/>
<stop offset="1" stop-color="#2C75E4"/>
</linearGradient>
<linearGradient id="paint32_linear" x1="39336.4" y1="30090.3" x2="41212.2" y2="27275.1" gradientUnits="userSpaceOnUse">
<stop stop-color="#8D139B"/>
<stop offset="0.17" stop-color="#851BA1"/>
<stop offset="0.43" stop-color="#6E33B2"/>
<stop offset="0.76" stop-color="#4958CD"/>
<stop offset="1" stop-color="#2979E4"/>
</linearGradient>
<linearGradient id="paint33_linear" x1="20339.7" y1="7438.05" x2="27734.8" y2="7438.05" gradientUnits="userSpaceOnUse">
<stop stop-color="#5619A4"/>
<stop offset="0.07" stop-color="#8B17A0"/>
<stop offset="0.15" stop-color="#740F98"/>
<stop offset="0.24" stop-color="#640A92"/>
<stop offset="0.34" stop-color="#5B078F"/>
<stop offset="0.48" stop-color="#58068E"/>
<stop offset="0.63" stop-color="#4D22A3"/>
<stop offset="0.94" stop-color="#3168DA"/>
<stop offset="1" stop-color="#2C75E4"/>
</linearGradient>
<linearGradient id="paint34_linear" x1="22793.9" y1="17970" x2="23646.2" y2="16691.4" gradientUnits="userSpaceOnUse">
<stop stop-color="#267FE5"/>
<stop offset="0.17" stop-color="#2C87E7"/>
<stop offset="0.44" stop-color="#3D9FEB"/>
<stop offset="0.78" stop-color="#59C4F2"/>
<stop offset="1" stop-color="#6EE1F8"/>
</linearGradient>
<clipPath id="clip0">
<rect width="156" height="159" fill="white"/>
</clipPath>
</defs>
</svg>
