<svg width="422" height="233" viewBox="0 0 422 233" fill="none" xmlns="http://www.w3.org/2000/svg">
<rect x="358.656" y="67.8595" width="48.0593" height="13.6567" rx="1.51271" fill="#B160F0" fill-opacity="0.1"/>
<path d="M364.061 77.1879V73.4393H364.113L365.586 76.9811H366.266L367.739 73.4393H367.791V77.1879H368.677V71.8587H367.562L365.959 75.7402H365.893L364.29 71.8587H363.175V77.1879H364.061ZM371.639 76.5009C371 76.5009 370.635 76.0134 370.635 75.1677C370.635 74.3257 371 73.8345 371.639 73.8345C372.275 73.8345 372.64 74.3257 372.64 75.1677C372.64 76.0134 372.278 76.5009 371.639 76.5009ZM371.639 77.2691C372.847 77.2691 373.582 76.4788 373.582 75.1677C373.582 73.8603 372.843 73.0663 371.639 73.0663C370.439 73.0663 369.697 73.864 369.697 75.1677C369.697 76.4788 370.428 77.2691 371.639 77.2691ZM374.505 77.1879H375.421V74.8353C375.421 74.2407 375.765 73.864 376.311 73.864C376.869 73.864 377.127 74.1743 377.127 74.791V77.1879H378.043V74.5731C378.043 73.6092 377.552 73.0663 376.651 73.0663C376.049 73.0663 375.643 73.3433 375.451 73.7939H375.388V73.1476H374.505V77.1879ZM379.14 77.1879H380.052V73.1476H379.14V77.1879ZM379.594 72.4902C379.93 72.4902 380.159 72.276 380.159 71.9842C380.159 71.6925 379.93 71.4783 379.594 71.4783C379.262 71.4783 379.029 71.6925 379.029 71.9842C379.029 72.276 379.262 72.4902 379.594 72.4902ZM381.482 72.1578V73.1734H380.843V73.9047H381.482V76.1095C381.482 76.8924 381.851 77.2063 382.778 77.2063C382.955 77.2063 383.125 77.1879 383.258 77.162V76.4455C383.147 76.4566 383.077 76.464 382.948 76.464C382.564 76.464 382.394 76.2867 382.394 75.8879V73.9047H383.258V73.1734H382.394V72.1578H381.482ZM385.88 76.5009C385.241 76.5009 384.876 76.0134 384.876 75.1677C384.876 74.3257 385.241 73.8345 385.88 73.8345C386.515 73.8345 386.881 74.3257 386.881 75.1677C386.881 76.0134 386.519 76.5009 385.88 76.5009ZM385.88 77.2691C387.088 77.2691 387.823 76.4788 387.823 75.1677C387.823 73.8603 387.084 73.0663 385.88 73.0663C384.68 73.0663 383.938 73.864 383.938 75.1677C383.938 76.4788 384.669 77.2691 385.88 77.2691ZM388.746 77.1879H389.662V74.8538C389.662 74.2887 390.076 73.9194 390.67 73.9194C390.825 73.9194 391.069 73.9453 391.139 73.9711V73.1217C391.054 73.0959 390.892 73.0811 390.759 73.0811C390.238 73.0811 389.802 73.3765 389.691 73.7754H389.629V73.1476H388.746V77.1879ZM391.955 77.1879H392.868V73.1476H391.955V77.1879ZM392.41 72.4902C392.746 72.4902 392.975 72.276 392.975 71.9842C392.975 71.6925 392.746 71.4783 392.41 71.4783C392.077 71.4783 391.845 71.6925 391.845 71.9842C391.845 72.276 392.077 72.4902 392.41 72.4902ZM394.005 77.1879H394.921V74.8353C394.921 74.2407 395.264 73.864 395.811 73.864C396.369 73.864 396.627 74.1743 396.627 74.791V77.1879H397.543V74.5731C397.543 73.6092 397.052 73.0663 396.151 73.0663C395.549 73.0663 395.143 73.3433 394.95 73.7939H394.888V73.1476H394.005V77.1879ZM401.388 75.1234C401.388 75.8953 401.004 76.3828 400.365 76.3828C399.726 76.3828 399.364 75.8953 399.364 75.1234C399.364 74.3515 399.726 73.8603 400.365 73.8603C401 73.8603 401.388 74.3515 401.388 75.1234ZM400.365 78.7242C401.543 78.7242 402.289 78.137 402.289 77.2026V73.1476H401.406V73.7939H401.343C401.122 73.3544 400.642 73.0811 400.091 73.0811C399.061 73.0811 398.422 73.8862 398.422 75.1234C398.422 76.3384 399.057 77.1288 400.077 77.1288C400.638 77.1288 401.077 76.8924 401.31 76.4603H401.373V77.2248C401.373 77.7308 401.007 78.0262 400.379 78.0262C399.877 78.0262 399.552 77.8489 399.493 77.572H398.573C398.647 78.2663 399.327 78.7242 400.365 78.7242Z" fill="#B160F0"/>
<rect x="226.633" y="0.766235" width="62.0593" height="13.6567" rx="1.51271" fill="#F8AA14" fill-opacity="0.1"/>
<path d="M233.14 11.0517C234.369 11.0517 235.271 10.3167 235.396 9.22724H234.458C234.329 9.82553 233.815 10.2022 233.14 10.2022C232.231 10.2022 231.666 9.45622 231.666 8.25225C231.666 7.05198 232.231 6.30596 233.136 6.30596C233.808 6.30596 234.321 6.7196 234.454 7.35851H235.392C235.282 6.24687 234.347 5.45654 233.136 5.45654C231.625 5.45654 230.691 6.52386 230.691 8.25594C230.691 9.98064 231.629 11.0517 233.14 11.0517ZM236.397 10.9187H237.313V5.3162H236.397V10.9187ZM240.216 10.2318C239.577 10.2318 239.211 9.74428 239.211 8.89855C239.211 8.05651 239.577 7.56533 240.216 7.56533C240.851 7.56533 241.217 8.05651 241.217 8.89855C241.217 9.74428 240.855 10.2318 240.216 10.2318ZM240.216 11C241.423 11 242.158 10.2096 242.158 8.89855C242.158 7.59118 241.42 6.79715 240.216 6.79715C239.015 6.79715 238.273 7.59487 238.273 8.89855C238.273 10.2096 239.004 11 240.216 11ZM246.597 6.8784H245.682V9.23093C245.682 9.82922 245.357 10.1948 244.762 10.1948C244.215 10.1948 243.961 9.89201 243.961 9.27525V6.8784H243.045V9.50423C243.045 10.4497 243.562 11 244.444 11C245.061 11 245.456 10.7377 245.652 10.2761H245.715V10.9187H246.597V6.8784ZM249.183 10.9852C249.744 10.9852 250.209 10.723 250.438 10.2798H250.501V10.9187H251.387V5.3162H250.472V7.52101H250.409C250.195 7.07783 249.737 6.81192 249.183 6.81192C248.163 6.81192 247.521 7.61703 247.521 8.89486C247.521 10.1801 248.16 10.9852 249.183 10.9852ZM249.467 7.59118C250.095 7.59118 250.483 8.09345 250.483 8.89855C250.483 9.71104 250.099 10.2059 249.467 10.2059C248.839 10.2059 248.459 9.71474 248.459 8.89855C248.459 8.08606 248.843 7.59118 249.467 7.59118ZM256.761 6.81192C256.207 6.81192 255.738 7.08891 255.505 7.54686H255.443V6.8784H254.56V12.263H255.476V10.3056H255.539C255.745 10.734 256.192 10.9852 256.772 10.9852C257.791 10.9852 258.427 10.1875 258.427 8.89855C258.427 7.60226 257.784 6.81192 256.761 6.81192ZM256.473 10.2059C255.849 10.2059 255.461 9.70735 255.457 8.89855C255.461 8.09345 255.852 7.59118 256.477 7.59118C257.104 7.59118 257.485 8.08237 257.485 8.89855C257.485 9.71474 257.108 10.2059 256.473 10.2059ZM259.346 10.9187H260.262V8.58463C260.262 8.01958 260.676 7.65027 261.27 7.65027C261.425 7.65027 261.669 7.67612 261.739 7.70197V6.85255C261.654 6.8267 261.492 6.81192 261.359 6.81192C260.838 6.81192 260.402 7.10738 260.292 7.50624H260.229V6.8784H259.346V10.9187ZM264.132 10.2318C263.494 10.2318 263.128 9.74428 263.128 8.89855C263.128 8.05651 263.494 7.56533 264.132 7.56533C264.768 7.56533 265.133 8.05651 265.133 8.89855C265.133 9.74428 264.771 10.2318 264.132 10.2318ZM264.132 11C265.34 11 266.075 10.2096 266.075 8.89855C266.075 7.59118 265.336 6.79715 264.132 6.79715C262.932 6.79715 262.19 7.59487 262.19 8.89855C262.19 10.2096 262.921 11 264.132 11ZM266.485 6.8784L267.922 10.9187H268.93L270.359 6.8784H269.392L268.465 10.0028H268.402L267.467 6.8784H266.485ZM271.146 10.9187H272.058V6.8784H271.146V10.9187ZM271.6 6.22102C271.936 6.22102 272.165 6.00682 272.165 5.71506C272.165 5.4233 271.936 5.2091 271.6 5.2091C271.268 5.2091 271.035 5.4233 271.035 5.71506C271.035 6.00682 271.268 6.22102 271.6 6.22102ZM274.658 10.9852C275.219 10.9852 275.685 10.723 275.914 10.2798H275.976V10.9187H276.863V5.3162H275.947V7.52101H275.884C275.67 7.07783 275.212 6.81192 274.658 6.81192C273.639 6.81192 272.996 7.61703 272.996 8.89486C272.996 10.1801 273.635 10.9852 274.658 10.9852ZM274.942 7.59118C275.57 7.59118 275.958 8.09345 275.958 8.89855C275.958 9.71104 275.574 10.2059 274.942 10.2059C274.314 10.2059 273.934 9.71474 273.934 8.89855C273.934 8.08606 274.318 7.59118 274.942 7.59118ZM279.714 7.5247C280.264 7.5247 280.626 7.90879 280.645 8.50708H278.743C278.783 7.91617 279.167 7.5247 279.714 7.5247ZM280.652 9.80706C280.519 10.1062 280.205 10.2724 279.751 10.2724C279.149 10.2724 278.761 9.85138 278.739 9.17923V9.13122H281.56V8.83577C281.56 7.56163 280.87 6.79715 279.718 6.79715C278.547 6.79715 277.819 7.61334 277.819 8.91332C277.819 10.2133 278.536 11 279.725 11C280.678 11 281.346 10.542 281.52 9.80706H280.652ZM282.48 10.9187H283.396V8.58463C283.396 8.01958 283.81 7.65027 284.404 7.65027C284.559 7.65027 284.803 7.67612 284.873 7.70197V6.85255C284.788 6.8267 284.626 6.81192 284.493 6.81192C283.972 6.81192 283.536 7.10738 283.425 7.50624H283.363V6.8784H282.48V10.9187Z" fill="#FF9900"/>
<rect x="134.852" y="68.4329" width="39.0593" height="13.6567" rx="1.51271" fill="#2396ED" fill-opacity="0.1"/>
<path d="M140.491 74.0465H141.569C142.175 74.0465 142.544 74.3862 142.544 74.9402C142.544 75.5052 142.197 75.8302 141.592 75.8302H140.491V74.0465ZM140.491 76.5873H141.547L142.592 78.5853H143.682L142.518 76.4396C143.154 76.2106 143.523 75.6234 143.523 74.9217C143.523 73.8987 142.821 73.2561 141.702 73.2561H139.538V78.5853H140.491V76.5873ZM146.153 75.1913C146.703 75.1913 147.065 75.5754 147.083 76.1737H145.181C145.222 75.5828 145.606 75.1913 146.153 75.1913ZM147.091 77.4737C146.958 77.7728 146.644 77.939 146.189 77.939C145.587 77.939 145.2 77.518 145.178 76.8459V76.7978H147.999V76.5024C147.999 75.2283 147.308 74.4638 146.156 74.4638C144.985 74.4638 144.258 75.28 144.258 76.5799C144.258 77.8799 144.974 78.6666 146.164 78.6666C147.116 78.6666 147.785 78.2086 147.958 77.4737H147.091ZM151.677 76.5209C151.677 77.2927 151.293 77.7802 150.654 77.7802C150.016 77.7802 149.654 77.2927 149.654 76.5209C149.654 75.749 150.016 75.2578 150.654 75.2578C151.29 75.2578 151.677 75.749 151.677 76.5209ZM150.654 80.1217C151.833 80.1217 152.579 79.5345 152.579 78.6001V74.545H151.696V75.1913H151.633C151.412 74.7518 150.931 74.4786 150.381 74.4786C149.351 74.4786 148.712 75.2837 148.712 76.5209C148.712 77.7359 149.347 78.5262 150.366 78.5262C150.928 78.5262 151.367 78.2899 151.6 77.8578H151.663V78.6223C151.663 79.1282 151.297 79.4237 150.669 79.4237C150.167 79.4237 149.842 79.2464 149.783 78.9694H148.863C148.937 79.6637 149.617 80.1217 150.654 80.1217ZM153.716 78.5853H154.628V74.545H153.716V78.5853ZM154.17 73.8876C154.506 73.8876 154.735 73.6734 154.735 73.3817C154.735 73.0899 154.506 72.8757 154.17 72.8757C153.838 72.8757 153.605 73.0899 153.605 73.3817C153.605 73.6734 153.838 73.8876 154.17 73.8876ZM155.673 75.701C155.673 76.3104 156.039 76.6686 156.815 76.8459L157.531 77.012C157.915 77.097 158.089 77.241 158.089 77.47C158.089 77.7691 157.767 77.9723 157.306 77.9723C156.848 77.9723 156.564 77.795 156.475 77.4958H155.57C155.64 78.2308 156.275 78.6666 157.284 78.6666C158.292 78.6666 159.005 78.1495 159.005 77.374C159.005 76.7794 158.646 76.447 157.875 76.2734L157.162 76.1109C156.756 76.0186 156.564 75.8783 156.564 75.6493C156.564 75.3575 156.877 75.1581 157.295 75.1581C157.723 75.1581 157.993 75.3391 158.059 75.6234H158.92C158.853 74.8885 158.251 74.4638 157.291 74.4638C156.338 74.4638 155.673 74.9697 155.673 75.701ZM160.194 73.5553V74.5709H159.555V75.3021H160.194V77.5069C160.194 78.2899 160.563 78.6038 161.49 78.6038C161.667 78.6038 161.837 78.5853 161.97 78.5595V77.843C161.859 77.8541 161.789 77.8615 161.66 77.8615C161.276 77.8615 161.106 77.6842 161.106 77.2853V75.3021H161.97V74.5709H161.106V73.5553H160.194ZM162.886 78.5853H163.802V76.2513C163.802 75.6862 164.216 75.3169 164.81 75.3169C164.965 75.3169 165.209 75.3427 165.279 75.3686V74.5192C165.194 74.4933 165.032 74.4786 164.899 74.4786C164.378 74.4786 163.942 74.774 163.832 75.1729H163.769V74.545H162.886V78.5853ZM166.513 80.0515C167.418 80.0515 167.85 79.7191 168.193 78.7146L169.652 74.545H168.684L167.743 77.699H167.68L166.734 74.545H165.73L167.174 78.6038L167.126 78.7811C167.008 79.1541 166.79 79.3018 166.402 79.3018C166.339 79.3018 166.203 79.2981 166.151 79.287V80.0367C166.21 80.0478 166.457 80.0515 166.513 80.0515Z" fill="#2396ED"/>
<path d="M107.776 181.034V176.06H106.735V181.034H107.776ZM109.947 181.034V177.708H110.002L111.271 180.748H111.964L113.229 177.708H113.284V181.034H114.249V176.06H113.025L111.646 179.404H111.584L110.209 176.06H108.982V181.034H109.947ZM118.651 181.034H119.778L118.051 176.06H116.827L115.1 181.034H116.145L116.527 179.848H118.275L118.651 181.034ZM117.375 177.094H117.437L118.054 179.045H116.751L117.375 177.094ZM124.769 179.004V178.369H122.68V179.152H123.759L123.756 179.242C123.735 179.841 123.263 180.245 122.58 180.245C121.76 180.245 121.243 179.597 121.243 178.531C121.243 177.487 121.736 176.849 122.539 176.849C123.118 176.849 123.535 177.142 123.69 177.646H124.724C124.579 176.612 123.714 175.932 122.539 175.932C121.091 175.932 120.178 176.939 120.178 178.542C120.178 180.169 121.084 181.161 122.563 181.161C123.921 181.161 124.769 180.334 124.769 179.004ZM129.064 180.145H126.81V178.935H128.936V178.111H126.81V176.949H129.064V176.06H125.769V181.034H129.064V180.145Z" fill="#8686B3"/>
<path d="M126.3 154.607L123.391 154.643L124.874 157.148L126.3 154.607ZM67.7539 189.711L124.478 155.983L124.221 155.55L67.4971 189.277L67.7539 189.711Z" fill="#8686B3"/>
<rect x="33.5586" y="139.54" width="15.0593" height="13.6567" rx="1.51271" fill="#454658"/>
<path d="M40.0649 149.002C41.2947 149.002 42.1958 148.267 42.3214 147.177H41.3833C41.2541 147.775 40.7407 148.152 40.0649 148.152C39.1564 148.152 38.5913 147.406 38.5913 146.202C38.5913 145.002 39.1564 144.256 40.0612 144.256C40.7333 144.256 41.2467 144.67 41.3796 145.308H42.3177C42.2069 144.197 41.2725 143.406 40.0612 143.406C38.5507 143.406 37.6163 144.474 37.6163 146.206C37.6163 147.931 38.5544 149.002 40.0649 149.002ZM44.3342 148.869V143.539H43.3813V148.869H44.3342Z" fill="#C7C7DB"/>
<rect opacity="0.1" width="48.7952" height="46.082" rx="0.868478" transform="matrix(0.86557 -0.500788 0.86557 0.500788 0.460938 209.39)" fill="#C5C4F7"/>
<path d="M39.0866 217.672L39.0866 217.672L39.0883 217.673C39.7469 218.022 40.4831 218.198 41.228 218.185C41.9714 218.199 42.706 218.023 43.3624 217.673L43.3624 217.673L43.3639 217.672L54.5889 211.18C54.8619 211.083 55.0983 210.904 55.2658 210.667C55.4342 210.429 55.5247 210.144 55.5247 209.852C55.5247 209.56 55.4342 209.276 55.2658 209.038C55.0983 208.801 54.8619 208.621 54.5889 208.524L43.3639 202.033L43.3639 202.033L43.3615 202.031C42.6992 201.696 41.9675 201.521 41.2253 201.521C40.4831 201.521 39.7513 201.696 39.0891 202.031L39.089 202.031L39.0866 202.033L27.8655 208.525C27.6069 208.642 27.3839 208.825 27.2196 209.057C27.0548 209.289 26.955 209.561 26.9307 209.845L26.9299 209.845L26.9307 209.854C26.9564 210.138 27.0566 210.41 27.2211 210.643C27.3851 210.875 27.6073 211.06 27.8653 211.179L39.0866 217.672ZM54.45 210.905L54.4496 210.904L54.4407 210.909L43.2186 217.414C42.6005 217.727 41.9177 217.89 41.2253 217.89C40.5328 217.89 39.8501 217.727 39.232 217.414L28.0099 210.909L28.0104 210.908L28.0006 210.905C27.7775 210.831 27.5835 210.688 27.4459 210.497C27.3084 210.306 27.2343 210.077 27.2343 209.841C27.2343 209.605 27.3084 209.376 27.4459 209.185C27.5835 208.994 27.7775 208.851 28.0006 208.777L28.0009 208.778L28.0098 208.772L39.232 202.279C39.85 201.966 40.5328 201.803 41.2253 201.803C41.9177 201.803 42.6005 201.966 43.2186 202.279L54.4407 208.772L54.4402 208.773L54.45 208.777C54.673 208.851 54.8671 208.994 55.0046 209.185C55.1422 209.376 55.2162 209.605 55.2162 209.841C55.2162 210.077 55.1422 210.306 55.0046 210.497C54.8671 210.688 54.673 210.831 54.45 210.905Z" fill="#5D64D2" stroke="#5D64D2" stroke-width="0.100004"/>
<path opacity="0.4" d="M55.8166 207.359V203.509L55.113 203.117C54.9144 204.317 53.5073 205.113 52.3214 205.278L44.2812 209.986L40.7689 211.26L29.5683 205.465L29.8293 205.317C28.8704 204.868 28.354 203.839 27.8377 202.906L27.083 203.355L26.6348 203.481V207.399C26.6645 207.695 26.7713 207.979 26.9445 208.221C27.1177 208.464 27.3513 208.657 27.6221 208.78L38.8397 215.274C39.579 215.647 40.3952 215.842 41.2229 215.842C42.0505 215.842 42.8667 215.647 43.606 215.274L54.8293 208.78C55.0951 208.658 55.3251 208.47 55.497 208.233C55.669 207.996 55.7771 207.718 55.8109 207.427V207.359H55.8166Z" fill="#5D64D2"/>
<path d="M55.8166 203.935V201.388L55.113 200.996C54.9144 202.195 53.5073 202.992 52.3214 203.156L44.2812 207.871L40.7689 209.139L29.5683 203.344L29.8293 203.196C28.8704 202.747 28.354 201.723 27.8377 200.785L27.083 201.234L26.6348 201.365V203.975C26.6645 204.272 26.7713 204.556 26.9445 204.798C27.1177 205.041 27.3513 205.233 27.6221 205.357L38.8397 211.851C39.579 212.224 40.3952 212.418 41.2229 212.418C42.0505 212.418 42.8667 212.224 43.606 211.851L54.8293 205.357C55.0959 205.235 55.3264 205.045 55.4983 204.807C55.6703 204.569 55.778 204.29 55.8109 203.998V203.935H55.8166Z" fill="url(#paint0_linear)"/>
<path opacity="0.3" d="M52.3214 203.156L44.2812 207.87L41.2285 208.974V212.42C42.0583 212.437 42.8786 212.241 43.6116 211.851L54.835 205.357C55.1016 205.234 55.332 205.045 55.504 204.807C55.676 204.569 55.7837 204.29 55.8166 203.998V203.935V201.388L55.1754 201.03H55.1073C54.8917 202.212 53.4959 202.991 52.3214 203.156Z" fill="#0F054C"/>
<path d="M38.8397 209.247L27.6221 202.764C26.3057 202.008 26.3057 200.768 27.6221 200.006L38.8397 193.512C39.579 193.139 40.3952 192.945 41.2229 192.945C42.0505 192.945 42.8667 193.139 43.606 193.512L54.8293 200.006C56.14 200.768 56.14 202.008 54.8293 202.764L43.6116 209.247C42.8724 209.623 42.0549 209.82 41.2257 209.82C40.3965 209.82 39.5789 209.623 38.8397 209.247Z" fill="url(#paint1_linear)"/>
<path d="M54.8354 202.764L43.612 209.247C42.8736 209.622 42.0571 209.818 41.2289 209.818C40.4008 209.818 39.5843 209.622 38.8458 209.247L27.6225 202.764C27.3775 202.65 27.162 202.481 26.9927 202.27C26.8235 202.059 26.705 201.811 26.6465 201.547C26.5671 202.116 26.8905 202.684 27.6225 203.082L38.8401 209.576C39.5786 209.952 40.3951 210.148 41.2233 210.148C42.0514 210.148 42.8679 209.952 43.6064 209.576L54.8297 203.082C55.1294 202.958 55.3834 202.743 55.557 202.468C55.7306 202.194 55.8155 201.872 55.8 201.547C55.7423 201.81 55.6254 202.057 55.4582 202.267C55.291 202.478 55.078 202.648 54.8354 202.764Z" fill="white"/>
<path opacity="0.3" d="M52.331 198.724V146.655H29.6367V198.791C29.6367 200.282 30.6271 200.134 32.6698 201.274C36.7165 203.511 45.2589 203.511 49.3056 201.274C51.3793 200.119 52.3852 200.238 52.331 198.724Z" fill="url(#paint2_linear)"/>
<g clip-path="url(#clip0)">
<path d="M40.9888 171.193C41.8951 171.193 42.6299 170.465 42.6299 169.567C42.6299 168.669 41.8951 167.941 40.9888 167.941C40.0824 167.941 39.3477 168.669 39.3477 169.567C39.3477 170.465 40.0824 171.193 40.9888 171.193Z" fill="#C7C7DB"/>
<path d="M34.2854 167.843C34.2854 167.863 34.2656 167.902 34.2656 167.922C34.2656 168.098 34.404 168.255 34.6018 168.255H37.3897C37.5281 168.255 37.627 168.176 37.6863 168.059C38.2597 166.805 39.5252 165.963 40.9685 165.963C42.9655 165.963 44.5869 167.569 44.5869 169.547C44.5869 171.525 42.9655 173.132 40.9685 173.132C39.5053 173.132 38.2597 172.27 37.6863 171.055C37.627 170.918 37.5281 170.84 37.3896 170.84H34.6019C34.4239 170.84 34.2657 170.977 34.2657 171.173C34.2657 171.193 34.2657 171.232 34.2855 171.251C35.0566 174.228 37.7654 176.422 40.9884 176.422C44.8045 176.422 47.9088 173.347 47.9088 169.567C47.9087 165.787 44.8044 162.712 40.9883 162.712C37.7654 162.712 35.0565 164.905 34.2854 167.843Z" fill="#C7C7DB"/>
</g>
<rect opacity="0.1" width="48.7952" height="46.082" rx="0.868478" transform="matrix(0.86557 -0.500788 0.86557 0.500788 339.771 137.709)" fill="#B160F0"/>
<path d="M378.395 145.991L378.395 145.991L378.397 145.992C379.055 146.341 379.792 146.517 380.537 146.504C381.28 146.518 382.015 146.342 382.671 145.992L382.671 145.992L382.672 145.991L393.898 139.499C394.17 139.402 394.407 139.223 394.574 138.986C394.743 138.748 394.833 138.463 394.833 138.171C394.833 137.88 394.743 137.595 394.574 137.357C394.407 137.12 394.17 136.941 393.898 136.843L382.672 130.352L382.673 130.352L382.67 130.35C382.008 130.015 381.276 129.84 380.534 129.84C379.792 129.84 379.06 130.015 378.398 130.35L378.398 130.35L378.395 130.352L367.174 136.845C366.915 136.961 366.692 137.144 366.528 137.376C366.363 137.608 366.264 137.88 366.239 138.164L366.238 138.164L366.239 138.173C366.265 138.457 366.365 138.729 366.53 138.962C366.694 139.195 366.916 139.379 367.174 139.498L378.395 145.991ZM393.759 139.224L393.758 139.223L393.749 139.228L382.527 145.733C381.909 146.046 381.226 146.209 380.534 146.209C379.841 146.209 379.159 146.046 378.541 145.733L367.318 139.228L367.319 139.228L367.309 139.224C367.086 139.15 366.892 139.007 366.755 138.816C366.617 138.625 366.543 138.396 366.543 138.16C366.543 137.924 366.617 137.695 366.755 137.504C366.892 137.313 367.086 137.17 367.309 137.096L367.309 137.097L367.318 137.092L378.541 130.598C379.159 130.285 379.841 130.122 380.534 130.122C381.226 130.122 381.909 130.285 382.527 130.598L393.749 137.092L393.749 137.092L393.759 137.096C393.982 137.17 394.176 137.313 394.313 137.504C394.451 137.695 394.525 137.924 394.525 138.16C394.525 138.396 394.451 138.625 394.313 138.816C394.176 139.007 393.982 139.15 393.759 139.224Z" fill="#5D64D2" stroke="#5D64D2" stroke-width="0.100004"/>
<path opacity="0.4" d="M395.125 135.678V131.828L394.422 131.436C394.223 132.636 392.816 133.432 391.63 133.597L383.59 138.305L380.078 139.579L368.877 133.784L369.138 133.637C368.179 133.187 367.663 132.158 367.146 131.225L366.392 131.675L365.943 131.8V135.718C365.973 136.015 366.08 136.298 366.253 136.541C366.426 136.783 366.66 136.976 366.931 137.1L378.148 143.594C378.888 143.967 379.704 144.161 380.531 144.161C381.359 144.161 382.175 143.967 382.915 143.594L394.138 137.1C394.404 136.978 394.634 136.789 394.806 136.552C394.978 136.315 395.086 136.037 395.12 135.746V135.678H395.125Z" fill="#5D64D2"/>
<path d="M395.125 132.255V129.707L394.422 129.315C394.223 130.515 392.816 131.311 391.63 131.476L383.59 136.19L380.078 137.458L368.877 131.663L369.138 131.515C368.179 131.066 367.663 130.043 367.146 129.104L366.392 129.554L365.943 129.684V132.295C365.973 132.591 366.08 132.875 366.253 133.117C366.426 133.36 366.66 133.553 366.931 133.676L378.148 140.17C378.888 140.543 379.704 140.738 380.531 140.738C381.359 140.738 382.175 140.543 382.915 140.17L394.138 133.676C394.405 133.554 394.635 133.364 394.807 133.126C394.979 132.888 395.087 132.609 395.12 132.317V132.255H395.125Z" fill="url(#paint3_linear)"/>
<path opacity="0.3" d="M391.63 131.476L383.59 136.19L380.537 137.293V140.739C381.367 140.756 382.187 140.56 382.92 140.17L394.144 133.676C394.41 133.554 394.641 133.364 394.813 133.126C394.985 132.888 395.092 132.609 395.125 132.317V132.255V129.707L394.484 129.349H394.416C394.2 130.532 392.804 131.311 391.63 131.476Z" fill="#0F054C"/>
<path d="M378.148 137.566L366.931 131.083C365.614 130.327 365.614 129.087 366.931 128.325L378.148 121.831C378.888 121.458 379.704 121.264 380.531 121.264C381.359 121.264 382.175 121.458 382.915 121.831L394.138 128.325C395.449 129.087 395.449 130.327 394.138 131.083L382.92 137.566C382.181 137.942 381.364 138.139 380.534 138.139C379.705 138.139 378.888 137.942 378.148 137.566Z" fill="url(#paint4_linear)"/>
<path d="M394.144 131.083L382.921 137.566C382.182 137.942 381.366 138.137 380.538 138.137C379.709 138.137 378.893 137.942 378.154 137.566L366.931 131.083C366.686 130.969 366.471 130.8 366.301 130.589C366.132 130.378 366.014 130.131 365.955 129.866C365.876 130.435 366.199 131.004 366.931 131.402L378.149 137.896C378.887 138.271 379.704 138.467 380.532 138.467C381.36 138.467 382.176 138.271 382.915 137.896L394.138 131.402C394.438 131.277 394.692 131.063 394.866 130.788C395.039 130.513 395.124 130.191 395.109 129.866C395.051 130.13 394.934 130.376 394.767 130.587C394.6 130.798 394.387 130.968 394.144 131.083Z" fill="white"/>
<path opacity="0.3" d="M391.64 127.043V74.9745H368.945V127.111C368.945 128.602 369.936 128.453 371.978 129.593C376.025 131.83 384.568 131.83 388.614 129.593C390.688 128.438 391.694 128.557 391.64 127.043Z" fill="url(#paint5_linear)"/>
<g clip-path="url(#clip1)">
<path fill-rule="evenodd" clip-rule="evenodd" d="M385.42 101.285L384.096 100.404L382.99 102.265L381.705 101.886L380.573 103.628L380.631 104.176L386.785 103.033L386.427 99.1561L385.42 101.285ZM379.682 99.6132L380.669 99.4763C380.829 99.5487 380.94 99.5763 381.132 99.6254C381.43 99.7038 381.775 99.779 382.287 99.5191C382.406 99.4596 382.653 99.2311 382.754 99.1007L386.799 98.3608L387.211 103.397L380.282 104.656L379.682 99.6132ZM387.196 97.7987L386.796 97.8754L386.029 89.884L372.959 91.4122L374.569 104.588L376.099 104.364C375.977 104.188 375.787 103.976 375.462 103.703C375.011 103.326 375.171 102.685 375.436 102.28C375.788 101.596 377.6 100.726 377.497 99.6331C377.46 99.2356 377.398 98.718 377.032 98.3634C377.018 98.5106 377.043 98.6524 377.043 98.6524C377.043 98.6524 376.892 98.4591 376.817 98.1954C376.743 98.0944 376.685 98.0621 376.606 97.9271C376.549 98.0833 376.557 98.2644 376.557 98.2644C376.557 98.2644 376.434 97.9716 376.414 97.7244C376.341 97.835 376.323 98.0452 376.323 98.0452C376.323 98.0452 376.163 97.5836 376.199 97.335C376.126 97.1186 375.91 96.6892 375.972 95.7132C376.37 95.995 377.249 95.9281 377.591 95.4195C377.704 95.2511 377.782 94.7914 377.534 93.8855C377.375 93.3046 376.98 92.4396 376.826 92.1115L376.808 92.1248C376.889 92.3892 377.056 92.9435 377.12 93.2122C377.314 94.0273 377.366 94.311 377.275 94.6867C377.198 95.0134 377.012 95.2271 376.54 95.466C376.069 95.7057 375.443 95.1225 375.404 95.0903C374.946 94.7224 374.592 94.1221 374.552 93.8306C374.511 93.5114 374.734 93.3198 374.847 93.0588C374.686 93.1053 374.506 93.1878 374.506 93.1878C374.506 93.1878 374.721 92.9639 374.985 92.7702C375.095 92.6971 375.159 92.6506 375.275 92.5538C375.107 92.551 374.972 92.5559 374.972 92.5559C374.972 92.5559 375.25 92.404 375.539 92.2934C375.328 92.284 375.126 92.2919 375.126 92.2919C375.126 92.2919 375.748 92.0113 376.239 91.8055C376.577 91.6658 376.907 91.707 377.092 91.9774C377.336 92.3316 377.591 92.524 378.133 92.6433C378.466 92.4946 378.567 92.4181 378.985 92.3033C379.353 91.8953 379.642 91.8424 379.642 91.8424C379.642 91.8424 379.499 91.975 379.461 92.1833C379.669 92.0175 379.898 91.8791 379.898 91.8791C379.898 91.8791 379.809 91.9894 379.727 92.1645L379.746 92.1932C379.989 92.046 380.276 91.93 380.276 91.93C380.276 91.93 380.194 92.0342 380.098 92.1692C380.281 92.1677 380.654 92.1771 380.798 92.1936C381.651 92.2125 381.828 91.275 382.155 91.1574C382.565 91.0098 382.748 90.9206 383.447 91.6123C384.046 92.2062 384.515 93.2692 384.282 93.5073C384.087 93.7049 383.703 93.4302 383.276 92.8945C383.051 92.6108 382.881 92.2755 382.801 91.8493C382.734 91.4897 382.472 91.281 382.472 91.281C382.472 91.281 382.624 91.6219 382.624 91.923C382.624 92.0875 382.644 92.7023 382.906 93.0473C382.88 93.0978 382.868 93.2969 382.839 93.335C382.535 92.9643 381.882 92.6989 381.775 92.6207C382.136 92.9187 382.965 93.6031 383.283 94.259C383.584 94.8793 383.407 95.4478 383.559 95.595C383.602 95.6372 384.206 96.3963 384.323 96.7777C384.525 97.4424 384.335 98.1409 384.069 98.5742L383.328 98.6907C383.22 98.6603 383.147 98.6451 383.05 98.5883C383.103 98.4926 383.21 98.2541 383.211 98.205L383.169 98.1309C382.938 98.4604 382.552 98.7803 382.231 98.964C381.811 99.2041 381.327 99.1671 381.011 99.0687C380.117 98.7904 379.271 98.1808 379.067 98.0207C379.067 98.0207 379.061 98.1486 379.099 98.1773C379.325 98.4338 379.841 98.8979 380.341 99.2213L379.276 99.3394L379.779 103.292C379.556 103.324 379.522 103.34 379.277 103.375C379.062 102.608 378.65 102.107 378.2 101.815C377.803 101.558 377.255 101.5 376.731 101.605L376.697 101.644C377.062 101.606 377.492 101.659 377.934 101.941C378.368 102.218 378.717 102.932 378.846 103.362C379.011 103.912 379.125 104.5 378.681 105.123C378.366 105.566 377.445 105.811 376.7 105.282C376.899 105.604 377.168 105.868 377.53 105.917C378.067 105.991 378.576 105.897 378.927 105.534C379.227 105.223 379.386 104.574 379.344 103.89L379.818 103.821L379.989 105.048L387.836 104.095L387.196 97.7987ZM382.422 94.4653C382.4 94.5157 382.365 94.5487 382.417 94.7128L382.42 94.7222L382.428 94.7434L382.45 94.7925C382.543 94.9845 382.645 95.1656 382.816 95.2581C382.86 95.2506 382.906 95.2455 382.954 95.2431C383.114 95.236 383.215 95.2616 383.28 95.2965C383.286 95.2643 383.287 95.217 383.283 95.1475C383.271 94.9043 383.331 94.4906 382.868 94.2729C382.693 94.191 382.447 94.2163 382.365 94.3185C382.38 94.3203 382.394 94.3235 382.404 94.3271C382.528 94.3708 382.444 94.4137 382.422 94.4653ZM383.721 96.7345C383.66 96.7008 383.376 96.7141 383.176 96.7381C382.796 96.7833 382.385 96.9164 382.295 96.9873C382.131 97.1148 382.206 97.3372 382.327 97.4285C382.666 97.6839 382.963 97.8551 383.276 97.8135C383.469 97.788 383.639 97.4805 383.759 97.2014C383.842 97.0092 383.842 96.8019 383.721 96.7345ZM380.352 94.7664C380.46 94.6637 379.818 94.5287 379.32 94.8711C378.953 95.1236 378.941 95.6652 379.293 95.9721C379.328 96.0025 379.357 96.0241 379.384 96.0417C379.487 95.9929 379.604 95.9436 379.738 95.8996C379.966 95.8251 380.155 95.7867 380.31 95.7662C380.385 95.6824 380.471 95.5349 380.449 95.2676C380.42 94.9052 380.148 94.9628 380.352 94.7664Z" fill="#B160F0"/>
</g>
<rect opacity="0.1" width="48.7952" height="46.082" rx="0.868478" transform="matrix(0.86557 -0.500788 0.86557 0.500788 111.467 134.842)" fill="#2396ED"/>
<path d="M150.092 143.124L150.092 143.124L150.094 143.125C150.753 143.474 151.489 143.65 152.234 143.637C152.977 143.651 153.712 143.475 154.368 143.125L154.368 143.125L154.37 143.124L165.595 136.632C165.868 136.535 166.104 136.356 166.272 136.119C166.44 135.881 166.531 135.596 166.531 135.304C166.531 135.013 166.44 134.728 166.272 134.49C166.104 134.253 165.868 134.074 165.595 133.977L154.37 127.485L154.37 127.485L154.367 127.484C153.705 127.148 152.973 126.973 152.231 126.973C151.489 126.973 150.757 127.148 150.095 127.484L150.095 127.483L150.092 127.485L138.871 133.978C138.613 134.094 138.39 134.277 138.225 134.509C138.061 134.741 137.961 135.013 137.937 135.297L137.936 135.297L137.937 135.306C137.962 135.59 138.062 135.863 138.227 136.095C138.391 136.328 138.613 136.512 138.871 136.631L150.092 143.124ZM165.456 136.357L165.455 136.356L165.447 136.362L154.224 142.866C153.606 143.179 152.924 143.342 152.231 143.342C151.539 143.342 150.856 143.179 150.238 142.866L139.016 136.362L139.016 136.361L139.006 136.357C138.783 136.283 138.589 136.14 138.452 135.949C138.314 135.758 138.24 135.529 138.24 135.293C138.24 135.057 138.314 134.828 138.452 134.637C138.589 134.446 138.783 134.303 139.006 134.229L139.007 134.23L139.016 134.225L150.238 127.731C150.856 127.418 151.539 127.255 152.231 127.255C152.924 127.255 153.606 127.418 154.224 127.731L165.447 134.225L165.446 134.226L165.456 134.229C165.679 134.303 165.873 134.446 166.01 134.637C166.148 134.828 166.222 135.057 166.222 135.293C166.222 135.529 166.148 135.758 166.01 135.949C165.873 136.14 165.679 136.283 165.456 136.357Z" fill="#2396ED" stroke="#2396ED" stroke-width="0.100004"/>
<path opacity="0.4" d="M166.822 132.811V128.961L166.119 128.569C165.92 129.769 164.513 130.565 163.327 130.73L155.287 135.438L151.775 136.712L140.574 130.917L140.835 130.769C139.876 130.32 139.36 129.291 138.844 128.358L138.089 128.808L137.641 128.933V132.851C137.67 133.147 137.777 133.431 137.95 133.674C138.124 133.916 138.357 134.109 138.628 134.233L149.846 140.727C150.585 141.1 151.401 141.294 152.229 141.294C153.056 141.294 153.873 141.1 154.612 140.727L165.835 134.233C166.101 134.11 166.331 133.922 166.503 133.685C166.675 133.448 166.783 133.17 166.817 132.879V132.811H166.822Z" fill="#2396ED"/>
<path d="M166.822 129.388V126.84L166.119 126.448C165.92 127.648 164.513 128.444 163.327 128.609L155.287 133.323L151.775 134.591L140.574 128.796L140.835 128.649C139.876 128.199 139.36 127.176 138.844 126.237L138.089 126.687L137.641 126.817V129.428C137.67 129.724 137.777 130.008 137.95 130.25C138.124 130.493 138.357 130.686 138.628 130.809L149.846 137.303C150.585 137.676 151.401 137.871 152.229 137.871C153.056 137.871 153.873 137.676 154.612 137.303L165.835 130.809C166.102 130.687 166.332 130.497 166.504 130.259C166.676 130.021 166.784 129.742 166.817 129.45V129.388H166.822Z" fill="url(#paint6_linear)"/>
<path opacity="0.3" d="M163.327 128.609L155.287 133.323L152.234 134.426V137.872C153.064 137.889 153.884 137.693 154.617 137.303L165.841 130.809C166.107 130.687 166.338 130.497 166.51 130.259C166.682 130.021 166.79 129.742 166.822 129.45V129.388V126.84L166.181 126.482H166.113C165.898 127.665 164.502 128.444 163.327 128.609Z" fill="#0F054C"/>
<path d="M149.846 134.699L138.628 128.216C137.312 127.46 137.312 126.22 138.628 125.458L149.846 118.964C150.585 118.591 151.401 118.397 152.229 118.397C153.056 118.397 153.873 118.591 154.612 118.964L165.835 125.458C167.146 126.22 167.146 127.46 165.835 128.216L154.618 134.699C153.878 135.075 153.061 135.272 152.232 135.272C151.402 135.272 150.585 135.075 149.846 134.699Z" fill="url(#paint7_linear)"/>
<path d="M165.841 128.216L154.618 134.699C153.879 135.075 153.063 135.27 152.235 135.27C151.407 135.27 150.59 135.075 149.852 134.699L138.628 128.216C138.383 128.102 138.168 127.933 137.999 127.722C137.829 127.511 137.711 127.264 137.652 126.999C137.573 127.568 137.896 128.137 138.628 128.535L149.846 135.029C150.584 135.404 151.401 135.6 152.229 135.6C153.057 135.6 153.874 135.404 154.612 135.029L165.836 128.535C166.135 128.41 166.389 128.196 166.563 127.921C166.737 127.646 166.821 127.324 166.806 126.999C166.748 127.262 166.631 127.509 166.464 127.72C166.297 127.931 166.084 128.1 165.841 128.216Z" fill="white"/>
<path opacity="0.3" d="M163.337 124.176V72.1074H140.643V124.244C140.643 125.735 141.633 125.586 143.676 126.726C147.722 128.963 156.265 128.963 160.311 126.726C162.385 125.571 163.391 125.69 163.337 124.176Z" fill="url(#paint8_linear)"/>
<g clip-path="url(#clip2)">
<path d="M161.487 92.9714C161.087 92.6986 160.17 92.5963 159.453 92.7327C159.369 92.0508 158.986 91.4541 158.319 90.9256L157.935 90.6529L157.668 91.045C157.335 91.5564 157.168 92.2725 157.218 92.9544C157.235 93.193 157.318 93.6192 157.568 93.9943C157.335 94.1307 156.851 94.3012 156.218 94.3012H144.162L144.129 94.4375C144.012 95.1194 144.012 97.2504 145.379 98.887C146.413 100.131 147.947 100.762 149.965 100.762C154.333 100.762 157.568 98.6994 159.086 94.966C159.686 94.983 160.97 94.966 161.62 93.6874C161.637 93.6533 161.67 93.5851 161.787 93.3294L161.854 93.193L161.487 92.9714ZM153.8 88.1639H151.966V89.8687H153.8V88.1639ZM153.8 90.2097H151.966V91.9145H153.8V90.2096V90.2097ZM151.632 90.2097H149.798V91.9145H151.632V90.2096V90.2097ZM149.465 90.2097H147.63V91.9145H149.465V90.2096V90.2097ZM147.297 92.2554H145.463V93.9602H147.297V92.2554L147.297 92.2554ZM149.465 92.2554H147.63V93.9602H149.465V92.2554V92.2554ZM151.632 92.2554H149.798V93.9602H151.632V92.2554V92.2554ZM153.8 92.2554H151.966V93.9602H153.8V92.2554V92.2554ZM155.968 92.2554H154.133V93.9602H155.968V92.2554V92.2554Z" fill="#2396ED"/>
</g>
<path d="M230.861 89.8625L227.952 89.9022L229.438 92.4054L230.861 89.8625ZM182.194 119.177L229.041 91.2415L228.783 90.8079L181.936 118.744L182.194 119.177Z" fill="#8686B3"/>
<path d="M211.804 112.404V117.381H213.762C215.251 117.381 216.096 116.475 216.096 114.858C216.096 113.3 215.241 112.404 213.762 112.404H211.804ZM212.845 113.293H213.597C214.5 113.293 215.034 113.869 215.034 114.875C215.034 115.927 214.517 116.492 213.597 116.492H212.845V113.293ZM220.373 116.492H218.119V115.282H220.246V114.458H218.119V113.297H220.373V112.407H217.078V117.381H220.373V116.492ZM221.469 112.407V117.381H222.51V115.837H223.493C224.541 115.837 225.268 115.151 225.268 114.127C225.268 113.093 224.568 112.407 223.545 112.407H221.469ZM222.51 113.262H223.269C223.869 113.262 224.21 113.566 224.21 114.131C224.21 114.689 223.862 114.993 223.265 114.993H222.51V113.262ZM229.48 116.475H227.267V112.407H226.226V117.381H229.48V116.475ZM232.462 112.28C231 112.28 230.066 113.279 230.066 114.893C230.066 116.506 230.986 117.509 232.462 117.509C233.934 117.509 234.85 116.506 234.85 114.893C234.85 113.283 233.93 112.28 232.462 112.28ZM232.462 113.193C233.272 113.193 233.789 113.852 233.789 114.893C233.789 115.93 233.272 116.595 232.462 116.595C231.645 116.595 231.131 115.93 231.131 114.893C231.131 113.852 231.655 113.193 232.462 113.193ZM237.96 117.381V115.551L239.69 112.407H238.563L237.47 114.489H237.408L236.312 112.407H235.185L236.919 115.551V117.381H237.96Z" fill="#8686B3"/>
<path d="M293.07 82.2598L295.978 82.3195L294.47 84.8124L293.07 82.2598ZM295.139 83.2194L353.064 118.341L352.803 118.772L294.878 83.6512L295.139 83.2194Z" fill="#8686B3"/>
<path d="M293.791 117.381V114.055H293.846L295.115 117.095H295.808L297.073 114.055H297.128V117.381H298.093V112.407H296.869L295.49 115.751H295.428L294.053 112.407H292.826V117.381H293.791ZM301.474 112.28C300.013 112.28 299.079 113.279 299.079 114.893C299.079 116.506 299.999 117.509 301.474 117.509C302.946 117.509 303.863 116.506 303.863 114.893C303.863 113.283 302.943 112.28 301.474 112.28ZM301.474 113.193C302.284 113.193 302.801 113.852 302.801 114.893C302.801 115.93 302.284 116.595 301.474 116.595C300.657 116.595 300.144 115.93 300.144 114.893C300.144 113.852 300.668 113.193 301.474 113.193ZM305.845 117.381V114.269H305.907L308.203 117.381H309.065V112.407H308.068V115.506H308.006L305.718 112.407H304.849V117.381H305.845ZM311.315 117.381V112.407H310.274V117.381H311.315ZM314.769 117.381V113.297H316.262V112.407H312.236V113.297H313.728V117.381H314.769ZM319.185 112.28C317.723 112.28 316.789 113.279 316.789 114.893C316.789 116.506 317.709 117.509 319.185 117.509C320.657 117.509 321.573 116.506 321.573 114.893C321.573 113.283 320.653 112.28 319.185 112.28ZM319.185 113.193C319.995 113.193 320.512 113.852 320.512 114.893C320.512 115.93 319.995 116.595 319.185 116.595C318.368 116.595 317.854 115.93 317.854 114.893C317.854 113.852 318.378 113.193 319.185 113.193ZM323.6 113.248H324.503C325.02 113.248 325.344 113.545 325.344 114.017C325.344 114.496 325.038 114.779 324.514 114.779H323.6V113.248ZM323.6 115.579H324.452L325.379 117.381H326.558L325.51 115.417C326.082 115.189 326.413 114.638 326.413 114.003C326.413 113.014 325.741 112.407 324.648 112.407H322.559V117.381H323.6V115.579Z" fill="#8686B3"/>
<rect opacity="0.1" width="48.7953" height="46.082" rx="0.868478" transform="matrix(0.86557 -0.500787 0.86557 0.500787 214.463 72.3364)" fill="#F8AA14"/>
<path d="M253.087 80.618L253.087 80.6181L253.088 80.6189C253.747 80.9681 254.483 81.1442 255.228 81.1309C255.971 81.145 256.706 80.9688 257.362 80.6189L257.362 80.6189L257.364 80.618L268.589 74.1264C268.862 74.0293 269.098 73.85 269.266 73.6132C269.434 73.375 269.525 73.0903 269.525 72.7985C269.525 72.5066 269.434 72.2219 269.266 71.9837C269.098 71.7469 268.862 71.5676 268.589 71.4705L257.364 64.9789L257.364 64.9788L257.361 64.9776C256.699 64.6417 255.967 64.4667 255.225 64.4667C254.483 64.4667 253.751 64.6417 253.089 64.9776L253.089 64.9775L253.087 64.9789L241.865 71.4716C241.607 71.588 241.384 71.7714 241.22 72.0029C241.055 72.2352 240.955 72.5074 240.931 72.7913L240.93 72.7913L240.931 72.8001C240.956 73.0843 241.057 73.3565 241.221 73.5894C241.385 73.8216 241.607 74.0064 241.865 74.1252L253.087 80.618ZM268.45 73.8514L268.45 73.8503L268.441 73.8555L257.219 80.3602C256.6 80.6731 255.918 80.8361 255.225 80.8361C254.533 80.8361 253.85 80.6731 253.232 80.3602L242.01 73.8555L242.01 73.8546L242.001 73.8514C241.778 73.7771 241.583 73.6344 241.446 73.4433C241.308 73.2523 241.234 73.0227 241.234 72.7871C241.234 72.5515 241.308 72.3219 241.446 72.1308C241.583 71.9398 241.778 71.797 242.001 71.7228L242.001 71.7238L242.01 71.7186L253.232 65.2254C253.85 64.9125 254.533 64.7495 255.225 64.7495C255.918 64.7495 256.6 64.9125 257.219 65.2254L268.441 71.7186L268.44 71.7196L268.45 71.7228C268.673 71.797 268.867 71.9398 269.005 72.1308C269.142 72.3219 269.216 72.5515 269.216 72.7871C269.216 73.0227 269.142 73.2523 269.005 73.4433C268.867 73.6344 268.673 73.7771 268.45 73.8514Z" fill="#FF9900" stroke="#FF9900" stroke-width="0.100004"/>
<path opacity="0.4" d="M269.817 70.305V66.4552L269.113 66.0628C268.914 67.2627 267.507 68.0588 266.321 68.2237L258.281 72.9321L254.769 74.2059L243.568 68.4113L243.829 68.2635C242.87 67.8143 242.354 66.785 241.838 65.8524L241.083 66.3017L240.635 66.4268V70.3448C240.664 70.6415 240.771 70.9252 240.944 71.1677C241.118 71.4101 241.351 71.6028 241.622 71.7266L252.84 78.2206C253.579 78.5936 254.395 78.7879 255.223 78.7879C256.051 78.7879 256.867 78.5936 257.606 78.2206L268.829 71.7266C269.095 71.6045 269.325 71.4158 269.497 71.1788C269.669 70.9417 269.777 70.6643 269.811 70.3732V70.305H269.817Z" fill="#FF9900"/>
<path d="M269.817 66.8817V64.3341L269.113 63.9417C268.914 65.1416 267.507 65.9377 266.321 66.1026L258.281 70.8167L254.769 72.0848L243.568 66.2903L243.829 66.1424C242.87 65.6932 242.354 64.6696 241.838 63.7313L241.083 64.1806L240.635 64.3113V66.9215C240.664 67.2182 240.771 67.5019 240.944 67.7444C241.118 67.9868 241.351 68.1795 241.622 68.3033L252.84 74.7973C253.579 75.1703 254.395 75.3646 255.223 75.3646C256.051 75.3646 256.867 75.1703 257.606 74.7973L268.829 68.3033C269.096 68.1807 269.326 67.9912 269.498 67.753C269.67 67.5149 269.778 67.2363 269.811 66.9442V66.8817H269.817Z" fill="url(#paint9_linear)"/>
<path opacity="0.3" d="M266.321 66.1026L258.281 70.8167L255.229 71.9199V75.3659C256.058 75.383 256.879 75.1873 257.612 74.7973L268.835 68.3033C269.102 68.1807 269.332 67.9911 269.504 67.753C269.676 67.5149 269.784 67.2363 269.817 66.9442V66.8816V64.3341L269.175 63.9758H269.107C268.892 65.1586 267.496 65.9377 266.321 66.1026Z" fill="#0F054C"/>
<path d="M252.84 72.193L241.622 65.7103C240.306 64.954 240.306 63.7144 241.622 62.9524L252.84 56.4584C253.579 56.0854 254.395 55.8911 255.223 55.8911C256.051 55.8911 256.867 56.0854 257.606 56.4584L268.829 62.9524C270.14 63.7144 270.14 64.954 268.829 65.7103L257.612 72.193C256.872 72.5695 256.055 72.7658 255.226 72.7658C254.396 72.7658 253.579 72.5695 252.84 72.193Z" fill="url(#paint10_linear)"/>
<path d="M268.835 65.7103L257.612 72.1929C256.874 72.5686 256.057 72.7643 255.229 72.7643C254.401 72.7643 253.584 72.5686 252.846 72.1929L241.622 65.7103C241.377 65.5962 241.162 65.4271 240.993 65.216C240.823 65.005 240.705 64.7577 240.647 64.4934C240.567 65.0621 240.89 65.6307 241.622 66.0288L252.84 72.5228C253.579 72.8984 254.395 73.0942 255.223 73.0942C256.051 73.0942 256.868 72.8984 257.606 72.5228L268.83 66.0288C269.129 65.904 269.383 65.6896 269.557 65.4148C269.731 65.14 269.815 64.8183 269.8 64.4934C269.742 64.7565 269.625 65.0029 269.458 65.2137C269.291 65.4246 269.078 65.5945 268.835 65.7103Z" fill="white"/>
<path opacity="0.3" d="M266.331 61.6706V9.60156H243.637V61.7377C243.637 63.2288 244.627 63.0798 246.67 64.2205C250.717 66.4572 259.259 66.4572 263.306 64.2205C265.379 63.0649 266.385 63.184 266.331 61.6706Z" fill="url(#paint11_linear)"/>
<g clip-path="url(#clip3)">
<path d="M251.684 26.2078C251.684 26.4248 251.709 26.6008 251.751 26.7299C251.805 26.875 251.87 27.0162 251.945 27.1521C251.975 27.1991 251.987 27.246 251.987 27.2871C251.987 27.3457 251.951 27.4044 251.872 27.463L251.49 27.7094C251.436 27.7446 251.381 27.7622 251.333 27.7622C251.272 27.7622 251.211 27.7328 251.151 27.68C251.069 27.5951 250.996 27.5028 250.932 27.4044C250.872 27.3047 250.811 27.1932 250.745 27.0583C250.272 27.5979 249.677 27.8678 248.962 27.8678C248.453 27.8678 248.046 27.7269 247.749 27.4455C247.452 27.1638 247.301 26.7885 247.301 26.3193C247.301 25.8207 247.483 25.416 247.853 25.111C248.222 24.806 248.713 24.6535 249.338 24.6535C249.544 24.6535 249.756 24.6711 249.981 24.7004C250.205 24.7297 250.435 24.7766 250.678 24.8294V24.4013C250.678 23.9554 250.581 23.6446 250.393 23.4628C250.199 23.2809 249.871 23.1929 249.405 23.1929C249.192 23.1929 248.974 23.2165 248.75 23.2693C248.525 23.322 248.307 23.3865 248.095 23.4687C247.998 23.5097 247.925 23.5332 247.883 23.5449C247.84 23.5567 247.81 23.5625 247.786 23.5625C247.701 23.5625 247.658 23.5038 247.658 23.3807V23.0932C247.658 22.9994 247.671 22.929 247.701 22.888C247.731 22.8469 247.786 22.8059 247.871 22.7648C248.083 22.6592 248.338 22.5712 248.635 22.5009C248.932 22.4246 249.247 22.3894 249.58 22.3894C250.302 22.3894 250.829 22.5478 251.169 22.8645C251.502 23.1812 251.672 23.6622 251.672 24.3074V26.2078H251.684H251.684ZM249.223 27.0994C249.423 27.0994 249.629 27.0642 249.847 26.9938C250.065 26.9234 250.26 26.7943 250.423 26.6184C250.52 26.507 250.593 26.3838 250.629 26.243C250.666 26.1023 250.69 25.9321 250.69 25.7327V25.4864C250.506 25.4431 250.32 25.4098 250.132 25.3867C249.943 25.3634 249.753 25.3517 249.562 25.3514C249.156 25.3514 248.859 25.4277 248.659 25.5861C248.459 25.7445 248.362 25.9673 248.362 26.2606C248.362 26.5362 248.435 26.7415 248.586 26.8824C248.732 27.029 248.944 27.0994 249.223 27.0994ZM254.091 27.7328C253.982 27.7328 253.909 27.7152 253.861 27.6741C253.812 27.639 253.77 27.5569 253.734 27.4455L252.309 22.9114C252.272 22.7941 252.254 22.7178 252.254 22.6768C252.254 22.583 252.303 22.5301 252.4 22.5301H252.994C253.109 22.5301 253.188 22.5478 253.23 22.5888C253.279 22.624 253.315 22.7061 253.352 22.8176L254.37 26.7005L255.316 22.8176C255.346 22.7003 255.383 22.624 255.431 22.5888C255.48 22.5536 255.565 22.5302 255.674 22.5302H256.159C256.274 22.5302 256.353 22.5478 256.401 22.5888C256.45 22.624 256.492 22.7061 256.516 22.8176L257.474 26.7474L258.523 22.8176C258.56 22.7003 258.602 22.624 258.645 22.5888C258.693 22.5536 258.772 22.5302 258.881 22.5302H259.445C259.542 22.5302 259.596 22.5771 259.596 22.6768C259.596 22.7061 259.59 22.7355 259.584 22.7706C259.578 22.8059 259.566 22.8528 259.542 22.9173L258.081 27.4513C258.044 27.5686 258.002 27.6449 257.953 27.68C257.905 27.7152 257.826 27.7387 257.723 27.7387H257.202C257.086 27.7387 257.008 27.7211 256.959 27.68C256.91 27.639 256.868 27.5627 256.844 27.4455L255.904 23.6622L254.97 27.4395C254.94 27.5569 254.904 27.6331 254.855 27.6741C254.807 27.7152 254.722 27.7328 254.613 27.7328H254.091H254.091ZM261.882 27.8912C261.567 27.8912 261.252 27.856 260.949 27.7856C260.645 27.7152 260.409 27.6389 260.251 27.551C260.154 27.4982 260.088 27.4396 260.063 27.3868C260.04 27.335 260.027 27.2791 260.027 27.2225V26.9234C260.027 26.8002 260.075 26.7415 260.166 26.7415C260.204 26.7417 260.24 26.7476 260.276 26.7592C260.312 26.771 260.366 26.7943 260.427 26.8178C260.641 26.9089 260.865 26.9777 261.094 27.0231C261.332 27.0697 261.573 27.0933 261.816 27.0935C262.197 27.0935 262.495 27.029 262.701 26.8999C262.907 26.7709 263.016 26.5832 263.016 26.3427C263.016 26.1785 262.961 26.0436 262.852 25.9321C262.743 25.8207 262.537 25.721 262.24 25.6271L261.361 25.3632C260.918 25.2283 260.591 25.0289 260.391 24.7649C260.191 24.5068 260.088 24.2194 260.088 23.9144C260.088 23.6681 260.142 23.451 260.251 23.2633C260.36 23.0756 260.506 22.9114 260.688 22.7824C260.87 22.6475 261.076 22.5478 261.318 22.4774C261.561 22.407 261.815 22.3777 262.082 22.3777C262.216 22.3777 262.355 22.3836 262.489 22.4011C262.628 22.4187 262.755 22.4422 262.883 22.4656C263.004 22.495 263.119 22.5243 263.228 22.5595C263.337 22.5947 263.422 22.6299 263.483 22.665C263.568 22.712 263.628 22.7589 263.665 22.8117C263.701 22.8587 263.719 22.9231 263.719 23.0053V23.2809C263.719 23.4041 263.671 23.4687 263.58 23.4687C263.531 23.4687 263.453 23.4451 263.35 23.3982C263.004 23.2457 262.616 23.1695 262.185 23.1695C261.84 23.1695 261.567 23.2223 261.379 23.3337C261.191 23.4451 261.094 23.6153 261.094 23.8557C261.094 24.02 261.155 24.1607 261.276 24.2722C261.397 24.3836 261.622 24.4951 261.943 24.5948L262.804 24.8588C263.24 24.9937 263.556 25.1814 263.744 25.4218C263.932 25.6623 264.022 25.938 264.022 26.243C264.022 26.4952 263.968 26.724 263.865 26.9234C263.756 27.1228 263.61 27.2988 263.422 27.4396C263.234 27.5862 263.01 27.6918 262.749 27.768C262.476 27.8502 262.191 27.8912 261.882 27.8912Z" fill="#F9F9FD"/>
<path d="M263.026 30.7418C261.031 32.1671 258.133 32.9238 255.641 32.9238C252.149 32.9238 249.002 31.6744 246.626 29.598C246.438 29.4338 246.607 29.211 246.832 29.3399C249.402 30.7829 252.573 31.6568 255.854 31.6568C258.066 31.6568 260.498 31.2111 262.735 30.2961C263.068 30.1494 263.353 30.5072 263.026 30.7418ZM263.857 29.8268C263.602 29.5101 262.171 29.6743 261.522 29.7505C261.328 29.7741 261.298 29.6098 261.474 29.4866C262.614 28.7123 264.487 28.9353 264.705 29.1933C264.924 29.4573 264.645 31.2697 263.578 32.1378C263.414 32.2727 263.256 32.2024 263.329 32.0264C263.572 31.4456 264.111 30.1377 263.857 29.8268Z" fill="#FF9900"/>
</g>
<defs>
<linearGradient id="paint0_linear" x1="7544.17" y1="1402.15" x2="8056.83" y2="2144.57" gradientUnits="userSpaceOnUse">
<stop stop-color="#BCBEFF"/>
<stop offset="0.23" stop-color="#AAADF8"/>
<stop offset="0.68" stop-color="#7C83E5"/>
<stop offset="1" stop-color="#5761D7"/>
</linearGradient>
<linearGradient id="paint1_linear" x1="7393.68" y1="2085.95" x2="8894.29" y2="2085.95" gradientUnits="userSpaceOnUse">
<stop stop-color="#E9E9FD"/>
<stop offset="0.36" stop-color="#D3D2F9"/>
<stop offset="0.71" stop-color="#C5C4F7"/>
<stop offset="1" stop-color="#C0BFF6"/>
</linearGradient>
<linearGradient id="paint2_linear" x1="40.9849" y1="167.33" x2="40.9849" y2="202.952" gradientUnits="userSpaceOnUse">
<stop stop-color="#151B2B" stop-opacity="0"/>
<stop offset="0.515094" stop-color="#6273A0" stop-opacity="0.49"/>
<stop offset="1" stop-color="#E9E9FD"/>
</linearGradient>
<linearGradient id="paint3_linear" x1="7883.48" y1="1330.47" x2="8396.14" y2="2072.9" gradientUnits="userSpaceOnUse">
<stop stop-color="#BCBEFF"/>
<stop offset="0.23" stop-color="#AAADF8"/>
<stop offset="0.68" stop-color="#7C83E5"/>
<stop offset="1" stop-color="#5761D7"/>
</linearGradient>
<linearGradient id="paint4_linear" x1="7732.99" y1="2014.27" x2="9233.59" y2="2014.27" gradientUnits="userSpaceOnUse">
<stop stop-color="#E9E9FD"/>
<stop offset="0.36" stop-color="#D3D2F9"/>
<stop offset="0.71" stop-color="#C5C4F7"/>
<stop offset="1" stop-color="#C0BFF6"/>
</linearGradient>
<linearGradient id="paint5_linear" x1="380.293" y1="95.6496" x2="380.293" y2="131.271" gradientUnits="userSpaceOnUse">
<stop stop-color="#151B2B" stop-opacity="0"/>
<stop offset="0.515094" stop-color="#6273A0" stop-opacity="0.49"/>
<stop offset="1" stop-color="#E9E9FD"/>
</linearGradient>
<linearGradient id="paint6_linear" x1="7655.17" y1="1327.6" x2="8167.84" y2="2070.02" gradientUnits="userSpaceOnUse">
<stop stop-color="#BCBEFF"/>
<stop offset="0.23" stop-color="#AAADF8"/>
<stop offset="0.68" stop-color="#7C83E5"/>
<stop offset="1" stop-color="#5761D7"/>
</linearGradient>
<linearGradient id="paint7_linear" x1="7504.69" y1="2011.4" x2="9005.29" y2="2011.4" gradientUnits="userSpaceOnUse">
<stop stop-color="#E9E9FD"/>
<stop offset="0.36" stop-color="#D3D2F9"/>
<stop offset="0.71" stop-color="#C5C4F7"/>
<stop offset="1" stop-color="#C0BFF6"/>
</linearGradient>
<linearGradient id="paint8_linear" x1="151.991" y1="92.7825" x2="151.991" y2="128.404" gradientUnits="userSpaceOnUse">
<stop stop-color="#151B2B" stop-opacity="0"/>
<stop offset="0.515094" stop-color="#6273A0" stop-opacity="0.49"/>
<stop offset="1" stop-color="#E9E9FD"/>
</linearGradient>
<linearGradient id="paint9_linear" x1="7758.16" y1="1265.1" x2="8270.83" y2="2007.52" gradientUnits="userSpaceOnUse">
<stop stop-color="#BCBEFF"/>
<stop offset="0.23" stop-color="#AAADF8"/>
<stop offset="0.68" stop-color="#7C83E5"/>
<stop offset="1" stop-color="#5761D7"/>
</linearGradient>
<linearGradient id="paint10_linear" x1="7607.68" y1="1948.89" x2="9108.29" y2="1948.89" gradientUnits="userSpaceOnUse">
<stop stop-color="#E9E9FD"/>
<stop offset="0.36" stop-color="#D3D2F9"/>
<stop offset="0.71" stop-color="#C5C4F7"/>
<stop offset="1" stop-color="#C0BFF6"/>
</linearGradient>
<linearGradient id="paint11_linear" x1="254.985" y1="30.2767" x2="254.985" y2="65.898" gradientUnits="userSpaceOnUse">
<stop stop-color="#151B2B" stop-opacity="0"/>
<stop offset="0.515094" stop-color="#FF9900" stop-opacity="0.26"/>
<stop offset="1" stop-color="#FF9900" stop-opacity="0.48"/>
</linearGradient>
<clipPath id="clip0">
<rect width="13.7327" height="13.7627" fill="white" transform="translate(34.2207 162.712)"/>
</clipPath>
<clipPath id="clip1">
<rect width="14.5625" height="15.6208" fill="white" transform="translate(373.248 91.3416)"/>
</clipPath>
<clipPath id="clip2">
<rect width="17.7717" height="12.6158" fill="white" transform="translate(144.082 88.1639)"/>
</clipPath>
<clipPath id="clip3">
<rect width="18.3102" height="10.5867" fill="white" transform="translate(246.506 22.3718)"/>
</clipPath>
</defs>
</svg>
