<svg width="305" height="169" viewBox="0 0 305 169" fill="none" xmlns="http://www.w3.org/2000/svg">
<g clip-path="url(#clip0)">
<path d="M0.200567 129.177L220.306 -1.31691e-05" stroke="#5D64D2" stroke-width="0.528136"/>
<rect opacity="0.1" width="189.387" height="49.363" rx="1.05627" transform="matrix(0.866044 -0.499967 0.866044 0.499967 19.5391 96.5487)" fill="#5D64D2"/>
<path d="M77.9761 96.8747L77.9761 96.8748L77.9778 96.8757C78.5917 97.2004 79.278 97.3643 79.9724 97.3518C80.6653 97.365 81.3501 97.2011 81.9619 96.8756L81.9619 96.8756L81.9635 96.8747L92.4111 90.8458C92.6662 90.7552 92.8871 90.588 93.0436 90.3671C93.2011 90.1448 93.2857 89.8791 93.2857 89.6067C93.2857 89.3343 93.2011 89.0686 93.0436 88.8463C92.8871 88.6254 92.6662 88.4582 92.4111 88.3676L81.9635 82.3387L81.9635 82.3386L81.9609 82.3373C81.3437 82.025 80.6616 81.8622 79.9698 81.8622C79.278 81.8622 78.5959 82.025 77.9786 82.3373L77.9786 82.3373L77.9761 82.3387L67.5319 88.3687C67.2903 88.4772 67.082 88.6482 66.9284 88.8641C66.7744 89.0808 66.6811 89.3347 66.6583 89.5996L66.6575 89.5995L66.6583 89.6089C66.6824 89.8739 66.7761 90.1278 66.9298 90.345C67.0831 90.5615 67.2907 90.7338 67.5317 90.8446L77.9761 96.8747ZM92.2772 90.5785L92.2769 90.5775L92.2674 90.5829L81.8222 96.6241C81.2478 96.9142 80.6133 97.0653 79.9698 97.0653C79.3263 97.0653 78.6918 96.9142 78.1174 96.6241L67.6722 90.5829L67.6727 90.582L67.6624 90.5785C67.456 90.51 67.2765 90.3782 67.1492 90.2019C67.022 90.0255 66.9535 89.8136 66.9535 89.5962C66.9535 89.3787 67.022 89.1668 67.1492 88.9904C67.2765 88.8141 67.456 88.6823 67.6624 88.6138L67.6627 88.6148L67.6721 88.6094L78.1174 82.5788C78.6918 82.2887 79.3263 82.1376 79.9698 82.1376C80.6133 82.1376 81.2478 82.2887 81.8222 82.5788L92.2674 88.6094L92.2669 88.6103L92.2772 88.6138C92.4836 88.6823 92.6631 88.8141 92.7904 88.9904C92.9176 89.1668 92.9861 89.3787 92.9861 89.5962C92.9861 89.8136 92.9176 90.0255 92.7904 90.2019C92.6631 90.3782 92.4836 90.51 92.2772 90.5785Z" fill="#B160F0" stroke="#B160F0" stroke-width="0.105627"/>
<path opacity="0.2" d="M93.5488 87.2908V83.7153L92.8939 83.3509C92.709 84.4653 91.3992 85.2047 90.2954 85.3578L82.8117 89.7308L79.5426 90.9138L69.1172 85.5321L69.3601 85.3948C68.4676 84.9776 67.987 84.0217 67.5064 83.1555L66.8039 83.5727L66.3867 83.6889V87.3278C66.4144 87.6034 66.5138 87.8669 66.675 88.0921C66.8362 88.3172 67.0537 88.4962 67.3057 88.6112L77.7469 94.6425C78.435 94.9889 79.1947 95.1693 79.9651 95.1693C80.7355 95.1693 81.4952 94.9889 82.1833 94.6425L92.6298 88.6112C92.8772 88.4978 93.0913 88.3225 93.2513 88.1024C93.4113 87.8822 93.512 87.6246 93.5435 87.3542V87.2908H93.5488Z" fill="#B160F0"/>
<path d="M93.5488 84.1115V81.7455L92.8939 81.3811C92.709 82.4954 91.3992 83.2348 90.2954 83.388L82.8117 87.7662L79.5426 88.944L69.1172 83.5623L69.3601 83.425C68.4676 83.0077 67.987 82.0571 67.5064 81.1857L66.8039 81.6029L66.3867 81.7244V84.1485C66.4144 84.4241 66.5138 84.6876 66.675 84.9128C66.8362 85.138 67.0537 85.3169 67.3057 85.4319L77.7469 91.4632C78.435 91.8096 79.1947 91.9901 79.9651 91.9901C80.7355 91.9901 81.4952 91.8096 82.1833 91.4632L92.6298 85.4319C92.8779 85.318 93.0924 85.142 93.2525 84.9208C93.4126 84.6997 93.5128 84.4409 93.5435 84.1696V84.1115H93.5488Z" fill="url(#paint0_linear)"/>
<path opacity="0.3" d="M90.2958 83.3881L82.8121 87.7663L79.9707 88.7909V91.9914C80.743 92.0073 81.5066 91.8255 82.1889 91.4633L92.6354 85.432C92.8835 85.3181 93.0981 85.1421 93.2581 84.9209C93.4182 84.6998 93.5185 84.441 93.5491 84.1697V84.1116V81.7456L92.9523 81.4128H92.8889C92.6882 82.5114 91.389 83.2349 90.2958 83.3881Z" fill="#0F054C"/>
<path d="M77.7469 89.0442L67.3057 83.0235C66.0804 82.321 66.0804 81.1697 67.3057 80.462L77.7469 74.4307C78.435 74.0843 79.1947 73.9038 79.9651 73.9038C80.7355 73.9038 81.4952 74.0843 82.1833 74.4307L92.6298 80.462C93.8498 81.1697 93.8498 82.321 92.6298 83.0235L82.1886 89.0442C81.5005 89.3939 80.7396 89.5762 79.9677 89.5762C79.1959 89.5762 78.435 89.3939 77.7469 89.0442Z" fill="url(#paint1_linear)"/>
<path d="M92.6355 83.0235L82.1889 89.0443C81.5016 89.3931 80.7416 89.575 79.9707 89.575C79.1999 89.575 78.44 89.3931 77.7526 89.0443L67.306 83.0235C67.078 82.9175 66.8774 82.7605 66.7199 82.5645C66.5624 82.3685 66.4521 82.1388 66.3976 81.8933C66.3237 82.4214 66.6247 82.9496 67.306 83.3193L77.7473 89.3506C78.4347 89.6995 79.1946 89.8813 79.9655 89.8813C80.7363 89.8813 81.4963 89.6995 82.1836 89.3506L92.6302 83.3193C92.9091 83.2034 93.1455 83.0042 93.3071 82.749C93.4687 82.4939 93.5477 82.195 93.5333 81.8933C93.4796 82.1376 93.3708 82.3665 93.2152 82.5623C93.0596 82.7582 92.8613 82.9159 92.6355 83.0235Z" fill="white"/>
<rect x="75.5996" y="53.4995" width="7.92204" height="13.7315" fill="#E8EBFA"/>
<path opacity="0.4" d="M90.3071 79.2715V30.9122H69.1836V79.3338C69.1836 80.7186 70.1055 80.5803 72.0068 81.6397C75.7734 83.717 83.7245 83.717 87.4911 81.6397C89.4213 80.5665 90.3575 80.6771 90.3071 79.2715Z" fill="url(#paint2_linear)"/>
<g clip-path="url(#clip1)">
<path d="M84.6299 57.8155C84.4799 57.764 84.3285 57.7163 84.176 57.6724C84.2016 57.5678 84.2252 57.4644 84.2462 57.3628C84.5898 55.6947 84.3651 54.3509 83.5978 53.9084C82.8622 53.4842 81.659 53.9265 80.4439 54.984C80.3242 55.0884 80.2071 55.1959 80.0927 55.3062C80.0162 55.2328 79.9383 55.1609 79.8591 55.0904C78.5856 53.9597 77.3092 53.4831 76.5427 53.9269C75.8077 54.3524 75.59 55.6157 75.8994 57.1965C75.9302 57.3531 75.9649 57.5089 76.0036 57.6637C75.8229 57.715 75.6486 57.7696 75.4817 57.8278C73.9886 58.3484 73.0352 59.1642 73.0352 60.0103C73.0352 60.8843 74.0588 61.7609 75.6139 62.2924C75.7399 62.3353 75.8671 62.3751 75.9951 62.4117C75.9535 62.5784 75.9166 62.7463 75.8844 62.9151C75.5895 64.4685 75.8198 65.7019 76.5528 66.1247C77.3099 66.5614 78.5807 66.1126 79.818 65.031C79.9183 64.9431 80.0164 64.8526 80.1122 64.7598C80.236 64.8793 80.3632 64.9952 80.4934 65.1076C81.692 66.139 82.8757 66.5554 83.608 66.1315C84.3644 65.6936 84.6103 64.3685 84.2911 62.7564C84.266 62.6301 84.2378 62.5044 84.2065 62.3795C84.2958 62.3531 84.3834 62.3259 84.4688 62.2975C86.0854 61.7619 87.1373 60.896 87.1373 60.0103C87.1373 59.1611 86.153 58.3398 84.6299 57.8155ZM84.2793 61.7257C84.2022 61.7513 84.1231 61.7759 84.0424 61.7998C83.864 61.2348 83.6231 60.634 83.3284 60.0133C83.6096 59.4073 83.8412 58.8142 84.0147 58.2529C84.159 58.2946 84.2989 58.3386 84.4339 58.3851C85.7389 58.8344 86.5349 59.4985 86.5349 60.0103C86.5349 60.5555 85.6752 61.2632 84.2793 61.7257ZM83.7001 62.8734C83.8413 63.5862 83.8614 64.2308 83.7679 64.7346C83.6839 65.1874 83.515 65.4892 83.3062 65.6101C82.8618 65.8674 81.9114 65.533 80.8864 64.651C80.7652 64.5465 80.647 64.4386 80.5318 64.3276C80.9292 63.893 81.3263 63.3878 81.7139 62.8267C82.3956 62.7662 83.0397 62.6673 83.6238 62.5323C83.6525 62.6483 83.6781 62.7621 83.7001 62.8734ZM77.8429 65.5657C77.4087 65.719 77.0629 65.7234 76.8538 65.6028C76.409 65.3463 76.2241 64.3559 76.4763 63.0274C76.5063 62.8705 76.5406 62.7143 76.5793 62.5593C77.1569 62.6871 77.7963 62.7789 78.4796 62.8344C78.8699 63.3834 79.2784 63.8881 79.6902 64.33C79.6027 64.4146 79.5131 64.4971 79.4216 64.5774C78.8744 65.0557 78.3261 65.395 77.8429 65.5657ZM75.8088 61.7224C75.1211 61.4873 74.5532 61.1819 74.164 60.8485C73.8142 60.549 73.6376 60.2516 73.6376 60.0103C73.6376 59.4968 74.4032 58.8419 75.68 58.3967C75.835 58.3427 75.9972 58.2918 76.1655 58.2439C76.3419 58.8179 76.5734 59.4181 76.8528 60.025C76.5698 60.6409 76.335 61.2506 76.1568 61.8314C76.0399 61.7979 75.9239 61.7616 75.8088 61.7224ZM76.4906 57.0808C76.2256 55.7264 76.4016 54.7047 76.8446 54.4483C77.3163 54.1751 78.3595 54.5645 79.4591 55.5409C79.5308 55.6047 79.6014 55.6698 79.6707 55.7362C79.261 56.1762 78.8562 56.6771 78.4694 57.2229C77.8061 57.2843 77.1713 57.3831 76.5876 57.5153C76.5516 57.3713 76.5193 57.2265 76.4906 57.0808V57.0808ZM82.5737 58.5829C82.4358 58.3447 82.2928 58.1096 82.1448 57.8776C82.5948 57.9345 83.0259 58.01 83.4307 58.1024C83.3092 58.4919 83.1577 58.8992 82.9794 59.3168C82.849 59.0695 82.7138 58.8248 82.5737 58.5829ZM80.093 56.1667C80.3709 56.4678 80.6492 56.8039 80.9229 57.1685C80.3676 57.1423 79.8114 57.1422 79.2561 57.1682C79.5301 56.8069 79.8108 56.4713 80.093 56.1667ZM77.5964 58.587C77.4581 58.827 77.3253 59.0701 77.1983 59.3163C77.0229 58.9002 76.8728 58.4911 76.7502 58.096C77.1526 58.006 77.5817 57.9324 78.0288 57.8765C77.8791 58.1099 77.735 58.3468 77.5964 58.587V58.587ZM78.0416 62.187C77.5797 62.1355 77.1442 62.0657 76.7419 61.9781C76.8664 61.576 77.0198 61.1581 77.199 60.7331C77.3266 60.9795 77.4598 61.2228 77.5988 61.4628C77.7417 61.7096 77.8897 61.9513 78.0416 62.187ZM80.1096 63.8964C79.8241 63.5883 79.5393 63.2475 79.2611 62.881C79.5312 62.8915 79.8065 62.8969 80.0862 62.8969C80.3737 62.8969 80.6578 62.8905 80.9375 62.878C80.6629 63.2512 80.3856 63.5925 80.1096 63.8964ZM82.9851 60.7114C83.1736 61.1411 83.3324 61.5567 83.4586 61.952C83.0497 62.0453 82.6083 62.1204 82.1431 62.1762C82.2922 61.94 82.4365 61.7007 82.576 61.4587C82.7179 61.2127 82.8543 60.9635 82.9851 60.7114ZM82.0542 61.1577C81.8406 61.5288 81.615 61.8928 81.3777 62.2492C80.9479 62.2797 80.5171 62.2948 80.0862 62.2946C79.6474 62.2946 79.2205 62.2809 78.8094 62.2542C78.566 61.8987 78.336 61.534 78.1201 61.161H78.1202C77.9053 60.79 77.7046 60.411 77.5185 60.0247C77.7041 59.6384 77.9042 59.2592 78.1184 58.8879L78.1183 58.888C78.3324 58.5166 78.5605 58.1535 78.8021 57.7994C79.2215 57.7677 79.6515 57.7511 80.0862 57.7511H80.0862C80.5229 57.7511 80.9535 57.7678 81.3727 57.7998C81.6119 58.1533 81.8386 58.5152 82.0522 58.8847C82.2671 59.2552 82.4698 59.6325 82.6602 60.0162C82.4718 60.4038 82.2697 60.7845 82.0542 61.1577ZM83.297 54.4303C83.7692 54.7026 83.9528 55.8009 83.6561 57.2411C83.6372 57.333 83.6159 57.4266 83.5928 57.5215C83.0076 57.3865 82.3723 57.286 81.7072 57.2236C81.3197 56.6718 80.9182 56.1702 80.5151 55.7359C80.6207 55.634 80.7289 55.5348 80.8394 55.4384C81.8806 54.5324 82.8536 54.1746 83.297 54.4303ZM80.0862 58.7511C80.7817 58.7511 81.3455 59.3149 81.3455 60.0103C81.3455 60.7058 80.7817 61.2696 80.0862 61.2696C79.3908 61.2696 78.827 60.7058 78.827 60.0103C78.827 59.3149 79.3908 58.7511 80.0862 58.7511Z" fill="#B160F0"/>
</g>
<path d="M169.654 45.1178L169.654 45.1178L169.656 45.1187C170.269 45.4435 170.956 45.6073 171.65 45.5949C172.343 45.608 173.028 45.4441 173.64 45.1187L173.64 45.1187L173.641 45.1178L184.089 39.0889C184.344 38.9982 184.565 38.8311 184.721 38.6102C184.879 38.3879 184.963 38.1222 184.963 37.8498C184.963 37.5773 184.879 37.3116 184.721 37.0894C184.565 36.8685 184.344 36.7013 184.089 36.6106L173.641 30.5818L173.641 30.5817L173.639 30.5804C173.021 30.268 172.339 30.1053 171.648 30.1053C170.956 30.1053 170.274 30.268 169.656 30.5804L169.656 30.5803L169.654 30.5818L159.21 36.6117C158.968 36.7203 158.76 36.8913 158.606 37.1072C158.452 37.3238 158.359 37.5777 158.336 37.8426L158.335 37.8425L158.336 37.8519C158.36 38.1169 158.454 38.3709 158.608 38.5881C158.761 38.8046 158.968 38.9769 159.209 39.0877L169.654 45.1178ZM183.955 38.8216L183.955 38.8205L183.945 38.826L173.5 44.8671C172.926 45.1572 172.291 45.3084 171.648 45.3084C171.004 45.3084 170.37 45.1572 169.795 44.8671L159.35 38.826L159.35 38.825L159.34 38.8216C159.134 38.753 158.954 38.6213 158.827 38.4449C158.7 38.2686 158.631 38.0567 158.631 37.8392C158.631 37.6217 158.7 37.4098 158.827 37.2335C158.954 37.0571 159.134 36.9254 159.34 36.8568L159.34 36.8579L159.35 36.8524L169.795 30.8219C170.37 30.5318 171.004 30.3806 171.648 30.3806C172.291 30.3806 172.926 30.5318 173.5 30.8219L183.945 36.8524L183.945 36.8534L183.955 36.8568C184.161 36.9254 184.341 37.0571 184.468 37.2335C184.595 37.4098 184.664 37.6217 184.664 37.8392C184.664 38.0567 184.595 38.2686 184.468 38.4449C184.341 38.6213 184.161 38.753 183.955 38.8216Z" fill="#5D64D2" stroke="#5D64D2" stroke-width="0.105627"/>
<path opacity="0.2" d="M185.226 35.5337V31.9583L184.572 31.5938C184.387 32.7082 183.077 33.4476 181.973 33.6008L174.489 37.9737L171.22 39.1568L160.795 33.775L161.038 33.6377C160.145 33.2205 159.665 32.2646 159.184 31.3984L158.482 31.8157L158.064 31.9319V35.5707C158.092 35.8463 158.191 36.1098 158.353 36.335C158.514 36.5602 158.731 36.7391 158.983 36.8541L169.425 42.8854C170.113 43.2318 170.872 43.4123 171.643 43.4123C172.413 43.4123 173.173 43.2318 173.861 42.8854L184.308 36.8541C184.555 36.7407 184.769 36.5655 184.929 36.3453C185.089 36.1251 185.19 35.8675 185.221 35.5971V35.5337H185.226Z" fill="#5D64D2"/>
<path d="M185.226 32.3544V29.9884V27.4797C185.226 27.4797 183.045 30.2313 181.941 30.3845L174.283 35.1377H171.643L163.192 31.6309L161.872 29.9884C160.979 29.5711 160.24 29.1434 159.759 28.2719L158.064 27.4797V29.9672V32.3914C158.092 32.6669 158.191 32.9305 158.353 33.1556C158.514 33.3808 158.731 33.5598 158.983 33.6747L169.425 39.7061C170.113 40.0525 170.872 40.2329 171.643 40.2329C172.413 40.2329 173.173 40.0525 173.861 39.7061L184.308 33.6747C184.556 33.5609 184.77 33.3849 184.93 33.1637C185.09 32.9425 185.191 32.6838 185.221 32.4125V32.3544H185.226Z" fill="url(#paint3_linear)"/>
<path opacity="0.3" d="M175.869 34.0817L170.588 35.6661L171.65 35.3474V40.2344C172.422 40.2503 173.186 40.0685 173.868 39.7062L182.207 34.8739C182.455 34.76 184.777 33.385 184.938 33.1639C185.098 32.9427 185.198 32.684 185.228 32.4127V32.3546V27.744C185.028 28.8425 176.962 33.9285 175.869 34.0817Z" fill="#0F054C"/>
<path d="M169.425 35.1747L158.983 29.1539C157.758 28.4515 157.758 27.3002 158.983 26.5925L169.425 20.5612C170.113 20.2147 170.872 20.0343 171.643 20.0343C172.413 20.0343 173.173 20.2147 173.861 20.5612L184.308 26.5925C185.528 27.3002 185.528 28.4515 184.308 29.1539L173.866 35.1747C173.178 35.5244 172.417 35.7067 171.645 35.7067C170.874 35.7067 170.113 35.5244 169.425 35.1747Z" fill="url(#paint4_linear)"/>
<path d="M171.761 22.3185L171.148 21.9645L171.761 21.6105L172.376 21.9645L171.761 22.3185Z" fill="#A8A8C1"/>
<path opacity="0.1" d="M172.987 23.03L172.375 22.6759L172.987 22.3186L173.603 22.6759L172.987 23.03Z" fill="#A8A8C1"/>
<path opacity="0.4" d="M174.216 23.738L173.604 23.3839L174.216 23.0299L174.831 23.3839L174.216 23.738Z" fill="#A8A8C1"/>
<path d="M175.444 24.4462L174.832 24.0922L175.444 23.7382L176.06 24.0922L175.444 24.4462Z" fill="#A8A8C1"/>
<path opacity="0.4" d="M176.671 25.1542L176.059 24.8002L176.671 24.4462L177.286 24.8002L176.671 25.1542Z" fill="#A8A8C1"/>
<path d="M177.897 25.8622L177.285 25.5082L177.897 25.1542L178.513 25.5082L177.897 25.8622Z" fill="#A8A8C1"/>
<path d="M179.124 26.5736L178.512 26.2195L179.124 25.8622L179.739 26.2195L179.124 26.5736Z" fill="#A8A8C1"/>
<path d="M180.354 27.2816L179.742 26.9275L180.354 26.5735L180.97 26.9275L180.354 27.2816Z" fill="#A8A8C1"/>
<path opacity="0.1" d="M181.581 27.9898L180.969 27.6358L181.581 27.2817L182.196 27.6358L181.581 27.9898Z" fill="#A8A8C1"/>
<path d="M170.528 23.03L169.912 22.6759L170.528 22.3219L171.14 22.6759L170.528 23.03Z" fill="#A8A8C1"/>
<path d="M171.758 23.7415L171.143 23.3875L171.758 23.0302L172.37 23.3875L171.758 23.7415Z" fill="#A8A8C1"/>
<path d="M172.985 24.4494L172.369 24.0954L172.985 23.7413L173.597 24.0954L172.985 24.4494Z" fill="#A8A8C1"/>
<path d="M174.211 25.1575L173.596 24.8035L174.211 24.4495L174.823 24.8035L174.211 25.1575Z" fill="#A8A8C1"/>
<path d="M175.438 25.8655L174.822 25.5115L175.438 25.1575L176.05 25.5115L175.438 25.8655Z" fill="#A8A8C1"/>
<path d="M176.664 26.5737L176.049 26.2196L176.664 25.8656L177.276 26.2196L176.664 26.5737Z" fill="#A8A8C1"/>
<path d="M177.893 27.2851L177.277 26.9278L177.893 26.5737L178.505 26.9278L177.893 27.2851Z" fill="#A8A8C1"/>
<path d="M179.121 27.9932L178.506 27.6392L179.121 27.2852L179.733 27.6392L179.121 27.9932Z" fill="#A8A8C1"/>
<path d="M180.35 28.7012L179.734 28.3472L180.35 27.9932L180.962 28.3472L180.35 28.7012Z" fill="#A8A8C1"/>
<path d="M169.296 23.7447L168.684 23.3907L169.296 23.0333L169.911 23.3907L169.296 23.7447Z" fill="#A8A8C1"/>
<path d="M170.522 24.4526L169.91 24.0985L170.522 23.7445L171.138 24.0985L170.522 24.4526Z" fill="#A8A8C1"/>
<path d="M171.749 25.1607L171.137 24.8067L171.749 24.4526L172.364 24.8067L171.749 25.1607Z" fill="#A8A8C1"/>
<path opacity="0.1" d="M172.979 25.8688L172.367 25.5148L172.979 25.1608L173.595 25.5148L172.979 25.8688Z" fill="#A8A8C1"/>
<path opacity="0.4" d="M174.206 26.5767L173.594 26.2227L174.206 25.8687L174.821 26.2227L174.206 26.5767Z" fill="#A8A8C1"/>
<path opacity="0.4" d="M175.432 27.285L174.82 26.9309L175.432 26.5769L176.048 26.9309L175.432 27.285Z" fill="#A8A8C1"/>
<path d="M176.659 27.9963L176.047 27.6423L176.659 27.2849L177.274 27.6423L176.659 27.9963Z" fill="#A8A8C1"/>
<path d="M177.886 28.7044L177.273 28.3504L177.886 27.9963L178.501 28.3504L177.886 28.7044Z" fill="#A8A8C1"/>
<path d="M179.116 29.4124L178.504 29.0584L179.116 28.7043L179.731 29.0584L179.116 29.4124Z" fill="#A8A8C1"/>
<path opacity="0.4" d="M168.067 24.456L167.451 24.102L168.067 23.7446L168.679 24.102L168.067 24.456Z" fill="#A8A8C1"/>
<path opacity="0.4" d="M169.293 25.1642L168.678 24.8102L169.293 24.4562L169.905 24.8102L169.293 25.1642Z" fill="#A8A8C1"/>
<path opacity="0.1" d="M170.52 25.8723L169.904 25.5182L170.52 25.1642L171.132 25.5182L170.52 25.8723Z" fill="#A8A8C1"/>
<path d="M171.746 26.5803L171.131 26.2262L171.746 25.8722L172.358 26.2262L171.746 26.5803Z" fill="#A8A8C1"/>
<path d="M172.973 27.2883L172.357 26.9342L172.973 26.5802L173.585 26.9342L172.973 27.2883Z" fill="#A8A8C1"/>
<path d="M174.203 27.9998L173.588 27.6425L174.203 27.2885L174.815 27.6425L174.203 27.9998Z" fill="#A8A8C1"/>
<path opacity="0.4" d="M175.43 28.7078L174.814 28.3538L175.43 27.9998L176.042 28.3538L175.43 28.7078Z" fill="#A8A8C1"/>
<path d="M176.656 29.416L176.041 29.0619L176.656 28.7079L177.269 29.0619L176.656 29.416Z" fill="#A8A8C1"/>
<path d="M177.885 30.124L177.27 29.7699L177.885 29.4159L178.497 29.7699L177.885 30.124Z" fill="#A8A8C1"/>
<path d="M166.831 25.1673L166.219 24.8133L166.831 24.4592L167.446 24.8133L166.831 25.1673Z" fill="#A8A8C1"/>
<path d="M168.057 25.8753L167.445 25.5213L168.057 25.1672L168.673 25.5213L168.057 25.8753Z" fill="#A8A8C1"/>
<path d="M169.284 26.5834L168.672 26.2294L169.284 25.8754L169.899 26.2294L169.284 26.5834Z" fill="#A8A8C1"/>
<path d="M170.511 27.2914L169.898 26.9374L170.511 26.5834L171.126 26.9374L170.511 27.2914Z" fill="#A8A8C1"/>
<path d="M171.741 27.9994L171.129 27.6454L171.741 27.2914L172.356 27.6454L171.741 27.9994Z" fill="#A8A8C1"/>
<path d="M172.968 28.7108L172.355 28.3567L172.968 27.9994L173.583 28.3567L172.968 28.7108Z" fill="#A8A8C1"/>
<path d="M174.194 29.4189L173.582 29.0648L174.194 28.7108L174.81 29.0648L174.194 29.4189Z" fill="#A8A8C1"/>
<path d="M175.421 30.127L174.809 29.773L175.421 29.4189L176.036 29.773L175.421 30.127Z" fill="#A8A8C1"/>
<path d="M176.649 30.8351L176.037 30.4811L176.649 30.1271L177.265 30.4811L176.649 30.8351Z" fill="#A8A8C1"/>
<path d="M165.598 25.8786L164.982 25.5246L165.598 25.1672L166.21 25.5246L165.598 25.8786Z" fill="#A8A8C1"/>
<path d="M166.828 26.5867L166.213 26.2327L166.828 25.8787L167.44 26.2327L166.828 26.5867Z" fill="#A8A8C1"/>
<path opacity="0.4" d="M168.055 27.2947L167.439 26.9407L168.055 26.5867L168.667 26.9407L168.055 27.2947Z" fill="#A8A8C1"/>
<path d="M169.281 28.0026L168.666 27.6486L169.281 27.2946L169.894 27.6486L169.281 28.0026Z" fill="#A8A8C1"/>
<path opacity="0.1" d="M170.508 28.7109L169.893 28.3568L170.508 28.0028L171.12 28.3568L170.508 28.7109Z" fill="#A8A8C1"/>
<path d="M171.735 29.4222L171.119 29.0682L171.735 28.7108L172.347 29.0682L171.735 29.4222Z" fill="#A8A8C1"/>
<path d="M172.965 30.1302L172.35 29.7762L172.965 29.4221L173.577 29.7762L172.965 30.1302Z" fill="#A8A8C1"/>
<path d="M174.192 30.8383L173.576 30.4843L174.192 30.1302L174.804 30.4843L174.192 30.8383Z" fill="#A8A8C1"/>
<path d="M175.42 31.5464L174.805 31.1924L175.42 30.8384L176.032 31.1924L175.42 31.5464Z" fill="#A8A8C1"/>
<path d="M164.366 26.5903L163.754 26.2362L164.366 25.8822L164.981 26.2362L164.366 26.5903Z" fill="#A8A8C1"/>
<path d="M165.593 27.2983L164.98 26.9442L165.593 26.5902L166.208 26.9442L165.593 27.2983Z" fill="#A8A8C1"/>
<path opacity="0.4" d="M166.819 28.0065L166.207 27.6525L166.819 27.2985L167.435 27.6525L166.819 28.0065Z" fill="#A8A8C1"/>
<path d="M168.05 28.7145L167.438 28.3605L168.05 28.0065L168.665 28.3605L168.05 28.7145Z" fill="#A8A8C1"/>
<path d="M169.276 29.426L168.664 29.0686L169.276 28.7146L169.892 29.0686L169.276 29.426Z" fill="#A8A8C1"/>
<path opacity="0.1" d="M170.503 30.1338L169.891 29.7798L170.503 29.4258L171.118 29.7798L170.503 30.1338Z" fill="#A8A8C1"/>
<path opacity="0.4" d="M171.729 30.8421L171.117 30.4881L171.729 30.134L172.345 30.4881L171.729 30.8421Z" fill="#A8A8C1"/>
<path d="M172.956 31.5501L172.344 31.1961L172.956 30.842L173.571 31.1961L172.956 31.5501Z" fill="#A8A8C1"/>
<path opacity="0.1" d="M174.186 32.2584L173.574 31.9043L174.186 31.5503L174.802 31.9043L174.186 32.2584Z" fill="#A8A8C1"/>
<path d="M163.133 27.3015L162.518 26.9474L163.133 26.5934L163.745 26.9474L163.133 27.3015Z" fill="#A8A8C1"/>
<path opacity="0.4" d="M164.36 28.0095L163.744 27.6554L164.36 27.3014L164.972 27.6554L164.36 28.0095Z" fill="#A8A8C1"/>
<path d="M165.59 28.7177L164.975 28.3637L165.59 28.0096L166.202 28.3637L165.59 28.7177Z" fill="#A8A8C1"/>
<path d="M166.817 29.4257L166.201 29.0717L166.817 28.7177L167.429 29.0717L166.817 29.4257Z" fill="#A8A8C1"/>
<path d="M168.043 30.1369L167.428 29.7829L168.043 29.4255L168.655 29.7829L168.043 30.1369Z" fill="#A8A8C1"/>
<path d="M169.27 30.845L168.654 30.491L169.27 30.137L169.882 30.491L169.27 30.845Z" fill="#A8A8C1"/>
<path d="M170.498 31.553L169.883 31.199L170.498 30.845L171.11 31.199L170.498 31.553Z" fill="#A8A8C1"/>
<path opacity="0.4" d="M171.727 32.2612L171.111 31.9071L171.727 31.5531L172.339 31.9071L171.727 32.2612Z" fill="#A8A8C1"/>
<path d="M172.955 32.9693L172.34 32.6153L172.955 32.2612L173.567 32.6153L172.955 32.9693Z" fill="#A8A8C1"/>
<path d="M161.901 28.0129L161.289 27.6588L161.901 27.3048L162.517 27.6588L161.901 28.0129Z" fill="#A8A8C1"/>
<path opacity="0.1" d="M163.128 28.7209L162.516 28.3669L163.128 28.0128L163.743 28.3669L163.128 28.7209Z" fill="#A8A8C1"/>
<path d="M164.354 29.4289L163.742 29.0749L164.354 28.7208L164.97 29.0749L164.354 29.4289Z" fill="#A8A8C1"/>
<path d="M165.581 30.137L164.969 29.783L165.581 29.429L166.196 29.783L165.581 30.137Z" fill="#A8A8C1"/>
<path d="M166.811 30.8485L166.199 30.4911L166.811 30.1371L167.427 30.4911L166.811 30.8485Z" fill="#A8A8C1"/>
<path d="M168.038 31.5565L167.426 31.2024L168.038 30.8484L168.653 31.2024L168.038 31.5565Z" fill="#A8A8C1"/>
<path opacity="0.4" d="M169.264 32.2645L168.652 31.9104L169.264 31.5564L169.88 31.9104L169.264 32.2645Z" fill="#A8A8C1"/>
<path d="M170.491 32.9727L169.879 32.6187L170.491 32.2646L171.106 32.6187L170.491 32.9727Z" fill="#A8A8C1"/>
<path d="M171.72 33.6806L171.107 33.3266L171.72 32.9725L172.335 33.3266L171.72 33.6806Z" fill="#A8A8C1"/>
<path d="M171.661 34.3162C171.245 34.3285 170.832 34.234 170.463 34.0416L160.712 28.4167C160.574 28.3524 160.456 28.2522 160.37 28.1264C160.284 28.0007 160.233 27.8541 160.223 27.7021C160.246 27.5018 160.322 27.3112 160.442 27.1492C160.562 26.9872 160.723 26.8596 160.908 26.7789L170.268 21.3725C171.082 20.9059 172.313 20.853 173.021 21.26L182.768 26.8848C182.908 26.9489 183.027 27.0495 183.114 27.1759C183.2 27.3023 183.251 27.4498 183.261 27.6028C183.237 27.8024 183.161 27.9922 183.041 28.1534C182.921 28.3147 182.761 28.442 182.576 28.5226L173.213 33.9291C172.737 34.1873 172.203 34.3205 171.661 34.3162ZM171.823 21.0813C171.296 21.0769 170.777 21.2067 170.314 21.4585L160.954 26.8649C160.783 26.9379 160.634 27.054 160.521 27.2019C160.409 27.3498 160.337 27.5245 160.312 27.7087C160.323 27.8453 160.37 27.9766 160.448 28.0889C160.527 28.2012 160.634 28.2904 160.759 28.3473L170.509 33.9721C171.188 34.3658 172.382 34.303 173.156 33.8596L182.53 28.4465C182.7 28.3729 182.848 28.2565 182.96 28.1086C183.072 27.9608 183.144 27.7865 183.169 27.6028C183.159 27.4659 183.113 27.3342 183.035 27.2213C182.957 27.1084 182.85 27.0185 182.725 26.9609L172.974 21.3361C172.62 21.1496 172.223 21.0573 171.823 21.0681V21.0813Z" fill="#A8A8C1"/>
<path d="M184.313 31.2664L173.867 37.2872C173.179 37.6361 172.419 37.8179 171.648 37.8179C170.878 37.8179 170.118 37.6361 169.43 37.2872L158.984 31.2664C158.756 31.1605 158.555 31.0034 158.398 30.8074C158.24 30.6114 158.13 30.3817 158.075 30.1362C158.001 30.6644 158.302 31.1925 158.984 31.5622L169.425 37.5935C170.112 37.9424 170.872 38.1242 171.643 38.1242C172.414 38.1242 173.174 37.9424 173.861 37.5935L184.308 31.5622C184.587 31.4463 184.823 31.2472 184.985 30.992C185.146 30.7368 185.225 30.4379 185.211 30.1362C185.157 30.3806 185.048 30.6094 184.893 30.8052C184.737 31.0011 184.539 31.1589 184.313 31.2664Z" fill="white"/>
<path d="M116.067 56.4648L116.067 56.4648C113.06 57.8614 111.383 59.7232 111.383 61.7307C111.383 63.7374 112.98 65.6206 116.06 67.0231C119.143 68.4266 123.185 69.1404 127.232 69.1404C131.279 69.1404 135.328 68.4266 138.443 67.002L138.444 67.0017C141.411 65.6051 143.081 63.7485 143.081 61.7359C143.081 59.7233 141.41 57.8615 138.411 56.4648L138.41 56.4647C135.325 55.0373 131.279 54.3249 127.236 54.3249C123.194 54.3249 119.149 55.0373 116.067 56.4648ZM127.232 54.6008L127.233 54.6008C131.069 54.5426 134.86 55.27 138.248 56.7141C141.172 58.0797 142.758 59.8725 142.758 61.7307C142.758 63.5891 141.172 65.3872 138.248 66.7423L138.248 66.7423C135.216 68.1483 131.229 68.8526 127.238 68.8526C123.247 68.8526 119.258 68.1483 116.223 66.7423C113.299 65.3819 111.719 63.5996 111.719 61.7307C111.719 59.8617 113.299 58.0741 116.217 56.7084C119.248 55.3077 123.236 54.6008 127.232 54.6008Z" fill="#5D64D2" stroke="#5D64D2" stroke-width="0.105627"/>
<path d="M121.019 56.5655C124.514 54.9441 130.188 54.9441 133.683 56.5655C134.209 56.8024 134.695 57.0916 135.131 57.4264C137.105 55.842 136.631 53.7717 133.702 52.4144C130.208 50.7983 124.534 50.793 121.039 52.4144C118.103 53.7717 117.63 55.8367 119.611 57.4264C120.031 57.0914 120.505 56.802 121.019 56.5655Z" fill="#5351AF"/>
<path d="M140.856 55.372C140.157 54.8528 139.386 54.3992 138.559 54.0199C137.088 53.3562 135.515 52.8518 133.879 52.52C137.137 54.1784 137.038 56.7451 133.576 58.3295C130.016 59.9773 124.237 59.9773 120.669 58.3295C117.359 56.8138 117.122 54.3579 120.044 52.6996C118.684 53.0187 117.375 53.4617 116.141 54.0199C115.314 54.3975 114.543 54.8494 113.844 55.3667H111.494V59.2168C111.494 61.0969 113.041 62.9718 116.141 64.4084C122.328 67.2761 132.365 67.2761 138.559 64.4084C141.652 62.9718 143.206 61.0969 143.206 59.2168V55.372H140.856Z" fill="url(#paint5_linear)"/>
<path d="M138.559 50.492C132.365 47.6242 122.328 47.6242 116.141 50.492C109.954 53.3598 109.947 58.0127 116.141 60.8857C122.334 63.7588 132.365 63.7535 138.559 60.8857C144.752 58.018 144.752 53.3598 138.559 50.492ZM133.688 58.6781C130.127 60.3259 124.348 60.3259 120.781 58.6781C117.214 57.0303 117.22 54.3474 120.781 52.6996C124.342 51.0518 130.127 51.0466 133.688 52.6996C137.249 54.3527 137.255 57.0251 133.688 58.6781Z" fill="url(#paint6_linear)"/>
<path d="M138.56 60.4844C132.366 63.3522 122.329 63.3522 116.142 60.4844C113.154 59.1007 111.607 57.3156 111.535 55.4883C111.39 57.4318 112.937 59.3965 116.142 60.8858C122.329 63.7536 132.366 63.7536 138.56 60.8858C141.765 59.4018 143.312 57.4424 143.167 55.4936C143.095 57.3051 141.548 59.1007 138.56 60.4844Z" fill="white"/>
<path d="M133.69 52.3036C130.129 50.6506 124.35 50.6506 120.783 52.3036C118.894 53.1751 118.005 54.3422 118.15 55.4725C118.249 54.4584 119.137 53.455 120.783 52.6839C124.35 51.0308 130.129 51.0308 133.69 52.6839C135.362 53.455 136.25 54.4584 136.323 55.4725C136.448 54.3422 135.585 53.1751 133.69 52.3036Z" fill="white"/>
<path d="M137.841 50.4919C132.076 47.8196 122.703 47.8196 116.97 50.4919C111.237 53.1643 111.204 57.4898 116.97 60.1568C122.736 62.8239 132.108 62.8292 137.841 60.1568C143.574 57.4845 143.607 53.159 137.841 50.4919ZM133.635 58.2133C130.193 59.7977 124.612 59.7977 121.169 58.2133C117.727 56.6289 117.727 54.0199 121.169 52.4355C124.612 50.8511 130.193 50.8511 133.635 52.4355C137.078 54.0199 137.104 56.6183 133.635 58.2133Z" fill="url(#paint7_linear)"/>
<path opacity="0.4" d="M127.403 59.4069C132.27 59.4069 136.216 57.5791 136.216 55.3244C136.216 53.0697 132.27 51.2419 127.403 51.2419C122.536 51.2419 118.59 53.0697 118.59 55.3244C118.59 57.5791 122.536 59.4069 127.403 59.4069Z" fill="#42E8E0"/>
<path d="M121.019 51.2841C124.514 49.6628 130.188 49.6628 133.683 51.2841C134.209 51.521 134.695 51.8103 135.131 52.145C137.105 50.5606 136.631 48.4903 133.702 47.133C130.208 45.5169 124.534 45.5116 121.039 47.133C118.103 48.4903 117.63 50.5553 119.611 52.145C120.031 51.81 120.505 51.5206 121.019 51.2841Z" fill="#5351AF"/>
<path d="M140.856 50.0906C140.157 49.5714 139.386 49.1178 138.559 48.7386C137.088 48.0748 135.515 47.5705 133.879 47.2386C137.137 48.897 137.038 51.4637 133.576 53.0481C130.016 54.6959 124.237 54.6959 120.669 53.0481C117.359 51.5324 117.122 49.0766 120.044 47.4182C118.684 47.7373 117.375 48.1803 116.141 48.7386C115.314 49.1162 114.543 49.568 113.844 50.0853H111.494V53.9354C111.494 55.8156 113.041 57.6905 116.141 59.127C122.328 61.9948 132.365 61.9948 138.559 59.127C141.652 57.6905 143.206 55.8156 143.206 53.9354V50.0906H140.856Z" fill="url(#paint8_linear)"/>
<path d="M138.559 45.2106C132.365 42.3429 122.328 42.3429 116.141 45.2106C109.954 48.0784 109.947 52.7313 116.141 55.6044C122.334 58.4774 132.365 58.4721 138.559 55.6044C144.752 52.7366 144.752 48.0784 138.559 45.2106ZM133.688 53.3968C130.127 55.0445 124.348 55.0445 120.781 53.3968C117.214 51.749 117.22 49.066 120.781 47.4183C124.342 45.7705 130.127 45.7652 133.688 47.4183C137.249 49.0713 137.255 51.7437 133.688 53.3968Z" fill="url(#paint9_linear)"/>
<path d="M138.56 55.203C132.366 58.0707 122.329 58.0707 116.142 55.203C113.154 53.8192 111.607 52.0341 111.535 50.2068C111.39 52.1503 112.937 54.115 116.142 55.6043C122.329 58.4721 132.366 58.4721 138.56 55.6043C141.765 54.1203 143.312 52.1609 143.167 50.2121C143.095 52.0236 141.548 53.8192 138.56 55.203Z" fill="white"/>
<path d="M133.69 47.0221C130.129 45.3691 124.35 45.3691 120.783 47.0221C118.894 47.8936 118.005 49.0608 118.15 50.191C118.249 49.1769 119.137 48.1735 120.783 47.4024C124.35 45.7493 130.129 45.7493 133.69 47.4024C135.362 48.1735 136.25 49.1769 136.323 50.191C136.448 49.0608 135.585 47.8936 133.69 47.0221Z" fill="white"/>
<path d="M137.841 45.2106C132.076 42.5382 122.703 42.5382 116.97 45.2106C111.237 47.8829 111.204 52.2084 116.97 54.8755C122.736 57.5426 132.108 57.5478 137.841 54.8755C143.574 52.2031 143.607 47.8777 137.841 45.2106ZM133.635 52.9319C130.193 54.5163 124.612 54.5163 121.169 52.9319C117.727 51.3475 117.727 48.7385 121.169 47.1541C124.612 45.5697 130.193 45.5697 133.635 47.1541C137.078 48.7385 137.104 51.337 133.635 52.9319Z" fill="url(#paint10_linear)"/>
<path opacity="0.4" d="M127.403 54.1256C132.27 54.1256 136.216 52.2978 136.216 50.0431C136.216 47.7884 132.27 45.9606 127.403 45.9606C122.536 45.9606 118.59 47.7884 118.59 50.0431C118.59 52.2978 122.536 54.1256 127.403 54.1256Z" fill="#42E8E0"/>
<path d="M121.019 45.4746C124.514 43.8532 130.188 43.8532 133.683 45.4746C134.209 45.7115 134.695 46.0007 135.131 46.3354C137.105 44.751 136.631 42.6807 133.702 41.3234C130.208 39.7073 124.534 39.7021 121.039 41.3234C118.103 42.6807 117.63 44.7457 119.611 46.3354C120.031 46.0004 120.505 45.711 121.019 45.4746Z" fill="#5351AF"/>
<path d="M140.856 44.281C140.157 43.7618 139.386 43.3082 138.559 42.929C137.088 42.2653 135.515 41.7609 133.879 41.4291C137.137 43.0874 137.038 45.6542 133.576 47.2386C130.016 48.8864 124.237 48.8864 120.669 47.2386C117.359 45.7228 117.122 43.267 120.044 41.6086C118.684 41.9278 117.375 42.3708 116.141 42.929C115.314 43.3066 114.543 43.7584 113.844 44.2757H111.494V48.1258C111.494 50.006 113.041 51.8809 116.141 53.3174C122.328 56.1852 132.365 56.1852 138.559 53.3174C141.652 51.8809 143.206 50.006 143.206 48.1258V44.281H140.856Z" fill="url(#paint11_linear)"/>
<path d="M138.559 39.4011C132.365 36.5333 122.328 36.5333 116.141 39.4011C109.954 42.2689 109.947 46.9217 116.141 49.7948C122.334 52.6679 132.365 52.6626 138.559 49.7948C144.752 46.927 144.752 42.2689 138.559 39.4011ZM133.688 47.5872C130.127 49.235 124.348 49.235 120.781 47.5872C117.214 45.9394 117.22 43.2565 120.781 41.6087C124.342 39.9609 130.127 39.9556 133.688 41.6087C137.249 43.2618 137.255 45.9341 133.688 47.5872Z" fill="url(#paint12_linear)"/>
<path d="M138.56 49.3934C132.366 52.2612 122.329 52.2612 116.142 49.3934C113.154 48.0097 111.607 46.2246 111.535 44.3972C111.39 46.3408 112.937 48.3054 116.142 49.7948C122.329 52.6625 132.366 52.6625 138.56 49.7948C141.765 48.3107 143.312 46.3513 143.167 44.4025C143.095 46.214 141.548 48.0097 138.56 49.3934Z" fill="white"/>
<path d="M133.69 41.2126C130.129 39.5595 124.35 39.5595 120.783 41.2126C118.894 42.084 118.005 43.2512 118.15 44.3814C118.249 43.3674 119.137 42.3639 120.783 41.5928C124.35 39.9398 130.129 39.9398 133.69 41.5928C135.362 42.3639 136.25 43.3674 136.323 44.3814C136.448 43.2512 135.585 42.084 133.69 41.2126Z" fill="white"/>
<path d="M137.841 39.401C132.076 36.7286 122.703 36.7286 116.97 39.401C111.237 42.0734 111.204 46.3988 116.97 49.0659C122.736 51.733 132.108 51.7383 137.841 49.0659C143.574 46.3935 143.607 42.0681 137.841 39.401ZM133.635 47.1224C130.193 48.7068 124.612 48.7068 121.169 47.1224C117.727 45.5379 117.727 42.929 121.169 41.3445C124.612 39.7601 130.193 39.7601 133.635 41.3445C137.078 42.929 137.104 45.5274 133.635 47.1224Z" fill="url(#paint13_linear)"/>
<path opacity="0.4" d="M127.403 48.316C132.27 48.316 136.216 46.4882 136.216 44.2335C136.216 41.9788 132.27 40.151 127.403 40.151C122.536 40.151 118.59 41.9788 118.59 44.2335C118.59 46.4882 122.536 48.316 127.403 48.316Z" fill="#5D64D2"/>
<path d="M103.558 159.509L300.362 43.9586" stroke="#5D64D2" stroke-width="0.528136"/>
<rect opacity="0.1" width="189.387" height="49.363" rx="1.05627" transform="matrix(0.866044 -0.499967 0.866044 0.499967 98.2305 136.553)" fill="#5D64D2"/>
<path d="M156.671 136.879L156.671 136.879L156.673 136.88C157.287 137.205 157.973 137.368 158.668 137.356C159.361 137.369 160.045 137.205 160.657 136.88L160.657 136.88L160.659 136.879L171.106 130.85C171.361 130.759 171.582 130.592 171.739 130.371C171.896 130.149 171.981 129.883 171.981 129.611C171.981 129.338 171.896 129.073 171.739 128.85C171.582 128.63 171.361 128.462 171.106 128.372L160.659 122.343L160.659 122.343L160.656 122.341C160.039 122.029 159.357 121.866 158.665 121.866C157.973 121.866 157.291 122.029 156.674 122.341L156.674 122.341L156.671 122.343L146.227 128.373C145.986 128.481 145.777 128.652 145.624 128.868C145.47 129.085 145.376 129.339 145.354 129.604L145.353 129.604L145.354 129.613C145.378 129.878 145.471 130.132 145.625 130.349C145.778 130.566 145.986 130.738 146.227 130.849L156.671 136.879ZM170.973 130.583L170.972 130.582L170.963 130.587L160.517 136.628C159.943 136.918 159.309 137.069 158.665 137.069C158.022 137.069 157.387 136.918 156.813 136.628L146.367 130.587L146.368 130.586L146.358 130.583C146.151 130.514 145.972 130.382 145.845 130.206C145.717 130.03 145.649 129.818 145.649 129.6C145.649 129.383 145.717 129.171 145.845 128.995C145.972 128.818 146.151 128.686 146.358 128.618L146.358 128.619L146.367 128.614L156.813 122.583C157.387 122.293 158.022 122.142 158.665 122.142C159.309 122.142 159.943 122.293 160.517 122.583L170.963 128.614L170.962 128.614L170.973 128.618C171.179 128.686 171.358 128.818 171.486 128.995C171.613 129.171 171.681 129.383 171.681 129.6C171.681 129.818 171.613 130.03 171.486 130.206C171.358 130.382 171.179 130.514 170.973 130.583Z" fill="#B160F0" stroke="#B160F0" stroke-width="0.105627"/>
<path opacity="0.2" d="M172.244 127.295V123.72L171.589 123.355C171.404 124.47 170.095 125.209 168.991 125.362L161.507 129.735L158.238 130.918L147.812 125.536L148.055 125.399C147.163 124.982 146.682 124.026 146.202 123.16L145.499 123.577L145.082 123.693V127.332C145.11 127.608 145.209 127.871 145.37 128.096C145.532 128.322 145.749 128.5 146.001 128.615L156.442 134.647C157.13 134.993 157.89 135.174 158.66 135.174C159.431 135.174 160.19 134.993 160.879 134.647L171.325 128.615C171.573 128.502 171.787 128.327 171.947 128.107C172.107 127.886 172.207 127.629 172.239 127.358V127.295H172.244Z" fill="#B160F0"/>
<path d="M172.244 124.116V121.75L171.589 121.385C171.404 122.5 170.095 123.239 168.991 123.392L161.507 127.771L158.238 128.948L147.812 123.567L148.055 123.429C147.163 123.012 146.682 122.061 146.202 121.19L145.499 121.607L145.082 121.729V124.153C145.11 124.428 145.209 124.692 145.37 124.917C145.532 125.142 145.749 125.321 146.001 125.436L156.442 131.467C157.13 131.814 157.89 131.994 158.66 131.994C159.431 131.994 160.19 131.814 160.879 131.467L171.325 125.436C171.573 125.322 171.788 125.146 171.948 124.925C172.108 124.704 172.208 124.445 172.239 124.174V124.116H172.244Z" fill="url(#paint14_linear)"/>
<path opacity="0.3" d="M168.991 123.392L161.507 127.77L158.666 128.795V131.996C159.438 132.011 160.202 131.83 160.884 131.467L171.331 125.436C171.579 125.322 171.793 125.146 171.953 124.925C172.114 124.704 172.214 124.445 172.244 124.174V124.116V121.75L171.648 121.417H171.584C171.384 122.516 170.084 123.239 168.991 123.392Z" fill="#0F054C"/>
<path d="M156.442 129.048L146.001 123.028C144.776 122.325 144.776 121.174 146.001 120.466L156.442 114.435C157.13 114.089 157.89 113.908 158.66 113.908C159.431 113.908 160.19 114.089 160.879 114.435L171.325 120.466C172.545 121.174 172.545 122.325 171.325 123.028L160.884 129.048C160.196 129.398 159.435 129.581 158.663 129.581C157.891 129.581 157.13 129.398 156.442 129.048Z" fill="url(#paint15_linear)"/>
<path d="M171.331 123.028L160.884 129.049C160.197 129.397 159.437 129.579 158.666 129.579C157.895 129.579 157.135 129.397 156.448 129.049L146.001 123.028C145.773 122.922 145.573 122.765 145.415 122.569C145.258 122.373 145.147 122.143 145.093 121.898C145.019 122.426 145.32 122.954 146.001 123.324L156.443 129.355C157.13 129.704 157.89 129.886 158.661 129.886C159.432 129.886 160.192 129.704 160.879 129.355L171.325 123.324C171.604 123.208 171.841 123.009 172.002 122.753C172.164 122.498 172.243 122.199 172.229 121.898C172.175 122.142 172.066 122.371 171.91 122.567C171.755 122.762 171.557 122.92 171.331 123.028Z" fill="white"/>
<path opacity="0.4" d="M168.999 119.276V70.9166H147.875V119.338C147.875 120.723 148.797 120.585 150.698 121.644C154.465 123.721 162.416 123.721 166.183 121.644C168.113 120.571 169.049 120.681 168.999 119.276Z" fill="url(#paint16_linear)"/>
<g clip-path="url(#clip2)">
<path d="M163.325 97.8196C163.175 97.7681 163.024 97.7204 162.871 97.6766C162.897 97.5719 162.921 97.4685 162.941 97.3669C163.285 95.6989 163.06 94.355 162.293 93.9126C161.557 93.4884 160.354 93.9307 159.139 94.9882C159.019 95.0926 158.902 95.2 158.788 95.3103C158.712 95.237 158.634 95.165 158.554 95.0946C157.281 93.9638 156.004 93.4873 155.238 93.931C154.503 94.3565 154.285 95.6198 154.595 97.2007C154.625 97.3572 154.66 97.513 154.699 97.6678C154.518 97.7192 154.344 97.7738 154.177 97.832C152.684 98.3525 151.73 99.1683 151.73 100.014C151.73 100.888 152.754 101.765 154.309 102.297C154.435 102.339 154.562 102.379 154.69 102.416C154.649 102.583 154.612 102.75 154.58 102.919C154.285 104.473 154.515 105.706 155.248 106.129C156.005 106.566 157.276 106.117 158.513 105.035C158.614 104.947 158.712 104.857 158.808 104.764C158.931 104.883 159.058 104.999 159.189 105.112C160.387 106.143 161.571 106.56 162.303 106.136C163.06 105.698 163.306 104.373 162.986 102.761C162.961 102.634 162.933 102.509 162.902 102.384C162.991 102.357 163.079 102.33 163.164 102.302C164.781 101.766 165.833 100.9 165.833 100.014C165.833 99.1652 164.848 98.3439 163.325 97.8196ZM162.975 101.73C162.898 101.755 162.818 101.78 162.738 101.804C162.559 101.239 162.318 100.638 162.024 100.017C162.305 99.4115 162.537 98.8183 162.71 98.257C162.854 98.2988 162.994 98.3428 163.129 98.3892C164.434 98.8385 165.23 99.5027 165.23 100.014C165.23 100.56 164.371 101.267 162.975 101.73ZM162.395 102.878C162.537 103.59 162.557 104.235 162.463 104.739C162.379 105.192 162.21 105.493 162.001 105.614C161.557 105.872 160.607 105.537 159.582 104.655C159.461 104.551 159.342 104.443 159.227 104.332C159.624 103.897 160.022 103.392 160.409 102.831C161.091 102.77 161.735 102.671 162.319 102.536C162.348 102.652 162.373 102.766 162.395 102.878ZM156.538 105.57C156.104 105.723 155.758 105.728 155.549 105.607C155.104 105.35 154.919 104.36 155.172 103.032C155.202 102.875 155.236 102.718 155.275 102.563C155.852 102.691 156.492 102.783 157.175 102.839C157.565 103.388 157.974 103.892 158.386 104.334C158.298 104.419 158.208 104.501 158.117 104.582C157.57 105.06 157.021 105.399 156.538 105.57ZM154.504 101.727C153.816 101.491 153.249 101.186 152.859 100.853C152.51 100.553 152.333 100.256 152.333 100.014C152.333 99.501 153.098 98.846 154.375 98.4008C154.53 98.3469 154.692 98.2959 154.861 98.2481C155.037 98.8221 155.269 99.4223 155.548 100.029C155.265 100.645 155.03 101.255 154.852 101.836C154.735 101.802 154.619 101.766 154.504 101.727ZM155.186 97.0849C154.921 95.7305 155.097 94.7088 155.54 94.4524C156.012 94.1793 157.055 94.5687 158.154 95.5451C158.226 95.6089 158.297 95.674 158.366 95.7403C157.956 96.1803 157.551 96.6812 157.165 97.227C156.501 97.2885 155.867 97.3872 155.283 97.5195C155.247 97.3755 155.215 97.2306 155.186 97.085V97.0849ZM161.269 98.587C161.131 98.3489 160.988 98.1138 160.84 97.8818C161.29 97.9387 161.721 98.0142 162.126 98.1065C162.004 98.4961 161.853 98.9033 161.675 99.3209C161.544 99.0736 161.409 98.8289 161.269 98.587ZM158.788 96.1709C159.066 96.4719 159.344 96.808 159.618 97.1727C159.063 97.1465 158.507 97.1464 157.951 97.1724C158.225 96.8111 158.506 96.4754 158.788 96.1709ZM156.292 98.5912C156.153 98.8311 156.021 99.0743 155.894 99.3204C155.718 98.9043 155.568 98.4952 155.446 98.1001C155.848 98.0101 156.277 97.9365 156.724 97.8807C156.574 98.1141 156.43 98.3509 156.292 98.5911V98.5912ZM156.737 102.191C156.275 102.14 155.839 102.07 155.437 101.982C155.562 101.58 155.715 101.162 155.894 100.737C156.022 100.984 156.155 101.227 156.294 101.467C156.437 101.714 156.585 101.955 156.737 102.191ZM158.805 103.901C158.519 103.592 158.235 103.252 157.956 102.885C158.226 102.896 158.502 102.901 158.782 102.901C159.069 102.901 159.353 102.895 159.633 102.882C159.358 103.255 159.081 103.597 158.805 103.901ZM161.68 100.716C161.869 101.145 162.028 101.561 162.154 101.956C161.745 102.049 161.304 102.125 160.838 102.18C160.987 101.944 161.132 101.705 161.271 101.463C161.413 101.217 161.55 100.968 161.68 100.716ZM160.75 101.162C160.536 101.533 160.31 101.897 160.073 102.253C159.643 102.284 159.212 102.299 158.782 102.299C158.343 102.299 157.916 102.285 157.505 102.258C157.261 101.903 157.031 101.538 156.815 101.165H156.816C156.601 100.794 156.4 100.415 156.214 100.029C156.399 99.6425 156.6 99.2633 156.814 98.8921L156.814 98.8921C157.028 98.5207 157.256 98.1576 157.497 97.8035C157.917 97.7718 158.347 97.7553 158.781 97.7553H158.782C159.218 97.7553 159.649 97.772 160.068 97.8039C160.307 98.1575 160.534 98.5193 160.748 98.8889C160.962 99.2593 161.165 99.6367 161.355 100.02C161.167 100.408 160.965 100.789 160.75 101.162ZM161.992 94.4345C162.464 94.7068 162.648 95.8051 162.351 97.2453C162.332 97.3372 162.311 97.4308 162.288 97.5257C161.703 97.3906 161.068 97.2902 160.402 97.2278C160.015 96.676 159.613 96.1743 159.21 95.74C159.316 95.6382 159.424 95.539 159.535 95.4425C160.576 94.5365 161.549 94.1788 161.992 94.4345ZM158.782 98.7552C159.477 98.7552 160.041 99.319 160.041 100.014C160.041 100.71 159.477 101.274 158.782 101.274C158.086 101.274 157.522 100.71 157.522 100.014C157.522 99.319 158.086 98.7552 158.782 98.7552Z" fill="#B160F0"/>
</g>
<path d="M248.343 85.1215L248.343 85.1216L248.345 85.1225C248.959 85.4472 249.645 85.6111 250.34 85.5987C251.032 85.6118 251.717 85.4479 252.329 85.1224L252.329 85.1225L252.331 85.1216L262.778 79.0927C263.033 79.002 263.254 78.8349 263.411 78.6139C263.568 78.3917 263.653 78.126 263.653 77.8535C263.653 77.5811 263.568 77.3154 263.411 77.0932C263.254 76.8722 263.033 76.7051 262.778 76.6144L252.331 70.5855L252.331 70.5855L252.328 70.5842C251.711 70.2718 251.029 70.1091 250.337 70.1091C249.645 70.1091 248.963 70.2718 248.346 70.5842L248.346 70.5841L248.343 70.5855L237.899 76.6155C237.657 76.724 237.449 76.8951 237.296 77.111C237.142 77.3276 237.048 77.5815 237.026 77.8464L237.025 77.8463L237.026 77.8557C237.05 78.1207 237.143 78.3747 237.297 78.5919C237.45 78.8084 237.658 78.9807 237.899 79.0915L248.343 85.1215ZM262.644 78.8254L262.644 78.8243L262.635 78.8298L252.189 84.8709C251.615 85.161 250.98 85.3121 250.337 85.3121C249.693 85.3121 249.059 85.161 248.485 84.8709L238.039 78.8298L238.04 78.8288L238.03 78.8254C237.823 78.7568 237.644 78.625 237.516 78.4487C237.389 78.2724 237.321 78.0604 237.321 77.843C237.321 77.6255 237.389 77.4136 237.516 77.2373C237.644 77.0609 237.823 76.9291 238.03 76.8606L238.03 76.8616L238.039 76.8562L248.485 70.8256C249.059 70.5355 249.693 70.3844 250.337 70.3844C250.98 70.3844 251.615 70.5355 252.189 70.8256L262.635 76.8562L262.634 76.8572L262.644 76.8606C262.851 76.9291 263.03 77.0609 263.158 77.2373C263.285 77.4136 263.353 77.6255 263.353 77.843C263.353 78.0604 263.285 78.2724 263.158 78.4487C263.03 78.625 262.851 78.7568 262.644 78.8254Z" fill="#5D64D2" stroke="#5D64D2" stroke-width="0.105627"/>
<path opacity="0.2" d="M263.916 75.5378V71.9623L263.261 71.5979C263.076 72.7122 261.766 73.4516 260.663 73.6048L253.179 77.9778L249.91 79.1608L239.484 73.7791L239.727 73.6418C238.835 73.2245 238.354 72.2686 237.874 71.4025L237.171 71.8197L236.754 71.9359V75.5747C236.782 75.8503 236.881 76.1138 237.042 76.339C237.203 76.5642 237.421 76.7432 237.673 76.8581L248.114 82.8894C248.802 83.2359 249.562 83.4163 250.332 83.4163C251.103 83.4163 251.862 83.2359 252.55 82.8894L262.997 76.8581C263.244 76.7447 263.458 76.5695 263.618 76.3493C263.779 76.1292 263.879 75.8715 263.911 75.6011V75.5378H263.916Z" fill="#5D64D2"/>
<path d="M263.916 72.3583V69.9923V67.4836C263.916 67.4836 261.734 70.2352 260.63 70.3884L252.972 75.1416H250.332L241.881 71.6348L240.561 69.9923C239.669 69.575 238.929 69.1473 238.449 68.2758L236.754 67.4836V69.9711V72.3953C236.782 72.6709 236.881 72.9344 237.042 73.1595C237.203 73.3847 237.421 73.5637 237.673 73.6786L248.114 79.71C248.802 80.0564 249.562 80.2368 250.332 80.2368C251.103 80.2368 251.862 80.0564 252.55 79.71L262.997 73.6786C263.245 73.5648 263.46 73.3888 263.62 73.1676C263.78 72.9465 263.88 72.6877 263.911 72.4164V72.3583H263.916Z" fill="url(#paint17_linear)"/>
<path opacity="0.3" d="M254.559 74.0854L249.277 75.6698L250.34 75.3512V80.2382C251.112 80.2541 251.875 80.0723 252.558 79.71L260.896 74.8776C261.144 74.7638 263.467 73.3888 263.627 73.1677C263.787 72.9465 263.887 72.6877 263.918 72.4165V72.3584V67.7478C263.717 68.8463 255.652 73.9323 254.559 74.0854Z" fill="#0F054C"/>
<path d="M248.114 75.1787L237.673 69.158C236.448 68.4556 236.448 67.3042 237.673 66.5965L248.114 60.5652C248.802 60.2188 249.562 60.0383 250.332 60.0383C251.103 60.0383 251.862 60.2188 252.55 60.5652L262.997 66.5965C264.217 67.3042 264.217 68.4556 262.997 69.158L252.556 75.1787C251.868 75.5285 251.107 75.7108 250.335 75.7108C249.563 75.7108 248.802 75.5285 248.114 75.1787Z" fill="url(#paint18_linear)"/>
<path d="M250.454 62.3222L249.842 61.9682L250.454 61.6141L251.069 61.9682L250.454 62.3222Z" fill="#A8A8C1"/>
<path opacity="0.1" d="M251.68 63.0335L251.068 62.6795L251.68 62.3221L252.296 62.6795L251.68 63.0335Z" fill="#A8A8C1"/>
<path opacity="0.4" d="M252.907 63.7416L252.295 63.3876L252.907 63.0336L253.522 63.3876L252.907 63.7416Z" fill="#A8A8C1"/>
<path d="M254.134 64.4499L253.521 64.0959L254.134 63.7418L254.749 64.0959L254.134 64.4499Z" fill="#A8A8C1"/>
<path opacity="0.4" d="M255.364 65.1578L254.752 64.8037L255.364 64.4497L255.979 64.8037L255.364 65.1578Z" fill="#A8A8C1"/>
<path d="M256.591 65.8659L255.979 65.5119L256.591 65.1578L257.206 65.5119L256.591 65.8659Z" fill="#A8A8C1"/>
<path d="M257.817 66.5771L257.205 66.2231L257.817 65.8657L258.433 66.2231L257.817 66.5771Z" fill="#A8A8C1"/>
<path d="M259.046 67.2852L258.434 66.9312L259.046 66.5771L259.661 66.9312L259.046 67.2852Z" fill="#A8A8C1"/>
<path opacity="0.1" d="M260.272 67.9935L259.66 67.6394L260.272 67.2854L260.888 67.6394L260.272 67.9935Z" fill="#A8A8C1"/>
<path d="M249.221 63.0336L248.605 62.6796L249.221 62.3256L249.833 62.6796L249.221 63.0336Z" fill="#A8A8C1"/>
<path d="M250.447 63.7449L249.832 63.3909L250.447 63.0336L251.06 63.3909L250.447 63.7449Z" fill="#A8A8C1"/>
<path d="M251.674 64.4531L251.059 64.099L251.674 63.745L252.286 64.099L251.674 64.4531Z" fill="#A8A8C1"/>
<path d="M252.904 65.1612L252.289 64.8072L252.904 64.4531L253.517 64.8072L252.904 65.1612Z" fill="#A8A8C1"/>
<path d="M254.131 65.8692L253.516 65.5152L254.131 65.1611L254.743 65.5152L254.131 65.8692Z" fill="#A8A8C1"/>
<path d="M255.358 66.5773L254.742 66.2233L255.358 65.8693L255.97 66.2233L255.358 66.5773Z" fill="#A8A8C1"/>
<path d="M256.586 67.2885L255.971 66.9312L256.586 66.5771L257.198 66.9312L256.586 67.2885Z" fill="#A8A8C1"/>
<path d="M257.813 67.9969L257.197 67.6429L257.813 67.2888L258.425 67.6429L257.813 67.9969Z" fill="#A8A8C1"/>
<path d="M259.039 68.7048L258.424 68.3507L259.039 67.9967L259.651 68.3507L259.039 68.7048Z" fill="#A8A8C1"/>
<path d="M247.989 63.7484L247.377 63.3943L247.989 63.037L248.604 63.3943L247.989 63.7484Z" fill="#A8A8C1"/>
<path d="M249.216 64.4565L248.604 64.1024L249.216 63.7484L249.831 64.1024L249.216 64.4565Z" fill="#A8A8C1"/>
<path d="M250.442 65.1645L249.83 64.8105L250.442 64.4564L251.058 64.8105L250.442 65.1645Z" fill="#A8A8C1"/>
<path opacity="0.1" d="M251.669 65.8727L251.057 65.5187L251.669 65.1647L252.284 65.5187L251.669 65.8727Z" fill="#A8A8C1"/>
<path opacity="0.4" d="M252.895 66.5806L252.283 66.2266L252.895 65.8726L253.511 66.2266L252.895 66.5806Z" fill="#A8A8C1"/>
<path opacity="0.4" d="M254.126 67.2886L253.514 66.9346L254.126 66.5806L254.741 66.9346L254.126 67.2886Z" fill="#A8A8C1"/>
<path d="M255.352 68.0002L254.74 67.6462L255.352 67.2888L255.968 67.6462L255.352 68.0002Z" fill="#A8A8C1"/>
<path d="M256.581 68.7083L255.969 68.3543L256.581 68.0002L257.196 68.3543L256.581 68.7083Z" fill="#A8A8C1"/>
<path d="M257.807 69.4162L257.195 69.0622L257.807 68.7081L258.423 69.0622L257.807 69.4162Z" fill="#A8A8C1"/>
<path opacity="0.4" d="M246.756 64.4597L246.141 64.1056L246.756 63.7483L247.368 64.1056L246.756 64.4597Z" fill="#A8A8C1"/>
<path opacity="0.4" d="M247.983 65.1678L247.367 64.8138L247.983 64.4597L248.595 64.8138L247.983 65.1678Z" fill="#A8A8C1"/>
<path opacity="0.1" d="M249.209 65.8758L248.594 65.5218L249.209 65.1677L249.821 65.5218L249.209 65.8758Z" fill="#A8A8C1"/>
<path d="M250.44 66.5839L249.824 66.2299L250.44 65.8759L251.052 66.2299L250.44 66.5839Z" fill="#A8A8C1"/>
<path d="M251.666 67.2919L251.051 66.9379L251.666 66.5839L252.278 66.9379L251.666 67.2919Z" fill="#A8A8C1"/>
<path d="M252.893 68.0034L252.277 67.646L252.893 67.292L253.505 67.646L252.893 68.0034Z" fill="#A8A8C1"/>
<path opacity="0.4" d="M254.121 68.7114L253.506 68.3573L254.121 68.0033L254.733 68.3573L254.121 68.7114Z" fill="#A8A8C1"/>
<path d="M255.348 69.4194L254.732 69.0653L255.348 68.7113L255.96 69.0653L255.348 69.4194Z" fill="#A8A8C1"/>
<path d="M256.578 70.1276L255.963 69.7736L256.578 69.4196L257.19 69.7736L256.578 70.1276Z" fill="#A8A8C1"/>
<path d="M245.52 65.1712L244.908 64.8172L245.52 64.4631L246.136 64.8172L245.52 65.1712Z" fill="#A8A8C1"/>
<path d="M246.747 65.8792L246.135 65.5252L246.747 65.1711L247.362 65.5252L246.747 65.8792Z" fill="#A8A8C1"/>
<path d="M247.973 66.5875L247.361 66.2334L247.973 65.8794L248.589 66.2334L247.973 66.5875Z" fill="#A8A8C1"/>
<path d="M249.204 67.2955L248.592 66.9414L249.204 66.5874L249.819 66.9414L249.204 67.2955Z" fill="#A8A8C1"/>
<path d="M250.43 68.0034L249.818 67.6493L250.43 67.2953L251.046 67.6493L250.43 68.0034Z" fill="#A8A8C1"/>
<path d="M251.657 68.7149L251.045 68.3609L251.657 68.0035L252.272 68.3609L251.657 68.7149Z" fill="#A8A8C1"/>
<path d="M252.886 69.4228L252.273 69.0688L252.886 68.7147L253.501 69.0688L252.886 69.4228Z" fill="#A8A8C1"/>
<path d="M254.112 70.1309L253.5 69.7769L254.112 69.4229L254.728 69.7769L254.112 70.1309Z" fill="#A8A8C1"/>
<path d="M255.343 70.839L254.73 70.485L255.343 70.131L255.958 70.485L255.343 70.839Z" fill="#A8A8C1"/>
<path d="M244.291 65.8823L243.676 65.5282L244.291 65.1709L244.903 65.5282L244.291 65.8823Z" fill="#A8A8C1"/>
<path d="M245.518 66.5904L244.902 66.2364L245.518 65.8823L246.13 66.2364L245.518 66.5904Z" fill="#A8A8C1"/>
<path opacity="0.4" d="M246.744 67.2983L246.129 66.9442L246.744 66.5902L247.356 66.9442L246.744 67.2983Z" fill="#A8A8C1"/>
<path d="M247.975 68.0063L247.359 67.6523L247.975 67.2982L248.587 67.6523L247.975 68.0063Z" fill="#A8A8C1"/>
<path opacity="0.1" d="M249.201 68.7145L248.586 68.3605L249.201 68.0065L249.813 68.3605L249.201 68.7145Z" fill="#A8A8C1"/>
<path d="M250.428 69.4259L249.812 69.0718L250.428 68.7145L251.04 69.0718L250.428 69.4259Z" fill="#A8A8C1"/>
<path d="M251.656 70.1338L251.041 69.7798L251.656 69.4258L252.269 69.7798L251.656 70.1338Z" fill="#A8A8C1"/>
<path d="M252.883 70.842L252.268 70.4879L252.883 70.1339L253.495 70.4879L252.883 70.842Z" fill="#A8A8C1"/>
<path d="M254.11 71.5501L253.494 71.1961L254.11 70.842L254.722 71.1961L254.11 71.5501Z" fill="#A8A8C1"/>
<path d="M243.059 66.5939L242.447 66.2399L243.059 65.8859L243.675 66.2399L243.059 66.5939Z" fill="#A8A8C1"/>
<path d="M244.286 67.3019L243.674 66.9479L244.286 66.5939L244.901 66.9479L244.286 67.3019Z" fill="#A8A8C1"/>
<path opacity="0.4" d="M245.513 68.0099L244.9 67.6559L245.513 67.3019L246.128 67.6559L245.513 68.0099Z" fill="#A8A8C1"/>
<path d="M246.739 68.7182L246.127 68.3642L246.739 68.0101L247.354 68.3642L246.739 68.7182Z" fill="#A8A8C1"/>
<path d="M247.966 69.4295L247.354 69.0722L247.966 68.7181L248.581 69.0722L247.966 69.4295Z" fill="#A8A8C1"/>
<path opacity="0.1" d="M249.196 70.1375L248.584 69.7835L249.196 69.4294L249.812 69.7835L249.196 70.1375Z" fill="#A8A8C1"/>
<path opacity="0.4" d="M250.423 70.8456L249.811 70.4916L250.423 70.1376L251.038 70.4916L250.423 70.8456Z" fill="#A8A8C1"/>
<path d="M251.649 71.5538L251.037 71.1997L251.649 70.8457L252.265 71.1997L251.649 71.5538Z" fill="#A8A8C1"/>
<path opacity="0.1" d="M252.878 72.2619L252.266 71.9079L252.878 71.5538L253.493 71.9079L252.878 72.2619Z" fill="#A8A8C1"/>
<path d="M241.826 67.3052L241.211 66.9512L241.826 66.5972L242.438 66.9512L241.826 67.3052Z" fill="#A8A8C1"/>
<path opacity="0.4" d="M243.053 68.0132L242.438 67.6592L243.053 67.3052L243.665 67.6592L243.053 68.0132Z" fill="#A8A8C1"/>
<path d="M244.279 68.7215L243.664 68.3675L244.279 68.0134L244.892 68.3675L244.279 68.7215Z" fill="#A8A8C1"/>
<path d="M245.508 69.4295L244.893 69.0755L245.508 68.7214L246.12 69.0755L245.508 69.4295Z" fill="#A8A8C1"/>
<path d="M246.737 70.1407L246.121 69.7867L246.737 69.4293L247.349 69.7867L246.737 70.1407Z" fill="#A8A8C1"/>
<path d="M247.963 70.8488L247.348 70.4948L247.963 70.1407L248.575 70.4948L247.963 70.8488Z" fill="#A8A8C1"/>
<path d="M249.192 71.5568L248.576 71.2028L249.192 70.8488L249.804 71.2028L249.192 71.5568Z" fill="#A8A8C1"/>
<path opacity="0.4" d="M250.418 72.265L249.803 71.9109L250.418 71.5569L251.03 71.9109L250.418 72.265Z" fill="#A8A8C1"/>
<path d="M251.645 72.973L251.029 72.6189L251.645 72.2649L252.257 72.6189L251.645 72.973Z" fill="#A8A8C1"/>
<path d="M240.595 68.0165L239.982 67.6625L240.595 67.3085L241.21 67.6625L240.595 68.0165Z" fill="#A8A8C1"/>
<path opacity="0.1" d="M241.821 68.7247L241.209 68.3706L241.821 68.0166L242.437 68.3706L241.821 68.7247Z" fill="#A8A8C1"/>
<path d="M243.048 69.4327L242.436 69.0786L243.048 68.7246L243.663 69.0786L243.048 69.4327Z" fill="#A8A8C1"/>
<path d="M244.274 70.1407L243.662 69.7867L244.274 69.4326L244.89 69.7867L244.274 70.1407Z" fill="#A8A8C1"/>
<path d="M245.501 70.8522L244.889 70.4949L245.501 70.1409L246.116 70.4949L245.501 70.8522Z" fill="#A8A8C1"/>
<path d="M246.729 71.5601L246.117 71.2061L246.729 70.8521L247.345 71.2061L246.729 71.5601Z" fill="#A8A8C1"/>
<path opacity="0.4" d="M247.958 72.2682L247.346 71.9142L247.958 71.5602L248.573 71.9142L247.958 72.2682Z" fill="#A8A8C1"/>
<path d="M249.184 72.9763L248.572 72.6222L249.184 72.2682L249.8 72.6222L249.184 72.9763Z" fill="#A8A8C1"/>
<path d="M250.413 73.6843L249.801 73.3302L250.413 72.9762L251.028 73.3302L250.413 73.6843Z" fill="#A8A8C1"/>
<path d="M250.352 74.32C249.936 74.3323 249.524 74.2378 249.155 74.0454L239.404 68.4205C239.266 68.3562 239.147 68.2559 239.061 68.1302C238.975 68.0045 238.924 67.8579 238.914 67.7058C238.938 67.5056 239.013 67.315 239.133 67.153C239.254 66.991 239.414 66.8634 239.599 66.7827L248.959 61.3762C249.773 60.9097 251.004 60.8568 251.712 61.2638L261.46 66.8886C261.599 66.9527 261.718 67.0533 261.805 67.1797C261.892 67.3061 261.943 67.4536 261.953 67.6066C261.928 67.8062 261.852 67.9959 261.732 68.1572C261.612 68.3185 261.452 68.4457 261.268 68.5264L251.904 73.9329C251.428 74.191 250.894 74.3242 250.352 74.32ZM250.514 61.0851C249.988 61.0807 249.468 61.2105 249.006 61.4623L239.645 66.8687C239.474 66.9417 239.325 67.0578 239.213 67.2057C239.1 67.3536 239.028 67.5282 239.003 67.7125C239.014 67.8491 239.061 67.9803 239.14 68.0926C239.218 68.2049 239.325 68.2942 239.45 68.351L249.201 73.9759C249.879 74.3696 251.074 74.3067 251.848 73.8634L261.221 68.4503C261.392 68.3766 261.54 68.2603 261.652 68.1124C261.764 67.9646 261.835 67.7903 261.86 67.6066C261.85 67.4697 261.804 67.338 261.726 67.2251C261.648 67.1122 261.541 67.0223 261.417 66.9647L251.666 61.3398C251.311 61.1534 250.915 61.0611 250.514 61.0718V61.0851Z" fill="#A8A8C1"/>
<path d="M263.003 71.2703L252.556 77.2911C251.869 77.64 251.109 77.8218 250.338 77.8218C249.567 77.8218 248.807 77.64 248.12 77.2911L237.673 71.2703C237.445 71.1644 237.245 71.0073 237.087 70.8113C236.93 70.6153 236.819 70.3856 236.765 70.1401C236.691 70.6683 236.992 71.1964 237.673 71.5661L248.114 77.5974C248.802 77.9463 249.562 78.1281 250.333 78.1281C251.103 78.1281 251.863 77.9463 252.551 77.5974L262.997 71.5661C263.276 71.4502 263.513 71.2511 263.674 70.9959C263.836 70.7407 263.915 70.4419 263.9 70.1401C263.847 70.3845 263.738 70.6133 263.582 70.8092C263.427 71.005 263.228 71.1628 263.003 71.2703Z" fill="white"/>
<path d="M194.758 96.4688L194.758 96.4688C191.752 97.8654 190.074 99.7272 190.074 101.735C190.074 103.741 191.672 105.625 194.752 107.027C197.834 108.431 201.877 109.144 205.923 109.144C209.97 109.144 214.019 108.431 217.135 107.006L217.135 107.006C220.102 105.609 221.773 103.753 221.773 101.74C221.773 99.7273 220.102 97.8655 217.102 96.4688L217.102 96.4688C214.016 95.0413 209.97 94.3289 205.928 94.3289C201.885 94.3289 197.841 95.0413 194.758 96.4688ZM205.923 94.6049L205.924 94.6048C209.761 94.5466 213.552 95.2741 216.94 96.7181C219.863 98.0837 221.45 99.8765 221.45 101.735C221.45 103.593 219.863 105.391 216.939 106.746L216.939 106.746C213.907 108.152 209.92 108.857 205.929 108.857C201.938 108.857 197.95 108.152 194.914 106.746C191.99 105.386 190.41 103.604 190.41 101.735C190.41 99.8657 191.99 98.0781 194.908 96.7125C197.94 95.3117 201.927 94.6049 205.923 94.6049Z" fill="#5D64D2" stroke="#5D64D2" stroke-width="0.105627"/>
<path d="M199.711 96.5695C203.206 94.9482 208.879 94.9482 212.374 96.5695C212.9 96.8064 213.387 97.0957 213.822 97.4304C215.797 95.846 215.323 93.7757 212.394 92.4184C208.899 90.8023 203.225 90.797 199.73 92.4184C196.795 93.7757 196.321 95.8407 198.302 97.4304C198.723 97.0954 199.196 96.806 199.711 96.5695Z" fill="#5351AF"/>
<path d="M219.547 95.376C218.848 94.8568 218.077 94.4032 217.25 94.024C215.78 93.3602 214.206 92.8559 212.57 92.524C215.828 94.1824 215.73 96.7491 212.268 98.3335C208.707 99.9813 202.928 99.9813 199.361 98.3335C196.05 96.8178 195.813 94.362 198.735 92.7036C197.376 93.0227 196.066 93.4657 194.832 94.024C194.006 94.4016 193.235 94.8534 192.535 95.3707H190.186V99.2208C190.186 101.101 191.732 102.976 194.832 104.412C201.019 107.28 211.057 107.28 217.25 104.412C220.344 102.976 221.897 101.101 221.897 99.2208V95.376H219.547Z" fill="url(#paint19_linear)"/>
<path d="M217.25 90.496C211.056 87.6283 201.019 87.6283 194.832 90.496C188.645 93.3638 188.639 98.0167 194.832 100.89C201.026 103.763 211.056 103.758 217.25 100.89C223.444 98.022 223.444 93.3638 217.25 90.496ZM212.379 98.6822C208.819 100.33 203.04 100.33 199.472 98.6822C195.905 97.0344 195.912 94.3514 199.472 92.7037C203.033 91.0559 208.819 91.0506 212.379 92.7037C215.94 94.3567 215.947 97.0291 212.379 98.6822Z" fill="url(#paint20_linear)"/>
<path d="M217.251 100.488C211.058 103.356 201.02 103.356 194.833 100.488C191.845 99.1048 190.298 97.3197 190.226 95.4923C190.081 97.4358 191.628 99.4005 194.833 100.89C201.02 103.758 211.058 103.758 217.251 100.89C220.457 99.4058 222.003 97.4464 221.859 95.4976C221.786 97.3091 220.239 99.1048 217.251 100.488Z" fill="white"/>
<path d="M212.381 92.3077C208.82 90.6546 203.042 90.6546 199.474 92.3077C197.585 93.1791 196.697 94.3463 196.841 95.4765C196.94 94.4625 197.829 93.459 199.474 92.6879C203.042 91.0349 208.82 91.0349 212.381 92.6879C214.053 93.459 214.942 94.4625 215.014 95.4765C215.139 94.3463 214.277 93.1791 212.381 92.3077Z" fill="white"/>
<path d="M216.533 90.496C210.767 87.8236 201.394 87.8236 195.662 90.496C189.929 93.1683 189.896 97.4938 195.662 100.161C201.427 102.828 210.8 102.833 216.533 100.161C222.265 97.4885 222.298 93.1631 216.533 90.496ZM212.327 98.2173C208.885 99.8017 203.303 99.8017 199.861 98.2173C196.418 96.6329 196.418 94.0239 199.861 92.4395C203.303 90.8551 208.885 90.8551 212.327 92.4395C215.769 94.0239 215.795 96.6224 212.327 98.2173Z" fill="url(#paint21_linear)"/>
<path opacity="0.4" d="M206.094 99.411C210.962 99.411 214.907 97.5832 214.907 95.3285C214.907 93.0738 210.962 91.246 206.094 91.246C201.227 91.246 197.281 93.0738 197.281 95.3285C197.281 97.5832 201.227 99.411 206.094 99.411Z" fill="#42E8E0"/>
<path d="M199.711 91.2882C203.206 89.6668 208.879 89.6668 212.374 91.2882C212.9 91.5251 213.387 91.8143 213.822 92.149C215.797 90.5646 215.323 88.4943 212.394 87.137C208.899 85.5209 203.225 85.5156 199.73 87.137C196.795 88.4943 196.321 90.5593 198.302 92.149C198.723 91.814 199.196 91.5246 199.711 91.2882Z" fill="#5351AF"/>
<path d="M219.547 90.0946C218.848 89.5754 218.077 89.1218 217.25 88.7426C215.78 88.0789 214.206 87.5745 212.57 87.2427C215.828 88.901 215.73 91.4678 212.268 93.0522C208.707 94.7 202.928 94.7 199.361 93.0522C196.05 91.5364 195.813 89.0806 198.735 87.4222C197.376 87.7414 196.066 88.1844 194.832 88.7426C194.006 89.1202 193.235 89.572 192.535 90.0893H190.186V93.9394C190.186 95.8196 191.732 97.6945 194.832 99.131C201.019 101.999 211.057 101.999 217.25 99.131C220.344 97.6945 221.897 95.8196 221.897 93.9394V90.0946H219.547Z" fill="url(#paint22_linear)"/>
<path d="M217.25 85.2147C211.056 82.3469 201.019 82.3469 194.832 85.2147C188.645 88.0825 188.639 92.7353 194.832 95.6084C201.026 98.4815 211.056 98.4762 217.25 95.6084C223.444 92.7406 223.444 88.0825 217.25 85.2147ZM212.379 93.4008C208.819 95.0486 203.04 95.0486 199.472 93.4008C195.905 91.753 195.912 89.0701 199.472 87.4223C203.033 85.7745 208.819 85.7692 212.379 87.4223C215.94 89.0754 215.947 91.7477 212.379 93.4008Z" fill="url(#paint23_linear)"/>
<path d="M217.251 95.207C211.058 98.0748 201.02 98.0748 194.833 95.207C191.845 93.8233 190.298 92.0382 190.226 90.2108C190.081 92.1544 191.628 94.119 194.833 95.6084C201.02 98.4761 211.058 98.4761 217.251 95.6084C220.457 94.1243 222.003 92.1649 221.859 90.2161C221.786 92.0276 220.239 93.8233 217.251 95.207Z" fill="white"/>
<path d="M212.381 87.0262C208.82 85.3731 203.042 85.3731 199.474 87.0262C197.585 87.8976 196.697 89.0648 196.841 90.195C196.94 89.181 197.829 88.1775 199.474 87.4064C203.042 85.7534 208.82 85.7534 212.381 87.4064C214.053 88.1775 214.942 89.181 215.014 90.195C215.139 89.0648 214.277 87.8976 212.381 87.0262Z" fill="white"/>
<path d="M216.533 85.2146C210.767 82.5422 201.394 82.5422 195.662 85.2146C189.929 87.887 189.896 92.2124 195.662 94.8795C201.427 97.5466 210.8 97.5519 216.533 94.8795C222.265 92.2071 222.298 87.8817 216.533 85.2146ZM212.327 92.936C208.885 94.5204 203.303 94.5204 199.861 92.936C196.418 91.3515 196.418 88.7426 199.861 87.1581C203.303 85.5737 208.885 85.5737 212.327 87.1581C215.769 88.7426 215.795 91.341 212.327 92.936Z" fill="url(#paint24_linear)"/>
<path opacity="0.4" d="M206.094 94.1296C210.962 94.1296 214.907 92.3018 214.907 90.0471C214.907 87.7924 210.962 85.9646 206.094 85.9646C201.227 85.9646 197.281 87.7924 197.281 90.0471C197.281 92.3018 201.227 94.1296 206.094 94.1296Z" fill="#42E8E0"/>
<path d="M199.711 85.4786C203.206 83.8572 208.879 83.8572 212.374 85.4786C212.9 85.7155 213.387 86.0047 213.822 86.3395C215.797 84.7551 215.323 82.6848 212.394 81.3275C208.899 79.7114 203.225 79.7061 199.73 81.3275C196.795 82.6848 196.321 84.7498 198.302 86.3395C198.723 86.0045 199.196 85.7151 199.711 85.4786Z" fill="#5351AF"/>
<path d="M219.547 84.285C218.848 83.7659 218.077 83.3123 217.25 82.933C215.78 82.2693 214.206 81.7649 212.57 81.4331C215.828 83.0915 215.73 85.6582 212.268 87.2426C208.707 88.8904 202.928 88.8904 199.361 87.2426C196.05 85.7269 195.813 83.271 198.735 81.6127C197.376 81.9318 196.066 82.3748 194.832 82.933C194.006 83.3106 193.235 83.7624 192.535 84.2798H190.186V88.1299C190.186 90.01 191.732 91.8849 194.832 93.3214C201.019 96.1892 211.057 96.1892 217.25 93.3214C220.344 91.8849 221.897 90.01 221.897 88.1299V84.285H219.547Z" fill="url(#paint25_linear)"/>
<path d="M217.25 79.4051C211.056 76.5373 201.019 76.5373 194.832 79.4051C188.645 82.2729 188.639 86.9258 194.832 89.7988C201.026 92.6719 211.056 92.6666 217.25 89.7988C223.444 86.931 223.444 82.2729 217.25 79.4051ZM212.379 87.5912C208.819 89.239 203.04 89.239 199.472 87.5912C195.905 85.9434 195.912 83.2605 199.472 81.6127C203.033 79.9649 208.819 79.9596 212.379 81.6127C215.94 83.2658 215.947 85.9381 212.379 87.5912Z" fill="url(#paint26_linear)"/>
<path d="M217.251 89.3974C211.058 92.2652 201.02 92.2652 194.833 89.3974C191.845 88.0137 190.298 86.2286 190.226 84.4012C190.081 86.3448 191.628 88.3095 194.833 89.7988C201.02 92.6666 211.058 92.6666 217.251 89.7988C220.457 88.3147 222.003 86.3553 221.859 84.4065C221.786 86.218 220.239 88.0137 217.251 89.3974Z" fill="white"/>
<path d="M212.381 81.2166C208.82 79.5635 203.042 79.5635 199.474 81.2166C197.585 82.088 196.697 83.2552 196.841 84.3854C196.94 83.3714 197.829 82.3679 199.474 81.5969C203.042 79.9438 208.82 79.9438 212.381 81.5969C214.053 82.3679 214.942 83.3714 215.014 84.3854C215.139 83.2552 214.277 82.088 212.381 81.2166Z" fill="white"/>
<path d="M216.533 79.405C210.767 76.7327 201.394 76.7327 195.662 79.405C189.929 82.0774 189.896 86.4028 195.662 89.0699C201.427 91.737 210.8 91.7423 216.533 89.0699C222.265 86.3976 222.298 82.0721 216.533 79.405ZM212.327 87.1264C208.885 88.7108 203.303 88.7108 199.861 87.1264C196.418 85.542 196.418 82.933 199.861 81.3486C203.303 79.7642 208.885 79.7642 212.327 81.3486C215.769 82.933 215.795 85.5314 212.327 87.1264Z" fill="url(#paint27_linear)"/>
<path opacity="0.4" d="M206.094 88.32C210.962 88.32 214.907 86.4922 214.907 84.2375C214.907 81.9828 210.962 80.155 206.094 80.155C201.227 80.155 197.281 81.9828 197.281 84.2375C197.281 86.4922 201.227 88.32 206.094 88.32Z" fill="#5D64D2"/>
<line x1="24.4282" y1="113.142" x2="103.855" y2="159.56" stroke="#5D64D2" stroke-width="0.528136"/>
<circle cx="24.4107" cy="112.824" r="1.89705" fill="#5D64D2"/>
</g>
<defs>
<linearGradient id="paint0_linear" x1="7063.6" y1="1196.96" x2="7539.37" y2="1887.46" gradientUnits="userSpaceOnUse">
<stop stop-color="#DEBCFF"/>
<stop offset="0.23" stop-color="#DFAAF8"/>
<stop offset="0.68" stop-color="#CA7CE5"/>
<stop offset="1" stop-color="#B657D7"/>
</linearGradient>
<linearGradient id="paint1_linear" x1="6923.53" y1="1832.04" x2="8320.27" y2="1832.04" gradientUnits="userSpaceOnUse">
<stop stop-color="#F4E9FD"/>
<stop offset="0.36" stop-color="#EAD2F9"/>
<stop offset="0.71" stop-color="#EAC4F7"/>
<stop offset="1" stop-color="#EBBFF6"/>
</linearGradient>
<linearGradient id="paint2_linear" x1="79.7453" y1="35.6697" x2="79.7463" y2="83.1977" gradientUnits="userSpaceOnUse">
<stop stop-color="#F5E9FD" stop-opacity="0"/>
<stop offset="0.515094" stop-color="#F4E9FD"/>
<stop offset="1" stop-color="#F7E9FD"/>
</linearGradient>
<linearGradient id="paint3_linear" x1="7155.28" y1="1145.2" x2="7631.05" y2="1835.7" gradientUnits="userSpaceOnUse">
<stop stop-color="#BCBEFF"/>
<stop offset="0.23" stop-color="#AAADF8"/>
<stop offset="0.68" stop-color="#7C83E5"/>
<stop offset="1" stop-color="#5761D7"/>
</linearGradient>
<linearGradient id="paint4_linear" x1="7015.21" y1="1778.17" x2="8411.95" y2="1778.17" gradientUnits="userSpaceOnUse">
<stop stop-color="#E9E9FD"/>
<stop offset="0.36" stop-color="#D3D2F9"/>
<stop offset="0.71" stop-color="#C5C4F7"/>
<stop offset="1" stop-color="#C0BFF6"/>
</linearGradient>
<linearGradient id="paint5_linear" x1="111.494" y1="59.5442" x2="143.206" y2="59.5442" gradientUnits="userSpaceOnUse">
<stop stop-color="#BCBEFF"/>
<stop offset="0.512566" stop-color="#A6A4E2"/>
<stop offset="1" stop-color="#8987C9"/>
</linearGradient>
<linearGradient id="paint6_linear" x1="8116.86" y1="1697.09" x2="9747.48" y2="1697.09" gradientUnits="userSpaceOnUse">
<stop stop-color="#E9E9FD"/>
<stop offset="0.36" stop-color="#D3D2F9"/>
<stop offset="0.71" stop-color="#C5C4F7"/>
<stop offset="1" stop-color="#C0BFF6"/>
</linearGradient>
<linearGradient id="paint7_linear" x1="7559.85" y1="1582.15" x2="9076.78" y2="1582.15" gradientUnits="userSpaceOnUse">
<stop stop-color="#E9E9FD"/>
<stop offset="0.36" stop-color="#D3D2F9"/>
<stop offset="0.71" stop-color="#C5C4F7"/>
<stop offset="1" stop-color="#C0BFF6"/>
</linearGradient>
<linearGradient id="paint8_linear" x1="111.494" y1="54.2629" x2="143.206" y2="54.2629" gradientUnits="userSpaceOnUse">
<stop stop-color="#BCBEFF"/>
<stop offset="0.512566" stop-color="#A6A4E2"/>
<stop offset="1" stop-color="#8987C9"/>
</linearGradient>
<linearGradient id="paint9_linear" x1="8116.86" y1="1691.81" x2="9747.48" y2="1691.81" gradientUnits="userSpaceOnUse">
<stop stop-color="#E9E9FD"/>
<stop offset="0.36" stop-color="#D3D2F9"/>
<stop offset="0.71" stop-color="#C5C4F7"/>
<stop offset="1" stop-color="#C0BFF6"/>
</linearGradient>
<linearGradient id="paint10_linear" x1="7559.85" y1="1576.87" x2="9076.78" y2="1576.87" gradientUnits="userSpaceOnUse">
<stop stop-color="#E9E9FD"/>
<stop offset="0.36" stop-color="#D3D2F9"/>
<stop offset="0.71" stop-color="#C5C4F7"/>
<stop offset="1" stop-color="#C0BFF6"/>
</linearGradient>
<linearGradient id="paint11_linear" x1="111.494" y1="48.4533" x2="143.206" y2="48.4533" gradientUnits="userSpaceOnUse">
<stop stop-color="#BCBEFF"/>
<stop offset="0.512566" stop-color="#A6A4E2"/>
<stop offset="1" stop-color="#8987C9"/>
</linearGradient>
<linearGradient id="paint12_linear" x1="8116.86" y1="1686" x2="9747.48" y2="1686" gradientUnits="userSpaceOnUse">
<stop stop-color="#E9E9FD"/>
<stop offset="0.36" stop-color="#D3D2F9"/>
<stop offset="0.71" stop-color="#C5C4F7"/>
<stop offset="1" stop-color="#C0BFF6"/>
</linearGradient>
<linearGradient id="paint13_linear" x1="7559.85" y1="1571.06" x2="9076.78" y2="1571.06" gradientUnits="userSpaceOnUse">
<stop stop-color="#E9E9FD"/>
<stop offset="0.36" stop-color="#D3D2F9"/>
<stop offset="0.71" stop-color="#C5C4F7"/>
<stop offset="1" stop-color="#C0BFF6"/>
</linearGradient>
<linearGradient id="paint14_linear" x1="7142.3" y1="1236.96" x2="7618.06" y2="1927.46" gradientUnits="userSpaceOnUse">
<stop stop-color="#DEBCFF"/>
<stop offset="0.23" stop-color="#DFAAF8"/>
<stop offset="0.68" stop-color="#CA7CE5"/>
<stop offset="1" stop-color="#B657D7"/>
</linearGradient>
<linearGradient id="paint15_linear" x1="7002.22" y1="1872.04" x2="8398.96" y2="1872.04" gradientUnits="userSpaceOnUse">
<stop stop-color="#F4E9FD"/>
<stop offset="0.36" stop-color="#EAD2F9"/>
<stop offset="0.71" stop-color="#EAC4F7"/>
<stop offset="1" stop-color="#EBBFF6"/>
</linearGradient>
<linearGradient id="paint16_linear" x1="158.437" y1="75.674" x2="158.438" y2="123.202" gradientUnits="userSpaceOnUse">
<stop stop-color="#F5E9FD" stop-opacity="0"/>
<stop offset="0.515094" stop-color="#F4E9FD"/>
<stop offset="1" stop-color="#F7E9FD"/>
</linearGradient>
<linearGradient id="paint17_linear" x1="7233.97" y1="1185.2" x2="7709.74" y2="1875.71" gradientUnits="userSpaceOnUse">
<stop stop-color="#BCBEFF"/>
<stop offset="0.23" stop-color="#AAADF8"/>
<stop offset="0.68" stop-color="#7C83E5"/>
<stop offset="1" stop-color="#5761D7"/>
</linearGradient>
<linearGradient id="paint18_linear" x1="7093.9" y1="1818.17" x2="8490.64" y2="1818.17" gradientUnits="userSpaceOnUse">
<stop stop-color="#E9E9FD"/>
<stop offset="0.36" stop-color="#D3D2F9"/>
<stop offset="0.71" stop-color="#C5C4F7"/>
<stop offset="1" stop-color="#C0BFF6"/>
</linearGradient>
<linearGradient id="paint19_linear" x1="190.186" y1="99.5483" x2="221.897" y2="99.5483" gradientUnits="userSpaceOnUse">
<stop stop-color="#BCBEFF"/>
<stop offset="0.512566" stop-color="#A6A4E2"/>
<stop offset="1" stop-color="#8987C9"/>
</linearGradient>
<linearGradient id="paint20_linear" x1="8195.55" y1="1737.1" x2="9826.18" y2="1737.1" gradientUnits="userSpaceOnUse">
<stop stop-color="#E9E9FD"/>
<stop offset="0.36" stop-color="#D3D2F9"/>
<stop offset="0.71" stop-color="#C5C4F7"/>
<stop offset="1" stop-color="#C0BFF6"/>
</linearGradient>
<linearGradient id="paint21_linear" x1="7638.54" y1="1622.16" x2="9155.47" y2="1622.16" gradientUnits="userSpaceOnUse">
<stop stop-color="#E9E9FD"/>
<stop offset="0.36" stop-color="#D3D2F9"/>
<stop offset="0.71" stop-color="#C5C4F7"/>
<stop offset="1" stop-color="#C0BFF6"/>
</linearGradient>
<linearGradient id="paint22_linear" x1="190.186" y1="94.2669" x2="221.897" y2="94.2669" gradientUnits="userSpaceOnUse">
<stop stop-color="#BCBEFF"/>
<stop offset="0.512566" stop-color="#A6A4E2"/>
<stop offset="1" stop-color="#8987C9"/>
</linearGradient>
<linearGradient id="paint23_linear" x1="8195.55" y1="1731.81" x2="9826.18" y2="1731.81" gradientUnits="userSpaceOnUse">
<stop stop-color="#E9E9FD"/>
<stop offset="0.36" stop-color="#D3D2F9"/>
<stop offset="0.71" stop-color="#C5C4F7"/>
<stop offset="1" stop-color="#C0BFF6"/>
</linearGradient>
<linearGradient id="paint24_linear" x1="7638.54" y1="1616.88" x2="9155.47" y2="1616.88" gradientUnits="userSpaceOnUse">
<stop stop-color="#E9E9FD"/>
<stop offset="0.36" stop-color="#D3D2F9"/>
<stop offset="0.71" stop-color="#C5C4F7"/>
<stop offset="1" stop-color="#C0BFF6"/>
</linearGradient>
<linearGradient id="paint25_linear" x1="190.186" y1="88.4573" x2="221.897" y2="88.4573" gradientUnits="userSpaceOnUse">
<stop stop-color="#BCBEFF"/>
<stop offset="0.512566" stop-color="#A6A4E2"/>
<stop offset="1" stop-color="#8987C9"/>
</linearGradient>
<linearGradient id="paint26_linear" x1="8195.55" y1="1726" x2="9826.18" y2="1726" gradientUnits="userSpaceOnUse">
<stop stop-color="#E9E9FD"/>
<stop offset="0.36" stop-color="#D3D2F9"/>
<stop offset="0.71" stop-color="#C5C4F7"/>
<stop offset="1" stop-color="#C0BFF6"/>
</linearGradient>
<linearGradient id="paint27_linear" x1="7638.54" y1="1611.07" x2="9155.47" y2="1611.07" gradientUnits="userSpaceOnUse">
<stop stop-color="#E9E9FD"/>
<stop offset="0.36" stop-color="#D3D2F9"/>
<stop offset="0.71" stop-color="#C5C4F7"/>
<stop offset="1" stop-color="#C0BFF6"/>
</linearGradient>
<clipPath id="clip0">
<rect width="305" height="169" fill="white"/>
</clipPath>
<clipPath id="clip1">
<rect width="14.1022" height="12.5597" fill="white" transform="translate(73.0352 53.7487)"/>
</clipPath>
<clipPath id="clip2">
<rect width="14.1022" height="12.5597" fill="white" transform="translate(151.73 93.7528)"/>
</clipPath>
</defs>
</svg>
