<svg width="262" height="233" viewBox="0 0 262 233" fill="none" xmlns="http://www.w3.org/2000/svg">
<rect opacity="0.05" width="150.177" height="151.446" rx="1.44" transform="matrix(0.865915 -0.500192 0.865915 0.500192 0 157.248)" fill="#8686B3"/>
<rect opacity="0.4" width="58.8129" height="57.4143" rx="1.44" transform="matrix(0.865915 -0.500191 0.865915 0.500191 80.9023 123.103)" fill="#357AFF"/>
<rect opacity="0.4" width="58.813" height="57.4143" rx="1.44" transform="matrix(0.865915 -0.500191 0.865915 0.500191 22.625 157.699)" fill="#357AFF"/>
<rect opacity="0.4" width="58.813" height="57.4143" rx="1.44" transform="matrix(0.865915 -0.500191 0.865915 0.500191 79.6719 191.373)" fill="#594E9B"/>
<rect opacity="0.4" width="58.813" height="57.4144" rx="1.44" transform="matrix(0.865915 -0.500192 0.865915 0.500192 137.539 157.289)" fill="#266371"/>
<path d="M187.06 144.04C187.109 144.007 187.167 143.988 187.226 143.986C187.286 143.984 187.345 143.999 187.396 144.029C187.541 144.132 187.653 144.275 187.717 144.441C187.851 144.761 187.932 145.099 187.959 145.445C188.014 145.994 187.972 146.548 187.833 147.082C189.042 147.198 190.205 147.606 191.22 148.273C191.383 147.815 191.62 147.388 191.923 147.008C192.182 146.658 192.506 146.36 192.877 146.132C192.957 146.077 193.048 146.039 193.143 146.021C193.238 146.003 193.336 146.006 193.43 146.028C193.504 146.069 193.564 146.132 193.603 146.208C193.641 146.284 193.656 146.37 193.645 146.454C193.623 146.792 193.53 147.122 193.371 147.422C193.079 148.027 192.656 148.561 192.134 148.985C192.662 149.466 193.119 150.019 193.492 150.628L192.473 151.248C191.923 150.34 191.15 149.588 190.229 149.061C189.308 148.534 188.268 148.249 187.208 148.234C186.147 148.22 185.099 148.475 184.164 148.976C183.228 149.477 182.435 150.207 181.859 151.099L180.859 150.452C181.239 149.868 181.697 149.34 182.221 148.882C181.784 148.494 181.423 148.028 181.156 147.507C180.98 147.191 180.872 146.841 180.839 146.48C180.827 146.399 180.837 146.316 180.867 146.239C180.898 146.162 180.947 146.095 181.011 146.043C181.089 146.01 181.172 145.996 181.256 146.001C181.34 146.006 181.422 146.03 181.495 146.072C181.813 146.235 182.097 146.458 182.33 146.73C182.71 147.145 183.012 147.624 183.223 148.145C184.256 147.51 185.428 147.137 186.638 147.058C186.506 146.533 186.465 145.988 186.518 145.449C186.544 145.11 186.623 144.776 186.751 144.46C186.813 144.294 186.92 144.149 187.06 144.04V144.04Z" fill="#277A9F"/>
<path d="M177.193 151.876H178.628V153.896H180.245V151.876H181.68V157.301H180.245V155.148H178.628V157.302H177.193V151.876Z" fill="#277A9F"/>
<path d="M182.85 151.876H186.352V153.077H184.285V153.929H186.053V155.13H184.285V156.097H186.436V157.299H182.85V151.876Z" fill="#277A9F"/>
<path d="M187.508 151.876H188.942V156.098H190.992V157.3H187.508V151.876Z" fill="#277A9F"/>
<path d="M191.934 151.876H193.468L194.185 153.822C194.342 154.227 194.444 154.649 194.576 155.062C194.604 155.027 194.624 154.987 194.634 154.943C194.717 154.652 194.803 154.361 194.895 154.071C195.152 153.34 195.41 152.608 195.669 151.876H197.205V157.301H195.901C195.879 156.468 195.899 155.634 195.961 154.803C195.994 154.45 196.052 154.098 196.081 153.744C196.043 153.794 196.014 153.852 195.999 153.913C195.662 154.903 195.306 155.886 194.931 156.861C194.676 156.856 194.422 156.861 194.167 156.861L193.511 155.094C193.383 154.722 193.259 154.342 193.134 153.967C193.118 153.888 193.085 153.814 193.037 153.749C193.133 154.43 193.193 155.116 193.217 155.804V157.303H191.934V151.876Z" fill="#277A9F"/>
<path d="M181 158.723L181.978 158.042C182.555 158.873 183.325 159.551 184.221 160.019C185.118 160.487 186.114 160.731 187.125 160.73C188.136 160.729 189.132 160.483 190.027 160.014C190.923 159.544 191.691 158.865 192.267 158.033L193.246 158.712C192.946 159.143 192.603 159.543 192.221 159.903C192.676 160.297 193.052 160.775 193.326 161.311C193.502 161.627 193.61 161.976 193.644 162.336C193.656 162.421 193.645 162.508 193.61 162.587C193.576 162.666 193.521 162.734 193.45 162.783C193.358 162.811 193.26 162.818 193.164 162.804C193.069 162.79 192.978 162.754 192.897 162.7C192.537 162.485 192.221 162.202 191.966 161.868C191.672 161.505 191.434 161.1 191.26 160.665C190.247 161.343 189.081 161.76 187.868 161.88C187.95 162.246 187.986 162.621 187.975 162.997C187.977 163.44 187.899 163.881 187.746 164.298C187.683 164.484 187.568 164.648 187.414 164.77C187.358 164.808 187.292 164.828 187.224 164.825C187.156 164.823 187.091 164.799 187.037 164.758C186.872 164.611 186.752 164.421 186.69 164.21C186.521 163.678 186.458 163.119 186.503 162.563C186.516 162.34 186.547 162.118 186.595 161.899C185.38 161.814 184.203 161.433 183.169 160.787C182.929 161.333 182.589 161.829 182.166 162.249C181.947 162.482 181.678 162.664 181.38 162.782C181.304 162.817 181.219 162.827 181.137 162.811C181.055 162.794 180.98 162.752 180.923 162.69C180.823 162.491 180.804 162.259 180.873 162.047C181.018 161.509 181.272 161.006 181.62 160.571C181.774 160.368 181.945 160.179 182.131 160.006C181.708 159.621 181.329 159.191 181 158.723V158.723Z" fill="#277A9F"/>
<path d="M126.598 180.279L133.806 184.402V192.499L126.598 188.372V180.279V180.279Z" fill="#813CF3"/>
<path d="M134.191 192.457L141.337 188.347V180.305L134.191 184.385V192.457Z" fill="#813CF3"/>
<path d="M118.967 184.008L126.176 188.131V180.038L118.967 175.915V184.008Z" fill="#813CF3"/>
<path d="M126.598 196.944L133.806 201.067V192.944L126.598 188.821V196.944V196.944Z" fill="#813CF3"/>
<g clip-path="url(#clip0)">
<path d="M68.0316 165.549C67.5073 165.549 67.0122 165.318 66.6773 164.9L61.5804 158.62C61.2454 158.201 61.1144 157.667 61.2454 157.147L63.0657 149.308C63.1822 148.789 63.5317 148.37 64.0124 148.139L71.3812 144.645C71.6142 144.53 71.8764 144.472 72.1385 144.472C72.4006 144.472 72.6627 144.53 72.8957 144.645L80.2646 148.124C80.7452 148.355 81.0947 148.774 81.2112 149.294L83.0315 157.133C83.1481 157.653 83.0315 158.187 82.6966 158.605L77.5996 164.885C77.2646 165.289 76.7695 165.535 76.2452 165.535L68.0318 165.549H68.0316Z" fill="#326DE6"/>
<path d="M79.5065 156.599C79.4919 156.599 79.4919 156.599 79.5065 156.599H79.4919C79.4774 156.599 79.4628 156.599 79.4628 156.584C79.4337 156.584 79.4046 156.57 79.3754 156.57C79.2735 156.555 79.1861 156.541 79.0987 156.541C79.055 156.541 79.0114 156.541 78.9531 156.526H78.9385C78.6327 156.498 78.3852 156.469 78.1521 156.397C78.0502 156.353 78.0211 156.295 77.9919 156.238C77.9919 156.223 77.9774 156.223 77.9774 156.209L77.788 156.151C77.8775 155.472 77.843 154.783 77.6861 154.116C77.5271 153.443 77.2511 152.803 76.8706 152.224L77.0163 152.094V152.066C77.0163 151.993 77.0308 151.921 77.089 151.849C77.2638 151.69 77.4823 151.56 77.7444 151.401C77.788 151.373 77.8317 151.358 77.8754 151.329C77.9628 151.286 78.0356 151.243 78.123 151.185C78.1376 151.171 78.1667 151.156 78.1958 151.127C78.2104 151.113 78.2249 151.113 78.2249 151.098C78.4288 150.925 78.4725 150.636 78.3269 150.449C78.254 150.348 78.123 150.29 77.9919 150.29C77.8755 150.29 77.7735 150.333 77.6716 150.405L77.6425 150.434C77.6134 150.449 77.5987 150.478 77.5696 150.492C77.4968 150.564 77.4385 150.622 77.3803 150.694C77.3512 150.723 77.3221 150.766 77.2784 150.795C77.0745 151.012 76.8851 151.185 76.6958 151.315C76.6522 151.344 76.6085 151.358 76.5648 151.358C76.5357 151.358 76.5065 151.358 76.4774 151.344H76.4483L76.2735 151.459C76.0842 151.257 75.8803 151.084 75.6765 150.911C74.7986 150.23 73.7422 149.815 72.6328 149.712L72.6182 149.525L72.5891 149.496C72.5454 149.453 72.4872 149.409 72.4726 149.308C72.458 149.077 72.4872 148.817 72.5163 148.529V148.514C72.5163 148.471 72.5308 148.413 72.5454 148.37C72.5599 148.283 72.5745 148.197 72.5891 148.096V147.966C72.5891 147.706 72.3852 147.489 72.1377 147.489C72.0211 147.489 71.9046 147.547 71.8173 147.634C71.73 147.72 71.6862 147.836 71.6862 147.966V148.081C71.6862 148.182 71.7008 148.269 71.7299 148.355C71.7444 148.399 71.7444 148.442 71.759 148.5V148.514C71.7881 148.803 71.8318 149.063 71.8027 149.294C71.7882 149.395 71.7299 149.438 71.6862 149.481L71.6571 149.51L71.6425 149.698C71.3803 149.727 71.1182 149.756 70.8561 149.813C69.7348 150.059 68.7445 150.622 67.9727 151.43L67.827 151.329H67.7979C67.7688 151.329 67.7396 151.344 67.7105 151.344C67.6668 151.344 67.6232 151.329 67.5794 151.3C67.3901 151.171 67.2008 150.983 66.997 150.766C66.9679 150.737 66.9388 150.694 66.895 150.665C66.8367 150.593 66.7785 150.535 66.7056 150.463C66.6911 150.449 66.662 150.434 66.6329 150.405C66.6183 150.391 66.6038 150.391 66.6038 150.377C66.5136 150.303 66.4004 150.262 66.2834 150.261C66.1522 150.261 66.0212 150.319 65.9484 150.42C65.8027 150.607 65.8465 150.896 66.0503 151.069C66.0649 151.069 66.0649 151.084 66.0794 151.084C66.1085 151.098 66.1231 151.127 66.1522 151.142C66.2396 151.199 66.3125 151.243 66.3998 151.286C66.4436 151.3 66.4872 151.329 66.531 151.358C66.793 151.517 67.0115 151.647 67.1863 151.806C67.2591 151.878 67.2591 151.95 67.2591 152.022V152.051L67.4047 152.181C67.3756 152.224 67.3465 152.253 67.3318 152.297C66.6037 153.437 66.327 154.78 66.5163 156.108L66.327 156.166C66.327 156.18 66.3125 156.18 66.3125 156.194C66.2834 156.252 66.2396 156.31 66.1522 156.353C65.9338 156.425 65.6717 156.454 65.3659 156.483H65.3513C65.3076 156.483 65.2493 156.483 65.2057 156.498C65.1183 156.498 65.0309 156.512 64.929 156.526C64.8999 156.526 64.8708 156.541 64.8416 156.541C64.8271 156.541 64.8125 156.541 64.7979 156.555C64.5358 156.613 64.3755 156.858 64.4193 157.089C64.463 157.292 64.6523 157.422 64.8853 157.422C64.929 157.422 64.9581 157.422 65.0018 157.407C65.0164 157.407 65.0309 157.407 65.0309 157.393C65.06 157.393 65.0891 157.378 65.1182 157.378C65.2202 157.349 65.2931 157.321 65.3805 157.277C65.4241 157.263 65.4678 157.234 65.5115 157.219H65.526C65.8027 157.118 66.0503 157.032 66.2834 157.003H66.3125C66.3998 157.003 66.4581 157.046 66.5018 157.075C66.5163 157.075 66.5163 157.09 66.5309 157.09L66.7348 157.061C67.0843 158.129 67.7542 159.082 68.6425 159.775C68.8464 159.933 69.0503 160.063 69.2688 160.193L69.1814 160.381C69.1814 160.395 69.1959 160.395 69.1959 160.41C69.225 160.468 69.2541 160.54 69.225 160.641C69.1377 160.857 69.0066 161.074 68.8464 161.319V161.334C68.8173 161.377 68.7882 161.406 68.7591 161.449C68.7008 161.521 68.6571 161.594 68.5988 161.68C68.5843 161.695 68.5697 161.724 68.5552 161.752C68.5552 161.767 68.5406 161.781 68.5406 161.781C68.4241 162.027 68.5115 162.301 68.7299 162.402C68.7881 162.431 68.8464 162.445 68.9047 162.445C69.0794 162.445 69.2542 162.33 69.3416 162.171C69.3416 162.157 69.3561 162.142 69.3561 162.142C69.3707 162.113 69.3852 162.085 69.3998 162.07C69.4435 161.969 69.4581 161.897 69.4872 161.81L69.5309 161.68C69.6328 161.392 69.7057 161.161 69.8367 160.958C69.8949 160.872 69.9678 160.857 70.026 160.829C70.0405 160.829 70.0405 160.829 70.0551 160.814L70.1571 160.626C70.7979 160.872 71.4969 161.002 72.1959 161.002C72.6182 161.002 73.0551 160.958 73.4629 160.857C73.7195 160.801 73.9724 160.728 74.2202 160.641L74.3075 160.8C74.3221 160.8 74.3221 160.8 74.3366 160.814C74.4095 160.829 74.4677 160.857 74.526 160.944C74.6424 161.146 74.7298 161.392 74.8317 161.666V161.68L74.8755 161.81C74.9046 161.897 74.9191 161.983 74.9628 162.07C74.9774 162.099 74.992 162.113 75.0065 162.142C75.0065 162.157 75.0211 162.171 75.0211 162.171C75.1084 162.344 75.2832 162.445 75.458 162.445C75.5162 162.445 75.5745 162.431 75.6327 162.402C75.7346 162.344 75.822 162.258 75.8512 162.142C75.8803 162.027 75.8803 161.897 75.8221 161.781C75.8221 161.767 75.8075 161.767 75.8075 161.752C75.7929 161.724 75.7784 161.695 75.7638 161.68C75.7201 161.594 75.6619 161.521 75.6036 161.449C75.5745 161.406 75.5454 161.377 75.5163 161.334V161.319C75.356 161.074 75.2104 160.857 75.1376 160.641C75.1085 160.54 75.1376 160.482 75.1522 160.41C75.1522 160.395 75.1667 160.395 75.1667 160.381L75.0939 160.208C75.8658 159.76 76.5211 159.125 77.0163 158.345C77.2784 157.941 77.4823 157.494 77.6278 157.046L77.8026 157.075C77.8172 157.075 77.8172 157.061 77.8317 157.061C77.89 157.032 77.9337 156.988 78.0211 156.988H78.0502C78.2832 157.017 78.5307 157.104 78.8075 157.205H78.8221C78.8657 157.219 78.9094 157.248 78.9531 157.263C79.0405 157.306 79.1133 157.335 79.2152 157.364C79.2443 157.364 79.2734 157.378 79.3026 157.378C79.3172 157.378 79.3317 157.378 79.3463 157.393C79.39 157.407 79.4191 157.407 79.4628 157.407C79.6812 157.407 79.8705 157.263 79.9288 157.075C79.9288 156.902 79.7686 156.671 79.5065 156.599V156.599ZM72.7638 155.891L72.123 156.194L71.4823 155.891L71.3222 155.213L71.759 154.664H72.4726L72.9095 155.213L72.7639 155.891H72.7638ZM76.5648 154.39C76.6778 154.867 76.7122 155.36 76.6667 155.848L74.4386 155.213C74.2347 155.155 74.1182 154.953 74.1619 154.751C74.1764 154.693 74.2056 154.635 74.2493 154.592L76.0114 153.018C76.2589 153.423 76.4482 153.885 76.5648 154.39V154.39ZM75.3124 152.152L73.4046 153.495C73.2444 153.596 73.0259 153.567 72.8949 153.408C72.8513 153.365 72.8367 153.307 72.8221 153.249L72.6911 150.896C73.6828 151.009 74.6068 151.452 75.3124 152.152V152.152ZM71.0891 150.968C71.2493 150.939 71.3949 150.911 71.5551 150.882L71.4241 153.192C71.4095 153.394 71.2493 153.567 71.0308 153.567C70.9726 153.567 70.8998 153.552 70.8561 153.524L68.9192 152.152C69.5164 151.56 70.259 151.156 71.0891 150.968V150.968ZM68.2202 153.018L69.9532 154.549C70.1134 154.679 70.1279 154.924 69.9969 155.083C69.9532 155.14 69.895 155.184 69.8221 155.198L67.5649 155.848C67.4775 154.866 67.6959 153.87 68.2202 153.018V153.018ZM67.8269 156.931L70.1426 156.541C70.3319 156.526 70.5066 156.656 70.5503 156.844C70.5648 156.931 70.5648 157.003 70.5357 157.075L69.6474 159.197C68.8319 158.677 68.1765 157.883 67.827 156.931H67.8269ZM73.1425 159.803C72.8075 159.876 72.4726 159.919 72.123 159.919C71.6134 159.919 71.1182 159.832 70.6523 159.688L71.8027 157.624C71.9192 157.494 72.1085 157.436 72.2687 157.523C72.3367 157.564 72.396 157.618 72.4435 157.681L73.5648 159.688C73.4337 159.731 73.2881 159.76 73.1424 159.803H73.1425ZM75.9822 157.797C75.6182 158.374 75.1375 158.836 74.5842 159.197L73.6668 157.017C73.6231 156.844 73.6959 156.656 73.8706 156.57C73.9288 156.541 74.0017 156.526 74.0745 156.526L76.4046 156.916C76.3172 157.234 76.1715 157.523 75.9822 157.797V157.797Z" fill="white"/>
</g>
<line opacity="0.2" x1="74.4277" y1="86.6483" x2="74.4277" y2="156.87" stroke="#8686B3" stroke-dasharray="5 5"/>
<line opacity="0.2" x1="189.752" y1="91.9868" x2="189.752" y2="154.817" stroke="#8686B3" stroke-dasharray="5 5"/>
<line opacity="0.2" x1="131.475" y1="129.356" x2="131.475" y2="192.187" stroke="#8686B3" stroke-dasharray="5 5"/>
<rect opacity="0.05" width="150.176" height="151.446" rx="1.44" transform="matrix(0.865915 -0.500192 0.865915 0.500192 0.820312 75.1171)" fill="#8686B3"/>
<rect opacity="0.9" width="126.343" height="124.507" rx="1.44" transform="matrix(0.865915 -0.500192 0.865915 0.500192 23.4453 74.75)" fill="#7173CD"/>
<path d="M140.24 60.5222V81.103L150.262 75.2894V54.3356L140.24 60.5222Z" fill="#33369F"/>
<path d="M131.673 43.1747L112.094 53.9314L122.827 60.5222L131.642 55.548L140.24 60.5222L150.262 54.3356L131.673 43.1747Z" fill="#B7B9E7"/>
<path d="M112.094 53.9315L122.858 60.5223L122.765 70.6884L134.766 77.217L134.889 88.3468L112.094 75.3517V53.9315Z" fill="#7173CD"/>
<path d="M131.643 55.548L140.241 60.5222C140.241 60.5222 140.265 70.826 140.265 70.6706C140.889 70.9723 131.766 66.1182 131.766 66.1182L131.643 55.548Z" fill="#7173CD"/>
<path d="M122.766 70.6882L131.766 66.1182L131.643 55.548L122.858 60.5222L122.766 70.6882Z" fill="#33369F"/>
<path d="M134.767 77.2169L122.766 70.6882L131.766 66.1182L143.273 72.2738L134.767 77.2169Z" fill="#B7B9E7"/>
<path d="M134.889 88.3467L143.117 82.7818L143.271 72.2738L134.766 77.2169L134.889 88.3467Z" fill="#33369F"/>
<defs>
<clipPath id="clip0">
<rect width="22.5725" height="21.7647" fill="white" transform="translate(60.793 144.14)"/>
</clipPath>
</defs>
</svg>
